<svg width="81" height="142" viewBox="0 0 81 142" fill="none" xmlns="http://www.w3.org/2000/svg">
<path d="M80.7424 0H0V141.92H80.7424V0Z" fill="#C82F10"/>
<path d="M71.2682 9.90869H9.479V32.267H71.2682V9.90869Z" stroke="white" stroke-width="6.6345"/>
<path d="M57.2849 13.8843V21.3866L55.0274 13.8843H52.7952V27.643H55.0274V20.9008L57.0443 27.643H59.5171V13.8843H57.2849Z" fill="#272425"/>
<path d="M15.8811 13.8843H13.8357H13.6489V27.643H15.8811V21.7435H17.9518V19.4135H15.8811V16.2143H19.0917V13.8843H15.8811Z" fill="#272425"/>
<path d="M42.6451 13.8843H36.4583V16.2143H38.4372V27.643H40.6694V16.2143H42.6451V13.8843Z" fill="#272425"/>
<path d="M61.7046 13.8843V27.643H67.1474V25.3129H63.9368V21.7435H66.0075V19.4135H63.9368V16.2143H67.1474V13.8843H61.7046Z" fill="#272425"/>
<path d="M35.4366 27.6431H33.1316L31.482 21.1124C31.482 21.1124 32.9004 20.8447 32.9004 19.2682V17.12C32.9004 16.6209 32.5142 16.2177 32.0361 16.2177H31.178V27.6431H28.9458V13.8877H32.0361C33.7015 13.8877 35.0535 15.2593 35.1263 16.9779H35.1326V19.2253H35.1263C35.1263 20.5836 34.702 21.5619 33.9231 22.1865L35.4366 27.6431Z" fill="#272425"/>
<path d="M48.4541 13.8862V24.6043C48.4541 25.1034 48.0647 25.5099 47.5866 25.5099C47.1085 25.5099 46.719 25.1067 46.719 24.6043V13.8862H44.4868V24.6043C44.4868 26.389 45.8736 27.8399 47.5866 27.8399C49.2963 27.8399 50.6863 26.3923 50.6863 24.6043V13.8862H48.4541Z" fill="#272425"/>
<path d="M20.5447 16.9266V24.6041C20.5447 26.3888 21.9315 27.8397 23.6444 27.8397C25.3574 27.8397 26.7442 26.3921 26.7442 24.6041V16.9266C26.7442 15.1419 25.3574 13.6943 23.6476 13.6943C21.9315 13.6943 20.5447 15.1419 20.5447 16.9266ZM22.7769 24.6041V16.9266C22.7769 16.4276 23.1632 16.021 23.6444 16.021H23.6476C24.1257 16.021 24.512 16.4243 24.512 16.9233V24.6008C24.512 25.0999 24.1257 25.5064 23.6444 25.5064C23.1632 25.5064 22.7769 25.1032 22.7769 24.6041Z" fill="#272425"/>
<path d="M55.9359 56.5144C55.9359 47.6008 49.0145 40.3794 40.4784 40.3794C31.9422 40.3794 25.0208 47.6041 25.0208 56.5144C25.0208 65.4246 31.9422 72.6493 40.4784 72.6493C49.0145 72.6526 55.9359 65.4279 55.9359 56.5144Z" fill="white"/>
<path d="M40.4777 41.3222C32.4544 41.3222 25.9224 48.1371 25.9224 56.5152C25.9224 64.8901 32.4544 71.705 40.4777 71.705C48.5009 71.705 55.0297 64.8901 55.0297 56.5152C55.0329 48.1371 48.5041 41.3222 40.4777 41.3222ZM40.4777 73.5921C31.4539 73.5921 24.1145 65.9312 24.1145 56.5152C24.1145 47.096 31.4539 39.4351 40.4777 39.4351C49.5014 39.4351 56.8376 47.096 56.8376 56.5152C56.8408 65.9312 49.5014 73.5921 40.4777 73.5921Z" fill="#272425"/>
<path d="M48.792 89.9085L40.4299 81.9468L32.0679 89.9085V59.3638H48.792V89.9085Z" fill="white"/>
<path d="M32.9757 60.3066V87.7678L40.4353 80.6686L47.895 87.7678V60.3066H32.9757ZM49.7029 92.0444L40.4353 83.2234L31.1677 92.0444V58.4194H49.7029V92.0444Z" fill="#272425"/>
<path d="M40.4702 32.3657L45.666 49.0493H62.4725L48.8734 59.3642L54.0692 76.0478L40.4702 65.7362L26.8744 76.0478L32.067 59.3642L18.468 49.0493H35.2776L40.4702 32.3657Z" fill="white"/>
<path d="M21.2572 49.9965L33.1338 59.0026L28.5965 73.5809L40.4731 64.5715L52.3528 73.5809L47.8156 59.0026L59.6922 49.9965H45.0103L40.4731 35.4215L35.9359 49.9965H21.2572ZM55.7977 78.5219L40.4794 66.9081L25.1643 78.5219L31.0124 59.7264L15.6941 48.1093H34.6282L40.4794 29.3105L46.3307 48.1093H65.2648L49.9465 59.7264L55.7977 78.5219Z" fill="#272425"/>
<path d="M41.3399 66.7671H39.532V81.9469H41.3399V66.7671Z" fill="#272425"/>
<path d="M44.9301 48.4923L42.8508 51.4785L44.3133 52.588L46.3925 49.6018L44.9301 48.4923Z" fill="#272425"/>
<path d="M36.0102 48.4913L34.5476 49.6006L36.6265 52.5871L38.0891 51.4779L36.0102 48.4913Z" fill="#272425"/>
<path d="M41.3768 62.3169H39.5688V65.7409H41.3768V62.3169Z" fill="#272425"/>
<path d="M45.9493 57.3948L45.386 59.188L48.5119 60.258L49.0752 58.4648L45.9493 57.3948Z" fill="#272425"/>
<path d="M35.0001 57.3987L31.8718 58.4722L32.4364 60.265L35.5647 59.1915L35.0001 57.3987Z" fill="#272425"/>
<path d="M12.2678 115.016H14.31C15.3929 115.016 15.852 115.525 15.852 116.265V116.292C15.852 116.827 15.5892 117.181 15.0763 117.32C15.6399 117.419 15.9913 117.776 15.9913 118.437V118.463C15.9913 119.319 15.4594 119.792 14.3259 119.792H12.2646V115.016H12.2678ZM14.0472 116.916C14.4557 116.916 14.6108 116.768 14.6108 116.427V116.401C14.6108 116.074 14.443 115.925 14.0472 115.925H13.547V116.913H14.0472V116.916ZM14.0916 118.88C14.5063 118.88 14.6995 118.678 14.6995 118.324V118.298C14.6995 117.938 14.5127 117.749 14.0536 117.749H13.547V118.88H14.0916Z" fill="white"/>
<path d="M16.6367 115.016H19.7998V116.07H17.9444V116.893H19.423V117.868H17.9444V118.738H19.9043V119.792H16.6399V115.016H16.6367Z" fill="white"/>
<path d="M20.3044 118.277H21.5519C21.5836 118.618 21.7324 118.899 22.277 118.899C22.6538 118.899 22.8659 118.704 22.8659 118.423C22.8659 118.129 22.6918 118.049 22.144 117.96C20.8522 117.798 20.4153 117.398 20.4153 116.436C20.4153 115.574 21.0928 114.946 22.1884 114.946C23.2902 114.946 23.9108 115.428 23.9931 116.436H22.7773C22.733 116.096 22.5461 115.921 22.1884 115.921C21.8369 115.921 21.6564 116.086 21.6564 116.327C21.6564 116.595 21.7957 116.714 22.3657 116.797C23.5245 116.929 24.1198 117.243 24.1198 118.281C24.1198 119.156 23.4548 119.87 22.277 119.87C20.9947 119.874 20.3424 119.312 20.3044 118.277Z" fill="white"/>
<path d="M25.5362 116.075H24.3521V115.021H28.0407V116.075H26.8565V119.797H25.5394V116.075H25.5362Z" fill="white"/>
<path d="M29.667 117.436V117.383C29.667 115.913 30.6644 114.944 32.0037 114.944C33.1942 114.944 34.0206 115.519 34.1282 116.782H32.7762C32.7256 116.293 32.4691 116.025 32.0068 116.025C31.4179 116.025 31.0475 116.508 31.0475 117.374V117.426C31.0475 118.289 31.3989 118.775 32.0258 118.775C32.4881 118.775 32.8142 118.52 32.8776 117.992H34.1852C34.0966 119.228 33.2385 119.869 32.0543 119.869C30.4554 119.875 29.667 118.9 29.667 117.436Z" fill="white"/>
<path d="M34.5474 117.436V117.383C34.5474 115.926 35.5986 114.951 36.9664 114.951C38.3627 114.951 39.3917 115.866 39.3917 117.35V117.403C39.3917 118.874 38.426 119.875 36.9474 119.875C35.4687 119.875 34.5474 118.874 34.5474 117.436ZM38.0239 117.423V117.37C38.0239 116.521 37.6154 116.021 36.9664 116.021C36.3205 116.021 35.9152 116.511 35.9152 117.377V117.429C35.9152 118.299 36.3363 118.798 36.9727 118.798C37.6186 118.801 38.0239 118.279 38.0239 117.423Z" fill="white"/>
<path d="M40.0583 115.016H41.7681L42.6452 117.561L43.5222 115.016H45.2003V119.795H43.8958V116.821L42.775 119.795H42.338L41.2299 116.821V119.795H40.0583V115.016Z" fill="white"/>
<path d="M46.1082 115.016H47.8496C49.1034 115.016 49.686 115.598 49.686 116.612V116.639C49.686 117.64 49.0401 118.182 47.9066 118.182H47.4126V119.792H46.1082V115.016ZM47.7926 117.25C48.2137 117.25 48.4385 117.042 48.4385 116.649V116.622C48.4385 116.216 48.2074 116.047 47.7989 116.047H47.4158V117.25H47.7926Z" fill="white"/>
<path d="M51.1073 115.016H52.8044L54.2577 119.795H52.8678L52.624 118.906H51.1073L50.8635 119.795H49.6414L51.1073 115.016ZM51.3638 117.964H52.3675L51.8672 116.127L51.3638 117.964Z" fill="white"/>
<path d="M54.8032 115.016H56.2819L57.7478 117.71V115.016H58.894V119.795H57.6275L55.9557 116.794V119.795H54.8032V115.016Z" fill="white"/>
<path d="M59.8306 115.016H61.1572V119.795H59.8306V115.016Z" fill="white"/>
<path d="M62.0779 115.016H65.241V116.07H63.3855V116.893H64.8642V117.868H63.3855V118.738H65.3454V119.792H62.0811V115.016H62.0779Z" fill="white"/>
<path d="M65.7456 118.277H66.9963C67.0279 118.618 67.1768 118.899 67.7213 118.899C68.0981 118.899 68.3103 118.704 68.3103 118.423C68.3103 118.129 68.1361 118.049 67.5884 117.96C66.2965 117.798 65.8596 117.398 65.8596 116.436C65.8596 115.574 66.5372 114.946 67.6327 114.946C68.7345 114.946 69.3551 115.428 69.4374 116.436H68.2216C68.1773 116.096 67.9905 115.921 67.6327 115.921C67.2812 115.921 67.1008 116.086 67.1008 116.327C67.1008 116.595 67.2401 116.714 67.81 116.797C68.9688 116.929 69.5641 117.243 69.5641 118.281C69.5641 119.156 68.8992 119.87 67.7213 119.87C66.439 119.874 65.7836 119.312 65.7456 118.277Z" fill="white"/>
<path d="M11.0804 125.336H9.89624V124.281H13.5849V125.336H12.4007V129.057H11.0836V125.336H11.0804Z" fill="white"/>
<path d="M13.7844 126.701V126.648C13.7844 125.191 14.8356 124.216 16.2034 124.216C17.5997 124.216 18.6288 125.131 18.6288 126.615V126.668C18.6288 128.139 17.6631 129.14 16.1844 129.14C14.7058 129.14 13.7844 128.136 13.7844 126.701ZM17.2578 126.688V126.635C17.2578 125.786 16.8493 125.287 16.2003 125.287C15.5544 125.287 15.1491 125.776 15.1491 126.642V126.695C15.1491 127.564 15.5733 128.063 16.2066 128.063C16.8557 128.063 17.2578 127.541 17.2578 126.688Z" fill="white"/>
<path d="M20.208 124.281H21.5315L22.1204 127.262L22.7347 124.281H23.8998L24.5648 127.289L25.1853 124.281H26.4012L25.331 129.06H23.96L23.2571 126.026L22.5479 129.06H21.2687L20.208 124.281Z" fill="white"/>
<path d="M26.5579 126.701V126.648C26.5579 125.191 27.609 124.216 28.9769 124.216C30.3732 124.216 31.4022 125.131 31.4022 126.615V126.668C31.4022 128.139 30.4365 129.14 28.9579 129.14C27.4792 129.14 26.5579 128.136 26.5579 126.701ZM30.0344 126.688V126.635C30.0344 125.786 29.6259 125.287 28.9769 125.287C28.3278 125.287 27.9257 125.776 27.9257 126.642V126.695C27.9257 127.564 28.3468 128.063 28.9832 128.063C29.6323 128.063 30.0344 127.541 30.0344 126.688Z" fill="white"/>
<path d="M32.0688 124.281H33.8609C35.0578 124.281 35.7227 124.79 35.7227 125.798V125.825C35.7227 126.506 35.3776 126.886 34.8963 127.081L35.9918 129.057H34.6082L33.6805 127.345H33.3733V129.057H32.0688V124.281ZM33.7976 126.459C34.2409 126.459 34.4562 126.264 34.4562 125.878V125.851C34.4562 125.464 34.2251 125.309 33.8039 125.309H33.3765V126.459H33.7976Z" fill="white"/>
<path d="M36.5571 124.281H37.8743V126.172L39.2516 124.281H40.6226L38.9445 126.499L40.7112 129.057H39.1946L37.8743 127.061V129.057H36.5571V124.281Z" fill="white"/>
<path d="M42.4846 124.281H45.5749V125.342H43.8018V126.357H45.2171V127.365H43.8018V129.057H42.4846V124.281Z" fill="white"/>
<path d="M45.9136 126.701V126.648C45.9136 125.191 46.9648 124.216 48.3326 124.216C49.7289 124.216 50.7579 125.131 50.7579 126.615V126.668C50.7579 128.139 49.7922 129.14 48.3136 129.14C46.8349 129.14 45.9136 128.136 45.9136 126.701ZM49.3869 126.688V126.635C49.3869 125.786 48.9785 125.287 48.3294 125.287C47.6803 125.287 47.2782 125.776 47.2782 126.642V126.695C47.2782 127.564 47.7025 128.063 48.3357 128.063C48.9848 128.063 49.3869 127.541 49.3869 126.688Z" fill="white"/>
<path d="M51.4246 124.281H53.2167C54.4135 124.281 55.0784 124.79 55.0784 125.798V125.825C55.0784 126.506 54.7333 126.886 54.252 127.081L55.3475 129.057H53.9639L53.0362 127.345H52.7291V129.057H51.4246V124.281ZM53.1533 126.459C53.5966 126.459 53.8119 126.264 53.8119 125.878V125.851C53.8119 125.464 53.5808 125.309 53.1597 125.309H52.7322V126.459H53.1533Z" fill="white"/>
<path d="M72.0316 121.481H8.90942V122.016H72.0316V121.481Z" fill="white"/>
<path d="M60.2966 106.622C57.2634 106.622 56.057 104.804 56.057 100.818V99.9259C56.057 95.9698 57.2634 94.1223 60.2238 94.1223C63.1494 94.1223 64.3558 95.9731 64.3558 99.9589V100.788C64.3558 104.741 63.2222 106.622 60.2966 106.622ZM60.0402 112.204C67.6803 112.204 72.5816 107.993 72.5816 100.656V99.7937C72.5816 92.2351 67.1357 88.6294 60.189 88.6294C53.2074 88.6294 47.8311 92.6483 47.8311 99.9523V100.845C47.8311 108.122 52.5108 112.204 60.0402 112.204ZM34.5234 106.622C31.4902 106.622 30.2838 104.804 30.2838 100.818V99.9259C30.2838 95.9698 31.4901 94.1223 34.4506 94.1223C37.3762 94.1223 38.5825 95.9731 38.5825 99.9589V100.788C38.5794 104.741 37.449 106.622 34.5234 106.622ZM34.2669 112.204C41.9071 112.204 46.8084 107.993 46.8084 100.656V99.7937C46.8084 92.2351 41.3625 88.6294 34.4158 88.6294C27.4342 88.6294 22.0579 92.6483 22.0579 99.9523V100.845C22.0547 108.122 26.7345 112.204 34.2669 112.204ZM12.8441 111.791H21.1429V88.9863H14.0125L8.01562 92.6218V98.6171L12.841 96.0987V111.791H12.8441Z" fill="white"/>
<path d="M57.915 129.006L59.7135 127.03C60.1251 126.574 60.3657 126.144 60.3657 125.662C60.3657 125.133 60.0681 124.816 59.5552 124.816C59.0296 124.816 58.6876 125.126 58.5989 125.867H58.086C58.1557 124.941 58.6939 124.353 59.5552 124.353C60.391 124.353 60.923 124.869 60.923 125.682C60.923 126.263 60.5684 126.832 60.0111 127.4L58.7636 128.669H60.9483V129.139H57.915V129.006Z" fill="white"/>
<path d="M61.4788 126.911V126.647C61.4788 125.252 62.1563 124.353 63.2645 124.353C64.379 124.353 65.0313 125.285 65.0313 126.633V126.898C65.0313 128.273 64.3917 129.198 63.2772 129.198C62.1943 129.198 61.4788 128.286 61.4788 126.911ZM64.474 126.891V126.627C64.474 125.53 64.0308 124.816 63.2645 124.816C62.4983 124.816 62.0424 125.477 62.0424 126.64V126.904C62.0424 128.101 62.5236 128.722 63.2772 128.722C64.0687 128.722 64.474 128.088 64.474 126.891Z" fill="white"/>
<path d="M65.3672 129.006L67.1656 127.03C67.5772 126.574 67.8179 126.144 67.8179 125.662C67.8179 125.133 67.5202 124.816 67.0073 124.816C66.4817 124.816 66.1398 125.126 66.0511 125.867H65.5382C65.6078 124.941 66.1461 124.353 67.0073 124.353C67.8432 124.353 68.3751 124.869 68.3751 125.682C68.3751 126.263 68.0205 126.832 67.4632 127.4L66.2157 128.669H68.4004V129.139H65.3672V129.006Z" fill="white"/>
<path d="M68.9126 129.006L70.711 127.03C71.1226 126.574 71.3633 126.144 71.3633 125.662C71.3633 125.133 71.0656 124.816 70.5527 124.816C70.0271 124.816 69.6852 125.126 69.5965 125.867H69.0836C69.1532 124.941 69.6915 124.353 70.5527 124.353C71.3886 124.353 71.9205 124.869 71.9205 125.682C71.9205 126.263 71.5659 126.832 71.0086 127.4L69.7611 128.669H71.9459V129.139H68.9126V129.006Z" fill="white"/>
<path d="M56.7872 125.016C56.7872 125.386 56.5086 125.674 56.1508 125.674C55.793 125.674 55.5081 125.383 55.5081 125.016C55.5081 124.656 55.793 124.365 56.1508 124.365C56.5118 124.365 56.7872 124.656 56.7872 125.016ZM55.6664 125.016C55.6664 125.307 55.8722 125.535 56.154 125.535C56.4263 125.535 56.6289 125.303 56.6289 125.019C56.6289 124.728 56.4294 124.497 56.1508 124.497C55.8722 124.497 55.6664 124.728 55.6664 125.016ZM56.0495 125.356H55.9038V124.705C55.9608 124.692 56.04 124.685 56.1445 124.685C56.2616 124.685 56.3154 124.705 56.3598 124.732C56.3946 124.758 56.4199 124.811 56.4199 124.874C56.4199 124.946 56.3661 124.999 56.2901 125.026V125.032C56.3503 125.055 56.3851 125.105 56.4041 125.191C56.4231 125.29 56.4358 125.33 56.4484 125.353H56.2933C56.2743 125.33 56.2616 125.27 56.2426 125.194C56.23 125.122 56.192 125.092 56.1128 125.092H56.0432V125.356H56.0495ZM56.0558 124.986H56.1255C56.2046 124.986 56.2711 124.96 56.2711 124.89C56.2711 124.831 56.23 124.791 56.1381 124.791C56.1002 124.791 56.0748 124.794 56.059 124.798V124.986H56.0558Z" fill="white"/>
<path d="M72.0316 131.099H8.90942V131.635H72.0316V131.099Z" fill="white"/>
</svg>
