<svg width="235" height="127" viewBox="0 0 235 127" fill="none" xmlns="http://www.w3.org/2000/svg">
<g clip-path="url(#clip0_736_95)">
<path d="M102.511 17.6666C101.707 17.7336 100.9 17.7272 100.107 17.9187C97.1759 18.6207 95.5649 20.5131 94.8984 23.2288C94.5735 24.5564 94.5266 25.919 94.4865 27.2784C94.4798 27.521 94.4396 27.6965 94.1214 27.6008C94.0477 27.4827 94.0912 27.355 94.0946 27.2306C94.1214 25.4212 94.1448 23.6118 93.3343 21.9109C92.641 20.4557 91.6329 19.2781 90.1693 18.4707C89.2917 17.9857 88.3272 17.8453 87.3458 17.7623C87.0678 17.74 86.7865 17.7623 86.5085 17.7527C86.3008 17.7495 86.0128 17.7846 86.0061 17.5102C85.9961 17.2198 86.2874 17.2772 86.4918 17.2645C86.9439 17.2421 87.3994 17.2517 87.8482 17.2006C90.0855 16.9613 91.7401 15.8603 92.8688 14.0222C93.7128 12.6468 94.0075 11.131 94.0611 9.55773C94.0745 9.16202 94.0544 8.76632 94.0511 8.3738C94.0511 8.25572 94.0577 8.1185 94.2085 8.10893C94.3759 8.09616 94.4798 8.20467 94.4999 8.36103C94.5132 8.47273 94.4999 8.5908 94.4965 8.70568C94.4429 10.3396 94.6137 11.9352 95.3372 13.4382C96.4123 15.6753 98.2276 16.9581 100.776 17.3155C101.359 17.3985 101.945 17.3091 102.518 17.4368V17.6666H102.511Z" fill="#F9CF1A"/>
<path d="M236.35 59.2862C235.546 59.3532 234.739 59.3468 233.945 59.5383C231.015 60.2404 229.404 62.1327 228.737 64.8484C228.412 66.176 228.366 67.5386 228.325 68.8981C228.319 69.1406 228.278 69.3161 227.96 69.2204C227.887 69.1023 227.93 68.9747 227.933 68.8502C227.96 67.0408 227.984 65.2314 227.173 63.5305C226.48 62.0753 225.472 60.8977 224.008 60.0904C223.131 59.6053 222.166 59.4649 221.185 59.3819C220.907 59.3596 220.625 59.3819 220.347 59.3724C220.14 59.3692 219.852 59.4043 219.845 59.1298C219.835 58.8394 220.126 58.8969 220.331 58.8841C220.783 58.8618 221.238 58.8713 221.687 58.8203C223.924 58.5809 225.579 57.48 226.708 55.6418C227.552 54.2664 227.846 52.7506 227.9 51.1774C227.913 50.7817 227.893 50.3859 227.89 49.9934C227.89 49.8754 227.897 49.7381 228.047 49.7286C228.215 49.7158 228.319 49.8243 228.339 49.9807C228.352 50.0924 228.339 50.2104 228.335 50.3253C228.282 51.9592 228.453 53.5548 229.176 55.0579C230.251 57.2949 232.066 58.5777 234.615 58.9352C235.198 59.0181 235.784 58.9288 236.357 59.0564V59.2862H236.35Z" fill="#F9CF1A"/>
<path d="M155.778 39.2487C158.916 39.2263 162.035 39.3731 165.076 40.2028C165.876 40.4198 166.653 40.6847 167.39 41.0613C168.385 41.5655 168.897 42.3154 168.814 43.4164C168.763 44.0514 168.763 44.6897 168.753 45.3279C168.743 45.9023 168.877 46.448 169.192 46.9363C169.544 47.482 169.818 48.0627 170.049 48.6595C170.16 48.9435 170.334 49.0584 170.605 49.1382C171.041 49.2626 171.473 49.3967 171.905 49.5371C172.963 49.8817 173.395 50.4721 173.251 51.506C172.98 53.4782 172.823 55.4567 172.689 57.4385C172.605 58.683 172.615 59.934 172.732 61.1849C172.843 62.3529 172.913 63.5209 173.111 64.6793C173.221 65.3431 173.452 65.9654 173.727 66.5717C174.035 67.2578 174.611 67.6407 175.388 67.7428C175.76 67.7939 176.135 67.8258 176.497 67.9024C177.026 68.0173 177.126 68.2151 176.892 68.6906C176.818 68.8438 176.822 68.981 176.822 69.131C176.822 69.3927 176.668 69.6225 176.423 69.6448C175.505 69.7214 175.673 70.4075 175.606 70.9372C175.586 71.0936 175.666 71.25 175.432 71.2372C175.003 71.2181 174.902 71.5308 174.772 71.802C174.149 73.1136 173.275 74.2688 172.397 75.4304C171.607 76.4803 170.495 77.1313 169.376 77.7855C167.079 79.1258 164.58 79.8247 161.891 79.6747C159.338 79.5311 156.984 78.7174 155.115 77.0324C153.755 75.8102 152.928 74.2082 152.526 72.4499C152.439 72.0701 152.312 71.8754 151.716 72.0031C152.097 71.6712 152.379 71.735 152.613 71.7669C153.919 71.9457 155.085 71.5212 156.204 70.9883C157.289 70.4713 157.66 69.4789 157.828 68.4066C158.019 67.1716 158.109 65.9271 158.173 64.6825C158.203 64.1272 158.163 64.0889 157.61 64.1081C155.577 64.1751 154.469 63.0135 153.738 61.4243C153.045 59.9244 152.653 58.348 152.536 56.6917C152.469 55.7759 152.409 54.86 152.439 53.9473C152.472 53.0346 152.549 52.1156 152.673 51.2093C152.727 50.8231 152.637 50.7146 152.251 50.6891C151.347 50.6221 150.443 50.5232 149.542 50.437C149.435 50.4274 149.324 50.437 149.224 50.4115C148.942 50.3445 148.885 50.1657 149.11 49.9902C149.733 49.5084 150.366 49.0393 151.002 48.5701C151.595 48.133 152.194 47.7085 152.791 47.2745C153.115 47.0384 153.373 46.7767 153.474 46.3682C154.016 44.1567 154.74 41.9963 155.574 39.8709C155.611 39.7784 155.614 39.6731 155.634 39.5742C155.771 39.504 155.785 39.3827 155.785 39.2519L155.778 39.2487Z" fill="#FFBF7A"/>
<path d="M155.778 39.2483C155.778 39.376 155.764 39.5004 155.627 39.5706C155.503 39.6025 155.309 39.6025 155.265 39.6759C154.974 40.1865 154.626 39.9185 154.224 39.7749C154.609 39.1366 155.242 39.3153 155.778 39.2451V39.2483Z" fill="#FFCF9C"/>
<path d="M130.735 116.214C130.497 116.172 130.414 116.364 130.29 116.479C129.848 116.887 129.382 117.28 128.987 117.726C128.515 118.263 127.992 118.377 127.275 117.918C126.254 117.264 125.216 116.635 124.238 115.917C123.35 115.266 122.375 114.723 121.454 114.114C120.707 113.619 119.981 113.102 119.254 112.582C118.939 112.359 119.029 112.043 119.093 111.737C119.455 110.036 119.803 108.332 120.275 106.656C121.645 101.802 123.082 96.9645 124.77 92.2C126.448 87.4675 128.592 82.9392 131.636 78.8417C131.991 78.363 132.192 77.8716 132.145 77.278C132.108 76.7961 132.149 76.3079 132.132 75.8228C132.108 75.2548 132.031 75.2037 131.462 75.3026C131.288 75.3314 131.114 75.4654 130.903 75.2675C131.11 75.0378 131.415 75.0122 131.68 74.9261C134.815 73.9272 138.037 73.2922 141.295 72.8103C143.704 72.4529 146.122 72.22 148.55 72.0125C150.362 71.8562 152.177 71.7668 153.992 71.6583C154.475 71.6296 154.81 71.7987 155.125 72.1051C155.781 72.7401 156.431 73.3815 157.174 73.9336C158.819 75.1558 160.671 75.8834 162.727 76.1802C165.554 76.5919 168.076 75.8037 170.444 74.4219C172.946 72.9603 174.798 70.8956 176.305 68.5405C176.684 67.9501 177.153 67.6948 177.833 67.5927C180.398 67.213 182.977 66.9353 185.563 66.7088C187.616 66.5269 189.679 66.4152 191.739 66.5524C194.17 66.7151 196.585 67.0055 198.95 67.6151C200.541 68.0235 201.894 68.7926 203.093 69.8617C205.29 71.8211 206.934 74.1762 208.411 76.6429C210.97 80.9128 212.966 85.4251 214.571 90.0938C216.342 95.2476 217.602 100.516 218.473 105.871C218.972 108.947 219.38 112.03 219.631 115.135C219.749 116.609 219.956 118.077 220.013 119.555C220.057 120.675 219.889 121.795 219.42 122.848C219.246 123.244 218.921 123.502 218.556 123.729C217.605 124.323 216.55 124.699 215.468 124.993C212.859 125.708 210.19 126.065 207.49 126.304C204.392 126.579 201.291 126.611 198.186 126.579C196.367 126.56 194.555 126.413 192.74 126.32C190.734 126.218 188.741 126.02 186.748 125.807C184.622 125.58 182.498 125.312 180.385 124.98C179.407 124.827 178.425 124.702 177.451 124.533C177.045 124.463 176.721 124.54 176.409 124.782C174.902 125.947 173.11 126.33 171.238 126.413C168.639 126.525 166.057 126.276 163.471 126.017C161.85 125.854 160.215 125.81 158.594 125.641C156.89 125.462 155.175 125.494 153.467 125.401C151.36 125.29 149.24 125.242 147.13 125.468C146.199 125.567 145.261 125.513 144.326 125.589C142.649 125.727 140.96 125.736 139.279 125.797C139.035 125.807 138.79 125.787 138.603 125.615C137.859 124.935 136.915 124.543 136.077 123.997C135.903 123.882 135.702 123.774 135.585 123.614C134.915 122.705 133.93 122.178 132.976 121.616C132.038 121.068 131.204 120.381 130.29 119.801C129.75 119.459 129.593 118.996 129.854 118.413C130.095 117.873 130.323 117.327 130.551 116.782C130.625 116.6 130.805 116.45 130.735 116.22V116.214ZM190.627 103.433C190.349 103.79 190.208 104.196 190.034 104.585C189.049 106.793 187.917 108.931 186.708 111.034C186.346 111.66 185.971 112.276 185.63 112.911C185.439 113.265 185.529 113.377 185.931 113.374C186.038 113.374 186.142 113.348 186.249 113.342C187.422 113.259 188.59 113.137 189.766 113.106C191.29 113.064 192.817 113.093 194.341 113.093C195.349 113.093 195.389 113.039 194.917 112.167C193.487 109.541 192.221 106.841 191.069 104.094C190.975 103.87 190.942 103.596 190.63 103.436L190.627 103.433Z" fill="url(#paint0_linear_736_95)"/>
<path d="M175.586 40.6335C175.023 40.3846 175.05 40.0814 175.191 39.6028C175.566 38.3008 175.79 36.9732 175.72 35.6138C175.653 34.3628 175.063 33.8267 173.831 33.9703C173.382 34.0214 173.452 33.7788 173.509 33.5618C173.801 32.4545 173.998 31.3344 174.176 30.2015C174.316 29.2856 174.223 28.4463 173.971 27.5783C173.693 26.6082 172.622 26.0689 171.557 26.5986C171.138 26.8061 170.894 27.1731 170.428 27.2688C170.361 27.2816 170.237 27.272 170.267 27.0071C170.324 26.5029 170.351 25.587 170.351 25.587C170.351 25.019 170.227 24.2276 170.1 23.6372C170.033 23.366 169.986 23.0883 169.895 22.8235C169.678 22.1693 168.834 21.5629 168.271 21.697C167.782 21.8119 167.286 21.9714 166.911 22.3193C166.318 22.8713 165.689 23.3915 165.277 24.0936C165.17 24.2786 165.046 24.4574 164.835 24.601C164.607 23.9978 164.567 23.4075 164.339 22.8586C164.091 22.265 163.652 21.9906 162.999 21.9459C162.058 21.8821 161.412 22.3703 160.899 23.0117C160.169 23.9212 159.506 24.8786 159.168 26.0019C159.097 26.2317 159.05 26.4901 158.756 26.5955C158.726 26.5157 158.699 26.471 158.689 26.4231C158.538 25.7562 158.471 25.0669 158.186 24.4286C157.831 23.6308 157.145 23.5032 156.502 24.1095C156.351 24.2531 156.217 24.4127 156.1 24.5818C154.897 26.3082 154.405 28.2389 154.348 30.2813C154.325 31.0727 154.338 31.8641 154.348 32.6555C154.351 32.9683 154.244 33.1502 153.889 33.1278C153.313 33.0895 153.059 33.4501 152.938 33.8873C152.831 34.2767 152.737 34.6692 152.727 35.0872C152.697 36.7243 153.129 38.2688 153.819 39.7368C154.288 40.7388 154.944 41.61 156.204 41.9164C157.573 42.2515 158.923 42.6057 160.353 42.6376C161.988 42.6727 163.599 42.5419 165.196 42.2195C166.178 42.0217 167.102 42.9248 166.884 43.8471C166.64 44.8874 166.332 45.915 166.161 46.9649C165.994 47.9956 165.91 49.0519 166.503 50.0156C166.968 50.772 167.625 51.2379 168.586 51.2028C170.247 51.1453 171.57 50.405 172.558 49.1987C173.744 47.7531 174.688 46.1479 175.469 44.4661C175.834 43.6779 176.115 42.8418 176.128 41.9706C176.135 41.476 176.159 40.8761 175.596 40.6271L175.586 40.6335Z" fill="#5E85FE"/>
<path d="M167.005 52.9291C167.219 50.5038 168.144 48.2285 170.049 46.3648C170.572 45.8542 171.191 45.4649 171.965 45.3245C172.926 45.149 173.804 45.583 174.099 46.4861C174.36 47.2902 174.43 48.0944 174.326 48.9592C174.089 50.9793 173.235 52.7153 171.958 54.2949C171.516 54.8438 170.994 55.3129 170.368 55.6767C170.136 55.8107 169.895 55.9097 169.627 55.9511C168.271 56.1713 167.343 55.6927 167.139 54.3619C167.072 53.9311 167.052 53.5035 167.008 52.9291H167.005Z" fill="#FFC07B"/>
<path d="M143.671 90.2312C143.57 90.7481 143.47 91.3513 143.336 91.948C141.875 98.5634 139.032 104.62 135.19 110.275C134.159 111.794 133.077 113.281 131.958 114.743C131.817 114.928 131.673 115.116 131.506 115.279C131.325 115.458 131.097 115.544 130.87 115.352C130.679 115.196 130.682 114.992 130.813 114.8C130.957 114.583 131.111 114.376 131.265 114.168C133.12 111.673 134.932 109.152 136.513 106.484C139.517 101.407 141.648 96.0232 142.756 90.2822C142.776 90.1833 142.783 90.078 142.813 89.9823C142.89 89.7461 143.031 89.5546 143.329 89.6089C143.624 89.6663 143.667 89.8993 143.671 90.2312Z" fill="#230F5A"/>
<path d="M196.177 83.603C195.942 86.8038 195.279 90.0779 194.445 93.3202C193.893 95.4711 193.223 97.59 192.449 99.6802C192.272 100.159 192.054 100.625 191.843 101.091C191.769 101.254 191.675 101.41 191.568 101.557C191.458 101.703 191.32 101.847 191.103 101.742C190.922 101.652 190.959 101.48 190.999 101.336C191.133 100.845 191.26 100.35 191.428 99.8653C192.094 97.9315 192.761 95.9976 193.3 94.0255C194.231 90.6204 194.941 87.1771 195.256 83.6668C195.296 83.2105 195.296 82.751 195.299 82.2914C195.299 81.9914 195.416 81.7713 195.745 81.7744C196.023 81.7776 196.167 81.9851 196.173 82.2436C196.187 82.652 196.177 83.0573 196.177 83.603Z" fill="#230F5A"/>
<path d="M161.89 53.459C161.756 54.2567 161.502 55.1152 160.946 55.846C160.326 56.6661 159.278 56.9756 158.491 56.5257C157.854 56.1587 157.335 55.6385 157.02 54.9588C156.893 54.6844 157.044 54.5854 157.255 54.4993C158.333 54.0685 159.415 53.6408 160.494 53.21C160.715 53.1207 160.936 53.0345 161.153 52.9388C161.796 52.6612 161.914 52.7282 161.884 53.459H161.89Z" fill="#FFF6E8"/>
<path d="M183.831 114.921C183.818 115.199 183.664 115.441 183.527 115.687C182.425 117.672 181.075 119.501 179.601 121.249C179.216 121.706 178.817 122.153 178.426 122.603C178.342 122.701 178.258 122.804 178.158 122.887C177.96 123.046 177.756 123.292 177.471 123.094C177.176 122.887 177.367 122.628 177.498 122.417C177.618 122.223 177.772 122.041 177.927 121.869C179.822 119.724 181.554 117.471 183.031 115.043C183.111 114.912 183.205 114.784 183.319 114.679C183.419 114.589 183.563 114.573 183.691 114.65C183.784 114.708 183.821 114.806 183.831 114.925V114.921Z" fill="#230F5A"/>
<path d="M159.687 64.2261C159.479 64.2261 159.425 64.2293 159.372 64.2261C159.204 64.2069 159.044 64.1527 159.003 63.9836C158.953 63.7666 159.094 63.6581 159.298 63.6038C161.1 63.1411 162.323 61.9412 163.468 60.6392C163.846 60.2084 164.064 60.1158 164.309 60.2945C164.55 60.4701 164.523 60.7253 164.165 61.1562C163.244 62.2667 162.165 63.2081 160.822 63.8463C160.413 64.041 159.991 64.1878 159.687 64.2261Z" fill="#230F5A"/>
<path d="M169.266 56.666C168.7 56.6437 168.214 56.4746 167.903 55.9959C167.782 55.814 167.739 55.6066 167.933 55.4406C168.104 55.2938 168.288 55.3513 168.435 55.4853C169.058 56.0565 169.661 55.8172 170.247 55.4438C170.746 55.1279 171.111 54.6875 171.41 54.1993C171.503 54.0461 171.594 53.8865 171.714 53.7525C171.848 53.5993 172.039 53.5802 172.227 53.6599C172.421 53.7429 172.485 53.9057 172.461 54.1003C172.461 54.1259 172.451 54.1514 172.444 54.1737C172.18 55.297 170.422 56.6756 169.266 56.666Z" fill="#230F5A"/>
<path d="M169.393 53.5737C170.31 52.8142 170.85 51.927 171.101 50.8739C171.251 50.2452 171.295 49.6166 171.241 48.9752C171.225 48.7741 171.218 48.5667 171.235 48.3656C171.248 48.222 171.369 48.155 171.516 48.1454C171.637 48.1359 171.72 48.2029 171.777 48.2922C171.817 48.3561 171.848 48.4295 171.858 48.5029C172.045 50.0378 171.898 51.509 170.91 52.811C170.672 53.1237 170.381 53.3854 170.032 53.5864C169.868 53.679 169.701 53.7396 169.393 53.5737Z" fill="#230F5A"/>
<path d="M197.309 115.509C197.295 115.85 196.92 116.029 196.662 115.796C196.053 115.257 195.56 114.618 195.205 113.897C195.132 113.75 195.165 113.597 195.319 113.492C195.447 113.406 195.584 113.402 195.684 113.498C196.264 114.06 196.793 114.666 197.262 115.317C197.302 115.375 197.299 115.464 197.309 115.505V115.509Z" fill="#230F5A"/>
<path d="M153.718 51.1581C153.497 51.1102 153.199 51.1166 153.199 50.8103C153.199 50.5199 153.45 50.456 153.705 50.4688C153.956 50.4816 154.201 50.555 154.187 50.8486C154.174 51.1039 153.936 51.1358 153.718 51.1581Z" fill="#230F5A"/>
<path d="M74.2832 104.582C74.2832 105.217 74.2899 105.775 74.2799 106.334C74.2799 106.497 74.3502 106.755 74.0722 106.739C73.8646 106.729 73.8177 106.503 73.8144 106.318C73.8077 105.833 73.801 105.348 73.8077 104.863C73.8143 104.24 73.9249 103.599 73.3421 103.133C73.6134 102.935 73.7239 103.261 73.9282 103.165C74.1493 102.239 74.3737 101.308 74.5981 100.376C74.5612 100.347 74.521 100.315 74.4842 100.286C74.1359 100.615 73.7373 100.912 73.4526 101.285C72.9837 101.901 72.4211 102.437 71.9723 103.069C71.3191 103.988 71.2321 104.955 71.5603 105.983C71.8215 106.806 71.6976 107.01 70.5957 107.275C71.2354 106.729 71.0412 106.235 70.8469 105.657C70.6058 104.949 70.7129 104.199 71.0546 103.497C71.4632 102.654 72.0191 101.911 72.6823 101.241C73.2919 100.631 73.9182 100.034 74.5612 99.46C74.8861 99.1696 75.1005 98.844 75.2277 98.442C75.3885 97.9282 75.566 97.424 75.7536 96.9166C75.8574 96.6389 75.9713 96.3581 76.2526 96.0869C76.3933 96.8623 75.8708 97.4814 75.9445 98.3207C82.2277 93.6679 89.1406 90.3076 96.1741 86.9856C95.7487 86.5803 95.3736 86.2229 94.9951 85.8655C94.9181 85.7921 94.8411 85.7218 94.7674 85.6516C94.6334 85.524 94.4626 85.374 94.5966 85.1921C94.7674 84.9623 94.9918 85.1187 95.1659 85.2176C95.5076 85.4155 95.8559 85.6102 96.1339 85.891C96.298 86.0569 96.4855 86.2069 96.6497 86.3729C96.864 86.5867 97.0784 86.609 97.3698 86.4877C97.8822 86.2739 98.3846 86.041 98.9439 85.9357C99.1717 85.8942 99.4128 85.8272 99.4664 86.0888C99.52 86.3505 99.2587 86.3984 99.041 86.4367C98.6458 86.5101 98.2741 86.6537 97.9123 86.8228C97.6276 86.9568 97.5506 87.11 97.8052 87.3366C98.3477 87.828 98.8066 88.3961 99.3224 88.9098C101.087 90.6586 102.608 92.5893 104.108 94.5391C105.2 95.956 106.205 97.4272 107.14 98.943C107.207 99.0515 107.287 99.1568 107.471 99.211C107.692 98.9398 107.746 98.5856 107.853 98.2633C108.908 95.1582 110.167 92.133 111.591 89.1652C113.574 85.0326 115.878 81.0723 118.41 77.2237C119.817 75.0856 121.31 73.0113 122.881 70.9817C123.025 70.7966 123.152 70.602 123.286 70.4137C123.497 70.1137 123.521 69.8265 123.35 69.4819C122.697 68.183 122.576 66.8332 122.791 65.3971C123.082 63.4537 123.739 61.6379 124.633 59.8955C125.514 58.1786 126.472 56.4969 127.386 54.7928C128.555 52.6228 129.201 50.2836 129.74 47.9189C129.905 47.2009 130.025 46.4733 130.075 45.7362C130.099 45.3883 130.082 45.0788 129.59 44.9799C129.831 44.7278 130.022 44.7852 130.223 44.8554C131.378 45.2543 132.115 46.0744 132.614 47.0988C133.137 48.1711 133.321 49.3199 133.465 50.4911C133.592 51.509 133.589 52.5238 133.599 53.5386C133.602 53.8801 133.729 53.9695 134.098 53.8929C135.19 53.6663 136.295 53.4301 137.42 53.5195C138.586 53.612 139.765 53.711 140.773 54.3875C142.146 55.3066 142.283 56.0756 142.052 57.4096C141.989 57.7797 141.938 57.9872 142.374 58.1914C142.736 58.3637 143.124 58.5935 143.362 58.9509C143.827 59.6498 143.911 60.3901 143.493 61.1241C143.285 61.4911 143.292 61.756 143.563 62.0847C144.306 62.9846 144.246 64.2132 143.278 65.0397C143.05 65.2344 142.883 65.4514 142.923 65.7673C143.067 66.8938 142.34 67.5799 141.51 68.1735C140.431 68.9425 139.216 69.4723 137.949 69.9031C136.365 70.4424 134.761 70.9147 133.11 71.2434C131.934 71.4795 132.078 71.4476 132.182 72.4433C132.42 74.7122 132.309 76.978 132.289 79.2437C132.279 80.4309 132.202 81.6275 132.028 82.8115C131.934 83.437 131.924 84.0752 131.857 84.7071C131.583 87.2855 131.15 89.8353 130.641 92.3787C130.139 94.9029 129.472 97.3889 128.749 99.8589C128.109 102.042 127.342 104.186 126.515 106.311C125.453 109.037 124.261 111.711 122.888 114.302C121.501 116.916 120.044 119.497 118.222 121.872C117.05 123.397 115.794 124.84 114.046 125.819C112.89 126.464 111.664 126.818 110.328 126.869C107.923 126.965 105.679 126.327 103.479 125.513C100.374 124.367 97.5138 122.775 94.697 121.099C92.4966 119.791 90.3966 118.345 88.3502 116.833C86.6856 115.601 85.0578 114.325 83.4502 113.023C81.1827 111.191 79.0124 109.27 76.9359 107.246C76.2426 106.573 75.6129 105.849 74.9899 105.118C74.8258 104.926 74.6718 104.709 74.2832 104.563V104.582Z" fill="#FFB4FF"/>
<path d="M19.4761 81.9976C19.4861 82.2975 19.2383 82.4379 19.0541 82.6167C18.2636 83.3793 17.4464 84.1197 16.6794 84.9015C15.8957 85.6993 15.1656 86.5482 14.3986 87.3588C14.1976 87.5726 14.2747 87.6938 14.4421 87.8662C15.0149 88.447 15.7417 88.8427 16.3713 89.3533C17.289 90.0936 18.2101 90.8372 19.044 91.6573C21.7636 94.3347 24.922 96.4537 28.2478 98.3652C30.3277 99.5619 32.4377 100.714 34.5277 101.901C35.5693 102.495 35.9746 103.254 35.1339 104.361C34.866 104.712 34.5947 105.054 34.2665 105.36C33.4459 106.129 32.6287 106.905 31.8181 107.683C31.6373 107.859 31.3995 107.996 31.3023 108.306C31.8952 108.37 32.4645 108.469 33.0373 108.491C34.7454 108.548 36.4368 108.759 38.1215 108.998C40.0707 109.276 41.9966 109.684 43.8989 110.192C44.3879 110.323 44.8736 110.463 45.3492 110.629C45.741 110.766 45.9922 110.766 46.2769 110.37C46.6989 109.786 47.1075 109.183 47.6501 108.686C47.7841 108.561 47.9114 108.427 48.0654 108.325C48.3133 108.156 48.4807 108.293 48.5477 108.516C48.6281 108.772 48.5611 109.011 48.3769 109.231C48.0453 109.627 47.7305 110.042 47.409 110.444C47.0696 110.865 47.16 111.199 47.6803 111.446C48.1123 111.65 48.5444 111.851 48.9697 112.068C49.097 112.135 49.2913 112.158 49.2946 112.438C48.7554 112.263 48.2429 112.087 47.7238 111.931C47.4458 111.845 47.1611 111.768 46.8731 111.72C46.5951 111.672 46.3674 111.743 46.1764 111.985C44.82 113.718 43.3195 115.342 42.0133 117.11C41.8626 117.318 41.7219 117.532 41.5377 117.803C42.0501 117.838 42.4119 117.595 42.8138 117.519C42.9712 117.49 43.1186 117.426 43.276 117.407C43.3731 117.394 43.5071 117.407 43.5171 117.544C43.5205 117.608 43.4803 117.704 43.43 117.736C43.2257 117.857 43.0181 117.972 42.797 118.061C42.4018 118.218 42.0033 118.368 41.598 118.492C41.2195 118.607 40.9114 118.767 40.8411 119.181C40.8243 119.28 40.7741 119.376 40.7205 119.462C40.5497 119.74 40.332 119.74 40.2449 119.414C40.1277 118.99 39.8865 119.06 39.5817 119.137C38.3693 119.44 37.1636 119.769 35.9411 120.03C33.8645 120.474 31.7645 120.806 29.6545 121.087C27.9397 121.313 26.2081 121.386 24.4966 121.632C23.8167 121.731 23.1067 121.661 22.41 121.664C21.2311 121.664 20.0522 121.651 18.8766 121.664C17.8316 121.677 16.8067 121.505 15.7751 121.409C14.7134 121.31 13.6551 121.217 12.6 121.058C10.0613 120.672 7.56609 120.126 5.235 119.066C3.98237 118.498 2.78333 117.816 1.80869 116.842C0.693388 115.725 0.147458 114.356 0.0436303 112.844C-0.0233551 111.877 0.00678832 110.903 0.0436303 109.936C0.0804722 108.995 0.32162 108.073 0.596259 107.173C1.53071 104.093 2.97759 101.228 4.69576 98.4833C5.92829 96.5143 7.2814 94.6187 8.76847 92.8189C9.84024 91.5201 10.8953 90.2053 12.0742 88.9895C12.1814 88.8778 12.2886 88.7629 12.3857 88.6416C12.7519 88.18 12.7708 87.6885 12.4426 87.1673C12.3756 87.0588 12.2953 86.9503 12.2685 86.829C12.2316 86.6567 12.2015 86.4557 12.3957 86.3471C12.5732 86.2482 12.7642 86.2801 12.9182 86.411C13.0589 86.5291 13.1996 86.6503 13.3168 86.7875C13.5914 87.113 13.8192 87.0556 14.1005 86.7748C14.7469 86.127 15.4369 85.5206 16.0766 84.8664C16.9909 83.9314 18.0727 83.1687 19.0038 82.2529C19.1378 82.122 19.2852 82.0167 19.4861 82.0071L19.4794 82.0007L19.4761 81.9976Z" fill="#FFB4FF"/>
<path d="M70.3645 71.1126C69.9826 70.8573 70.2506 70.4616 69.919 70.3052C69.6879 70.3818 69.6645 70.6052 69.5707 70.7743C69.0515 71.7093 68.3482 72.5071 67.5243 73.206C66.764 73.8506 65.8664 73.8411 64.952 73.6336C62.9324 73.1837 61.5793 71.9583 60.6549 70.2446C60.3635 69.7053 60.0822 69.166 59.7908 68.6139C59.5497 68.8022 59.8042 69.2138 59.4827 69.2011C59.1411 69.1883 59.2013 68.8341 59.1946 68.5915C59.1779 68.0586 59.2181 67.5193 59.0506 66.9991C59.0439 66.9768 59.0439 66.9481 59.0473 66.9225C59.3219 65.4386 59.0573 63.9228 59.3119 62.4357C59.4157 61.8358 59.3186 61.3475 58.8296 60.8465C57.7913 59.787 57.3726 58.4372 57.2755 57.0075C57.2119 56.0629 57.309 55.1407 57.7444 54.2535C58.3305 53.06 59.486 52.9802 60.5042 53.4844C60.8894 53.6727 61.1975 53.9599 61.4956 54.2535C61.6966 54.4514 61.864 54.429 61.9846 54.1737C62.1353 53.8482 62.3061 53.5291 62.4334 53.194C62.852 52.0931 63.264 50.9921 63.6592 49.8816C63.7898 49.5146 63.9607 49.1731 64.1549 48.838C64.5367 48.187 65.1965 47.9573 65.93 48.2349C66.2248 48.3466 66.4894 48.5285 66.7673 48.6817C67.0889 48.8604 67.4071 49.0487 67.7319 49.2242C68.8673 49.8369 69.9625 49.7954 71.031 49.0582C71.53 48.7136 72.0525 48.42 72.6487 48.2317C73.0405 48.1104 73.3252 48.1711 73.5764 48.4551C73.9884 48.9242 74.3903 49.3965 74.8022 49.8624C74.9563 50.0379 75.1171 50.2103 75.2845 50.373C75.3515 50.4368 75.4085 50.5102 75.5491 50.4656C75.9644 50.3315 76.0013 50.3411 76.0482 50.6666C76.0917 50.9506 76.1152 51.2155 76.4065 51.3878C76.5606 51.4804 76.5907 51.6559 76.4367 51.7739C76.1821 51.9718 76.2424 52.2303 76.2424 52.4792C76.2391 53.2961 76.2659 54.1131 76.2357 54.9268C76.1085 58.5074 74.953 61.7688 72.7391 64.6632C72.1764 65.4003 71.4563 66.0418 70.6893 66.597C70.3578 66.8396 70.2573 67.0789 70.2908 67.4299C70.3377 67.9086 70.3611 68.4128 70.4884 68.8596C70.7094 69.6191 70.4683 70.2988 70.3745 71.103L70.3645 71.1126Z" fill="#FFB4FF"/>
<path d="M19.7986 81.8447C19.7282 81.9694 19.6141 82.0014 19.4766 81.9982L19.4833 82.0046C19.5504 81.8799 19.6712 81.8511 19.8053 81.8511L19.7986 81.8447Z" fill="#FFB4FF"/>
<path d="M19.9648 81.6985C19.9749 81.6758 19.9918 81.6337 19.9952 81.6369C20.046 81.6466 20.0358 81.6693 19.958 81.6953L19.9648 81.7018V81.6985Z" fill="#FFB4FF"/>
<path d="M19.9589 81.6914C19.9052 81.7426 19.8515 81.7937 19.7979 81.8448L19.8046 81.8512C19.8582 81.8001 19.9119 81.7489 19.9656 81.6978L19.9589 81.6914Z" fill="#FFB4FF"/>
<path d="M74.2562 51.5951C74.0017 51.7547 73.9883 52.0068 73.8811 52.2015C73.7304 52.4727 73.5763 52.7408 73.3653 52.9737C72.4376 54.0013 71.2218 54.0428 70.2304 53.0695C69.9926 52.8365 69.795 52.5716 69.5739 52.3163C69.3026 52.5206 69.2959 52.795 69.2022 53.0248C68.9309 53.6981 68.5826 54.3236 68.1271 54.9012C66.1007 57.4733 62.9524 57.435 61.0367 54.7927C60.7118 54.3428 60.3434 54.046 59.784 53.9279C59.084 53.7843 58.9501 53.813 58.6486 54.4257C58.0391 55.6543 57.3525 56.8319 56.4147 57.8658C55.7281 58.6285 54.9644 59.2987 54.0065 59.7423C52.3219 60.5241 50.8817 60.0614 50.0611 58.4562C49.5219 57.3999 49.3912 56.2639 49.4415 55.1023C49.4515 54.9012 49.542 54.7034 49.4281 54.4991C49.1769 54.464 49.1267 54.6778 49.0195 54.8055C47.5424 56.583 45.8578 58.1371 43.7544 59.2349C42.5922 59.8412 41.3764 60.2943 40.0166 60.2752C38.6334 60.2528 37.5315 59.7103 36.7545 58.6158C35.7731 57.2372 35.465 55.6607 35.3679 54.0396C35.2674 52.3451 35.4817 50.6761 35.9473 49.0358C36.0076 48.822 36.1147 48.6082 36.0444 48.3018C35.5889 48.7231 35.1736 49.1124 34.7516 49.4953C33.4353 50.6825 31.955 51.6334 30.2703 52.2812C29.3693 52.6291 28.4349 52.8588 27.4669 52.9035C24.466 53.0439 22.3359 51.7324 20.9493 49.256C20.0617 47.67 19.71 45.9403 19.6464 44.166C19.5225 40.6525 20.3966 37.3337 21.9038 34.1521C22.778 32.3075 23.8631 30.5811 25.1894 28.9919C25.5813 28.5228 25.5779 28.5005 24.965 28.2835C24.0071 27.942 23.3574 27.2814 22.8885 26.4549C22.1851 25.2167 21.9339 23.8605 21.8737 22.4691C21.6928 18.3174 22.9019 14.4943 24.9717 10.8946C26.787 7.73535 29.2153 5.07708 32.3401 3.02514C34.5238 1.5923 36.8616 0.472188 39.521 0.108391C42.2071 -0.261787 44.5984 0.303054 46.407 2.35818C47.5826 3.6921 48.075 5.29727 48.2994 7.00137C48.5271 8.72781 48.2491 10.4096 47.9142 12.0913C47.874 12.286 47.7535 12.4775 47.8874 12.7296C48.1889 12.5349 48.353 12.2413 48.5539 11.9892C49.8166 10.3936 51.1731 8.88418 52.8678 7.68429C54.2946 6.67268 55.8553 6.0121 57.6773 5.98019C59.9314 5.9419 61.6429 6.8833 62.9524 8.56506C63.9505 9.84792 64.4529 11.3254 64.6773 12.8859C65.2199 16.626 64.3692 20.1427 62.7146 23.5158C61.7802 25.421 60.541 27.1474 59.1745 28.7972C59.0505 28.9472 58.8429 29.0589 58.8663 29.3621C59.4156 29.1259 59.9381 28.8898 60.4673 28.676C61.1874 28.3856 61.9276 28.1845 62.7213 28.1877C64.4161 28.1973 65.7022 29.027 66.3017 30.5396C66.9079 32.0746 66.8543 33.6383 66.5228 35.2179C66.1275 37.0943 65.3003 38.8048 64.3424 40.4642C64.2653 40.5983 64.1783 40.7259 64.0979 40.86C63.9539 41.0993 64.0376 41.2589 64.3055 41.3163C65.729 41.6226 66.8141 42.4109 67.7117 43.598C67.8524 43.2885 67.9529 43.0651 68.0567 42.8417C68.9979 40.8344 71.1414 39.8771 73.372 40.4674C74.9328 40.8823 76.1352 41.779 77.093 43.0012C77.2036 43.1448 77.3007 43.298 77.4079 43.4448C77.7562 43.9235 77.7562 43.9267 78.2887 43.6905C78.6538 43.5278 79.0222 43.3842 79.4342 43.365C80.2748 43.3236 80.9514 43.614 81.4772 44.233C82.0198 44.8713 82.2744 45.6212 82.348 46.4222C82.5021 48.1486 82.1136 49.7698 81.2528 51.292C80.9045 51.9079 80.4356 52.4312 79.8763 52.8748C78.1414 54.2598 75.9175 53.9598 74.6481 52.1791C74.5141 51.994 74.3935 51.7994 74.2629 51.6015L74.2562 51.5951Z" fill="url(#paint1_linear_736_95)"/>
<path d="M58.5691 70.822C58.5993 69.5455 58.6327 68.2691 58.6662 66.9958C58.6662 66.8681 58.6629 66.7341 58.6997 66.616C58.7634 66.4086 58.9241 66.4022 59.0481 66.549C59.1787 66.7054 59.2658 66.8968 59.3696 67.0755C60.1265 68.3584 61.0543 69.4977 62.3169 70.3689C63.2916 71.0422 64.37 71.489 65.5724 71.5592C67.4413 71.6645 68.8614 70.8412 69.9901 69.4785C70.1375 69.2998 70.2815 69.1147 70.4289 68.9328C70.4423 68.9169 70.4791 68.9137 70.5695 68.885C70.7872 69.4977 71.0049 70.1136 71.2293 70.7295C71.5743 71.6677 71.926 72.6027 72.271 73.5409C72.3949 73.8728 72.5657 73.959 72.9341 73.7866C75.3757 72.6474 77.9044 72.7272 80.4499 73.3845C82.5767 73.9334 84.4054 75.0503 86.1704 76.263C88.1699 77.6352 89.9953 79.218 91.9848 80.6062C94.1618 82.1284 96.5163 83.3124 99.0718 84.1389C100.01 84.442 100.944 84.7516 101.872 85.0835C102.498 85.3068 103.104 85.5813 103.64 85.9738C104.923 86.9184 105.211 88.3991 104.36 89.7171C103.761 90.6489 102.85 91.2169 101.835 91.6509C100.311 92.302 98.6766 92.6051 97.079 93.0232C96.1245 93.2721 95.18 93.5561 94.2455 93.8656C91.5159 94.7783 89.5699 96.5813 88.036 98.8439C87.1317 100.178 86.4149 101.604 85.7149 103.037C85.0819 104.336 84.402 105.609 83.491 106.752C82.1145 108.475 80.4566 109.774 78.0819 109.914C77.9614 110.173 78.1322 110.339 78.226 110.508C79.1973 112.314 79.8939 114.209 80.1786 116.226C80.3829 117.672 80.4264 119.114 80.1049 120.557C79.7767 122.038 78.8724 123.071 77.4891 123.761C75.8078 124.597 74.0059 124.705 72.1705 124.511C69.8126 124.265 67.5719 123.595 65.3748 122.762C64.005 122.242 62.5882 121.862 61.1213 121.68C61.0275 121.546 60.9203 121.521 60.7997 121.651C57.2863 121.332 53.9538 122.152 50.6447 123.119C48.8562 123.643 47.0711 124.182 45.2055 124.412C45.085 124.278 44.9778 124.306 44.884 124.44C43.2261 124.667 41.5749 124.629 39.9405 124.271C39.552 124.185 39.1601 124.08 38.795 123.927C37.4955 123.391 36.9295 122.318 37.2477 120.997C37.4151 120.298 37.6864 119.635 38.0113 118.987C38.8352 117.356 39.7764 115.773 40.3625 114.04C41.4242 110.9 40.9151 107.91 39.3811 104.984C39.0228 105.15 38.7816 105.389 38.5237 105.603C36.0989 107.629 33.2721 108.858 30.0836 109.203C28.1711 109.41 26.4429 108.769 24.9893 107.54C23.6262 106.388 22.8324 104.898 22.2061 103.302C21.687 101.984 21.3386 100.618 21.0372 99.2492C20.2803 95.7899 17.9492 93.7061 14.6535 92.42C13.7626 92.0722 12.8516 91.7658 11.9875 91.3574C11.2339 90.9999 10.5774 90.5245 10.0449 89.9022C9.02338 88.7119 8.9497 87.5311 9.8272 86.2387C10.2693 85.5909 10.832 85.0484 11.4784 84.5824C13.7124 82.9837 16.1305 81.6657 18.6056 80.4498C21.6836 78.9372 24.6377 77.2427 27.3941 75.245C28.9951 74.0866 30.4687 72.7846 31.996 71.5432C33.8783 70.0146 35.8477 68.6201 38.1721 67.7393C40.5534 66.833 43.0185 66.4501 45.5639 66.7054C47.2787 66.8745 48.9065 67.3883 50.4471 68.135C53.3175 69.5232 55.7792 71.4347 58.06 73.576C58.1438 73.7164 58.2375 73.8249 58.3648 73.793C58.4184 73.7803 58.405 73.6462 58.405 73.5728C58.4452 73.0527 58.482 72.5325 58.5222 72.0091C58.5289 71.9166 58.5725 70.9688 58.5758 70.8156L58.5691 70.822Z" fill="#55CBEC"/>
<path d="M60.793 121.655C60.9137 121.521 61.0178 121.546 61.115 121.684C60.9943 121.812 60.8903 121.792 60.793 121.655Z" fill="#9CE1F3"/>
<path d="M44.877 124.444C44.9709 124.306 45.0749 124.281 45.199 124.415C45.1051 124.546 44.9977 124.572 44.877 124.444Z" fill="#9CE1F3"/>
<path d="M76.2829 110.217C75.5796 110.208 75.0504 109.972 74.5581 109.653C73.6772 109.085 73.0107 108.325 72.4313 107.486C71.7246 106.461 71.1753 105.354 70.6026 104.256C70.2342 103.548 69.8657 102.839 69.4772 102.144C68.6232 100.618 67.3873 99.444 65.8466 98.5472C64.9557 98.0271 64.0414 97.5484 63.1974 96.958C62.7218 96.6261 62.2629 96.2719 61.8576 95.8634C61.7103 95.7166 61.5596 95.5603 61.4691 95.3784C61.3419 95.1167 61.2983 94.8231 61.5797 94.6125C61.8309 94.421 62.0452 94.5965 62.2227 94.7401C63.7902 96.0326 65.6122 96.9708 67.317 98.0654C68.7236 98.9685 69.7854 100.178 70.5825 101.592C71.2155 102.715 71.7849 103.87 72.3877 105.006C72.8968 105.964 73.4327 106.905 74.1662 107.728C74.7858 108.421 75.4959 108.986 76.4404 109.225C76.5442 109.25 76.648 109.276 76.7451 109.321C76.9227 109.4 77.0566 109.519 77.0499 109.729C77.0432 109.972 76.8925 110.106 76.6715 110.166C76.5207 110.208 76.3533 110.205 76.2829 110.214V110.217Z" fill="#200B57"/>
<path d="M34.2567 84.5856C34.2534 89.8447 35.573 94.8293 37.7199 99.6416C38.0749 100.439 38.4601 101.224 38.7917 102.032C38.9357 102.38 39.3007 102.772 38.8352 103.133C38.594 103.318 38.3094 103.107 37.9409 102.453C36.8223 100.475 35.8945 98.4162 35.141 96.2877C33.6237 91.9924 32.8568 87.5917 33.128 83.0474C33.1582 82.5592 33.2185 82.0805 33.4831 81.6497C33.5634 81.5189 33.6505 81.3561 33.828 81.3625C34.0156 81.3689 34.0558 81.5508 34.106 81.6912C34.2166 82.0071 34.2668 82.3326 34.2634 82.6677C34.2534 83.3059 34.2634 83.9442 34.2634 84.5824L34.2567 84.5856Z" fill="#200B57"/>
<path d="M72.9409 59.6751C73.0682 59.4995 73.182 59.3304 73.3093 59.1677C73.5672 58.8421 73.8485 58.5294 74.2136 58.3092C74.6055 58.0731 75.0342 57.8561 75.483 58.1305C75.9686 58.4241 75.9485 58.9028 75.8347 59.3687C75.4127 61.1239 74.505 62.6333 73.2457 63.9576C72.7634 64.465 72.4419 64.481 71.8658 64.031C70.5763 63.0258 69.7758 61.7302 69.4911 60.1633C69.3907 59.608 69.4108 59.0432 69.7055 58.523C70.1476 57.7412 70.8041 57.588 71.5643 58.0954C71.9629 58.3635 72.2744 58.7081 72.5289 59.1038C72.6495 59.2921 72.7131 59.5251 72.9375 59.6751H72.9409Z" fill="#1A0553"/>
<path d="M130.605 47.6603C130.611 48.9112 130.524 50.1526 130.226 51.3748C130.112 51.8471 129.992 52.3226 129.687 52.7215C129.305 53.2257 128.82 53.2066 128.465 52.6832C128.183 52.2684 128.073 51.7897 127.999 51.3142C127.604 48.7964 127.681 46.2913 128.331 43.8149C128.387 43.5947 128.461 43.3713 128.572 43.1703C128.91 42.5576 129.479 42.5289 129.878 43.1001C130.055 43.3554 130.153 43.649 130.233 43.9457C130.564 45.1648 130.601 46.4125 130.598 47.6603H130.605Z" fill="#1A0553"/>
<path d="M133.144 58.2231C134.085 58.1018 134.856 57.7668 135.629 57.4572C135.924 57.3392 136.202 57.186 136.5 57.0711C136.751 56.9754 137.043 56.886 137.214 57.1732C137.385 57.4572 137.15 57.6551 136.949 57.821C136.768 57.971 136.571 58.105 136.36 58.2135C135.412 58.6986 134.42 59.0815 133.342 59.1645C132.93 59.1964 132.796 59.3688 132.706 59.6943C132.552 60.2336 132.351 60.7601 132.069 61.2547C131.935 61.4941 131.751 61.8196 131.43 61.7175C131.098 61.6122 131.175 61.2516 131.215 60.9803C131.239 60.8048 131.302 60.6325 131.359 60.4665C131.898 58.9475 132.297 57.3934 132.625 55.8201C132.662 55.6478 132.712 55.4755 132.779 55.3096C132.84 55.1596 132.953 55.0351 133.141 55.0734C133.308 55.1053 133.416 55.233 133.436 55.3957C133.503 55.8808 133.452 56.3595 133.375 56.8381C133.305 57.2817 133.225 57.7221 133.138 58.2295L133.144 58.2231Z" fill="#200B57"/>
<path d="M67.4349 68.0104C66.4168 67.9881 65.5091 67.7328 64.6952 67.1903C63.8211 66.6063 63.1613 65.85 62.6756 64.9501C62.5785 64.7714 62.5216 64.5735 62.4646 64.3788C62.4345 64.2767 62.4981 64.1746 62.5852 64.114C62.689 64.0406 62.7995 64.0884 62.8699 64.1682C63.0407 64.3629 63.2082 64.5607 63.3555 64.7714C63.8043 65.416 64.3268 65.9872 65.0034 66.4244C66.1153 67.1424 67.3043 67.3403 68.5871 66.9031C68.6641 66.8775 68.7378 66.8488 68.8115 66.8233C69.277 66.6765 69.5517 66.7244 69.6254 66.9956C69.7325 67.3945 69.421 67.5254 69.1196 67.6562C68.5737 67.8955 67.9943 67.9753 67.4349 68.0104Z" fill="#200B57"/>
<path d="M67.1934 79.2851C67.2202 79.1862 67.237 79.0841 67.2705 78.9884C67.8499 77.4534 68.7274 76.1067 70.0671 75.0664C70.335 74.8557 70.6264 74.6739 70.9614 74.5749C71.2159 74.4983 71.4369 74.5334 71.5944 74.7536C71.7484 74.9706 71.6078 75.1366 71.4738 75.2993C71.4235 75.36 71.3633 75.4078 71.2996 75.4557C70.0504 76.4226 69.1795 77.6576 68.4896 79.0266C68.3757 79.2532 68.235 79.4734 68.0676 79.6713C67.9001 79.8691 67.6489 79.8947 67.4078 79.8021C67.1633 79.7096 67.1465 79.5021 67.1867 79.2851H67.1934Z" fill="#200B57"/>
<path d="M135.873 62.477C135.783 62.4706 135.729 62.4706 135.676 62.461C135.518 62.4355 135.331 62.4387 135.267 62.2728C135.187 62.0717 135.331 61.9217 135.478 61.8164C135.669 61.6792 135.877 61.5516 136.094 61.4686C137.645 60.875 139.092 60.1251 140.331 59.0369C140.428 58.9507 140.549 58.8901 140.666 58.8327C140.827 58.7497 140.981 58.7848 141.105 58.8997C141.212 58.9986 141.219 59.1358 141.165 59.2539C141.095 59.4166 141.018 59.589 140.897 59.7166C139.598 61.0665 137.987 61.9281 136.151 62.4355C136.051 62.4642 135.94 62.4674 135.873 62.477Z" fill="#200B57"/>
<path d="M138.047 65.4417C137.839 65.4258 137.588 65.4034 137.511 65.1928C137.431 64.9758 137.622 64.8099 137.792 64.6854C137.963 64.5641 138.151 64.4588 138.342 64.3759C139.514 63.8589 140.609 63.2302 141.56 62.3877C141.788 62.1867 142.063 61.8963 142.381 62.2027C142.629 62.442 142.468 62.742 142.277 62.9653C141.212 64.2163 139.819 64.9822 138.214 65.429C138.164 65.4417 138.107 65.4385 138.047 65.4417Z" fill="#200B57"/>
<path d="M75.9321 55.8743C75.3392 55.2776 74.723 54.8755 74.1603 54.4159C73.9158 54.2181 73.6713 54.0202 73.4335 53.816C73.3364 53.733 73.2225 53.6341 73.3129 53.4969C73.4168 53.3373 73.5541 53.4458 73.6579 53.5033C73.9325 53.6596 74.2005 53.8256 74.4684 53.9979C75.222 54.483 75.9823 54.9553 76.7225 55.4595C77.322 55.8647 77.2785 56.2381 76.5919 56.487C75.6943 56.8125 74.7766 57.0902 73.8656 57.3869C73.7651 57.4189 73.6613 57.4444 73.5541 57.454C73.4034 57.4667 73.2794 57.3806 73.2459 57.2593C73.2258 57.1827 73.2895 57.0423 73.3632 56.9976C73.5608 56.87 73.7751 56.7679 73.9962 56.6753C74.6057 56.42 75.2187 56.1711 75.9321 55.8775V55.8743Z" fill="#200B57"/>
<path d="M110.215 104.719C110.168 104.942 110.215 105.185 109.97 105.271C109.729 105.357 109.558 105.185 109.428 105.035C109.294 104.882 109.193 104.697 109.106 104.515C108.634 103.522 108.172 102.523 107.709 101.528C107.582 101.256 107.368 100.969 107.676 100.698C107.88 100.519 108.212 100.669 108.503 101.094C109.18 102.073 109.689 103.133 110.114 104.231C110.178 104.393 110.188 104.579 110.218 104.722L110.215 104.719Z" fill="#200B57"/>
<path d="M138.165 68.0234C137.957 68.0202 137.746 68.0042 137.666 67.8223C137.569 67.5989 137.713 67.4234 137.917 67.3245C138.249 67.1649 138.594 67.0277 138.932 66.8745C139.555 66.5905 140.174 66.2937 140.801 66.0129C140.992 65.9267 141.189 65.831 141.394 65.8023C141.695 65.7608 141.889 66.0544 141.738 66.3097C141.661 66.4373 141.541 66.5554 141.414 66.6384C140.483 67.2415 139.491 67.7266 138.386 67.9819C138.309 68.001 138.228 68.0106 138.165 68.0234Z" fill="#200B57"/>
<path d="M60.3842 59.7551C59.8349 59.5349 59.5938 59.1743 59.3995 58.7946C58.8335 57.6809 58.8 56.5448 59.3459 55.4119C59.443 55.2077 59.5971 55.0226 59.7445 54.8471C59.8316 54.7418 59.9756 54.7035 60.0995 54.796C60.21 54.879 60.2435 55.0066 60.1933 55.1375C60.1765 55.1853 60.1397 55.2236 60.1129 55.2683C59.1617 56.7139 59.3693 58.1085 60.3172 59.4711C60.344 59.5094 60.3406 59.5637 60.3808 59.7551H60.3842Z" fill="#200B57"/>
<path d="M60.7257 61.8164C60.6185 61.8036 60.5114 61.8036 60.4075 61.7781C60.1697 61.7143 59.8984 61.6185 59.8984 61.3632C59.8984 61.0569 60.2066 61.175 60.3975 61.1494C60.9635 61.076 61.3621 60.7537 61.7137 60.3516C62.0889 59.9176 62.3066 59.8474 62.5477 60.0517C62.7855 60.2527 62.7587 60.5335 62.4204 60.926C61.985 61.4398 61.4525 61.8004 60.7224 61.8164H60.7257Z" fill="#200B57"/>
</g>
<defs>
<linearGradient id="paint0_linear_736_95" x1="139.266" y1="150.178" x2="190.683" y2="69.5603" gradientUnits="userSpaceOnUse">
<stop offset="0.08" stop-color="#FBF1D5"/>
<stop offset="0.17" stop-color="#F9E9B5"/>
<stop offset="0.3" stop-color="#F6E090"/>
<stop offset="0.43" stop-color="#F5D974"/>
<stop offset="0.56" stop-color="#F3D460"/>
<stop offset="0.69" stop-color="#F3D154"/>
<stop offset="0.81" stop-color="#F3D150"/>
</linearGradient>
<linearGradient id="paint1_linear_736_95" x1="15.1115" y1="50.1272" x2="79.5619" y2="11.6887" gradientUnits="userSpaceOnUse">
<stop offset="0.08" stop-color="#3C44A7"/>
<stop offset="0.18" stop-color="#323390"/>
<stop offset="0.34" stop-color="#251D74"/>
<stop offset="0.5" stop-color="#1D0E60"/>
<stop offset="0.66" stop-color="#170554"/>
<stop offset="0.81" stop-color="#160250"/>
</linearGradient>
<clipPath id="clip0_736_95">
<rect width="234.261" height="126.892" fill="white"/>
</clipPath>
</defs>
</svg>
