<svg width="156" height="170" viewBox="0 0 156 170" fill="none" xmlns="http://www.w3.org/2000/svg">
<g clip-path="url(#clip0_423_12240)">
<path d="M76.1237 39.1096H73.9616C73.8778 39.0827 73.794 39.0425 73.7069 39.029C72.0845 38.8075 70.6231 38.2368 69.4968 36.9915C68.7862 36.206 68.327 35.2795 68.3739 34.202C68.4108 33.3561 68.5583 32.5102 68.7091 31.6744C68.8063 31.1306 68.9873 31.0567 69.5337 31.144C70.918 31.3723 72.2052 31.1171 73.2812 30.2007C74.1292 29.4824 74.5516 28.4989 74.5918 27.3743C74.5952 27.2602 74.4443 27.0722 74.327 27.0286C73.6432 26.7869 73.0667 26.4345 72.6443 25.8101C71.8667 24.6621 71.9773 23.3798 72.1013 22.121C72.1683 21.4396 72.3728 20.7548 72.6309 20.117C72.9326 19.3685 73.2477 18.5696 73.7639 17.9721C74.4544 17.1765 75.2957 16.485 76.1639 15.8774C76.9415 15.337 77.8432 14.9745 78.6913 14.5314C79.0634 14.5314 79.4388 14.5314 79.8108 14.5314C80.5851 14.8066 80.9405 15.431 81.1081 16.1762C81.2857 16.9684 81.3829 17.7774 81.5941 18.5595C81.946 19.8552 81.879 21.114 81.4433 22.3728C81.2019 23.0743 81.0745 23.7826 81.3025 24.5245C81.3628 24.7225 81.3259 24.9843 81.2522 25.1857C80.8667 26.2263 80.6053 27.2871 80.8634 28.3948C81.0678 29.2709 81.4969 29.9993 82.3785 30.3753C83.3271 30.7815 84.3159 30.9057 85.3349 30.8855V30.9661C84.936 30.9762 84.7215 31.1742 84.7081 31.5837C84.7081 31.6744 84.6712 31.7684 84.6377 31.8523C84.0578 33.242 83.2969 34.5175 82.3282 35.6723C81.0377 37.213 79.4555 38.2805 77.508 38.7773C77.0488 38.8948 76.5862 38.9955 76.1237 39.1029V39.1096Z" fill="#FEB3FE"/>
<path d="M3.11426 166.398C3.27515 165.965 3.37906 165.499 3.61035 165.109C4.16678 164.166 5.07181 163.602 6.01372 163.108C7.30088 162.434 8.69865 162.058 10.1031 161.752C11.7121 161.403 13.3478 161.165 14.9601 160.836C17.2328 160.369 19.5088 159.899 21.5971 158.825C22.7166 158.248 23.6015 157.446 23.8965 156.153C23.9669 155.844 23.9669 155.519 24.0071 155.203C24.0205 155.103 24.0541 155.005 24.0809 154.908C24.1647 154.999 24.3088 155.079 24.3222 155.18C24.3557 155.445 24.3658 155.72 24.3289 155.982C24.2853 156.298 24.1881 156.603 24.111 156.912C24.0976 156.972 24.0809 157.029 24.0641 157.09C24.1379 157.09 24.215 157.097 24.2853 157.08C25.5926 156.71 26.8865 156.281 28.2072 155.985C29.4105 155.714 30.644 155.445 31.8675 155.432C33.2552 155.415 34.6765 155.291 36.0407 155.747C36.3357 155.848 36.3793 155.64 36.4765 155.435C36.6877 154.995 36.9357 154.572 37.1804 154.149C37.2139 154.092 37.3078 154.072 37.3748 154.035C37.3648 154.119 37.3681 154.206 37.3379 154.284C37.1569 154.784 36.9759 155.281 36.7815 155.777C36.7044 155.972 36.7279 156.089 36.9189 156.21C37.1905 156.382 37.2039 156.62 36.9726 156.848C36.6273 157.184 36.5938 157.6 36.681 158.03C36.9089 159.161 37.4988 160.141 38.0821 161.108C38.8095 162.32 39.4262 163.568 39.8285 164.921C40.1167 165.891 39.6407 167.204 38.7659 167.842C37.9446 168.442 37.0027 168.691 36.0039 168.748C34.177 168.849 32.3971 168.506 30.6072 168.207C29.5446 168.03 28.4753 167.895 27.406 167.788C26.2798 167.677 25.1468 167.523 24.0205 167.566C22.3345 167.63 20.6518 167.818 18.9758 168.013C17.2093 168.221 15.4495 168.513 13.6864 168.748C12.4864 168.906 11.283 169.023 10.083 169.161C10.0361 169.167 9.99251 169.208 9.94894 169.235H7.61596C6.98914 169.1 6.34892 169.003 5.7355 168.818C4.60254 168.483 3.62711 167.929 3.26174 166.683C3.24834 166.636 3.16789 166.61 3.11761 166.576C3.11761 166.522 3.11761 166.469 3.11761 166.415L3.11426 166.398Z" fill="#150050"/>
<path d="M151.781 166.156C151.647 166.408 151.536 166.677 151.379 166.912C150.869 167.67 150.108 168.07 149.257 168.325C147.99 168.704 146.683 168.802 145.379 168.718C144.055 168.634 142.737 168.436 141.424 168.264C140.053 168.087 138.688 167.878 137.321 167.684C136.204 167.526 135.088 167.358 133.969 167.214C133.52 167.157 133.067 167.147 132.615 167.123C132.108 167.093 131.602 167.039 131.099 167.053C130.248 167.076 129.397 167.127 128.549 167.194C127.727 167.257 126.906 167.335 126.092 167.449C125.039 167.596 123.993 167.794 122.944 167.956C121.349 168.204 119.743 168.415 118.134 168.154C116.934 167.959 115.898 167.432 115.342 166.257C115.027 165.589 115.013 164.884 115.258 164.193C115.503 163.501 115.737 162.803 116.049 162.145C116.378 161.45 116.82 160.812 117.162 160.124C117.557 159.325 117.926 158.513 118.258 157.687C118.449 157.214 118.345 156.741 117.993 156.345C117.799 156.126 117.759 155.922 118.043 155.747C118.235 155.63 118.278 155.485 118.191 155.274C117.966 154.733 117.759 154.186 117.547 153.642C117.511 153.545 117.484 153.444 117.454 153.344C118.04 153.763 118.352 154.361 118.533 155.032C118.603 155.291 118.711 155.311 118.955 155.26C119.579 155.133 120.212 154.975 120.842 154.972C121.995 154.965 123.145 154.918 124.305 155.086C125.874 155.314 127.422 155.609 128.944 156.042C129.507 156.204 130.057 156.408 130.613 156.59C130.697 156.616 130.791 156.613 130.882 156.623C130.868 156.543 130.855 156.465 130.838 156.385C130.771 156.073 130.687 155.764 130.644 155.448C130.613 155.21 130.61 154.962 130.65 154.727C130.67 154.612 130.811 154.522 130.898 154.421C130.928 154.532 130.972 154.643 130.979 154.757C130.989 154.888 130.949 155.025 130.965 155.156C131.156 156.6 131.974 157.6 133.225 158.265C134.924 159.168 136.761 159.671 138.638 160.044C140.099 160.332 141.551 160.651 143.016 160.92C144.786 161.242 146.552 161.584 148.211 162.303C149.777 162.978 151.245 163.787 151.781 165.596V166.16V166.156Z" fill="#150050"/>
<path d="M117.45 153.266C117.45 153.293 117.45 153.32 117.45 153.347C117.397 153.32 117.343 153.293 117.289 153.266C117.343 153.266 117.397 153.266 117.45 153.266Z" fill="#150050"/>
<path d="M74.746 54.1715C81.1348 54.3628 85.4421 51.4894 94.2277 66.0343C103.017 80.5791 142.58 156.368 142.58 156.368H105.098L76.0432 83.3652L46.8173 157.426H9.49976C9.49976 157.426 57.2587 67.8671 58.814 64.5741C60.3694 61.2811 66.3727 53.9163 74.746 54.1681V54.1715Z" fill="url(#paint0_linear_423_12240)"/>
<path d="M98.8499 74.4764C98.5382 74.228 98.2365 74.077 97.784 74.1206C97.4589 74.1508 97.0365 73.9259 96.7717 73.6876C95.9304 72.9357 95.451 71.9219 94.9181 70.9451C94.4153 70.022 93.9829 69.0351 93.3326 68.2228C92.6655 67.3903 91.794 66.7189 90.9728 66.0207C89.4242 64.6982 87.9292 63.3387 86.8029 61.6099C85.8409 60.133 86.4778 59.0219 87.7683 58.2565C88.013 58.1088 88.308 58.0316 88.5895 57.9645C88.9549 57.8772 89.1895 57.6993 89.2097 57.2999C89.2264 56.981 89.3739 56.9172 89.6186 57.1119C90.5236 57.8336 91.4689 58.5116 92.3203 59.2938C93.2119 60.1128 94.013 61.0292 94.8544 61.902C94.908 61.959 94.9616 62.0195 95.0253 62.0564C95.1225 62.1101 95.2298 62.1437 95.3337 62.1839C95.1795 62.2343 95.0287 62.3081 94.8711 62.3283C94.6097 62.3585 94.3147 62.2846 94.0868 62.382C93.8287 62.4894 93.6074 62.7177 93.4231 62.9392C93.3762 62.9963 93.4968 63.2581 93.6007 63.3655C94.3281 64.0939 95.0555 64.8224 95.8164 65.5139C96.5538 66.1819 96.9561 67.0378 97.3382 67.9274C97.8175 69.0519 98.3371 70.163 98.8432 71.2774C99.2421 72.1569 99.6477 73.033 100.053 73.9125V74.1542C99.9863 74.1542 99.9192 74.1642 99.8555 74.1508C99.3226 74.0367 99.3125 74.04 99.0108 74.4764H98.8499Z" fill="#FEB4FE"/>
<path d="M63.6742 56.9139C63.7278 57.1287 63.7144 57.4241 63.8485 57.5416C64.1066 57.7598 64.4351 57.9343 64.7603 58.0283C66.3759 58.4983 67.1603 60.076 66.1815 61.5831C64.8977 63.5536 63.1882 65.1044 61.3446 66.4974C60.0273 67.4944 59.1692 68.7834 58.415 70.1966C57.939 71.0895 57.4563 71.9824 56.9233 72.8417C56.5848 73.3855 56.149 73.879 55.4853 74.0535C55.2976 74.1039 55.0797 74.0434 54.882 74.0602C54.7512 74.0703 54.6071 74.1072 54.4965 74.1744C54.0071 74.4731 53.9066 74.4362 53.7825 73.8991C53.7758 73.8722 53.6987 73.842 53.6652 73.8521C53.6183 73.8655 53.5881 73.9327 53.5412 73.9495C53.3468 74.0065 53.149 74.0535 52.9546 74.1039C53.0049 73.936 53.0417 73.7615 53.1121 73.6004C54.0406 71.4722 54.9725 69.3473 55.901 67.2191C56.3032 66.2994 57.0172 65.6415 57.7245 64.9634C58.5055 64.2148 59.2496 63.426 60.0004 62.6472C60.034 62.6103 59.9803 62.4089 59.9535 62.4055C59.4004 62.3384 58.844 62.2813 58.2909 62.2343C58.1166 62.2176 57.939 62.2343 57.7647 62.2176C57.7446 62.2176 57.7379 62.0867 57.7245 62.0128C58.3412 61.9625 58.5256 61.3851 58.8608 61.0226C60.168 59.6194 61.5792 58.3405 63.1245 57.2026C63.272 57.0918 63.4396 57.0079 63.5971 56.9105C63.6239 56.9105 63.6507 56.9105 63.6776 56.9105L63.6742 56.9139Z" fill="#FEB4FE"/>
<path d="M145.747 10.8323C145.57 11.4835 145.442 12.1515 145.208 12.7792C144.195 15.4915 142.037 16.7637 139.365 17.3545C136.124 18.0728 132.943 17.5525 129.805 16.7536C126.899 16.0151 124.033 15.1189 121.13 14.367C118.01 13.558 115.063 13.9004 112.275 15.6929C109.992 17.1598 107.548 18.3112 104.692 18.0863C102.215 17.8916 99.8555 17.2437 97.613 16.2098C95.2633 15.1256 93.0074 13.8265 90.6342 12.8027C88.2174 11.7588 85.861 11.9501 83.8263 13.84C83.6319 14.0212 83.4342 14.1958 83.2397 14.3737C83.2565 14.0615 83.2565 13.7493 83.29 13.4405C83.699 9.68094 87.1649 7.37148 90.5806 7.49568C92.327 7.55611 94.0532 8.07305 95.7895 8.38858C97.7639 8.7444 99.7248 9.28484 101.712 9.42247C104.3 9.60037 106.519 8.496 108.494 6.8344C110.575 5.08217 112.647 3.2863 115.288 2.38669C115.925 2.1685 116.579 2.00402 117.225 1.81604C117.869 1.81604 118.513 1.81604 119.153 1.81604C119.682 1.93353 120.232 1.98723 120.735 2.18193C123.038 3.06476 125.32 4.00801 127.627 4.88748C129.926 5.76359 132.239 6.03885 134.572 4.93447C136.332 4.102 138.132 3.52128 140.16 3.71932C142.131 3.91402 144.561 5.51855 145.258 7.39162C145.459 7.93542 145.59 8.50607 145.754 9.06665V10.839L145.747 10.8323Z" fill="#EF6051"/>
<path d="M81.9056 23.4202C81.4632 23.1986 81.0442 22.9133 80.5783 22.7522C78.557 22.0506 77.1626 19.7546 77.5883 17.6264C77.6084 17.519 77.6352 17.3578 77.6285 17.2471C77.5246 17.2941 77.4174 17.3411 77.3134 17.3847C76.3414 17.8177 75.8319 18.1265 74.833 18.4857C74.6151 18.5629 73.881 18.6133 73.5995 18.5159C73.4587 18.4656 73.3849 18.3145 73.4285 18.1735C73.4855 17.9856 73.5458 17.7976 73.6497 17.6432C74.8497 15.8674 76.3883 14.5315 78.5436 14.1119C81.2855 13.5781 83.2565 15.0618 84.0073 17.764C84.4531 19.3753 84.2856 20.9865 83.404 22.4534C83.2163 22.7656 82.9347 23.0207 82.6833 23.2926L81.9023 23.4235L81.9056 23.4202Z" fill="#EF6051"/>
<path d="M83.7616 15.2462C84.0194 14.9045 83.8585 14.3475 83.4021 14.0022C82.9458 13.6568 82.3668 13.6537 82.1089 13.9954C81.8511 14.337 82.012 14.894 82.4684 15.2394C82.9248 15.5848 83.5038 15.5878 83.7616 15.2462Z" fill="#160050"/>
<path d="M83.347 22.1547C83.4174 22.2621 83.7225 22.4299 83.4845 23.0711C82.8275 24.2929 81.8521 25.1522 80.585 25.6793L79.5057 25.4006C79.2979 25.1254 79.0599 24.8401 79.1235 24.6756C79.3884 23.9942 79.7537 23.2859 80.2666 22.7924C80.7895 22.2856 80.8699 22.3091 81.5202 21.9365C81.6912 21.8559 82.1638 21.7653 82.499 21.7586C82.6666 21.7552 82.8308 21.8156 82.9616 21.923L83.3537 22.1614L83.347 22.1547Z" fill="#FEB4FE"/>
<path d="M69.2797 31.082C69.2797 31.082 71.1567 37.3416 76.1443 37.1404C81.1319 36.9426 82.9855 32.6209 83.3423 31.082C83.3423 31.082 87.7464 30.2974 93.034 31.082C97.5548 31.7525 99.0584 34.5588 99.4051 35.7021C99.7519 36.8453 101.342 38.6692 104.096 38.9308C106.25 39.1353 111.801 39.8729 112.864 43.2524C114.191 47.4702 115.038 48.6403 118.249 49.4852C121.459 50.3301 123.683 53.1363 123.509 55.6207C123.333 58.1051 121.732 58.95 118.819 59.2953C115.905 59.6406 113.734 59.8787 112.301 60.7236C110.867 61.5685 108.397 65.0587 105.336 65.3571C102.272 65.6555 101.205 64.7603 98.715 64.4384C96.3112 64.1266 94.9643 64.5122 94.9643 64.5122C94.9643 64.5122 90.5802 58.5275 87.0129 57.4714L87.1129 57.2602C87.1129 57.2602 88.1731 55.3223 90.5835 54.977C92.994 54.6316 95.3144 55.3257 97.0414 54.977C98.7683 54.6283 100.275 53.2034 100.275 53.2034C100.275 53.2034 98.2749 52.5664 97.2381 51.413C96.2012 50.2597 96.4479 48.8951 95.3111 47.9396C94.1742 46.984 93.234 48.1575 91.2603 46.2867C90.3969 45.4686 90.1735 44.7478 90.1735 44.7478C90.1735 44.7478 88.3465 45.9547 88.0498 47.9396C87.753 49.9277 88.0498 55.8722 84.2457 56.1706C80.4417 56.4689 80.6418 55.2284 76.391 55.2519C74.2473 55.2653 70.0732 56.8176 67.5528 55.6241C65.0323 54.4305 65.4291 49.4148 64.6389 47.5775C63.8488 45.7402 62.8619 44.6975 62.8619 44.6975C62.8619 44.6975 61.9718 46.2364 60.7882 46.6856C59.6047 47.1349 57.9244 47.0109 57.2809 47.9396C56.6375 48.8683 56.4908 50.7827 55.2572 51.6645C54.0237 52.5462 52.3434 52.8446 52.3434 52.8446C52.3434 52.8446 53.997 54.5579 55.674 54.8831C58.6178 55.4531 61.4583 54.2628 63.0886 55.205C64.7189 56.1471 65.7791 57.2669 65.7791 57.2669C65.7791 57.2669 58.8612 61.7428 57.7377 64.5189C57.7377 64.5189 56.9875 64.0495 54.9872 64.2641C53.0102 64.4786 50.4297 65.7024 48.266 65.5247C45.7922 65.3202 45.0021 64.9011 43.5418 63.1644C41.2814 60.4822 39.061 59.8116 34.9103 59.4395C30.7595 59.0673 29.4326 56.9484 29.2726 55.8185C29.0125 53.9946 28.7792 52.0433 33.8167 49.9579C38.8543 47.8725 39.2944 44.6103 40.0778 42.83C41.3114 40.0237 43.9885 39.1286 46.3556 39.1152C49.6496 39.095 52.4401 38.0389 53.0302 35.8529C53.6203 33.6669 56.3874 30.3846 62.1151 30.3343C67.8461 30.284 69.2764 31.0786 69.2764 31.0786L69.2797 31.082Z" fill="#5E85FE"/>
<path d="M76.5224 19.2107C76.5224 19.3852 76.3615 19.5396 76.2342 19.6034C75.6174 19.9089 74.9839 20.1774 74.2732 20.493C74.5984 20.6608 74.8598 20.7749 75.1012 20.9293C75.1917 20.9864 75.2956 21.1005 75.2855 21.2315C75.1448 21.3389 75.004 21.3053 74.9101 21.2583C74.5917 21.0938 74.2867 20.8991 73.9883 20.6944C73.6766 20.4829 73.6967 20.3184 74.052 20.1674C74.6922 19.8988 75.3358 19.6437 75.9761 19.3785C76.0833 19.3349 76.1403 19.345 76.2442 19.2879C76.3247 19.2879 76.4353 19.1771 76.5224 19.2107Z" fill="#160050"/>
<path d="M74.1593 22.5977C74.528 22.4198 74.8599 22.2217 75.2185 22.0942C75.842 21.8726 76.3984 21.9867 76.623 22.3291C76.8308 22.6514 76.6967 23.1784 76.2275 23.6584C75.4733 24.4271 74.5079 24.7695 73.4755 24.9541C73.147 25.0112 72.8956 24.8266 72.7716 24.5312C72.4096 23.6584 72.3224 22.7689 72.6777 21.8693C72.852 21.4228 73.1872 21.1744 73.5023 21.2315C73.8241 21.2919 74.0721 21.6309 74.1191 22.0841C74.1358 22.2519 74.1492 22.4231 74.1626 22.5943L74.1593 22.5977Z" fill="#160050"/>
<path d="M55.281 73.4023C55.2475 73.2345 55.1871 73.1103 55.214 73.0129C55.2978 72.731 55.4151 72.4591 55.5257 72.1872C56.0754 70.8478 56.6084 69.5018 57.1849 68.1725C57.376 67.7361 57.6173 67.2897 57.9425 66.9573C58.9883 65.9 60.081 64.8896 61.1637 63.8725C61.3246 63.7214 61.5358 63.6173 61.7336 63.5066C61.7805 63.4797 61.8542 63.5066 61.9179 63.5133C61.9112 63.5737 61.928 63.6509 61.8978 63.6946C61.7838 63.859 61.6766 64.0302 61.5324 64.1679C60.5503 65.1178 59.538 66.0409 58.586 67.0178C58.2039 67.4105 57.8654 67.8872 57.6374 68.384C56.9804 69.824 56.3939 71.2943 55.7771 72.7477C55.7101 72.9089 55.6229 73.0599 55.529 73.2076C55.4888 73.268 55.4117 73.305 55.281 73.4023Z" fill="#160050"/>
<path d="M98.4845 72.3281C98.4543 72.4121 98.4275 72.4825 98.4007 72.5564C98.3303 72.5262 98.2398 72.5128 98.1962 72.4624C98.0722 72.308 97.9415 72.1469 97.8644 71.9656C97.2744 70.6162 96.718 69.25 96.108 67.9106C95.8733 67.3971 95.5783 66.8801 95.2029 66.4672C94.2375 65.4065 93.2118 64.4062 92.2096 63.3824C92.1828 63.3521 92.1392 63.332 92.1258 63.2984C92.0688 63.1541 92.0185 63.0064 91.9683 62.8621C92.109 62.9023 92.2901 62.8956 92.3806 62.9863C93.6007 64.2081 94.8141 65.4367 96.0141 66.6787C96.1851 66.8566 96.2923 67.105 96.3929 67.3366C97.0465 68.8505 97.6901 70.3678 98.3337 71.885C98.3974 72.0327 98.4376 72.1872 98.4879 72.3382L98.4845 72.3281Z" fill="#160050"/>
<path d="M90.3695 63.1272C90.5304 63.2279 90.6309 63.2749 90.708 63.3454C91.8175 64.3524 92.9371 65.3494 94.0231 66.3833C94.2846 66.6317 94.4421 67.0009 94.6231 67.3265C95.4444 68.8169 96.2556 70.314 97.0667 71.8078C97.0734 71.8212 97.0835 71.8313 97.0868 71.8447C97.1371 72.073 97.1841 72.2979 97.2343 72.5261C97.05 72.3717 96.8053 72.2542 96.6947 72.0595C95.9036 70.6598 95.1159 69.2566 94.3784 67.83C93.9963 67.0915 93.5337 66.4437 92.9136 65.8898C92.1259 65.1849 91.3583 64.4565 90.584 63.7348C90.4868 63.6441 90.3795 63.5501 90.3192 63.436C90.2857 63.3722 90.346 63.2615 90.3728 63.1272H90.3695Z" fill="#160050"/>
<path d="M54.3424 73.0599C54.272 72.9055 54.2049 72.8283 54.2116 72.7612C54.2251 72.6437 54.2753 72.5296 54.3223 72.4188C55.0195 70.7505 55.7033 69.0754 56.4273 67.4206C56.615 66.9909 56.9033 66.5847 57.2184 66.2323C58.053 65.3058 58.9178 64.4129 59.7893 63.52C59.9268 63.379 60.1581 63.3287 60.3458 63.238C60.2687 63.4361 60.2419 63.6811 60.1078 63.8288C59.3335 64.6814 58.5558 65.5341 57.7346 66.3397C57.2318 66.8331 56.9167 67.4105 56.6485 68.0483C56.015 69.5689 55.3413 71.0727 54.6742 72.5799C54.6072 72.7276 54.4865 72.8518 54.3357 73.0566L54.3424 73.0599Z" fill="#160050"/>
<path d="M106.003 50.8448C106.459 50.8784 106.848 50.8784 107.23 50.9422C107.384 50.969 107.511 51.1335 107.652 51.2342C107.491 51.3014 107.327 51.4356 107.173 51.4222C105.953 51.3148 104.729 51.2947 103.553 51.6572C102.819 51.8821 102.128 52.2547 101.418 52.5501C101.287 52.6038 101.133 52.6105 100.989 52.6407C101.069 52.5165 101.123 52.3587 101.233 52.2681C102.189 51.4893 103.318 51.1436 104.511 50.9758C105.028 50.9019 105.551 50.8851 106.003 50.8448Z" fill="#160050"/>
<path d="M47.2227 51.0966C48.3356 51.1905 49.3881 51.4356 50.4004 51.8384C50.5345 51.8921 50.6116 52.0902 50.7155 52.2177C50.5613 52.2345 50.3803 52.3083 50.2529 52.258C48.5836 51.6034 46.8842 51.4389 45.1345 51.8686C45.0339 51.8921 44.9099 51.8149 44.7959 51.7847C44.873 51.6907 44.9333 51.5329 45.0272 51.5162C45.7546 51.3617 46.4886 51.2308 47.2227 51.0966Z" fill="#160050"/>
<path d="M75.6307 27.3273C75.6039 27.3273 75.5771 27.3273 75.5502 27.3273C75.3391 27.3105 75.091 27.3307 74.9771 27.0856C75.1648 26.9178 75.3424 26.9413 75.5301 26.9278C76.3782 26.8641 77.1324 26.5552 77.8329 26.092C77.9234 26.0349 78.0005 25.9376 78.0977 25.9175C78.2318 25.8872 78.3525 25.8369 78.5201 25.9107C78.5503 26.0786 78.4698 26.1994 78.3827 26.28C77.786 26.8439 76.4653 27.3374 75.6273 27.3307L75.6307 27.3273Z" fill="#160050"/>
<path d="M81.1212 24.2088C81.0944 24.1887 80.9804 24.1921 80.9402 24.0779C80.9804 23.89 81.0441 23.8866 81.1212 23.8564C81.6139 23.6785 81.8955 23.3159 82.0933 22.8494C82.1368 22.7453 82.2206 22.6077 82.3949 22.6077C82.5056 22.7285 82.5257 22.8729 82.5022 22.9836C82.3648 23.5744 81.6709 24.2055 81.1212 24.2055V24.2088Z" fill="#160050"/>
<path d="M80.9806 25.0918C80.9504 25.2059 80.8163 25.2596 80.7727 25.2764C80.5783 25.3435 80.4677 25.3536 80.3202 25.2596C80.1727 25.1656 80.1359 24.9038 80.0554 24.7125C80.0554 24.7057 80.1023 24.6621 80.1124 24.6655C80.404 24.8065 80.1258 25.3066 80.9806 25.0918Z" fill="#160050"/>
<path d="M16.3008 95.9866C16.4818 95.3992 16.636 94.8016 16.8472 94.2243C17.4204 92.6365 18.017 91.0555 18.6036 89.4745C18.7377 89.1186 18.8684 88.7595 19.0126 88.407C19.2103 87.9236 19.1735 87.8699 18.6874 87.7424C17.2863 87.3731 15.8852 86.9972 14.4874 86.6145C13.5321 86.3527 12.5801 86.0808 11.6282 85.8089C11.5678 85.7921 11.5008 85.7787 11.4472 85.7451C11.3768 85.6981 11.3198 85.631 11.2561 85.5739C11.3231 85.5437 11.3868 85.5001 11.4572 85.4866C12.1042 85.3591 12.7511 85.2282 13.4047 85.1174C15.017 84.8455 16.6327 84.5803 18.245 84.3118C18.3992 84.2849 18.5701 84.2816 18.7008 84.2077C18.8115 84.1439 18.9489 83.9962 18.9489 83.8855C18.9221 81.915 18.8751 79.9446 18.8349 77.9742C18.8215 77.2626 18.8115 76.5509 18.8014 75.8426C18.8014 75.7654 18.8014 75.6782 18.8148 75.601C18.8316 75.1512 19.0327 75.3358 19.1768 75.5808C19.8338 76.6953 20.4807 77.8131 21.131 78.9309C21.7277 79.9547 22.3176 80.9852 22.9109 82.009C23.0215 82.197 23.1422 82.244 23.3701 82.1399C25.8506 81.0087 28.3344 79.8875 30.8182 78.7664C30.9121 78.7227 31.0127 78.6825 31.1132 78.6724C31.1803 78.6657 31.2506 78.716 31.321 78.7429C31.2942 78.81 31.2842 78.8906 31.2439 78.9443C30.1277 80.4414 29.0082 81.9352 27.8853 83.4289C27.3489 84.1439 26.8093 84.8556 26.2562 85.5571C26.0752 85.7854 26.0685 85.9431 26.2361 86.2083C27.7713 88.6252 29.2797 91.0589 30.7981 93.4858C30.8484 93.5664 30.8987 93.6469 30.9255 93.7342C30.9423 93.7913 30.9188 93.8618 30.9154 93.9289C30.8585 93.9155 30.7914 93.9121 30.7445 93.8819C29.635 93.1501 28.5288 92.415 27.416 91.6866C26.3568 90.9951 25.2908 90.3103 24.2283 89.6255C24.0405 89.5047 23.8461 89.3905 23.6618 89.263C23.1925 88.9441 23.1891 88.9374 22.7903 89.3536C21.0439 91.1831 19.2975 93.0158 17.5578 94.852C17.2126 95.2179 16.8841 95.6039 16.5489 95.9799H16.3075L16.3008 95.9866Z" fill="#F9CF19"/>
<path d="M145.493 67.951C146.549 67.246 149.797 65.7657 150.876 65.3126C151.969 64.8527 153.092 64.4599 154.218 64.0907C154.761 63.9128 155.324 63.6543 155.927 63.8994V64.141C155.72 64.225 155.515 64.3156 155.301 64.3861C153.494 64.9802 151.66 65.5106 149.964 66.3934C148.476 67.1688 146.971 67.9174 145.53 68.7734C144.728 69.25 144.041 69.9214 143.3 70.5055C143.247 70.5323 143.116 70.7002 143.062 70.727C142.982 70.8344 142.979 70.8009 142.898 70.9083C142.845 70.9351 142.791 70.962 142.737 70.9888C142.63 70.9083 142.523 70.8277 142.416 70.7472C142.674 70.3175 142.64 70.3779 142.818 70.2201" fill="#FFBF7B"/>
<path d="M39.4562 0.842529C39.9523 1.14464 40.4685 1.41989 40.9411 1.75557C41.6652 2.27251 42.3926 2.78945 43.0529 3.38024C43.7166 3.97439 44.3032 4.65246 44.9065 5.30702C44.987 5.3943 45.0808 5.56885 44.997 5.70648C44.8663 5.75012 44.692 5.63934 44.6015 5.54535C44.2261 5.14926 43.8976 4.70616 43.5155 4.31678C42.3155 3.10163 40.9478 2.10803 39.4328 1.31919C39.2283 1.21177 39.0339 1.11778 39.2115 0.842529C39.292 0.842529 39.3724 0.842529 39.4529 0.842529H39.4562Z" fill="#FFBF7B"/>
<path d="M128.944 73.9932C128.968 73.3487 128.988 72.7075 129.018 72.063C129.021 71.969 129.078 71.8784 129.112 71.7844C129.169 71.8616 129.236 71.9321 129.276 72.016C129.923 73.3621 130.563 74.7082 131.207 76.0542C131.81 77.3164 132.42 78.5718 133.007 79.8407C133.111 80.0689 133.208 80.0656 133.395 79.9816C134.344 79.5587 135.296 79.1458 136.245 78.7195C137.897 77.981 139.546 77.2325 141.199 76.494C141.279 76.457 141.37 76.4268 141.46 76.4201C141.534 76.4134 141.608 76.4436 141.685 76.4604C141.651 76.5275 141.635 76.6081 141.588 76.6618C140.391 78.0314 139.191 79.3976 137.991 80.7604C137.207 81.6533 136.416 82.5429 135.641 83.4458C135.578 83.5197 135.568 83.6942 135.608 83.7916C136.694 86.4501 137.793 89.102 138.886 91.7572C138.903 91.7941 138.926 91.831 138.93 91.8679C138.943 91.9955 138.953 92.1231 138.963 92.2506C138.836 92.207 138.678 92.1936 138.584 92.1096C137.431 91.0825 136.292 90.0452 135.139 89.0147C134.257 88.2259 133.365 87.4538 132.487 86.665C132.303 86.4971 132.212 86.6012 132.098 86.7287C131.347 87.5981 130.593 88.4642 129.842 89.3336C128.864 90.4648 127.885 91.5994 126.909 92.7306C126.614 93.073 126.323 93.4221 126.018 93.7578C125.937 93.8451 125.81 93.8887 125.706 93.9491C125.73 93.8484 125.753 93.7444 125.78 93.6437C125.981 92.9555 126.182 92.2674 126.38 91.5793C126.893 89.8237 127.402 88.0681 127.918 86.3159C128.002 86.0272 128.13 85.7519 128.217 85.4632C128.287 85.2316 128.28 85.0504 127.989 84.9194C127.161 84.5502 126.353 84.134 125.535 83.7379C124.399 83.1873 123.262 82.6335 122.126 82.083C121.436 81.7473 120.745 81.415 120.014 81.0625C121.235 81.0625 122.388 81.0625 123.541 81.0625C123.608 81.0625 123.675 81.0692 123.742 81.0726C125.277 81.0994 126.812 81.1162 128.347 81.1632C128.713 81.1733 128.81 81.0625 128.793 80.7168C128.773 80.2737 128.807 79.8306 128.817 79.3875C128.817 79.3304 128.817 79.2734 128.817 79.2129C128.81 78.8672 128.803 78.5215 128.797 78.1757C129.085 77.7058 128.947 77.2123 128.87 76.7222C128.87 75.8931 128.884 75.6749 128.884 74.8424C128.907 74.7585 128.917 74.0637 128.941 73.9797L128.944 73.9932Z" fill="#F9CF19"/>
<path d="M44.776 9.04988C45.7547 9.18079 46.6497 9.29492 47.5413 9.41576C48.4296 9.53661 49.3145 9.69437 50.2062 9.78165C51.0039 9.85886 51.024 9.832 51.2922 9.05995C51.8218 7.54269 52.328 6.01536 52.8475 4.49475C52.9749 4.12215 53.0989 3.74955 53.2363 3.38366C53.2598 3.31988 53.3336 3.27624 53.3838 3.22253C53.4308 3.2796 53.5079 3.33331 53.5179 3.39709C53.6319 4.2497 53.7391 5.10568 53.8464 5.96165C53.9905 7.10631 54.138 8.24761 54.2822 9.39226C54.2822 9.40569 54.2956 9.41576 54.2989 9.42919C54.3526 9.65745 54.3391 9.98977 54.4833 10.0838C54.6341 10.1845 54.9391 10.077 55.1704 10.0368C56.4542 9.80515 57.7347 9.5601 59.0185 9.32513C59.5079 9.2345 60.0006 9.15058 60.4934 9.08344C60.604 9.06666 60.7247 9.13379 60.842 9.16065C60.7548 9.25128 60.6811 9.36541 60.5772 9.43255C59.528 10.1408 58.4721 10.839 57.4196 11.5406C56.7693 11.9736 56.1224 12.4167 55.4621 12.8363C55.2609 12.9639 55.271 13.078 55.3615 13.2626C56.1559 14.8739 56.9503 16.4851 57.7347 18.0997C57.9258 18.4958 58.1001 18.8986 58.271 19.3048C58.3079 19.3921 58.2978 19.4961 58.3112 19.5935C58.2006 19.57 58.0665 19.58 57.9827 19.5196C57.5637 19.2242 57.1514 18.912 56.7425 18.5999C55.3414 17.5223 53.9436 16.4381 52.5324 15.3673C52.4553 15.3069 52.2442 15.3203 52.1671 15.3841C50.8732 16.418 49.5927 17.4653 48.3089 18.5059C47.9804 18.7711 47.6519 19.0396 47.31 19.2846C47.2363 19.3384 47.1022 19.3081 46.995 19.3149C47.0084 19.2209 46.995 19.1168 47.0385 19.0396C47.7525 17.6499 48.4698 16.2602 49.1905 14.8705C49.4654 14.3435 49.7168 13.7997 50.0319 13.2995C50.1827 13.0612 50.1022 12.9571 49.9346 12.8497C48.805 12.128 47.6654 11.4198 46.5357 10.7014C45.9257 10.312 45.3156 9.92263 44.719 9.51647C44.5815 9.42248 44.4877 9.26471 44.3704 9.13379C44.5313 9.10023 44.6922 9.07002 44.7726 9.05323L44.776 9.04988Z" fill="#F9CF1A"/>
<path d="M0.875032 64.7721C1.02587 64.8392 1.17671 64.8762 1.28733 64.9634C2.17895 65.6583 3.09069 66.333 3.94879 67.0681C4.78008 67.7798 5.61137 68.5015 6.33875 69.3138C7.65943 70.7773 8.93318 72.2879 10.1701 73.8253C10.9209 74.7585 11.5678 75.7722 12.2416 76.7625C12.3656 76.9471 12.6338 77.229 12.3053 77.4137C12.0204 77.5748 11.8662 77.2492 11.722 77.0545C10.7734 75.7521 9.8952 74.3892 8.8695 73.1472C7.62926 71.6434 6.30859 70.2067 4.95104 68.8103C3.6974 67.5179 2.30633 66.3666 0.821401 65.3427C0.700729 65.2588 0.65045 65.0742 0.56665 64.9366C0.66721 64.8829 0.764417 64.8325 0.875032 64.7721Z" fill="#FFBF7B"/>
<path d="M14.2059 74.5571C14.1522 74.6544 14.1053 74.8323 14.0416 74.839C13.931 74.8525 13.7634 74.7887 13.6964 74.7014C13.5019 74.4329 13.3511 74.1341 13.1768 73.8521C12.2282 72.3215 11.3165 70.7639 10.3142 69.2702C9.52985 68.0987 8.65163 66.9842 7.77341 65.8798C7.12648 65.0675 6.41251 64.3089 5.72536 63.5267C5.68178 63.4764 5.62815 63.4361 5.58457 63.3824C5.43709 63.2078 5.14882 63.0299 5.40357 62.7983C5.48066 62.7278 5.85608 62.8655 5.99016 63.0098C6.78793 63.8523 7.60582 64.6848 8.32649 65.5945C9.3522 66.8902 10.3544 68.2094 11.2695 69.5857C12.2349 71.0392 13.093 72.5632 13.9913 74.0636C14.0785 74.2113 14.1254 74.3825 14.2025 74.5638L14.2059 74.5571Z" fill="#FFBF7B"/>
<path d="M11.6819 79.4579C11.6216 79.5754 11.5914 79.713 11.521 79.7399C11.4573 79.7634 11.3233 79.6862 11.2629 79.6157C10.6964 78.9242 10.14 78.2294 9.58693 77.5278C8.43385 76.0676 7.19027 74.6913 5.73886 73.5299C4.77349 72.7578 3.74779 72.0596 2.74554 71.3346C2.60811 71.2339 2.4137 71.2003 2.29303 71.0895C2.18912 70.9922 2.15224 70.8243 2.08521 70.6901C2.21928 70.6531 2.39359 70.5457 2.48409 70.5961C3.11761 70.9318 3.77795 71.2439 4.34779 71.6736C5.3802 72.449 6.41596 73.2345 7.33775 74.1341C8.37351 75.1411 9.30201 76.2656 10.2506 77.36C10.6663 77.84 11.0316 78.3703 11.4003 78.8906C11.521 79.0585 11.5881 79.2666 11.6819 79.4646V79.4579Z" fill="#FFBF7B"/>
<path d="M146.478 65.7757C146.156 65.9906 145.835 66.2054 145.513 66.4202C145.164 66.6619 144.816 66.9036 144.467 67.1453C143.958 67.5213 143.448 67.8972 142.939 68.2732C142.805 68.4075 142.67 68.5417 142.536 68.676C142.268 68.8908 142 69.1057 141.732 69.3205C141.651 69.4011 141.571 69.4816 141.491 69.5622C141.035 70.0455 140.579 70.5289 140.123 71.0123C140.042 71.0929 139.962 71.1734 139.882 71.254C139.828 71.254 139.774 71.254 139.721 71.254L139.56 71.1734C139.56 71.0392 139.56 70.9049 139.56 70.7706C139.587 70.7169 139.613 70.6632 139.64 70.6095C139.774 70.4484 139.908 70.2872 140.042 70.1261C140.525 69.6427 141.008 69.1594 141.491 68.676C141.517 68.6491 141.544 68.6223 141.571 68.5954C141.625 68.5417 141.678 68.488 141.732 68.4343C141.759 68.4074 141.786 68.3806 141.812 68.3537C141.946 68.2463 142.08 68.1389 142.215 68.0315C142.268 67.9778 142.322 67.9241 142.375 67.8704C142.483 67.7898 142.59 67.7092 142.697 67.6287C142.724 67.6018 142.751 67.575 142.778 67.5481C142.912 67.4407 143.046 67.3333 143.18 67.2259L143.26 67.1453C143.475 66.9842 143.689 66.8231 143.904 66.6619C144.011 66.5814 144.118 66.5008 144.226 66.4202C144.306 66.3665 144.387 66.3128 144.467 66.2591C144.561 66.2121 144.658 66.1718 144.749 66.1181C146.043 65.3763 147.326 64.6277 148.627 63.9027C148.935 63.7315 149.284 63.6274 149.626 63.5334C149.733 63.5032 149.854 63.4931 150.005 63.6442C150.052 63.7986 149.907 63.8523 149.82 63.9564C149.763 64.0235 149.639 64.1041 149.555 64.1477C148.935 64.4498 148.302 64.7352 147.692 65.0574" fill="#FFBF7B"/>
<path d="M155.482 68.1121C155.455 68.1658 155.428 68.2195 155.401 68.2732C155.133 68.3807 154.865 68.4881 154.597 68.5955C154.543 68.5955 154.489 68.5955 154.436 68.5955C153.792 68.6895 153.142 68.7566 152.505 68.8808C150.618 69.2501 148.768 69.7536 147.011 70.5491C146.394 70.8277 145.791 71.1433 145.191 71.4588C144.993 71.5629 144.792 71.7978 144.604 71.5494C144.413 71.2977 144.708 71.1567 144.852 70.9956C144.879 70.9654 144.916 70.9486 144.953 70.9284C145.412 70.6834 145.865 70.4249 146.331 70.2C148.275 69.2635 150.33 68.6626 152.448 68.2665C153.031 68.1558 153.615 68.055 154.198 67.9476C154.251 67.9476 154.305 67.9476 154.359 67.9476C154.734 68.0013 155.11 68.055 155.485 68.1088L155.482 68.1121Z" fill="#FFBF7B"/>
<path d="M34.663 1.43335C35.3468 1.66161 36.0172 1.84959 36.6575 2.10806C38.8027 2.9741 40.7737 4.15568 42.6005 5.5756C42.9491 5.84414 43.2776 6.13953 43.6128 6.4215C43.6329 6.43828 43.653 6.46178 43.6698 6.47857C43.8005 6.61284 43.9514 6.76389 43.8542 6.97537C43.6463 7.01565 43.5458 6.87466 43.4218 6.78403C42.319 5.96834 41.2631 5.08215 40.1167 4.33695C38.4106 3.23257 36.5804 2.36653 34.6061 1.83616C34.482 1.80259 34.3781 1.70525 34.2642 1.63811C34.3949 1.57433 34.5223 1.5072 34.663 1.43671V1.43335Z" fill="#FFBF7B"/>
<path d="M39.5233 5.81054C40.5289 6.26034 41.4842 6.82764 42.4597 7.34458C42.4831 7.35801 42.5166 7.36136 42.53 7.3815C42.6809 7.49563 42.8686 7.60305 42.8083 7.78096C42.6474 7.84809 42.4697 7.78767 42.349 7.71382C41.1691 6.97869 39.9591 6.30734 38.6317 5.88103C38.1289 5.7199 37.5993 5.63263 37.0831 5.51179C37.0194 5.495 36.949 5.48493 36.8954 5.44801C36.8149 5.3943 36.6909 5.38758 36.6775 5.26003C36.7546 5.15261 36.8417 5.15261 36.9322 5.11904C36.9926 5.0989 37.063 5.11569 37.13 5.11569" fill="#FFBF7B"/>
<path d="M128.874 76.7322C128.954 77.2223 129.088 77.7124 128.8 78.1857C128.823 77.7023 128.847 77.2189 128.874 76.7322Z" fill="#FADA4E"/>
</g>
<defs>
<linearGradient id="paint0_linear_423_12240" x1="76.0566" y1="159.889" x2="75.4582" y2="42.3254" gradientUnits="userSpaceOnUse">
<stop stop-color="#4967E5"/>
<stop offset="0.04" stop-color="#3D50C4"/>
<stop offset="0.09" stop-color="#3137A0"/>
<stop offset="0.14" stop-color="#262383"/>
<stop offset="0.19" stop-color="#1F136C"/>
<stop offset="0.25" stop-color="#19085C"/>
<stop offset="0.32" stop-color="#160253"/>
<stop offset="0.41" stop-color="#150050"/>
</linearGradient>
<clipPath id="clip0_423_12240">
<rect width="155.361" height="168.375" fill="white" transform="translate(0.56665 0.842529)"/>
</clipPath>
</defs>
</svg>
