<svg width="609" height="591" viewBox="0 0 609 591" fill="none" xmlns="http://www.w3.org/2000/svg">
<g clip-path="url(#clip0_87_4145)">
<path d="M340.039 519.062H342.118C342.346 519.282 342.501 519.494 342.509 519.869C342.607 522.887 342.745 525.897 342.859 528.906C343.047 533.898 343.267 538.89 343.275 543.889C343.275 544.411 343.275 544.925 343.243 545.447C343.218 545.822 343.055 546.173 342.713 546.295C342.289 546.45 342.085 546.067 341.922 545.765C341.694 545.341 341.498 544.893 341.343 544.436C340.887 543.098 340.879 541.695 340.797 540.301C340.74 539.355 340.683 538.408 340.618 537.316C339.567 538.58 338.898 539.746 339.061 541.296C339.143 542.03 338.923 542.78 338.654 543.482C338.458 543.979 338.328 544.697 337.733 544.713C337.113 544.729 337.008 543.995 336.836 543.506C336.201 541.671 336.152 539.738 336.103 537.837C335.924 531.573 335.826 525.318 335.703 519.054H336.836C337.904 519.355 338.98 519.355 340.048 519.054L340.039 519.062Z" fill="#EE6152"/>
<path d="M340.039 519.062C338.972 519.364 337.896 519.364 336.828 519.062H340.039Z" fill="#F06F61"/>
<path d="M365.102 495.678H366.267C366.43 495.898 366.667 495.874 366.887 495.874C367.881 495.874 368.802 496.176 369.69 496.551C371.671 497.391 371.858 499.275 370.147 500.58C369.609 500.988 369.03 501.322 368.256 501.624C371.924 502.285 375.004 503.516 376.374 507.203V508.573C375.624 510.522 374.206 511.672 372.184 512.064C370.098 512.472 368.003 512.398 365.933 511.991C362.363 511.281 358.875 510.221 355.224 509.878C351.646 509.544 348.206 509.813 344.897 511.297C343.952 511.721 343.022 512.194 342.101 512.643C341.922 512.292 342.085 512.097 342.175 511.893C343.324 509.25 344.881 506.852 346.853 504.772C350.757 500.653 355.492 497.921 360.97 496.445C362.331 496.078 363.749 496.021 365.11 495.67L365.102 495.678Z" fill="#F89BF9"/>
<path d="M291.553 590.356C281.308 590.233 271.063 590.111 260.818 589.972C257.175 589.923 253.532 589.842 249.897 589.76C248.487 589.728 248.487 589.711 248.511 588.349C248.642 581.18 248.756 574.011 248.911 566.841C249.066 559.444 249.278 552.046 249.253 544.648C249.253 544.151 249.4 543.8 249.775 543.466C255.855 538.058 261.919 532.634 267.991 527.21C274.112 521.746 280.241 516.297 286.361 510.832C290.054 507.537 293.746 504.242 297.405 500.915C297.894 500.466 298.139 500.784 298.457 501.021C303.192 504.422 307.789 507.994 312.418 511.534C326.583 522.374 340.732 533.238 354.898 544.061C355.452 544.485 355.655 544.901 355.647 545.594C355.484 557.005 355.37 568.415 355.175 579.818C355.118 583.211 355.036 586.596 355.061 589.989C355.061 590.821 354.816 591 354.025 590.992C339.42 590.829 324.815 590.69 310.217 590.543C310.128 585.07 310.014 579.606 309.973 574.133C309.949 570.487 309.68 566.849 309.435 563.22C309.386 562.494 309.125 562.388 308.49 562.421C304.952 562.576 301.415 562.633 297.878 562.837C295.8 562.959 293.721 562.959 291.643 563.032C290.893 563.057 290.583 563.277 290.616 564.109C290.803 568.203 290.852 572.306 291.097 576.4C291.219 578.382 291.227 580.364 291.317 582.346C291.431 585.005 291.675 587.672 291.553 590.347V590.356ZM325.736 551.018C325.622 551.018 325.499 551.018 325.385 551.018C325.385 548.09 325.369 545.154 325.402 542.226C325.402 541.59 325.141 541.475 324.586 541.475C321.889 541.484 319.191 541.475 316.493 541.451C315.947 541.451 315.768 541.598 315.776 542.169C315.866 547.25 315.939 552.331 315.996 557.413C315.996 557.951 316.159 558.122 316.705 558.155C319.435 558.351 322.166 558.22 324.888 558.326C325.589 558.351 325.76 558.13 325.752 557.462C325.711 555.316 325.736 553.163 325.736 551.018ZM281.822 549.403C281.765 549.403 281.708 549.403 281.651 549.403C281.651 547.03 281.602 544.648 281.675 542.275C281.708 541.32 281.349 541.125 280.51 541.133C277.877 541.157 275.244 541.165 272.612 541.092C271.691 541.068 271.446 541.329 271.52 542.226C271.748 544.95 271.878 547.682 271.911 550.415C271.935 552.462 272.05 554.517 271.935 556.564C271.911 556.98 271.887 557.323 272.498 557.331C275.391 557.372 278.276 557.429 281.17 557.519C281.805 557.535 281.83 557.217 281.83 556.736C281.814 554.297 281.83 551.85 281.83 549.411L281.822 549.403Z" fill="#FACD16"/>
<path d="M291.553 590.355C291.675 587.68 291.431 585.021 291.317 582.354C291.227 580.372 291.211 578.39 291.097 576.408C290.852 572.314 290.803 568.211 290.616 564.117C290.575 563.277 290.893 563.065 291.643 563.04C293.721 562.967 295.8 562.967 297.878 562.845C301.407 562.632 304.952 562.575 308.49 562.429C309.117 562.404 309.386 562.502 309.435 563.228C309.68 566.866 309.949 570.495 309.973 574.141C310.014 579.614 310.136 585.078 310.217 590.551C303.999 590.282 297.78 590.429 291.561 590.355H291.553Z" fill="#FEF6E6"/>
<path d="M325.736 551.01C325.736 553.155 325.711 555.308 325.752 557.453C325.768 558.13 325.589 558.343 324.888 558.318C322.158 558.22 319.427 558.343 316.705 558.147C316.159 558.106 316.004 557.943 315.996 557.405C315.939 552.323 315.866 547.242 315.776 542.161C315.768 541.59 315.947 541.443 316.493 541.443C319.191 541.467 321.889 541.475 324.586 541.467C325.141 541.467 325.41 541.581 325.401 542.218C325.369 545.146 325.385 548.082 325.385 551.01C325.499 551.01 325.622 551.01 325.736 551.01Z" fill="#FEF6E6"/>
<path d="M281.83 549.403C281.83 551.842 281.83 554.289 281.83 556.728C281.83 557.209 281.805 557.527 281.17 557.511C278.285 557.421 275.391 557.364 272.498 557.323C271.887 557.323 271.919 556.972 271.935 556.556C272.05 554.509 271.935 552.454 271.911 550.407C271.878 547.674 271.748 544.942 271.52 542.218C271.446 541.321 271.691 541.06 272.612 541.084C275.244 541.157 277.877 541.149 280.51 541.125C281.349 541.125 281.708 541.312 281.675 542.267C281.602 544.64 281.651 547.022 281.651 549.395C281.708 549.395 281.765 549.395 281.822 549.395L281.83 549.403Z" fill="#FEF6E6"/>
<path d="M164.245 495.662C163.3 495.662 162.354 495.686 161.409 495.654C160.961 495.637 160.415 495.564 160.333 495.009C160.252 494.512 160.773 494.414 161.107 494.259C173.186 488.574 185.094 482.506 197.295 477.074C200.596 475.606 203.88 474.08 207.165 472.588C207.491 472.441 207.76 472.327 207.809 471.854C208.412 466.087 209.243 460.345 210.017 454.595C210.832 448.56 211.599 442.508 212.397 436.472C213.677 426.88 214.989 417.289 216.261 407.689C217.353 399.484 218.429 391.27 219.48 383.057C219.57 382.356 219.92 382.298 220.458 382.315C222.765 382.396 225.087 382.355 227.386 382.568C229.953 382.796 232.52 382.674 235.096 382.845C238.503 383.065 241.926 383.032 245.341 383.106C251.82 383.245 258.292 383.334 264.771 383.53C270.24 383.693 275.701 383.799 281.17 383.93C286.802 384.06 292.425 384.191 298.057 384.321C303.135 384.444 308.204 384.59 313.282 384.696C319.272 384.819 325.255 384.974 331.245 385.104C336.616 385.227 341.979 385.365 347.35 385.488C353.113 385.618 358.867 385.748 364.629 385.887C370 386.009 375.363 386.148 380.734 386.279C386.431 386.409 392.12 386.548 397.817 386.67C402.699 386.776 407.573 386.98 412.455 387.021C413.148 387.021 413.523 387.111 413.392 388.008C412.569 393.685 411.795 399.369 411.012 405.046C409.798 413.887 408.576 422.737 407.361 431.586C406.35 438.943 405.356 446.308 404.354 453.674C403.433 460.451 402.495 467.229 401.583 474.015C401.468 474.855 401.094 475.41 400.303 475.818C395.959 478.069 391.419 479.888 386.977 481.91C378.672 485.687 370.334 489.373 362.013 493.109C355.501 496.029 348.956 498.867 342.517 501.926C340.545 502.864 338.605 502.831 336.633 502.676C334.456 502.505 332.28 502.537 330.096 502.399C325.939 502.13 321.775 502.113 317.61 501.934C311.073 501.648 304.545 501.322 298.008 501.151C293.843 501.045 289.679 500.939 285.522 500.759C279.377 500.49 273.239 500.148 267.102 499.838C265.546 499.756 263.981 499.732 262.424 499.65C258.333 499.43 254.233 499.357 250.133 499.202C245.292 499.014 240.451 498.81 235.601 498.614C230.825 498.419 226.049 498.223 221.265 498.035C214.631 497.766 208.004 497.53 201.37 497.228C198.085 497.073 194.801 496.959 191.524 496.844C185.216 496.624 178.916 496.339 172.607 496.061C169.812 495.939 167.024 495.776 164.229 495.629C164.229 495.654 164.229 495.678 164.229 495.694L164.245 495.662Z" fill="url(#paint0_linear_87_4145)"/>
<path d="M353.61 393.717C359.69 393.921 365.762 394.125 371.842 394.337C378.183 394.565 384.516 394.802 390.857 395.03C393.261 395.12 395.665 395.193 398.07 395.275C398.192 395.381 398.225 395.511 398.208 395.666C397.662 396.571 396.7 396.979 395.894 397.567C385.95 404.768 375.974 411.93 366.039 419.14C353.993 427.883 341.93 436.594 329.966 445.452C319.859 452.923 309.704 460.337 299.858 468.167C299.28 468.624 298.791 469.235 298.008 469.398C281.667 469.129 265.325 468.852 248.984 468.583C248.625 468.583 248.275 468.599 247.916 468.615C246.278 468.403 244.616 468.656 242.928 468.485C243.026 467.824 243.564 467.637 243.972 467.368C252.366 461.756 260.753 456.136 269.164 450.549C276.459 445.696 283.713 440.778 290.983 435.893C299.035 430.477 307.071 425.037 315.108 419.597C321.799 415.07 328.49 410.551 335.166 406.008C340.822 402.158 346.486 398.341 352.143 394.483C352.607 394.165 353.072 393.888 353.618 393.741L353.61 393.717Z" fill="#15004F"/>
<path d="M216.587 461.406C216.424 460.549 216.741 459.734 216.847 458.91C218.38 447.361 219.961 435.811 221.518 424.262C222.928 413.781 224.329 403.292 225.731 392.804C225.837 392.029 225.951 391.254 225.968 390.471C225.984 389.623 226.261 389.28 227.174 389.313C230.98 389.459 234.786 389.508 238.592 389.639C245.259 389.859 251.926 390.104 258.593 390.34C269.001 390.707 279.409 391.099 289.817 391.441C292.417 391.531 295.033 391.335 297.625 391.523C303.828 391.98 310.038 392.143 316.249 392.355C316.477 392.355 316.697 392.339 316.925 392.339C317.585 392.526 318.27 392.322 319.012 392.477C318.865 393.032 318.425 393.211 318.066 393.448C312.744 396.971 307.479 400.576 302.181 404.133C289.997 412.321 277.828 420.543 265.643 428.732C258.944 433.234 252.252 437.761 245.553 442.263C237.15 447.915 228.771 453.592 220.352 459.22C219.407 459.856 218.494 460.541 217.532 461.153C217.247 461.332 216.97 461.642 216.57 461.406H216.587Z" fill="#15004F"/>
<path d="M356.079 470.394C354.914 470.345 353.74 470.28 352.575 470.255C345.362 470.141 338.14 470.035 330.927 469.929C330.732 469.929 330.544 469.953 330.349 469.97C327.781 469.79 325.214 469.953 322.647 469.88C322.198 469.864 321.489 470.157 321.343 469.676C321.196 469.195 321.905 468.967 322.296 468.706C329.297 464.065 336.241 459.342 343.177 454.62C352.249 448.454 361.287 442.239 370.359 436.073C377.898 430.95 385.469 425.877 393.041 420.804C394.524 419.809 395.975 418.757 397.491 417.794C397.727 417.648 397.996 417.37 398.274 417.599C398.477 417.762 398.396 418.08 398.298 418.325C397.703 422.998 397.092 427.672 396.505 432.345C395.755 438.307 395.022 444.278 394.272 450.24C394.109 451.529 393.938 452.817 393.766 454.106C393.4 454.799 392.658 454.995 392.055 455.338C383.709 460.003 375.55 464.97 367.237 469.692C366.724 469.986 366.178 470.166 365.64 470.369C365.012 470.59 364.36 470.467 363.724 470.459C361.173 470.427 358.622 470.59 356.079 470.378V470.394Z" fill="#15004F"/>
<path d="M330.716 392.917C336.625 393.113 342.533 393.309 348.442 393.505C348.703 393.513 348.964 393.505 349.217 393.505C349.323 394.116 348.793 394.255 348.451 394.492C345.598 396.49 342.705 398.431 339.819 400.38C331.563 405.951 323.348 411.587 315.1 417.174C307.503 422.321 299.932 427.508 292.352 432.687C284.935 437.752 277.518 442.825 270.118 447.923C260.468 454.57 250.802 461.193 241.201 467.914C240.875 468.142 240.516 468.281 240.149 468.403C235.764 468.33 231.379 468.257 226.995 468.191C226.669 468.191 226.351 468.208 226.025 468.216C224.24 468.044 222.455 468.199 220.67 468.126C220.279 468.11 219.676 468.387 219.545 467.93C219.407 467.449 220.026 467.229 220.393 466.984C222.667 465.459 224.908 463.901 227.182 462.384C237.557 455.476 247.859 448.453 258.218 441.512C265.978 436.317 273.72 431.08 281.463 425.86C292.58 418.365 303.714 410.878 314.831 403.382C319.631 400.144 324.472 396.955 329.232 393.652C329.689 393.333 330.178 393.081 330.707 392.934L330.716 392.917Z" fill="#15004F"/>
<path d="M330.715 392.918C324.953 396.816 319.191 400.723 313.421 404.614C282.417 425.502 251.405 446.382 220.393 467.27C220.132 467.441 219.879 467.637 219.464 467.93C221.778 468.167 223.922 467.922 226.033 468.208C223.995 468.208 221.941 468.363 219.92 468.175C218.812 468.077 217.711 467.824 216.587 467.824C216.057 467.824 215.804 467.514 215.812 466.935C215.829 465.606 216.13 464.309 216.318 463.012C216.399 462.482 216.252 461.895 216.595 461.405C219.146 459.905 221.542 458.159 223.995 456.503C255.374 435.379 286.753 414.246 318.131 393.113C318.343 392.966 318.555 392.82 318.841 392.624C318.197 392.314 317.52 392.591 316.941 392.338C318.946 392.289 320.943 392.493 322.94 392.681C323.168 392.705 323.397 392.714 323.625 392.705C325.996 392.591 328.352 392.893 330.724 392.918H330.715Z" fill="#FDF6E8"/>
<path d="M298.008 469.39C305.759 462.971 313.885 457.042 321.962 451.047C346.755 432.663 371.818 414.646 396.847 396.596C397.271 396.294 397.687 395.984 398.111 395.674C398.233 395.47 398.461 395.413 398.64 395.275C399.357 395.144 400.042 395.413 400.751 395.454C401.012 395.47 401.151 395.528 401.118 395.862C400.849 398.611 400.287 401.335 400.181 404.1C400.181 404.149 400.107 404.198 400.067 404.247C390.042 411.391 380.033 418.561 370 425.689C360.521 432.426 351.042 439.155 341.523 445.827C332.24 452.336 322.973 458.852 313.592 465.206C311.432 466.666 309.28 468.126 307.112 469.57C304.088 469.243 301.057 469.48 298.025 469.374L298.008 469.39Z" fill="#FDF6E8"/>
<path d="M307.088 469.578C307.023 469.17 307.389 469.113 307.609 468.966C332.15 452.425 356.202 435.167 380.327 418.023C386.619 413.553 392.886 409.051 399.178 404.581C399.423 404.41 399.618 403.969 400.058 404.247C399.594 407.811 399.137 411.375 398.681 414.939C398.64 415.225 398.64 415.519 398.469 415.771C397.744 416.791 396.603 417.28 395.625 417.957C388.941 422.549 382.291 427.19 375.591 431.766C366.609 437.899 357.603 444 348.605 450.109C341.653 454.832 334.709 459.562 327.79 464.334C325.54 465.883 323.274 467.417 321.049 469.015C320.568 469.358 320.071 469.668 319.484 469.774C315.352 469.578 311.228 469.602 307.096 469.578H307.088Z" fill="#15004F"/>
<path d="M240.149 468.403C245.993 464.334 251.82 460.239 257.681 456.194C287.78 435.42 318.042 414.882 348.279 394.321C348.614 394.092 349.054 393.962 349.209 393.505C350.676 393.578 352.135 393.644 353.602 393.717C348.312 397.322 343.022 400.935 337.725 404.532C308.84 424.115 279.939 443.69 250.891 463.029C248.267 464.774 245.651 466.519 242.871 468.363C244.656 468.583 246.303 468.346 247.916 468.599C245.325 468.762 242.741 468.51 240.149 468.395V468.403Z" fill="#FDF6E8"/>
<path d="M381.28 470.793C380.261 470.777 379.243 470.769 378.232 470.752C375.469 470.581 372.706 470.728 369.943 470.671C369.495 470.663 369.038 470.761 368.566 470.581C368.631 470.075 369.046 469.904 369.397 469.708C376.855 465.573 384.19 461.226 391.615 457.034C392.144 456.732 392.658 456.202 393.392 456.503C393.31 459.105 392.797 461.666 392.536 464.252C392.356 465.997 392.087 467.735 391.867 469.472C391.742 470.418 391.232 470.913 390.335 470.956C387.743 470.785 385.143 470.932 382.552 470.875C382.136 470.867 381.704 470.964 381.296 470.793H381.28Z" fill="#15004F"/>
<path d="M319.484 469.774C325.907 465.361 332.305 460.924 338.752 456.544C358.476 443.144 378.216 429.768 397.801 416.171C398.013 416.024 398.241 415.91 398.461 415.771C398.379 416.628 398.681 417.501 398.298 418.333C398.282 418.137 398.265 417.949 398.249 417.639C372.437 434.71 347.13 452.426 321.269 469.725C324.432 469.912 327.398 469.692 330.349 469.978C327.464 469.978 324.578 470.027 321.693 469.978C320.96 469.961 320.226 469.79 319.484 469.782V469.774Z" fill="#FDF6E8"/>
<path d="M393.383 456.496C393.025 456.43 392.772 456.675 392.495 456.83C384.744 461.251 376.985 465.679 369.234 470.1C369.079 470.19 368.851 470.214 368.802 470.622C371.345 470.622 373.863 470.614 376.382 470.622C376.993 470.622 377.612 470.557 378.216 470.736C375.135 470.736 372.062 470.785 368.981 470.736C367.865 470.72 366.748 470.492 365.631 470.361C369.666 468.012 373.692 465.647 377.727 463.314C383.065 460.231 388.412 457.173 393.758 454.098C393.628 454.889 393.701 455.713 393.375 456.479L393.383 456.496Z" fill="#FDF6E8"/>
<path d="M356.079 470.394C358.785 470.41 361.491 470.427 364.197 470.435C364.678 470.435 365.159 470.402 365.648 470.386C365.469 470.639 365.191 470.598 364.939 470.598C362.192 470.598 359.445 470.598 356.699 470.59C356.471 470.59 356.242 470.606 356.079 470.394Z" fill="#FDF6E8"/>
<path d="M381.28 470.794C384.296 470.777 387.311 470.704 390.319 470.948C387.45 470.948 384.581 470.965 381.712 470.957C381.565 470.957 381.427 470.842 381.28 470.785V470.794Z" fill="#E2E0E9"/>
<path d="M398.216 434.547C398.045 434.254 398.062 433.952 398.143 433.601C398.428 433.919 398.192 434.237 398.216 434.547Z" fill="#EEEDF2"/>
<path d="M399.195 426.529C399.023 426.293 399.04 426.048 399.113 425.795C399.406 426.024 399.162 426.293 399.195 426.529Z" fill="#F2F1F5"/>
<path d="M398.966 428.21C398.836 427.908 398.82 427.712 398.966 427.508C399.113 427.712 399.089 427.908 398.966 428.21Z" fill="#EEECF2"/>
<path d="M398.542 430.567C398.705 430.861 398.697 431.056 398.583 431.276C398.396 431.089 398.469 430.893 398.542 430.567Z" fill="#EDEBF1"/>
<path d="M398.469 432.263C398.453 432.435 398.453 432.761 398.42 432.761C398.176 432.793 398.314 432.581 398.29 432.467C398.274 432.386 398.322 432.296 398.347 432.214C398.388 432.231 398.428 432.247 398.477 432.263H398.469Z" fill="#EDEBF1"/>
<path d="M398.078 435.395C398.062 435.566 398.062 435.893 398.029 435.893C397.784 435.925 397.923 435.713 397.899 435.599C397.882 435.517 397.931 435.428 397.956 435.346C397.996 435.363 398.037 435.379 398.086 435.395H398.078Z" fill="#EDECF1"/>
<path d="M397.882 436.962C397.866 437.133 397.866 437.459 397.833 437.459C397.589 437.492 397.727 437.28 397.703 437.165C397.687 437.084 397.736 436.994 397.76 436.913L397.89 436.962H397.882Z" fill="#EEECF2"/>
<path d="M397.597 439.163C397.467 438.862 397.45 438.666 397.597 438.462C397.744 438.666 397.719 438.862 397.597 439.163Z" fill="#EDEBF1"/>
<path d="M397.377 440.746C397.295 440.419 397.23 440.224 397.41 440.036C397.532 440.248 397.524 440.444 397.377 440.746Z" fill="#EFEDF2"/>
<path d="M397.1 443.029C397.084 443.201 397.084 443.519 397.051 443.527C396.806 443.56 396.945 443.347 396.921 443.233C396.904 443.16 396.953 443.07 396.978 442.98L397.108 443.021L397.1 443.029Z" fill="#F4F3F6"/>
<path d="M399.227 423.96C399.504 424.425 399.439 424.621 399.398 424.858C399.178 424.621 399.3 424.417 399.227 423.96Z" fill="#F3F2F5"/>
<path d="M399.618 423.348C399.382 423.055 399.48 422.851 399.463 422.565C399.749 422.843 399.602 423.047 399.618 423.348Z" fill="#F5F4F7"/>
<path d="M398.632 395.267C398.534 395.495 398.388 395.666 398.102 395.666C398.086 395.536 398.078 395.405 398.062 395.275C398.249 395.275 398.437 395.275 398.624 395.275L398.632 395.267Z" fill="#786A93"/>
<path d="M398.673 429.653C398.689 429.482 398.689 429.156 398.722 429.156C398.966 429.123 398.828 429.335 398.852 429.449C398.868 429.531 398.82 429.621 398.795 429.702C398.754 429.686 398.714 429.67 398.665 429.653H398.673Z" fill="#EFEEF3"/>
<path d="M307.593 446.569C307.251 446.757 306.884 446.724 306.403 446.659C306.843 446.39 307.218 446.594 307.593 446.569Z" fill="#2B185F"/>
<path d="M305.906 446.814C305.702 446.953 305.507 446.936 305.238 446.822C305.49 446.675 305.686 446.667 305.906 446.814Z" fill="#1E0A55"/>
<path d="M289.092 394.027C289.516 393.84 289.768 393.864 290.054 393.937C289.809 394.19 289.548 394.043 289.092 394.027Z" fill="#28155D"/>
<path d="M229.839 475.908C229.872 476.12 229.969 476.275 230.206 476.283C230.401 476.291 230.597 476.291 230.793 476.299C235.275 476.364 239.766 476.332 244.241 476.519C249.367 476.731 254.494 476.789 259.62 476.944C262.122 477.017 264.633 476.886 267.11 477.115C269.678 477.351 272.253 477.082 274.804 477.311C277.404 477.547 280.012 477.27 282.596 477.506C285.163 477.743 287.739 477.466 290.29 477.702C292.759 477.93 295.237 477.678 297.69 477.89C300.323 478.126 302.964 477.857 305.572 478.094C308.009 478.314 310.454 478.061 312.874 478.281C315.54 478.518 318.213 478.265 320.854 478.493C322.842 478.665 324.823 478.469 326.787 478.673C329.42 478.942 332.06 478.648 334.668 478.877C337.497 479.129 340.325 478.844 343.137 479.064C345.867 479.276 348.605 479.048 351.311 479.276C353.683 479.472 356.055 479.26 358.418 479.448C360.749 479.635 363.08 479.594 365.599 479.627C364.931 480.206 364.23 480.328 363.61 480.606C361.564 481.511 359.502 482.384 357.457 483.289C355.924 483.966 354.335 483.713 352.762 483.632C352.509 483.615 352.249 483.534 351.996 483.526C348.133 483.452 344.261 483.46 340.398 483.305C335.793 483.118 331.188 483.053 326.583 482.881C324.472 482.8 322.361 482.849 320.259 482.734C315.719 482.482 311.179 482.465 306.639 482.294C304.594 482.221 302.548 482.253 300.51 482.147C295.905 481.903 291.301 481.878 286.696 481.707C284.683 481.633 282.669 481.666 280.664 481.56C276.027 481.323 271.389 481.283 266.752 481.12C264.804 481.054 262.856 481.071 260.916 480.973C256.181 480.744 251.446 480.695 246.71 480.532C244.567 480.459 242.423 480.5 240.288 480.385C235.781 480.141 231.265 480.125 226.766 479.953C224.558 479.864 222.333 480.035 220.148 479.774C217.271 479.423 214.362 479.937 211.427 479.325C213.555 478.053 215.869 477.205 217.94 475.908H222.43C222.593 476.12 222.822 476.103 223.05 476.103C224.981 476.103 226.921 476.103 228.853 476.103C229.081 476.103 229.309 476.12 229.464 475.908H229.855H229.839Z" fill="#FDF5E6"/>
<path d="M328.099 495.051C327.969 494.871 327.773 494.847 327.578 494.855C325.467 494.993 323.364 494.618 321.253 494.651C318.392 494.7 315.54 494.488 312.687 494.414C308.93 494.316 305.164 494.17 301.407 494.039C297.487 493.909 293.558 493.786 289.638 493.648C285.881 493.517 282.115 493.387 278.358 493.256C274.438 493.126 270.509 493.003 266.589 492.865C262.831 492.734 259.066 492.604 255.309 492.473C251.388 492.343 247.46 492.22 243.54 492.082C239.782 491.951 236.017 491.821 232.26 491.69C228.339 491.56 224.411 491.437 220.491 491.299C216.733 491.168 212.968 491.038 209.211 490.907C205.29 490.777 201.362 490.662 197.441 490.491C195.559 490.41 193.676 490.426 191.801 490.336C191.255 490.312 190.717 490.198 190 490.1C192.013 488.893 193.872 487.628 195.95 486.976C197.49 486.495 199.235 486.772 200.889 486.919C201.15 486.943 201.403 487.033 201.655 487.025C205.69 486.894 209.716 487.188 213.742 487.269C218.575 487.367 223.408 487.506 228.242 487.677C230.352 487.751 232.463 487.718 234.566 487.824C239.432 488.069 244.298 488.093 249.163 488.265C251.307 488.338 253.45 488.305 255.586 488.411C260.419 488.656 265.252 488.689 270.085 488.852C272.098 488.917 274.112 488.852 276.117 489.007C278.716 489.211 281.316 489.031 283.9 489.235C286.076 489.406 288.252 489.284 290.42 489.39C295.286 489.635 300.152 489.659 305.018 489.831C307.128 489.904 309.239 489.871 311.342 489.977C316.208 490.222 321.074 490.247 325.939 490.418C327.985 490.491 330.031 490.401 332.068 490.581C334.342 490.777 336.608 490.736 338.882 490.76C339.037 490.76 339.216 490.728 339.33 491.005C336.233 492.351 333.136 493.705 330.039 495.051H328.083H328.099Z" fill="#FDF5E6"/>
<path d="M229.448 475.908C229.293 476.12 229.057 476.103 228.836 476.103C226.905 476.103 224.965 476.103 223.033 476.103C222.805 476.103 222.577 476.12 222.414 475.908H229.448Z" fill="#FEFEFE"/>
<path d="M311.049 39.109C309.239 37.6816 308.742 35.7241 309.003 33.4648C309.769 35.3082 310.535 37.1515 311.301 38.9948L311.049 39.1171V39.109Z" fill="#F99CFA"/>
<path d="M346.128 90.6484C345.003 90.0122 343.878 89.3678 342.745 88.748C341.026 87.8182 339.216 87.1004 337.317 86.611C336.918 86.505 336.486 86.4561 336.176 86.1217C337.521 86.1135 338.703 86.6926 339.925 87.1249C341.971 87.8508 343.87 88.8948 345.712 90.0448C345.948 90.1916 346.128 90.3466 346.136 90.6402L346.128 90.6484Z" fill="#FEF9FE"/>
<path d="M306.656 219.255C305.401 220.014 304.105 220.675 302.744 221.213L302.727 221.188C303.844 220.169 305.164 219.541 306.639 219.231L306.656 219.247V219.255Z" fill="#FEF9FE"/>
<path d="M358.239 103.217C357.285 102.483 356.707 101.455 356.12 100.444C357.171 101.105 357.766 102.116 358.239 103.217Z" fill="#FEF9FE"/>
<path d="M360 105.95C359.136 105.289 358.753 104.294 358.264 103.38C359.274 103.943 359.584 104.979 360 105.95Z" fill="#FEF9FE"/>
<path d="M361.956 109.269C361.247 108.706 360.937 107.899 360.619 107.1C361.548 107.524 361.613 108.486 361.956 109.269Z" fill="#FEF9FE"/>
<path d="M354.547 98.4699C353.952 97.9561 353.267 97.5238 352.998 96.7163C353.74 97.0997 354.408 97.5482 354.547 98.4699Z" fill="#FEF9FE"/>
<path d="M363.129 111.422C362.42 110.949 362.257 110.166 361.98 109.448C362.73 109.889 362.86 110.696 363.129 111.422Z" fill="#FEF9FE"/>
<path d="M350.244 93.968C349.559 93.7478 349.135 93.2502 348.842 92.6304C349.567 92.8017 349.983 93.3073 350.244 93.968Z" fill="#FEF9FE"/>
<path d="M347.693 91.8147C347.098 91.5863 346.576 91.2764 346.291 90.6729C346.91 90.8686 347.505 91.0888 347.693 91.8147Z" fill="#FEF9FE"/>
<path d="M307.805 218.652C308.147 218.187 308.644 218.016 309.207 217.983C308.832 218.375 308.4 218.669 307.821 218.677L307.805 218.652Z" fill="#FEF9FE"/>
<path d="M352.183 95.7705C351.678 95.6155 351.344 95.2892 351.189 94.7754C351.768 94.857 352.094 95.1914 352.183 95.7705Z" fill="#FEF9FE"/>
<path d="M364.287 113.6C363.765 113.355 363.667 112.858 363.545 112.376C364.124 112.58 364.197 113.094 364.287 113.6Z" fill="#FEF9FE"/>
<path d="M333.03 85.6977C332.696 85.7303 332.346 85.8608 332.068 85.5427C332.435 85.3143 332.786 85.1838 333.03 85.6977Z" fill="#FEF9FE"/>
<path d="M348.671 92.5974C348.214 92.5403 347.978 92.263 347.864 91.8389C348.345 91.8633 348.597 92.1325 348.671 92.5974Z" fill="#FEF9FE"/>
<path d="M356.087 100.273C355.664 100.167 355.387 99.9221 355.329 99.4653C355.794 99.5387 356.063 99.7916 356.087 100.273Z" fill="#FEF9FE"/>
<path d="M355.305 99.2936C354.889 99.1795 354.596 98.9348 354.555 98.478C355.012 98.5596 355.289 98.8124 355.305 99.2936Z" fill="#FEF9FE"/>
<path d="M300.576 222.371C300.706 221.841 301.138 221.825 301.562 221.784L301.578 221.809C301.358 222.184 300.991 222.314 300.592 222.396L300.576 222.371Z" fill="#FEF9FE"/>
<path d="M334.595 85.9013C334.318 85.9421 334.033 86.0318 333.821 85.7463C334.139 85.5016 334.416 85.4364 334.595 85.9013Z" fill="#FEF9FE"/>
<path d="M360.57 106.757C360.252 106.659 360.024 106.488 360.024 106.121C360.415 106.153 360.603 106.365 360.57 106.757Z" fill="#FEF9FE"/>
<path d="M309.957 217.673C310.095 217.453 310.25 217.249 310.576 217.347C310.576 217.804 310.201 217.632 309.973 217.698L309.957 217.673Z" fill="#FEF9FE"/>
<path d="M335.769 86.0972C335.549 86.1462 335.337 86.1706 335.19 85.9423C335.467 85.6731 335.663 85.7139 335.769 86.0972Z" fill="#FEF9FE"/>
<path d="M299.793 222.763C299.883 222.616 300.03 222.575 300.184 222.567L300.201 222.591C300.07 222.657 299.94 222.722 299.81 222.787L299.793 222.771V222.763Z" fill="#FEF9FE"/>
<path d="M300.592 222.388C300.462 222.453 300.331 222.518 300.209 222.583L300.193 222.559C300.323 222.494 300.453 222.429 300.576 222.363L300.592 222.388Z" fill="#FEF9FE"/>
<path d="M301.961 221.605C301.831 221.67 301.7 221.735 301.57 221.8L301.554 221.776C301.684 221.711 301.814 221.645 301.945 221.58L301.961 221.596V221.605Z" fill="#FEF9FE"/>
<path d="M301.945 221.588C302.075 221.523 302.206 221.458 302.336 221.393L302.352 221.409C302.222 221.474 302.092 221.539 301.961 221.605L301.945 221.588Z" fill="#FEF9FE"/>
<path d="M302.336 221.393C302.467 221.327 302.589 221.262 302.719 221.197L302.735 221.221C302.605 221.286 302.475 221.352 302.344 221.417L302.328 221.401L302.336 221.393Z" fill="#FEF9FE"/>
<path d="M307.047 219.06C306.917 219.125 306.786 219.19 306.656 219.256L306.639 219.239C306.729 219.092 306.876 219.052 307.031 219.043L307.047 219.06Z" fill="#FEF9FE"/>
<path d="M307.438 218.864C307.308 218.929 307.177 218.994 307.047 219.06L307.031 219.043C307.12 218.897 307.267 218.856 307.422 218.848L307.438 218.864Z" fill="#FEF9FE"/>
<path d="M307.821 218.668C307.691 218.733 307.56 218.799 307.43 218.864L307.414 218.848C307.544 218.782 307.675 218.717 307.797 218.652L307.813 218.676L307.821 218.668Z" fill="#FEF9FE"/>
<path d="M309.973 217.69C309.9 217.739 309.834 217.779 309.761 217.828C309.761 217.828 309.728 217.788 309.712 217.763C309.794 217.73 309.875 217.706 309.957 217.673L309.973 217.698V217.69Z" fill="#FEF9FE"/>
<path d="M399.3 203.791C399.3 203.791 399.341 203.816 399.366 203.824C399.341 203.808 399.325 203.8 399.3 203.783V203.791Z" fill="#F99CFA"/>
<path d="M399.105 203.596L399.3 203.791C399.235 203.726 399.17 203.661 399.105 203.596Z" fill="#F99CFA"/>
<path d="M297.748 74.613C295.123 74.4091 292.89 73.7485 291.154 71.9133C291.023 71.7747 290.869 71.636 290.763 71.4811C290.583 71.2201 290.518 70.902 290.73 70.6654C290.966 70.3881 291.26 70.5512 291.513 70.7225C292.181 71.1793 292.825 71.685 293.542 72.0683C296.835 73.8056 300.853 73.1939 303.542 70.6083C304.553 69.6296 305.466 68.5856 306.118 67.3295C306.224 67.1256 306.371 66.9462 306.493 66.7586C306.754 66.3589 307.137 66.3019 307.512 66.4976C307.911 66.7015 307.903 67.1256 307.732 67.4437C305.808 70.9509 303.159 73.5772 299.092 74.401C298.595 74.4989 298.09 74.7028 297.756 74.6294L297.748 74.613Z" fill="#FEF9FE"/>
<path d="M297.275 47.4364C297.519 47.5587 297.804 47.6484 298.041 47.8197C299.573 48.9127 301.105 50.0056 302.605 51.1311C303.29 51.645 303.281 52.2649 302.605 52.5911C301.407 53.1702 300.184 53.6922 298.962 54.2142C298.562 54.3855 298.098 54.5241 297.894 53.9695C297.715 53.4883 297.992 53.1784 298.432 52.9745C299.051 52.689 299.646 52.3464 300.274 52.0773C300.861 51.8163 300.836 51.5553 300.364 51.1964C299.353 50.4297 298.359 49.663 297.364 48.88C297.136 48.7006 296.892 48.4967 296.778 48.2438C296.59 47.8197 296.712 47.4772 297.283 47.4282L297.275 47.4364Z" fill="#FEF9FE"/>
<path d="M299.435 163.182C299.386 162.774 299.532 162.415 299.679 162.056C299.818 161.697 300.103 161.51 300.519 161.518C300.902 161.526 301.105 161.746 301.236 162.072C301.562 162.855 301.546 163.638 301.187 164.413C301.032 164.748 300.796 165.017 300.38 165.017C299.932 165.017 299.793 164.658 299.671 164.324C299.541 163.965 299.394 163.598 299.443 163.19L299.435 163.182Z" fill="#170250"/>
<path d="M351.825 262.549C351.646 262.549 351.458 262.549 351.279 262.549C351.262 262.288 351.246 262.027 351.222 261.766C351.425 261.766 351.621 261.766 351.825 261.766V262.549Z" fill="#FEF9FE"/>
<path d="M351.409 265.885C351.548 265.885 351.686 265.885 351.825 265.876V266.659C351.678 266.659 351.531 266.643 351.385 266.635C351.385 266.382 351.401 266.137 351.409 265.885Z" fill="#FEF9FE"/>
<path d="M254.314 291.112C254.086 290.957 254.119 290.721 254.119 290.492C254.054 286.594 253.507 282.744 252.97 278.894C252.358 274.522 251.503 270.208 250.443 265.926C248.674 258.813 246.327 251.905 243.165 245.29C243.083 245.119 243.059 244.923 243.01 244.736C243.972 245.584 244.241 246.824 244.73 247.925C246.327 251.514 247.688 255.208 248.837 258.952C250.068 262.973 251.176 267.027 251.967 271.17C252.472 273.805 252.986 276.431 253.377 279.09C253.671 281.104 253.923 283.119 254.102 285.15C254.249 286.822 254.518 288.494 254.477 290.182C254.477 290.5 254.583 290.843 254.314 291.112Z" fill="#FEF9FE"/>
<path d="M270.346 335.001C255.423 334.128 240.663 335.474 226 338.28C232.618 335.784 262.84 333.516 270.346 335.001Z" fill="#F99CFA"/>
<path d="M255.48 300.532C255.301 300.997 254.852 301.144 254.323 301.601C254.323 298.24 254.323 295.076 254.323 291.911C254.844 292.05 254.665 292.474 254.665 292.792C254.681 295.092 254.689 297.392 254.665 299.692C254.657 300.32 254.844 300.606 255.488 300.532H255.48Z" fill="#FEF9FE"/>
<path d="M224.761 221.246C223.637 220.609 222.512 219.965 221.379 219.345C219.659 218.415 217.85 217.698 215.951 217.208C215.551 217.102 215.12 217.053 214.81 216.719C216.155 216.711 217.336 217.29 218.559 217.722C220.605 218.448 222.504 219.492 224.346 220.642C224.582 220.789 224.761 220.944 224.77 221.237L224.761 221.246Z" fill="#FEF9FE"/>
<path d="M209.708 216.099C207.043 216.531 204.369 216.287 201.696 216.295C201.859 215.789 202.283 215.977 202.601 215.977C204.483 215.96 206.366 215.928 208.249 216.001C208.73 216.017 209.292 215.324 209.708 216.099Z" fill="#FEF9FE"/>
<path d="M291.61 282.107C290.168 282.768 288.652 283.225 287.119 283.633C287.331 283.119 287.853 283.151 288.252 283.045C289.377 282.752 290.388 282.042 291.61 282.116V282.107Z" fill="#FEF9FE"/>
<path d="M236.873 233.815C235.919 233.081 235.34 232.053 234.754 231.042C235.805 231.702 236.4 232.714 236.873 233.815Z" fill="#FEF9FE"/>
<path d="M304.26 277.426C304.137 277.923 304.105 278.478 303.868 278.918C303.469 279.669 302.654 279.449 301.977 279.53C301.986 279.497 301.994 279.44 302.002 279.44C303.192 279.261 303.754 278.372 304.26 277.426Z" fill="#FEF9FE"/>
<path d="M238.633 236.538C237.769 235.878 237.386 234.883 236.897 233.969C237.908 234.532 238.218 235.568 238.633 236.538Z" fill="#FEF9FE"/>
<path d="M322.85 287.001C323.829 286.186 325.076 286.088 326.217 285.705C325.247 286.528 323.992 286.626 322.85 287.001Z" fill="#FEF9FE"/>
<path d="M346.739 272.287C345.826 272.287 344.913 272.287 344.009 272.287C344.595 271.798 346.152 271.798 346.739 272.287Z" fill="#FEF9FE"/>
<path d="M308.441 294.652C308.807 293.853 309.394 293.265 310.193 292.89C309.843 293.706 309.248 294.285 308.441 294.652Z" fill="#FEF9FE"/>
<path d="M240.589 239.866C239.88 239.304 239.57 238.496 239.253 237.697C240.182 238.121 240.247 239.083 240.589 239.866Z" fill="#FEF9FE"/>
<path d="M233.181 229.068C232.586 228.554 231.901 228.121 231.632 227.314C232.374 227.697 233.042 228.146 233.181 229.068Z" fill="#FEF9FE"/>
<path d="M241.763 242.02C241.054 241.547 240.891 240.764 240.614 240.046C241.364 240.486 241.494 241.294 241.763 242.02Z" fill="#FEF9FE"/>
<path d="M346.902 274.865C347.481 274.196 348.328 274.18 349.086 273.968C348.491 274.604 347.66 274.645 346.902 274.865Z" fill="#FEF9FE"/>
<path d="M228.877 224.565C228.193 224.345 227.769 223.847 227.475 223.228C228.201 223.399 228.616 223.904 228.877 224.565Z" fill="#FEF9FE"/>
<path d="M226.326 222.412C225.731 222.184 225.21 221.874 224.924 221.27C225.544 221.466 226.139 221.686 226.326 222.412Z" fill="#FEF9FE"/>
<path d="M302.361 300.712C302.572 300.141 302.956 299.733 303.55 299.554C303.371 300.157 302.996 300.573 302.361 300.712Z" fill="#FEF9FE"/>
<path d="M223.025 338.859C223.824 338.492 224.501 338.467 225.153 338.377C224.549 338.72 223.889 338.81 223.025 338.859Z" fill="#F99CFA"/>
<path d="M323.478 259.18C322.956 259.164 322.41 259.384 321.921 259.009C322.467 258.813 323.022 258.544 323.478 259.18Z" fill="#FEF9FE"/>
<path d="M199.74 216.295C199.218 216.295 198.672 216.507 198.191 216.14C198.729 215.952 199.283 215.683 199.74 216.295Z" fill="#FEF9FE"/>
<path d="M220.947 339.299C220.132 339.658 219.545 339.845 218.665 339.821C219.472 339.535 220.059 339.34 220.947 339.299Z" fill="#F99CFA"/>
<path d="M301.578 279.563C301.162 279.824 300.714 279.946 300.217 279.913C300.592 279.481 301.032 279.326 301.578 279.563Z" fill="#FEF9FE"/>
<path d="M230.817 226.368C230.312 226.213 229.978 225.887 229.823 225.373C230.401 225.455 230.727 225.789 230.817 226.368Z" fill="#FEF9FE"/>
<path d="M299.818 279.946C299.402 280.207 298.954 280.329 298.465 280.305C298.831 279.864 299.28 279.726 299.818 279.946Z" fill="#FEF9FE"/>
<path d="M343.797 261.35C343.454 261.692 343.031 261.521 342.639 261.529C342.941 260.926 343.373 261.17 343.797 261.35Z" fill="#FEF9FE"/>
<path d="M242.92 244.198C242.399 243.953 242.301 243.455 242.179 242.974C242.757 243.178 242.831 243.692 242.92 244.198Z" fill="#FEF9FE"/>
<path d="M211.664 216.295C211.33 216.327 210.979 216.458 210.702 216.14C211.069 215.912 211.419 215.781 211.664 216.295Z" fill="#FEF9FE"/>
<path d="M298.057 304.627C298.163 304.203 298.408 303.917 298.856 303.868C298.782 304.325 298.53 304.594 298.057 304.627Z" fill="#FEF9FE"/>
<path d="M343.21 272.312C342.933 272.638 342.582 272.492 342.248 272.483C342.485 271.953 342.843 272.092 343.21 272.312Z" fill="#FEF9FE"/>
<path d="M348.499 272.467C348.165 272.491 347.815 272.638 347.538 272.304C347.904 272.083 348.255 271.953 348.499 272.467Z" fill="#FEF9FE"/>
<path d="M227.304 223.195C226.848 223.138 226.611 222.861 226.497 222.437C226.978 222.461 227.231 222.73 227.304 223.195Z" fill="#FEF9FE"/>
<path d="M316.452 259.8C317.072 260.135 316.974 260.485 316.469 260.836C316.469 260.494 316.461 260.151 316.452 259.8Z" fill="#FEF9FE"/>
<path d="M332.077 259.351C331.742 259.376 331.392 259.515 331.115 259.197C331.482 258.968 331.832 258.838 332.077 259.351Z" fill="#FEF9FE"/>
<path d="M321.131 258.984C320.797 258.984 320.438 259.131 320.161 258.813C320.536 258.577 320.894 258.438 321.131 258.984Z" fill="#FEF9FE"/>
<path d="M234.721 230.87C234.297 230.764 234.02 230.519 233.963 230.062C234.428 230.136 234.697 230.389 234.721 230.87Z" fill="#FEF9FE"/>
<path d="M233.939 229.891C233.523 229.777 233.23 229.532 233.189 229.076C233.645 229.157 233.922 229.41 233.939 229.891Z" fill="#FEF9FE"/>
<path d="M222.487 338.956C222.17 339.234 221.835 339.282 221.444 339.217C221.77 339.03 222.072 338.842 222.487 338.956Z" fill="#F99CFA"/>
<path d="M337.937 262.533C337.668 262.802 337.325 262.867 336.967 262.891C337.179 262.467 337.497 262.329 337.937 262.533Z" fill="#FEF9FE"/>
<path d="M339.306 262.141C339.037 262.402 338.703 262.475 338.336 262.484C338.556 262.084 338.866 261.929 339.306 262.141Z" fill="#FEF9FE"/>
<path d="M295.71 280.933C295.441 281.194 295.107 281.275 294.74 281.267C294.96 280.868 295.27 280.721 295.71 280.933Z" fill="#FEF9FE"/>
<path d="M292.98 281.708C292.711 281.969 292.376 282.043 292.01 282.059C292.222 281.635 292.531 281.488 292.98 281.708Z" fill="#FEF9FE"/>
<path d="M213.229 216.491C212.952 216.531 212.666 216.621 212.454 216.336C212.772 216.091 213.049 216.026 213.229 216.491Z" fill="#FEF9FE"/>
<path d="M316.012 289.742C316.151 289.359 316.452 289.228 316.827 289.228C316.713 289.652 316.371 289.717 316.012 289.742Z" fill="#FEF9FE"/>
<path d="M342.232 261.546C342.02 261.823 341.735 261.742 341.458 261.709C341.621 261.236 341.906 261.301 342.232 261.546Z" fill="#FEF9FE"/>
<path d="M328.922 284.652C329.053 284.261 329.371 284.146 329.737 284.114C329.64 284.562 329.289 284.619 328.922 284.652Z" fill="#FEF9FE"/>
<path d="M319.574 258.781C319.297 258.805 319.012 258.895 318.8 258.618C319.118 258.381 319.403 258.3 319.574 258.781Z" fill="#FEF9FE"/>
<path d="M239.204 237.354C238.886 237.257 238.658 237.085 238.658 236.718C239.049 236.751 239.236 236.963 239.204 237.354Z" fill="#FEF9FE"/>
<path d="M299.809 303.061C299.867 302.718 300.054 302.514 300.413 302.49C300.38 302.865 300.184 303.061 299.809 303.061Z" fill="#FEF9FE"/>
<path d="M296.484 305.997C296.549 305.655 296.737 305.451 297.095 305.426C297.071 305.801 296.867 305.997 296.484 305.997Z" fill="#FEF9FE"/>
<path d="M295.319 306.976C295.376 306.633 295.555 306.421 295.922 306.405C295.889 306.772 295.694 306.968 295.319 306.976Z" fill="#FEF9FE"/>
<path d="M318.205 258.577C317.985 258.626 317.773 258.65 317.626 258.422C317.903 258.153 318.099 258.193 318.205 258.577Z" fill="#FEF9FE"/>
<path d="M341.653 272.516C341.507 272.744 341.295 272.72 341.075 272.679C341.181 272.296 341.368 272.247 341.653 272.516Z" fill="#FEF9FE"/>
<path d="M214.402 216.687C214.182 216.736 213.97 216.76 213.824 216.532C214.101 216.262 214.296 216.303 214.402 216.687Z" fill="#FEF9FE"/>
<path d="M349.73 273.511C349.722 273.315 349.714 273.12 349.706 272.924C349.893 272.956 350.056 273.014 350.04 273.25C350.024 273.438 349.885 273.478 349.73 273.511Z" fill="#FEF9FE"/>
<path d="M196.618 215.911C196.398 215.952 196.186 215.977 196.048 215.74C196.333 215.479 196.529 215.536 196.618 215.911Z" fill="#FEF9FE"/>
<path d="M341.066 261.741C340.928 261.97 340.708 261.945 340.488 261.904C340.586 261.529 340.781 261.472 341.066 261.741Z" fill="#FEF9FE"/>
<path d="M284.96 315.002C284.992 314.765 285.114 314.626 285.359 314.626C285.351 314.887 285.212 315.002 284.96 315.002Z" fill="#FEF9FE"/>
<path d="M287.103 313.435C287.144 313.207 287.274 313.068 287.519 313.068C287.502 313.329 287.356 313.444 287.103 313.435Z" fill="#FEF9FE"/>
<path d="M344.555 275.844C344.62 275.631 344.734 275.476 344.987 275.517C344.954 275.778 344.799 275.86 344.555 275.844Z" fill="#FEF9FE"/>
<path d="M348.459 267.818C348.524 267.606 348.638 267.459 348.891 267.508C348.858 267.769 348.695 267.842 348.459 267.818Z" fill="#FEF9FE"/>
<path d="M191.72 213.049C191.484 213.016 191.353 212.886 191.337 212.641C191.598 212.649 191.72 212.788 191.72 213.049Z" fill="#FEF9FE"/>
<path d="M192.902 214.199C192.657 214.191 192.527 214.052 192.494 213.815C192.747 213.815 192.885 213.938 192.902 214.199Z" fill="#FEF9FE"/>
<path d="M350.602 267.035C350.667 266.823 350.79 266.676 351.042 266.717C351.01 266.978 350.847 267.059 350.602 267.035Z" fill="#FEF9FE"/>
<path d="M345.924 275.256C345.989 275.044 346.095 274.889 346.356 274.938C346.323 275.199 346.16 275.273 345.924 275.256Z" fill="#FEF9FE"/>
<path d="M288.464 312.448C288.505 312.212 288.635 312.081 288.88 312.073C288.864 312.334 288.725 312.457 288.464 312.448Z" fill="#FEF9FE"/>
<path d="M290.233 311.087C290.274 310.85 290.396 310.72 290.648 310.711C290.632 310.972 290.494 311.095 290.233 311.087Z" fill="#FEF9FE"/>
<path d="M291.211 310.303C291.243 310.067 291.366 309.928 291.618 309.936C291.602 310.189 291.464 310.312 291.211 310.303Z" fill="#FEF9FE"/>
<path d="M292.197 309.521C292.23 309.284 292.352 309.146 292.605 309.154C292.588 309.407 292.45 309.529 292.197 309.521Z" fill="#FEF9FE"/>
<path d="M340.064 278.005C340.121 277.785 340.235 277.638 340.488 277.671C340.463 277.932 340.308 278.021 340.064 278.005Z" fill="#FEF9FE"/>
<path d="M298.057 280.346C297.976 280.509 297.837 280.542 297.674 280.493C297.731 280.264 297.804 280.085 298.057 280.346Z" fill="#FEF9FE"/>
<path d="M297.275 280.533C297.193 280.696 297.055 280.729 296.892 280.68C296.949 280.452 297.03 280.272 297.275 280.533Z" fill="#FEF9FE"/>
<path d="M296.492 280.729C296.411 280.892 296.28 280.933 296.109 280.884C296.166 280.656 296.24 280.476 296.492 280.729Z" fill="#FEF9FE"/>
<path d="M294.341 281.316C294.259 281.479 294.129 281.52 293.958 281.471C294.015 281.243 294.088 281.055 294.341 281.316Z" fill="#FEF9FE"/>
<path d="M333.625 281.724C333.666 281.496 333.788 281.357 334.041 281.365C334.024 281.626 333.878 281.732 333.625 281.724Z" fill="#FEF9FE"/>
<path d="M293.167 308.737C293.2 308.501 293.322 308.362 293.575 308.362C293.558 308.615 293.42 308.737 293.167 308.737Z" fill="#FEF9FE"/>
<path d="M317.031 258.365C316.86 258.422 316.738 258.373 316.648 258.218C316.893 257.973 316.974 258.145 317.031 258.365Z" fill="#FEF9FE"/>
<path d="M281.488 285.664C281.422 285.876 281.316 286.031 281.056 285.982C281.088 285.721 281.251 285.639 281.488 285.664Z" fill="#FEF9FE"/>
<path d="M333.03 282.116C333.079 281.887 333.201 281.749 333.446 281.757C333.43 282.018 333.283 282.124 333.03 282.116Z" fill="#FEF9FE"/>
<path d="M294.145 307.955C294.178 307.718 294.308 307.588 294.553 307.58C294.536 307.841 294.398 307.963 294.145 307.955Z" fill="#FEF9FE"/>
<path d="M339.893 272.907C339.811 273.062 339.673 273.103 339.51 273.062C339.567 272.834 339.64 272.646 339.893 272.907Z" fill="#FEF9FE"/>
<path d="M345.337 268.992C345.402 268.78 345.508 268.625 345.769 268.682C345.737 268.935 345.574 269.017 345.337 268.992Z" fill="#FEF9FE"/>
<path d="M344.359 269.384C344.424 269.172 344.53 269.017 344.791 269.066C344.758 269.327 344.595 269.408 344.359 269.384Z" fill="#FEF9FE"/>
<path d="M256.059 300.141C256.018 300.369 255.896 300.508 255.651 300.508C255.667 300.247 255.806 300.133 256.059 300.141Z" fill="#FEF9FE"/>
<path d="M336.421 262.957C336.356 263.169 336.25 263.324 335.989 263.267C336.021 263.014 336.184 262.932 336.421 262.957Z" fill="#FEF9FE"/>
<path d="M330.3 283.877C330.349 283.649 330.463 283.51 330.715 283.527C330.699 283.78 330.544 283.886 330.3 283.877Z" fill="#FEF9FE"/>
<path d="M343.381 269.775C343.446 269.563 343.56 269.408 343.813 269.457C343.78 269.718 343.617 269.8 343.381 269.775Z" fill="#FEF9FE"/>
<path d="M257.428 299.162C257.387 299.39 257.257 299.529 257.012 299.521C257.037 299.268 257.175 299.154 257.428 299.162Z" fill="#FEF9FE"/>
<path d="M327.741 285.239C327.806 285.027 327.92 284.881 328.173 284.913C328.14 285.174 327.985 285.264 327.741 285.239Z" fill="#FEF9FE"/>
<path d="M326.763 285.631C326.828 285.419 326.934 285.264 327.195 285.313C327.162 285.566 326.999 285.647 326.763 285.631Z" fill="#FEF9FE"/>
<path d="M342.02 277.018C342.077 276.806 342.191 276.651 342.444 276.692C342.419 276.953 342.256 277.034 342.02 277.018Z" fill="#FEF9FE"/>
<path d="M337.325 272.524C337.382 272.304 337.497 272.157 337.749 272.19C337.725 272.451 337.57 272.54 337.325 272.524Z" fill="#FEF9FE"/>
<path d="M340.675 272.712C340.586 272.866 340.455 272.907 340.292 272.858C340.349 272.622 340.431 272.451 340.675 272.712Z" fill="#FEF9FE"/>
<path d="M350.847 261.7C350.684 261.749 350.553 261.709 350.464 261.554C350.708 261.301 350.79 261.472 350.847 261.7Z" fill="#FEF9FE"/>
<path d="M349.282 272.662C349.111 272.703 348.98 272.662 348.899 272.499C349.151 272.246 349.225 272.434 349.282 272.662Z" fill="#FEF9FE"/>
<path d="M317.773 288.959C317.838 288.746 317.944 288.591 318.205 288.64C318.172 288.901 318.009 288.983 317.773 288.959Z" fill="#FEF9FE"/>
<path d="M340.088 261.946C339.999 262.1 339.868 262.141 339.705 262.1C339.762 261.864 339.836 261.685 340.088 261.946Z" fill="#FEF9FE"/>
<path d="M216.635 340.368C216.578 340.384 216.554 340.392 216.53 340.392C216.53 340.392 216.513 340.351 216.505 340.335C216.538 340.343 216.578 340.351 216.635 340.368Z" fill="#F99CFA"/>
<path d="M217.393 340.139C217.393 340.139 217.377 340.196 217.369 340.196C217.345 340.196 217.32 340.18 217.287 340.172C217.296 340.147 217.304 340.115 217.312 340.115C217.336 340.115 217.361 340.131 217.393 340.139Z" fill="#F99CFA"/>
<path d="M218.176 339.943C218.176 339.943 218.16 340 218.151 340C218.127 340 218.103 339.984 218.07 339.976C218.078 339.96 218.086 339.919 218.094 339.919C218.119 339.919 218.143 339.935 218.176 339.943Z" fill="#F99CFA"/>
<path d="M277.934 334.389C277.934 334.389 277.975 334.413 277.999 334.422C277.975 334.405 277.958 334.397 277.934 334.381V334.389Z" fill="#F99CFA"/>
<path d="M277.738 334.185L277.934 334.381C277.869 334.316 277.804 334.25 277.738 334.185Z" fill="#F99CFA"/>
<path d="M351.238 265.836C350.211 265.518 349.152 265.738 348.108 265.624C348.817 265.037 350.562 265.159 351.238 265.836Z" fill="#FEF9FE"/>
<path d="M348.899 263.552C349.363 263.218 349.901 263.095 350.456 262.989C350.056 263.511 349.518 263.634 348.899 263.552Z" fill="#FEF9FE"/>
<path d="M346.144 265.844C345.94 266.137 345.655 266.048 345.378 266.015C345.541 265.55 345.826 265.615 346.144 265.844Z" fill="#FEF9FE"/>
<path d="M344.97 266.04C344.832 266.276 344.62 266.252 344.4 266.203C344.506 265.836 344.693 265.787 344.97 266.04Z" fill="#FEF9FE"/>
<path d="M176.381 205.202C173.757 204.998 171.523 204.338 169.787 202.503C169.657 202.364 169.502 202.225 169.396 202.07C169.217 201.809 169.152 201.491 169.364 201.255C169.6 200.977 169.893 201.141 170.146 201.312C170.814 201.769 171.458 202.274 172.175 202.658C175.468 204.395 179.486 203.783 182.176 201.198C183.187 200.219 184.099 199.175 184.751 197.919C184.857 197.715 185.004 197.536 185.126 197.348C185.387 196.948 185.77 196.891 186.145 197.087C186.544 197.291 186.536 197.715 186.365 198.033C184.442 201.54 181.793 204.167 177.726 204.99C177.229 205.088 176.723 205.292 176.389 205.219L176.381 205.202Z" fill="#FEF9FE"/>
<path d="M332.549 269.041C332.981 269.017 333.25 269.041 333.364 269.327C333.519 269.727 333.234 269.939 332.949 270.11C332.085 270.632 331.213 271.121 330.341 271.635C328.01 272.997 325.866 274.62 323.828 276.382C323.478 276.684 323.103 277.108 322.679 276.627C322.288 276.178 322.549 275.713 322.956 275.354C325.084 273.487 327.398 271.888 329.835 270.444C330.756 269.898 331.677 269.359 332.549 269.041Z" fill="#FEF9FE"/>
<path d="M245.113 309.488C244.762 309.496 244.583 309.357 244.461 309.153C244.265 308.835 244.461 308.55 244.656 308.362C245.471 307.571 246.27 306.756 247.158 306.046C248.935 304.627 250.688 303.175 252.733 302.155C253.108 301.968 253.475 301.731 253.752 302.155C254.054 302.612 253.613 302.898 253.312 303.093C250.565 304.855 248.063 306.902 245.7 309.145C245.52 309.317 245.259 309.398 245.105 309.488H245.113Z" fill="#FEF9FE"/>
<path d="M313.486 275.852C315.165 276.097 316.925 276.097 318.27 277.41C318.482 277.614 318.898 277.818 318.62 278.193C318.36 278.552 318.074 278.25 317.773 278.119C315.564 277.141 313.306 276.863 310.984 277.687C310.535 277.842 310.087 277.858 309.875 277.418C309.647 276.929 310.046 276.635 310.446 276.447C311.399 275.999 312.442 275.966 313.478 275.844L313.486 275.852Z" fill="#FEF9FE"/>
<path d="M261.316 86.0156C260.06 86.2032 258.813 86.4479 257.575 86.7008C252.358 87.7529 248.022 90.5586 244.143 94.074C240.85 97.0592 238.046 100.468 235.569 104.163C231.298 110.525 228.087 117.409 225.527 124.611C222.699 132.563 220.8 140.744 219.61 149.104C218.828 154.577 218.371 160.074 218.29 165.604C218.266 167.105 218.29 168.606 218.29 170.106C218.29 170.351 218.429 170.677 218.127 170.808C217.866 170.922 217.646 170.685 217.442 170.539C212.935 167.211 208.232 164.201 203.35 161.453C197.613 158.215 191.655 155.466 185.436 153.28C180.375 151.502 175.224 150.042 169.926 149.128C169.298 149.022 168.924 148.786 168.769 148.06C168.443 146.51 167.628 145.165 166.617 143.949C165.142 142.171 163.504 140.54 161.931 138.843C159.917 136.674 158.035 134.382 156.641 131.748C156.128 130.777 155.451 129.7 156.82 128.787C157.073 128.624 157.212 128.289 157.024 128.004C156.828 127.71 156.494 127.849 156.217 127.914C153.275 128.624 150.267 128.917 147.252 128.999C145.068 129.064 142.883 128.999 140.707 129.04C139.859 129.056 139.044 129.39 138.767 130.255C138.498 131.095 139.004 131.69 139.639 132.253C140.935 133.387 142.166 134.602 143.413 135.785C143.527 135.899 143.649 136.021 143.723 136.16C143.772 136.258 143.78 136.421 143.723 136.511C143.641 136.658 143.495 136.576 143.389 136.511C143.226 136.413 143.063 136.299 142.9 136.193C137.374 132.514 131.31 130.695 124.651 130.997C123.754 131.038 122.833 131.103 121.961 131.381C121.635 131.487 121.35 131.674 121.35 132.058C121.35 132.416 121.668 132.498 121.953 132.596C122.385 132.743 122.793 132.963 123.225 133.085C126.632 134.08 129.965 135.279 133.225 136.682C133.869 136.959 134.48 137.286 135.108 137.587C135.067 137.669 135.018 137.759 134.977 137.84C132.63 136.992 130.25 136.242 127.797 135.793C126.037 135.467 124.276 135.189 122.475 135.287C122.01 135.312 121.472 135.353 121.366 135.883C121.252 136.454 121.823 136.503 122.198 136.649C123.412 137.114 124.635 137.555 125.857 138.012C130.804 139.855 135.605 142 140.063 144.863C140.251 144.985 140.593 144.977 140.56 145.336C140.332 145.466 140.177 145.295 140.006 145.222C137.586 144.178 135.132 143.24 132.573 142.587C129.802 141.878 126.998 141.739 124.17 142.163C123.681 142.236 123.029 142.302 122.948 142.938C122.866 143.582 123.494 143.664 123.934 143.819C129.647 145.752 134.92 148.574 139.917 151.893C142.647 153.712 145.491 155.221 148.629 156.192C152.37 157.35 155.948 158.891 159.42 160.71C161.189 161.64 162.803 162.717 164.204 164.185C168.206 168.377 172.379 172.39 176.829 176.109C180.921 179.527 185.118 182.806 189.503 185.831C194.181 189.061 199.014 192.047 204.051 194.697C209.227 197.421 214.533 199.877 220.108 201.704C220.344 201.785 220.817 201.744 220.76 202.144C220.694 202.617 221.354 202.805 223.816 202.429C224.884 202.266 226.538 202.283 226.807 202.079C227.174 201.81 227.59 201.597 227.916 201.288C230.344 199.028 232.635 196.622 234.721 194.037C239.033 188.702 242.57 182.863 245.724 176.778C248.56 171.313 250.899 165.637 252.913 159.813C255.292 152.913 257.175 145.899 258.569 138.737C258.911 136.992 258.764 134.969 260.932 134.162C260.957 134.154 260.981 134.121 261.006 134.097C261.104 134.015 261.193 133.893 261.307 133.844V86.0156H261.316ZM148.368 133.248C150.805 132.775 153.128 132.017 155.304 130.296C155.223 132.319 154.946 134.088 155.092 135.899C155.239 137.726 155.679 139.463 156.266 141.258C155.801 141.282 155.622 140.931 155.402 140.711C153.112 138.37 150.691 136.16 148.099 134.146C147.896 133.991 147.594 133.819 147.635 133.566C147.692 133.199 148.116 133.289 148.368 133.24V133.248ZM150.846 151.543C150.504 151.893 150.096 151.673 149.787 151.445C148.98 150.849 148.23 150.181 147.415 149.602C146.152 148.704 144.945 147.717 143.527 147.057C143.152 146.877 142.989 146.608 143.054 146.2C143.12 145.842 143.405 145.882 143.763 145.874C144.448 146.005 145.116 146.421 145.777 146.812C147.415 147.791 148.963 148.908 150.406 150.156C150.504 150.238 150.642 150.295 150.708 150.401C150.936 150.752 151.229 151.151 150.846 151.543ZM151.058 147.032C150.691 147.424 150.308 147.098 150.039 146.845C148.866 145.719 147.57 144.749 146.241 143.811C144.725 142.742 143.168 141.755 141.53 140.883C141.245 140.728 140.976 140.548 140.699 140.377C140.463 140.238 140.259 140.059 140.365 139.757C140.487 139.414 140.797 139.406 141.123 139.423C141.873 139.594 142.533 139.994 143.217 140.385C145.614 141.755 147.896 143.297 150.039 145.026C150.365 145.287 150.659 145.597 150.952 145.907C151.286 146.249 151.384 146.682 151.05 147.04L151.058 147.032ZM153.381 144.512C153.063 144.814 152.704 144.683 152.435 144.39C150.61 142.44 148.564 140.744 146.445 139.129C146.217 138.95 146.094 138.729 146.217 138.452C146.347 138.134 146.649 138.24 146.909 138.224C147.333 138.289 147.659 138.574 147.993 138.811C149.778 140.116 151.49 141.502 153.039 143.085C153.177 143.223 153.324 143.354 153.43 143.517C153.634 143.843 153.682 144.218 153.389 144.504L153.381 144.512ZM163.838 147.66C163.724 148.174 163.235 148.036 162.86 147.946C160.496 147.375 158.181 147.334 155.948 148.468C155.777 148.558 155.573 148.664 155.418 148.476C155.231 148.248 155.394 148.052 155.557 147.881C156.576 146.812 157.953 146.682 159.29 146.47C159.64 146.412 159.999 146.461 160.398 146.461C161.319 146.372 162.232 146.559 163.129 146.869C163.512 147 163.936 147.212 163.838 147.66ZM228.502 179.788C228.111 179.568 227.744 179.274 227.427 178.948C225.422 176.933 223.148 175.261 220.792 173.687C220.629 173.581 220.466 173.475 220.311 173.361C220.002 173.132 219.936 172.79 220.108 172.488C220.295 172.154 220.621 172.3 220.882 172.431C222.447 173.181 223.808 174.242 225.185 175.277C226.457 176.232 227.679 177.259 228.788 178.409C229.065 178.695 229.309 178.988 229.383 179.413C229.26 179.926 228.902 180.008 228.502 179.788Z" fill="#F99CFA"/>
<path d="M332.068 133.844C332.183 133.901 332.272 134.015 332.37 134.097C332.394 134.121 332.411 134.154 332.443 134.162C334.62 134.969 334.473 137 334.807 138.737C336.193 145.899 338.083 152.913 340.463 159.813C342.476 165.637 344.816 171.313 347.652 176.778C350.806 182.854 354.343 188.694 358.655 194.037C360.741 196.622 363.031 199.02 365.46 201.288C365.786 201.597 366.21 201.801 366.569 202.079C366.846 202.283 368.5 202.266 369.56 202.429C372.021 202.813 372.681 202.617 372.616 202.144C372.559 201.744 373.032 201.777 373.268 201.704C378.843 199.877 384.149 197.43 389.324 194.697C394.353 192.047 399.194 189.07 403.873 185.831C408.258 182.806 412.455 179.527 416.546 176.109C420.997 172.382 425.17 168.369 429.171 164.185C430.573 162.717 432.187 161.64 433.956 160.71C437.419 158.891 441.006 157.35 444.747 156.192C447.884 155.221 450.729 153.712 453.459 151.893C458.455 148.574 463.729 145.752 469.442 143.819C469.89 143.672 470.518 143.59 470.428 142.938C470.347 142.302 469.695 142.236 469.206 142.163C466.378 141.739 463.574 141.878 460.803 142.587C458.244 143.24 455.79 144.178 453.37 145.222C453.207 145.295 453.052 145.466 452.815 145.336C452.783 144.977 453.125 144.985 453.313 144.863C457.771 142 462.571 139.855 467.519 138.012C468.733 137.555 469.956 137.114 471.178 136.649C471.553 136.503 472.124 136.454 472.009 135.883C471.903 135.353 471.357 135.312 470.901 135.287C469.1 135.189 467.339 135.467 465.579 135.793C463.126 136.25 460.746 137 458.398 137.84C458.358 137.759 458.309 137.669 458.268 137.587C458.896 137.286 459.515 136.951 460.151 136.682C463.411 135.279 466.744 134.08 470.151 133.085C470.583 132.955 470.999 132.743 471.423 132.596C471.708 132.498 472.026 132.425 472.026 132.058C472.026 131.682 471.749 131.487 471.414 131.381C470.542 131.103 469.63 131.038 468.725 130.997C462.066 130.695 456.01 132.514 450.476 136.193C450.313 136.299 450.15 136.413 449.987 136.511C449.881 136.576 449.735 136.658 449.653 136.511C449.604 136.421 449.612 136.258 449.653 136.16C449.726 136.021 449.841 135.899 449.963 135.785C451.218 134.602 452.441 133.387 453.736 132.253C454.38 131.69 454.886 131.095 454.609 130.255C454.331 129.39 453.508 129.056 452.669 129.04C450.484 128.991 448.3 129.064 446.124 128.999C443.108 128.909 440.109 128.624 437.159 127.914C436.882 127.849 436.547 127.71 436.352 128.004C436.164 128.289 436.303 128.616 436.556 128.787C437.925 129.709 437.248 130.777 436.735 131.748C435.341 134.382 433.458 136.674 431.445 138.843C429.872 140.532 428.242 142.171 426.759 143.949C425.748 145.165 424.933 146.51 424.607 148.06C424.452 148.786 424.086 149.022 423.45 149.128C418.152 150.042 413.001 151.502 407.94 153.28C401.729 155.466 395.771 158.215 390.025 161.453C385.143 164.201 380.441 167.211 375.933 170.539C375.73 170.685 375.51 170.93 375.249 170.808C374.955 170.677 375.094 170.343 375.086 170.106C375.078 168.606 375.102 167.105 375.086 165.604C375.004 160.074 374.548 154.585 373.765 149.104C372.576 140.744 370.685 132.563 367.848 124.611C365.289 117.409 362.078 110.525 357.807 104.163C355.329 100.468 352.526 97.0592 349.233 94.074C345.353 90.5586 341.017 87.7529 335.801 86.7008C334.562 86.4479 333.315 86.2032 332.06 86.0156V133.844H332.068ZM445.749 133.566C445.79 133.819 445.48 133.991 445.285 134.146C442.693 136.16 440.28 138.362 437.982 140.711C437.762 140.94 437.582 141.282 437.118 141.258C437.705 139.455 438.137 137.726 438.292 135.899C438.438 134.088 438.161 132.319 438.08 130.296C440.264 132.009 442.579 132.775 445.016 133.248C445.268 133.297 445.692 133.208 445.749 133.575V133.566ZM442.676 150.401C442.742 150.295 442.88 150.246 442.978 150.156C444.421 148.9 445.969 147.791 447.607 146.812C448.268 146.421 448.936 146.005 449.62 145.874C449.979 145.89 450.264 145.842 450.33 146.2C450.403 146.608 450.24 146.877 449.857 147.057C448.439 147.717 447.232 148.704 445.969 149.602C445.154 150.181 444.404 150.849 443.597 151.445C443.288 151.673 442.88 151.893 442.538 151.543C442.155 151.151 442.448 150.76 442.676 150.401ZM442.424 145.899C442.717 145.597 443.011 145.287 443.337 145.018C445.488 143.28 447.762 141.747 450.158 140.377C450.835 139.985 451.503 139.586 452.253 139.414C452.579 139.406 452.889 139.414 453.011 139.749C453.117 140.059 452.913 140.23 452.677 140.369C452.4 140.532 452.131 140.719 451.846 140.874C450.215 141.747 448.651 142.734 447.135 143.802C445.806 144.74 444.518 145.711 443.337 146.837C443.076 147.089 442.685 147.416 442.318 147.024C441.984 146.665 442.09 146.233 442.416 145.89L442.424 145.899ZM439.954 143.525C440.052 143.362 440.207 143.232 440.345 143.093C441.894 141.519 443.606 140.124 445.39 138.819C445.725 138.574 446.051 138.289 446.474 138.232C446.743 138.24 447.037 138.142 447.167 138.46C447.281 138.737 447.167 138.966 446.939 139.137C444.82 140.752 442.774 142.449 440.949 144.398C440.68 144.683 440.321 144.814 440.003 144.52C439.702 144.243 439.759 143.868 439.962 143.533L439.954 143.525ZM430.247 146.869C431.144 146.559 432.057 146.372 432.978 146.461C433.369 146.461 433.735 146.412 434.086 146.47C435.423 146.682 436.8 146.812 437.819 147.881C437.982 148.052 438.145 148.248 437.957 148.476C437.803 148.664 437.599 148.558 437.428 148.468C435.194 147.334 432.88 147.375 430.516 147.946C430.141 148.036 429.652 148.182 429.538 147.66C429.432 147.212 429.864 147 430.247 146.869ZM363.993 179.421C364.067 178.997 364.311 178.703 364.588 178.417C365.697 177.267 366.911 176.24 368.191 175.286C369.568 174.25 370.929 173.189 372.494 172.439C372.763 172.308 373.089 172.17 373.268 172.496C373.431 172.798 373.366 173.132 373.065 173.369C372.91 173.483 372.747 173.589 372.584 173.695C370.228 175.261 367.954 176.941 365.949 178.956C365.631 179.274 365.265 179.568 364.873 179.796C364.474 180.016 364.116 179.935 363.993 179.421Z" fill="#F99CFA"/>
<path d="M364.613 115.199C364.531 115.027 364.507 114.831 364.458 114.644C364.433 114.464 364.409 114.285 364.376 114.106C363.855 113.861 363.757 113.363 363.635 112.882C363.496 112.564 363.357 112.246 363.219 111.92C362.51 111.447 362.347 110.664 362.07 109.946C362.053 109.889 362.045 109.832 362.045 109.766C361.336 109.204 361.027 108.396 360.709 107.597C360.692 107.483 360.676 107.369 360.66 107.254C360.342 107.156 360.114 106.985 360.114 106.618C360.097 106.561 360.081 106.504 360.081 106.447C359.217 105.786 358.834 104.791 358.345 103.878C358.329 103.821 358.321 103.772 358.321 103.715C357.367 102.98 356.788 101.953 356.202 100.941C356.185 100.884 356.169 100.827 356.169 100.77C355.745 100.664 355.468 100.419 355.411 99.9627C355.395 99.9056 355.386 99.8485 355.386 99.7914C354.971 99.6772 354.677 99.4325 354.637 98.9758L354.628 98.9676C354.034 98.4538 353.349 98.0215 353.08 97.214C352.705 96.9857 352.363 96.7328 352.265 96.2679C351.76 96.1129 351.425 95.7867 351.271 95.2728C350.806 95.175 350.553 94.8324 350.325 94.4572C349.64 94.237 349.217 93.7395 348.923 93.1196C348.866 93.1196 348.809 93.1114 348.76 93.087C348.304 93.0299 348.067 92.7526 347.953 92.3284C347.896 92.3284 347.839 92.3203 347.782 92.2958C347.187 92.0675 346.666 91.7575 346.38 91.154C346.323 91.154 346.266 91.154 346.217 91.1295C345.093 90.4933 343.968 89.849 342.835 89.2291C341.115 88.2993 339.306 87.5815 337.407 87.0921C337.008 86.9861 336.576 86.9372 336.266 86.6028C336.127 86.5946 335.997 86.5783 335.858 86.5702C335.638 86.6191 335.426 86.6436 335.28 86.4152C335.084 86.3989 334.88 86.3826 334.685 86.3744C334.408 86.4152 334.122 86.5049 333.91 86.2194C333.65 86.2031 333.381 86.1868 333.12 86.1705C332.786 86.2031 332.435 86.3336 332.158 86.0155C331.824 85.9992 331.498 85.9911 331.164 85.9748C328.499 86.407 325.825 86.1623 323.152 86.1705C322.5 86.1705 321.848 86.1705 321.196 86.1705C320.674 86.1705 320.128 86.3826 319.647 86.0155C319.101 86.0971 318.604 85.8116 318.074 85.7953C317.854 85.8361 317.642 85.8606 317.504 85.624C316.306 85.4201 315.287 84.8573 314.366 84.0825C314.121 84.0743 313.991 83.9357 313.958 83.6992C313.632 83.5116 313.372 83.2506 313.184 82.9243C312.948 82.8917 312.817 82.7612 312.801 82.5165C311.758 81.3991 311.138 80.0207 310.641 78.6178C309.272 74.6947 308.987 70.6247 309.044 66.4977C309.06 65.0051 309.313 63.643 309.875 62.2483C311.228 58.9206 312.002 55.4378 312.206 51.8328C312.239 51.1884 312.043 50.9764 311.399 50.9927C310.625 51.009 309.851 51.0743 309.068 50.903C304.846 50.0058 301.7 47.5916 299.28 44.0925C298.538 43.0159 297.919 41.874 297.291 40.5527C296.37 42.4694 295.425 44.117 294.137 45.5607C291.366 48.6682 288.097 50.7317 283.819 50.7888C283.085 50.797 282.849 51.0579 282.645 51.7431C282.278 52.9828 282.278 54.2552 282.164 55.5031C282.042 56.8244 282.034 58.1702 282.547 59.4589C283.052 60.7312 283.566 61.9954 284.014 63.2841C284.332 64.2058 284.919 65.0296 285.049 66.0083C285.506 69.4747 285.196 72.8922 284.226 76.2362C283.468 78.8625 282.303 81.2441 280.029 82.9896C277.453 84.9634 274.486 85.779 271.373 86.2357C270.346 86.3907 269.238 86.7659 268.308 86.5212C267.086 86.1868 265.92 86.2031 264.698 86.2031C262.31 86.2113 259.987 86.7007 257.68 87.1656C252.464 88.2177 248.128 91.0235 244.249 94.5388C240.956 97.524 238.152 100.933 235.675 104.628C231.404 110.99 228.193 117.874 225.633 125.076C224.452 128.387 223.449 131.739 222.577 135.124H260.15C260.395 134.928 260.688 134.757 261.047 134.627C261.071 134.618 261.095 134.586 261.12 134.561C261.267 134.439 261.389 134.219 261.601 134.284C261.894 134.374 261.772 134.667 261.796 134.871C261.805 134.953 261.821 135.034 261.829 135.124H371.736C369.992 128.248 367.702 121.569 364.637 115.158L364.613 115.199ZM289.711 59.4833C289.711 57.379 290.543 56.1637 292.238 56.0088C293.672 55.8783 294.862 56.596 295.914 57.5258C296.525 58.0641 297.079 58.6677 297.527 59.3447C297.91 59.9238 298.082 59.7443 298.342 59.2386C299.247 57.5014 300.527 56.1719 302.507 55.707C305.107 55.0953 306.876 56.9875 306.256 59.7443C305.775 61.8894 304.659 63.7246 303.241 65.3558C302.149 66.6037 300.959 67.7537 299.646 68.7896C298.791 69.4665 297.878 69.6378 296.932 69.0995C293.778 67.2888 291.26 64.8909 289.996 61.3674C289.76 60.7068 289.679 60.0461 289.711 59.4833Z" fill="#F99CFA"/>
<path d="M336.046 138.737H262.734C263.239 139.904 263.94 140.988 264.918 141.943C265.179 142.204 265.309 142.538 265.415 142.881C266.703 146.967 268.455 150.849 270.468 154.617C271.968 157.415 273.81 159.992 276.051 162.211C278.456 164.584 281.365 166.305 284.438 167.667C290.706 170.441 297.299 171.256 304.072 170.465C310.177 169.755 315.906 167.814 321.277 164.813C322.345 164.217 323.682 163.826 324.317 162.766C325.874 160.172 327.325 157.513 328.539 154.732C329.273 153.06 329.697 151.273 330.398 149.601C331.147 147.799 332.011 146.037 332.492 144.137C332.998 142.155 334.701 141.005 335.516 139.088C335.663 139.373 335.728 139.447 335.744 139.528C335.834 140.018 335.948 140.507 336.046 140.988V138.737ZM301.179 164.397C301.024 164.731 300.787 165 300.372 165C299.924 165 299.785 164.641 299.663 164.307C299.532 163.948 299.386 163.581 299.435 163.173C299.386 162.774 299.532 162.407 299.679 162.048C299.818 161.689 300.103 161.501 300.519 161.509C300.902 161.518 301.105 161.738 301.236 162.064C301.562 162.847 301.545 163.63 301.187 164.405L301.179 164.397Z" fill="#F99CFA"/>
<path d="M296.892 74.7926C295.156 74.5153 293.517 74.0097 292.107 72.8841C291.7 72.5578 291.292 72.2397 291.015 71.7912C290.828 71.4731 290.722 71.0979 291.048 70.8124C291.333 70.5596 291.651 70.6982 291.936 70.8858C292.58 71.3181 293.191 71.7993 293.868 72.1663C296.989 73.8873 300.722 73.349 303.347 70.9103C304.716 69.6379 305.784 68.1535 306.754 66.5712C307.748 66.351 308.131 66.7425 307.911 67.7457C305.816 71.4404 302.947 74.0994 298.628 74.7926H296.884H296.892Z" fill="#170250"/>
<path d="M273.72 261.929C260.036 261.929 246.36 262.027 232.675 261.896C224.46 261.815 216.244 261.668 208.159 259.768C196.871 257.109 186.292 252.925 176.927 245.967C172.338 242.558 168.345 238.562 165.288 233.692C160.431 225.96 159.722 217.918 163.504 209.542C165.647 204.803 168.818 200.815 172.51 197.218C177.18 192.658 182.502 188.972 188.126 185.701C188.704 185.367 189.055 185.538 189.511 185.856C195.852 190.236 202.478 194.126 209.447 197.413C212.87 199.028 216.35 200.496 219.953 201.671C220.107 201.72 220.246 201.818 220.401 201.842C220.637 201.883 220.882 201.907 220.825 202.226C220.776 202.511 220.531 202.389 220.36 202.421C220.328 202.421 220.295 202.421 220.262 202.421C217.695 202.291 215.128 202.495 212.577 202.641C207.898 202.919 203.244 203.473 198.746 204.917C198.534 204.982 198.305 205.039 198.11 205.137C197.735 205.325 197.482 205.602 197.564 206.067C197.662 206.614 198.102 206.614 198.477 206.54C199.83 206.295 201.182 206.034 202.519 205.733C205.315 205.113 208.151 204.77 211.012 204.558C213.661 204.362 216.309 204.159 218.958 204.199C223.359 204.265 227.744 204.493 232.121 204.942C239.823 205.725 247.419 207.054 254.95 208.816C260.069 210.015 265.114 211.434 270.118 213.033C276.891 215.194 283.517 217.755 289.996 220.699C297.185 223.962 304.129 227.665 310.633 232.159C312.01 233.113 313.355 234.116 314.716 235.087C314.871 235.201 315.042 235.299 315.189 235.421C315.629 235.78 316.069 235.854 316.452 235.364C316.86 234.859 316.599 234.434 316.192 234.108C315.157 233.293 314.105 232.485 313.029 231.718C309.411 229.133 305.645 226.792 301.741 224.647C301.456 224.492 300.999 224.402 300.983 223.994C300.967 223.538 301.456 223.521 301.741 223.366C309.174 219.484 316.893 216.271 324.839 213.628C331.579 211.385 338.442 209.525 345.402 208.074C349.225 207.274 353.08 206.614 356.927 205.986C359.307 205.594 361.719 205.423 364.115 205.154C367.873 204.729 371.646 204.517 375.42 204.322C379.487 204.11 383.546 204.175 387.605 204.224C390.571 204.265 393.538 204.566 396.497 204.787C397.206 204.836 397.899 204.982 398.616 204.974C399.121 204.974 399.504 204.681 399.586 204.305C399.683 203.873 399.268 203.522 398.852 203.425C398.045 203.237 397.222 203.066 396.399 203C394.239 202.829 392.079 202.748 389.919 202.584C385.535 202.25 381.15 202.389 376.757 202.429C375.273 202.446 373.782 202.593 372.29 202.584C372.038 202.584 371.63 202.788 371.54 202.397C371.418 201.867 371.981 201.981 372.209 201.916C377.89 200.244 383.277 197.846 388.534 195.162C394.443 192.144 400.075 188.645 405.535 184.877C405.935 184.6 406.228 184.527 406.676 184.747C413.05 187.895 419.301 191.264 424.966 195.611C428.65 198.441 432.032 201.589 434.722 205.415C437.713 209.664 439.506 214.297 439.147 219.59C438.903 223.252 437.615 226.572 435.659 229.647C433.141 233.611 429.832 236.824 426.156 239.671C419.22 245.046 411.453 248.92 403.392 252.272C399.871 253.74 396.277 255.013 392.666 256.22C392.193 256.375 391.802 256.513 391.329 256.081C387.751 252.762 383.456 250.706 378.892 249.156C375.518 248.015 372.046 247.191 368.696 245.984C363.561 244.132 359.698 240.682 356.487 236.376C355.093 234.5 353.789 232.542 351.923 231.074C350.097 229.639 348.051 228.799 345.745 228.603C340.365 228.146 336.315 230.389 333.381 234.793C332.052 236.783 330.471 238.374 327.993 238.725C326.07 238.994 324.195 238.619 322.337 238.17C322.247 238.146 322.158 238.064 322.068 238.056C321.791 238.031 321.449 237.852 321.277 238.17C321.106 238.48 321.375 238.7 321.612 238.896C323.266 240.266 324.48 241.979 325.524 243.839C326.673 245.886 327.3 248.064 327.325 250.421C327.382 254.956 324.562 259.107 320.185 260.861C318.156 261.668 316.045 262.141 313.836 262.174C304.129 262.296 294.422 262.149 284.715 262.133C281.031 262.133 277.355 262.133 273.671 262.133C273.671 262.06 273.671 261.986 273.671 261.913L273.72 261.929Z" fill="url(#paint1_linear_87_4145)"/>
<path d="M368.777 202.69C368.777 203.009 368.492 202.951 368.288 202.96C366.218 203.049 364.164 203.343 362.102 203.555C357.685 204.02 353.292 204.721 348.931 205.57C338.898 207.519 329.053 210.153 319.476 213.734C313.054 216.132 306.721 218.75 300.779 222.208C299.492 222.959 298.62 222.975 297.324 222.306C285.954 216.442 274.006 212.062 261.69 208.669C255.284 206.907 248.788 205.521 242.236 204.42C238.372 203.767 234.485 203.261 230.573 202.951C229.407 202.862 228.233 202.87 227.076 202.715C226.897 202.69 226.652 202.625 226.579 202.503C226.457 202.283 226.717 202.185 226.864 202.071C230.189 199.64 232.789 196.5 235.308 193.303C241.681 185.22 246.433 176.207 250.394 166.738C250.655 166.118 251.005 165.832 251.649 165.702C259.4 164.079 267.224 162.888 275.114 162.154C275.725 162.097 276.149 162.301 276.597 162.684C282.123 167.39 288.554 169.935 295.751 170.563C305.776 171.436 314.92 168.785 323.413 163.573C324.024 163.198 324.603 163.027 325.328 163.092C331.042 163.606 336.739 164.218 342.411 165.049C343.063 165.147 343.34 165.449 343.577 166.02C346.975 174.299 351.099 182.186 356.218 189.526C359.046 193.572 362.257 197.291 365.835 200.684C366.577 201.385 367.433 201.907 368.354 202.34C368.517 202.413 368.769 202.372 368.794 202.69H368.777Z" fill="url(#paint2_linear_87_4145)"/>
<path d="M342.289 228.676H346.389C346.454 228.872 346.617 228.864 346.78 228.888C348.174 229.117 349.453 229.639 350.659 230.381C352.534 231.523 353.871 233.195 355.175 234.908C357.229 237.599 359.266 240.307 361.939 242.428C365.183 245.005 368.998 246.367 372.91 247.509C377.083 248.732 381.256 249.923 385.127 251.987C389.072 254.091 392.446 256.807 394.793 260.681C396.725 263.87 397.222 267.329 396.505 270.95C395.592 275.583 392.47 278.78 388.306 279.449C386.888 279.677 385.453 279.612 384.027 279.424C380.155 278.91 376.528 277.581 372.934 276.129C367.742 274.033 362.746 271.505 357.612 269.302C350.635 266.309 343.463 264.099 335.834 263.569C330.064 263.161 324.293 262.704 318.514 262.533C317.968 262.516 317.357 262.631 316.86 262.043C317.944 261.693 318.971 261.424 319.949 261.04C325.287 258.96 328.124 253.961 327.129 248.325C326.461 244.548 324.432 241.539 321.677 238.969C321.473 238.774 321.123 238.611 321.326 238.268C321.481 237.999 321.799 238.146 322.044 238.195C322.361 238.26 322.671 238.366 322.981 238.439C323.926 238.668 324.88 238.823 325.858 238.896C328.963 239.133 331.319 237.942 333.038 235.324C334.668 232.844 336.649 230.699 339.493 229.59C340.406 229.231 341.368 228.986 342.305 228.684L342.289 228.676Z" fill="#FACD17"/>
<path d="M379.169 136.633C377.849 134.912 376.129 133.631 374.572 132.163C373.505 131.152 372.461 130.173 371.736 128.844C370.302 126.201 369.128 123.452 367.979 120.687C365.851 115.574 363.822 110.427 361.157 105.558C357.889 99.571 353.487 94.6039 348.01 90.5992C343.935 87.614 339.379 85.6483 334.367 84.8735C331.4 84.4168 328.417 84.3026 325.459 85.0448C324.366 85.3221 323.698 85.9338 323.201 86.9697C321.098 91.2843 318.009 94.7915 313.942 97.2954C307.177 101.455 299.85 102.263 292.246 100.264C284.283 98.1763 277.95 93.6007 273.076 87.0023C272.278 85.9175 271.503 85.2242 269.996 85.0611C266.605 84.6941 263.263 84.6778 259.914 85.3058C254.323 86.3579 249.514 89.0984 244.942 92.312C241.005 95.0851 237.712 98.527 234.697 102.279C231.583 106.161 228.543 110.109 225.144 113.755C224.892 113.893 224.647 114.032 224.574 114.342C224.549 114.383 224.541 114.432 224.549 114.481C224.109 114.701 223.759 115.027 223.4 115.361C222.373 116.34 221.395 117.409 220.262 118.257C216.856 120.802 213.335 123.2 210.074 125.932C207.964 127.694 206.105 129.692 205.038 132.302C203.88 135.132 205.005 137.546 207.947 138.419C209.227 138.802 210.547 138.966 211.884 138.974C212.006 139.112 212.128 139.121 212.259 138.99C213.824 139.104 215.388 139.276 216.961 139.178C217.605 139.373 218.257 139.382 218.909 139.21C220.018 139.251 221.118 139.463 222.235 139.382C222.414 139.528 222.61 139.545 222.813 139.43C223.254 139.634 223.726 139.569 224.191 139.577C224.305 139.691 224.435 139.724 224.574 139.634C225.104 139.724 225.625 139.822 226.155 139.912C226.4 139.993 226.636 140.148 226.921 140.067C227.06 140.091 227.19 140.124 227.329 140.148C227.679 140.393 228.079 140.45 228.486 140.458C229.008 140.613 229.537 140.776 230.059 140.931C230.206 141.127 230.41 141.143 230.63 141.127C231.705 141.657 232.83 142.081 233.89 142.669C237.386 144.585 240.377 147.212 243.597 149.512C245.879 151.143 248.202 152.701 250.899 153.582C255.097 154.96 258.316 153.402 259.824 149.242C260.517 147.334 260.818 145.336 261.071 143.329C261.234 142.057 261.226 140.768 261.226 139.422C261.715 139.651 261.707 140.018 261.813 140.303C262.962 143.337 262.75 146.437 262.253 149.561C261.886 151.836 261.25 154.079 261.34 156.428C261.462 159.617 263.255 161.942 266.075 162.398C267.673 162.659 269.254 162.407 270.802 161.974C274.12 161.036 277.339 159.772 280.705 158.981C285.579 157.831 290.486 157.203 295.506 157.7C300.535 158.206 305.433 159.389 310.332 160.571C315.181 161.738 320.047 162.708 325.075 162.48C326.388 162.423 327.675 162.243 328.906 161.803C329.925 161.444 330.993 161.012 331.49 160C332.183 158.598 332.639 157.089 332.843 155.531C333.104 153.565 333.038 151.559 333.405 149.601C333.723 147.913 334.171 146.265 334.994 144.642C335.516 145.197 335.638 145.801 335.761 146.396C336.298 148.941 335.761 151.453 335.459 153.965C335.19 156.192 334.856 158.418 335.141 160.669C335.337 162.252 335.679 163.777 336.934 164.886C338.581 166.338 340.879 166.264 343.031 164.625C345.076 163.059 346.861 161.199 348.646 159.348C348.964 159.275 349.143 159.071 349.257 158.777C349.388 158.655 349.518 158.532 349.649 158.418C349.869 158.361 350.007 158.222 350.089 158.019C350.48 157.839 350.806 157.586 350.993 157.187C351.067 157.129 351.14 157.072 351.214 157.015C352.477 155.89 353.895 154.968 355.289 154.014C355.623 154.006 355.802 153.777 355.965 153.524C356.128 153.427 356.299 153.329 356.462 153.223C356.691 153.239 356.813 153.108 356.911 152.921C357.09 152.847 357.286 152.807 357.449 152.701C359.975 151.135 362.681 150.001 365.525 149.136C367.767 148.451 370.09 148.174 372.315 147.456C374.597 147.105 376.716 146.314 378.574 144.928C378.859 144.716 379.128 144.471 379.348 144.194C381.15 142.016 381.052 139.063 379.185 136.633H379.169ZM372.437 146.306C372.437 146.306 372.437 146.339 372.437 146.347C372.437 146.331 372.437 146.314 372.437 146.306ZM366.145 139.724C366.088 139.7 366.023 139.643 365.982 139.659C366.023 139.643 366.088 139.7 366.145 139.724ZM319.973 130.092C319.957 130.002 319.941 129.904 319.916 129.798C319.941 129.896 319.957 129.994 319.973 130.092ZM317.496 128.966C317.439 128.942 317.39 128.917 317.333 128.893C317.39 128.917 317.439 128.942 317.496 128.966ZM315.157 127.596C315.157 127.596 315.099 127.563 315.075 127.547C315.099 127.563 315.132 127.579 315.157 127.596ZM297.992 109.44C297.967 109.383 297.927 109.342 297.862 109.318C297.927 109.35 297.967 109.391 297.992 109.44ZM290.502 107.352C290.559 107.377 290.624 107.434 290.665 107.417C290.624 107.434 290.559 107.377 290.502 107.352ZM274.918 107.833C274.861 107.809 274.796 107.752 274.764 107.768C274.804 107.752 274.869 107.809 274.918 107.833ZM265.032 109.057C265.032 109.057 265.032 108.991 265.032 108.959C265.032 108.991 265.032 109.024 265.032 109.057C265.122 109.089 265.195 109.114 265.244 109.146C265.187 109.114 265.122 109.089 265.032 109.057ZM261.047 107.034C261.03 107.246 260.884 107.287 260.712 107.287C260.884 107.287 261.03 107.246 261.047 107.034C261.006 106.928 260.949 106.863 260.875 106.814C260.949 106.863 261.006 106.928 261.047 107.034ZM260.737 106.749C260.672 106.732 260.598 106.724 260.517 106.724C260.598 106.724 260.672 106.724 260.737 106.749ZM256.124 107.156C256.181 107.181 256.246 107.238 256.279 107.222C256.238 107.238 256.173 107.181 256.124 107.156ZM249.155 107.972C249.131 108.029 249.106 108.078 249.082 108.135C249.106 108.078 249.131 108.029 249.155 107.972ZM246.775 109.171C246.735 109.212 246.71 109.269 246.694 109.342C246.694 109.375 246.702 109.416 246.71 109.44C246.702 109.407 246.694 109.375 246.694 109.342C246.702 109.269 246.735 109.212 246.775 109.171ZM246.009 109.407C245.985 109.399 245.952 109.375 245.928 109.358C245.952 109.375 245.985 109.391 246.009 109.407ZM245.414 108.037C245.357 108.013 245.308 107.988 245.251 107.964C245.308 107.988 245.357 108.013 245.414 108.037ZM241.714 110.778C241.657 110.753 241.592 110.704 241.551 110.721C241.592 110.704 241.657 110.761 241.714 110.778ZM226.204 114.472C226.228 114.415 226.277 114.35 226.261 114.309C226.277 114.35 226.22 114.415 226.204 114.472ZM226.114 114.236C226.114 114.236 226.082 114.293 226.065 114.317C226.082 114.293 226.098 114.26 226.114 114.236ZM265.22 109.628C265.293 109.522 265.383 109.424 265.391 109.334C265.391 109.424 265.293 109.522 265.22 109.628ZM281.952 105.99C281.928 105.933 281.92 105.851 281.887 105.835C281.928 105.851 281.936 105.933 281.952 105.99ZM286.834 105.688C286.777 105.664 286.712 105.607 286.679 105.623C286.72 105.607 286.785 105.664 286.842 105.688H286.834ZM308.131 125.948C308.106 125.891 308.098 125.81 308.066 125.793C308.107 125.81 308.115 125.891 308.131 125.948ZM317.121 129.667C317.096 129.61 317.088 129.529 317.056 129.513C317.096 129.529 317.104 129.61 317.121 129.667ZM322.353 131.176C322.353 131.176 322.41 131.242 322.435 131.274C322.41 131.242 322.378 131.209 322.353 131.176ZM330.944 136.323C330.968 136.331 331.001 136.356 331.025 136.372C331.001 136.356 330.968 136.339 330.944 136.323ZM336.062 139.757C336.135 139.757 336.184 139.732 336.233 139.683C336.192 139.724 336.135 139.749 336.062 139.757ZM336.29 139.561C336.29 139.561 336.307 139.537 336.315 139.52C336.315 139.52 336.298 139.545 336.29 139.561Z" fill="#FFF5E9"/>
<path d="M312.801 45.7646C312.711 46.8738 312.711 47.9831 312.801 49.0923C312.785 49.3533 312.76 49.6143 312.744 49.8753C312.557 50.0385 312.54 50.2505 312.605 50.4707C312.508 50.6012 312.41 50.7236 312.32 50.8541C312.076 50.8541 311.97 51.009 311.888 51.2048C304.414 51.4984 300.274 46.9472 297.087 40.879C296.06 43.1954 294.764 45.2997 292.931 46.9799C290.461 49.2473 287.657 50.9112 284.185 51.0172C282.531 51.0661 280.705 49.6306 280.33 47.9994C279.523 44.4596 280.021 41.0095 281.39 37.7144C284.153 31.0671 288.912 26.9074 296.207 26.051C298.66 25.7655 300.836 26.6056 302.907 27.8454C304.243 28.6528 305.376 29.7213 306.501 30.7816C306.533 31.0018 306.664 31.1405 306.876 31.1894C308.392 33.0246 309.671 35.0065 310.649 37.1842C310.609 37.4126 310.715 37.5594 310.894 37.6818C311.22 38.6197 311.546 39.5495 311.872 40.4875C311.799 40.6506 311.831 40.7893 311.978 40.8953C312.011 41.0177 312.051 41.1482 312.084 41.2705C312.002 41.4336 312.027 41.5641 312.174 41.6702C312.206 41.7925 312.239 41.923 312.271 42.0454C312.182 42.2085 312.206 42.339 312.353 42.4532C312.394 42.6408 312.434 42.8284 312.475 43.0159C312.361 43.2362 312.369 43.4401 312.565 43.6113C312.589 43.7337 312.614 43.8642 312.63 43.9865C312.548 44.3291 312.483 44.6717 312.736 44.9734L312.801 45.7564V45.7646Z" fill="#EE6152"/>
<path d="M288.652 70.7797C287.568 69.8335 286.908 68.7895 286.321 67.6884C285.18 65.5434 284.071 63.382 282.938 61.2287C282.792 60.9514 282.718 60.5599 282.327 60.5436C280.819 60.4783 279.866 59.5404 279.075 58.3985C277.046 55.4541 276.1 52.2161 276.809 48.6355C277.347 45.9032 280.021 45.944 281.39 47.2489C282.735 48.5295 283.672 50.0465 284.177 51.8327C284.251 52.0774 284.299 52.3384 284.308 52.5913C284.332 53.2519 284.136 53.6353 283.395 53.2846C283.232 53.203 283.036 53.0399 282.865 53.1867C282.669 53.358 282.775 53.6108 282.841 53.8229C283.126 54.72 283.346 55.6335 283.346 56.5878C283.346 56.9385 283.33 57.2729 283.876 56.963C284.577 56.5634 284.862 56.9059 284.903 57.6481C284.943 58.4148 284.617 59.0592 284.21 59.6383C283.843 60.1603 283.916 60.5762 284.21 61.0656C285.636 63.5369 286.899 66.098 288.122 68.6753C288.399 69.2626 288.684 69.8743 288.652 70.7797Z" fill="#F99EFA"/>
<path d="M301.366 27.5927C300.845 27.9434 300.429 28.5062 299.728 28.0576C298.677 27.3806 297.837 26.4916 297.201 25.3987C297.03 25.105 297.112 24.9827 297.242 24.7298C299.435 20.5539 303.102 18.3843 307.471 17.2343C312.728 15.8477 318.099 15.913 323.445 16.4757C330.569 17.2343 337.382 19.2733 344.041 21.8833C352.925 25.366 361.434 29.6644 370.13 33.5793C378.085 37.1599 386.138 40.4795 394.549 42.8693C400.857 44.6637 407.263 45.8545 413.824 46.1236C419.538 46.3601 425.186 45.8789 430.736 44.4027C435.814 43.0569 440.533 40.9444 444.967 38.155C445.472 37.8369 445.586 37.527 445.35 36.9479C441.454 27.1849 436.873 17.7726 431.299 8.85783C430.948 8.29505 430.581 8.09114 429.864 8.26242C424.004 9.65714 418.046 10.4809 412.039 10.7664C407.785 10.9703 403.522 10.9621 399.26 10.6767C393.09 10.2689 386.993 9.37167 380.93 8.18086C372.576 6.54146 364.344 4.33928 355.981 2.71619C346.837 0.946291 337.643 -0.19558 328.303 0.0164819C323.339 0.130669 318.449 0.628199 313.673 2.01476C308.4 3.54813 303.567 5.84003 300.021 10.2444C297.218 13.7271 295.319 17.585 295.465 22.2014C295.514 23.8408 296.362 25.3823 296.085 27.087C296.011 27.5437 296.476 27.9108 296.957 27.715C297.601 27.4459 297.992 27.715 298.44 28.0902C298.848 28.4246 299.329 28.6367 299.85 28.7345C300.739 28.8895 301.179 28.4165 301.358 27.5927H301.366Z" fill="#FEFDFD"/>
<path d="M301.366 27.5927C301.187 28.4165 300.747 28.8895 299.858 28.7345C299.337 28.6448 298.856 28.4246 298.448 28.0902C298 27.7232 297.601 27.454 296.965 27.715C296.484 27.9108 296.02 27.5437 296.093 27.087C296.37 25.3823 295.522 23.849 295.473 22.2014C295.327 17.585 297.218 13.7271 300.03 10.2444C303.575 5.84818 308.408 3.54813 313.681 2.01476C318.457 0.628199 323.356 0.122513 328.311 0.0164819C337.651 -0.19558 346.845 0.946291 355.99 2.71619C364.352 4.33928 372.584 6.54146 380.938 8.18086C387.002 9.37167 393.098 10.2689 399.268 10.6767C403.53 10.954 407.793 10.9621 412.047 10.7664C418.054 10.4809 424.012 9.6653 429.872 8.26242C430.589 8.09114 430.948 8.29505 431.307 8.85783C436.882 17.7726 441.462 27.1849 445.358 36.9479C445.586 37.527 445.472 37.8369 444.975 38.155C440.541 40.9526 435.814 43.065 430.744 44.4027C425.194 45.8708 419.546 46.352 413.832 46.1236C407.28 45.8545 400.865 44.6637 394.557 42.8693C386.154 40.4795 378.101 37.1518 370.139 33.5793C361.45 29.6725 352.933 25.366 344.049 21.8833C337.399 19.2733 330.585 17.2343 323.454 16.4757C318.107 15.9048 312.736 15.8477 307.479 17.2343C303.11 18.3843 299.443 20.5539 297.25 24.7298C297.12 24.9827 297.038 25.105 297.21 25.3987C297.845 26.4916 298.677 27.3806 299.736 28.0576C300.429 28.5062 300.853 27.9352 301.374 27.5927H301.366ZM297.046 22.8621C297.633 23.0415 298.041 22.8784 298.424 22.3564C299.875 20.35 301.863 19.0368 304.088 18.0417C308.204 16.1984 312.597 15.8232 317.015 15.7254C319.468 15.6683 321.929 15.9374 324.375 16.2474C328.539 16.7612 332.606 17.691 336.608 18.9145C343.772 21.1085 350.602 24.1263 357.383 27.2664C363.781 30.2271 370.139 33.2857 376.634 36.0181C384.328 39.2642 392.144 42.1515 400.327 43.9541C405.046 44.9899 409.822 45.6506 414.656 45.7892C417.41 45.8708 420.165 45.7158 422.912 45.4385C425.822 45.153 428.674 44.5902 431.486 43.8236C435.928 42.6083 440.068 40.6671 444.029 38.3181C444.901 37.8043 445.064 37.3801 444.673 36.4177C441.894 29.5665 438.748 22.8865 435.219 16.3942C433.898 13.9718 432.521 11.5739 430.997 9.26564C430.695 8.80889 430.41 8.58052 429.807 8.6947C426.449 9.37167 423.091 10.0242 419.676 10.4564C415.78 10.954 411.868 11.1742 407.964 11.321C403.946 11.4678 399.928 11.1579 395.918 10.8072C392.625 10.5217 389.357 10.0976 386.105 9.55111C380.995 8.70286 375.942 7.56099 370.897 6.40281C362.282 4.429 353.699 2.34101 344.897 1.33779C341.034 0.897354 337.171 0.53848 333.283 0.416137C329.354 0.293794 325.426 0.399825 321.514 0.823948C318.653 1.13388 315.817 1.72113 313.07 2.58569C308.367 4.07013 304.048 6.17443 300.722 10.0079C298.025 13.1235 296.297 16.6307 295.824 20.7251C295.742 21.4347 295.498 22.3319 296.688 22.4624C296.72 22.4624 296.737 22.6337 296.761 22.7316C296.158 23.0741 296.476 23.4901 296.631 23.955C297.03 23.6206 297.267 23.3107 297.038 22.8376L297.046 22.8621Z" fill="#F1887D"/>
<path d="M296.778 22.7561C296.753 22.6663 296.737 22.4951 296.704 22.4869C295.514 22.3564 295.759 21.4592 295.84 20.7496C296.313 16.6552 298.033 13.1399 300.739 10.0323C304.064 6.19892 308.384 4.09461 313.086 2.61018C315.841 1.73746 318.669 1.15837 321.53 0.848433C325.434 0.424309 329.371 0.318278 333.299 0.440621C337.187 0.562965 341.05 0.921839 344.913 1.36227C353.716 2.36549 362.298 4.45348 370.913 6.42729C375.958 7.58547 381.019 8.72735 386.121 9.57559C389.373 10.1139 392.642 10.538 395.934 10.8317C399.944 11.1824 403.962 11.5005 407.98 11.3455C411.893 11.1987 415.797 10.9785 419.692 10.4809C423.099 10.0405 426.457 9.39616 429.823 8.71919C430.426 8.59685 430.712 8.83338 431.013 9.29012C432.529 11.5983 433.915 13.9963 435.235 16.4187C438.764 22.911 441.902 29.591 444.689 36.4422C445.081 37.4046 444.91 37.8288 444.046 38.3426C440.085 40.6916 435.952 42.6328 431.502 43.848C428.69 44.6147 425.838 45.1775 422.928 45.463C420.173 45.7321 417.427 45.8953 414.672 45.8137C409.839 45.6669 405.063 45.0144 400.344 43.9785C392.169 42.176 384.353 39.2887 376.651 36.0425C370.155 33.3021 363.798 30.2516 357.4 27.2909C350.619 24.1508 343.789 21.133 336.624 18.9389C332.623 17.7155 328.556 16.7857 324.391 16.2719C321.946 15.9701 319.484 15.7009 317.031 15.7499C312.614 15.8477 308.221 16.2229 304.105 18.0662C301.88 19.0613 299.891 20.3826 298.44 22.3809C298.065 22.9029 297.65 23.066 297.063 22.8866C296.973 22.8458 296.883 22.8131 296.786 22.7805L296.778 22.7561Z" fill="#ED5F50"/>
<path d="M296.778 22.7559C296.867 22.7885 296.965 22.8293 297.055 22.8619C297.283 23.335 297.055 23.6449 296.647 23.9793C296.492 23.5144 296.174 23.0984 296.778 22.7559Z" fill="#FEFDFD"/>
<path d="M296.672 20.7656H297.438C297.642 20.8472 297.845 20.9369 298.057 21.0103C299.834 21.6465 300.722 23.0004 300.535 24.803C300.347 26.6626 298.75 28.1715 296.769 28.3509C295.172 28.4977 293.583 27.4456 293.118 25.9285C292.613 24.281 293.363 22.4213 294.895 21.4752C295.449 21.1327 296.077 20.994 296.663 20.7656H296.672Z" fill="#15004F"/>
<path d="M282.286 57.371C281.667 58.0398 281.072 57.8033 280.615 57.216C279.148 55.3319 278.716 53.1053 278.798 50.7236C278.798 50.6258 278.831 50.5279 278.863 50.4382C278.961 50.1201 279.067 49.7531 279.442 49.7775C279.857 49.8102 279.841 50.2261 279.841 50.5361C279.841 51.5148 279.963 52.4772 280.208 53.4315C280.575 54.8915 281.276 56.1231 282.294 57.1752V57.371H282.286Z" fill="#170250"/>
<path d="M351.377 249.817H357.041C357.758 250.159 358.557 250.053 359.315 250.167C366.292 251.195 372.437 254.017 377.629 258.78C386.928 267.336 390.987 278.282 391.794 290.639C391.949 293.004 391.843 295.394 391.859 297.767C391.631 301.144 391.256 304.504 390.661 307.84C389.153 316.208 386.684 324.299 382.935 331.909C375.281 347.455 364.401 360.415 350.822 371.116C339.681 379.892 327.48 386.695 313.852 390.797C307.039 392.852 300.087 394.076 292.963 394.296C288.986 394.345 285.025 394.206 281.088 393.619C270.68 392.069 261.071 388.399 252.309 382.567C236.824 372.258 225.756 358.27 218.38 341.272C214.125 331.469 211.542 321.225 210.963 310.532C210.572 303.207 211.346 295.957 213.269 288.861C215.926 279.032 220.458 270.191 227.182 262.508C227.655 261.97 228.168 261.798 228.861 261.725C230.369 261.554 231.82 261.961 233.303 261.97C254.102 262.059 274.902 262.157 295.71 262.231C296.492 262.231 297.038 262.467 297.568 263.046C301.024 266.749 304.113 270.721 306.778 275.028C307.813 276.692 307.846 276.724 309.182 275.289C314.684 269.375 320.723 264.09 327.366 259.49C333.576 255.192 340.235 251.921 347.709 250.477C348.931 250.241 350.203 250.282 351.377 249.809V249.817Z" fill="#ED5F50"/>
<path d="M379.169 308.99C378.68 305.964 377.906 303.069 376.569 300.353C374.964 297.082 372.853 294.211 370.073 291.821C368.191 290.198 366.153 288.82 363.944 287.727C361.328 286.43 358.581 285.468 355.721 284.815C352.542 284.089 349.486 283.029 346.78 281.137C344.49 279.538 343.267 277.254 343.259 274.522C343.259 272.051 344.123 269.751 345.688 267.769C348.182 264.62 351.474 263.095 355.444 262.899C360.375 262.655 364.547 264.465 368.272 267.573C372.722 271.292 375.909 275.917 378.224 281.218C379.658 284.513 380.644 287.939 381.199 291.471C381.704 294.709 381.842 297.979 381.5 301.275C381.247 303.648 380.93 305.972 379.886 308.134C379.772 308.37 379.634 308.582 379.487 308.795C379.438 308.86 379.332 308.892 379.185 308.982L379.169 308.99Z" fill="#FFF5E9"/>
<path d="M312.573 236.702C312.573 239.002 312.671 240.837 312.548 242.656C312.337 245.918 312.19 249.189 311.848 252.443C311.464 256.081 311.024 259.71 310.421 263.315C310.038 265.616 309.622 267.907 309.199 270.199C309.101 270.721 308.889 271.325 308.253 271.227C307.707 271.145 307.479 270.623 307.495 270.028C307.52 268.495 307.52 266.961 307.495 265.428C307.446 261.342 307.047 257.28 306.566 253.218C305.751 246.383 304.243 239.687 302.613 233.023C300.812 225.658 298.424 218.489 295.376 211.532C293.835 208.008 292.148 204.574 290.094 201.32C289.752 200.774 289.793 200.521 290.396 200.235C294.357 198.343 298.424 196.753 302.654 195.586C304.675 195.032 304.757 195.048 305.474 197.022C306.868 200.904 307.87 204.901 308.881 208.897C309.973 213.236 310.837 217.616 311.546 222.029C311.953 224.582 312.263 227.151 312.434 229.744C312.605 232.224 312.459 234.687 312.573 236.685V236.702Z" fill="#FFF5E9"/>
<path d="M6.37356 107.466C8.89201 107.556 11.3045 108.266 13.7496 108.739C22.5764 110.443 31.3869 112.205 40.2055 113.951C45.6174 115.019 51.0292 116.087 56.441 117.156C64.1756 118.689 71.9103 120.223 79.6449 121.748C84.1684 122.637 88.6836 123.542 93.2152 124.39C94.9349 124.717 96.671 124.929 98.2521 125.785C101.007 127.27 102.14 131.446 100.526 134.129C98.8878 136.853 96.2553 137.653 93.5086 137.114C86.5646 135.76 79.6286 134.357 72.6927 132.987C63.4258 131.152 54.167 129.325 44.9001 127.498C37.2877 125.997 29.6835 124.497 22.0711 123.012C16.5615 121.935 11.0437 120.891 5.54223 119.799C3.21939 119.334 1.32036 118.175 0.44013 115.875C-1.03508 112.009 1.31221 107.311 6.38171 107.474L6.37356 107.466Z" fill="#FFBF7B"/>
<path d="M602.732 107.531C608.022 107.319 610.386 112.776 608.169 116.666C607.134 118.485 605.43 119.399 603.441 119.798C598.258 120.834 593.066 121.854 587.874 122.873C580.205 124.382 572.527 125.899 564.85 127.408C560.294 128.305 555.738 129.186 551.19 130.091C542.502 131.804 533.805 133.533 525.117 135.246C521.906 135.882 518.678 136.478 515.467 137.122C511.612 137.897 508.189 135.654 507.716 131.804C507.406 129.3 508.686 126.177 512.345 125.084C514.252 124.513 516.233 124.333 518.173 123.942C525.875 122.384 533.577 120.875 541.287 119.35C549.657 117.694 558.028 116.03 566.406 114.374C571.631 113.339 576.847 112.319 582.071 111.291C588.437 110.035 594.81 108.779 601.176 107.548C601.681 107.45 602.211 107.531 602.732 107.531Z" fill="#FFBF7B"/>
<path d="M23.4403 168.801C20.6611 168.98 17.9389 165.759 18.0448 162.48C18.1263 160.098 19.6667 157.749 22.0792 156.917C24.834 155.963 27.7192 155.686 30.5392 155.082C34.4758 154.242 38.4451 153.581 42.398 152.831C50.4912 151.29 58.5926 149.74 66.6859 148.19C72.2933 147.114 77.8926 145.964 83.5082 144.96C85.8962 144.536 88.2354 143.794 90.7131 143.867C93.7613 143.965 96.3368 146.6 96.4835 149.642C96.6302 152.79 94.4866 155.661 90.9983 156.249C86.0429 157.089 81.1201 158.133 76.181 159.079C67.8351 160.677 59.481 162.26 51.1269 163.85C44.8186 165.057 38.5184 166.321 32.1938 167.463C29.6101 167.928 27.0754 168.687 23.4403 168.801Z" fill="#FFBF7B"/>
<path d="M584.899 168.76C582.381 168.744 580.278 168.116 578.143 167.716C570.677 166.322 563.22 164.886 555.762 163.459C550.122 162.374 544.482 161.265 538.842 160.188C531.865 158.851 524.889 157.456 517.888 156.241C512.655 155.335 511.204 149.585 513.617 146.38C515.361 144.063 517.765 143.501 520.406 143.99C527.937 145.385 535.443 146.894 542.966 148.345C550.456 149.789 557.946 151.224 565.437 152.644C572.095 153.908 578.779 155.082 585.421 156.461C588.673 157.13 590.792 158.948 590.914 162.676C591.02 165.889 588.241 168.972 584.891 168.769L584.899 168.76Z" fill="#FFBF7B"/>
<path d="M104.65 116.104C103.216 116.202 101.92 115.557 100.705 114.799C95.6848 111.667 90.7049 108.478 85.6925 105.329C79.3108 101.317 72.9046 97.3282 66.5229 93.3154C60.8258 89.7348 55.1451 86.1216 49.4562 82.5247C48.5515 81.9538 47.6223 81.4318 46.8807 80.6161C45.2261 78.8055 44.729 76.7338 45.4217 74.4011C46.2123 71.7259 48.2581 70.4453 50.8336 70.168C52.6755 69.9723 54.3463 70.8368 55.9194 71.84C64.9744 77.5902 74.0538 83.3159 83.1333 89.0334C91.414 94.2452 99.7273 99.4081 107.984 104.661C110.135 106.031 111.513 108.959 110.673 111.651C109.817 114.383 107.576 116.104 104.658 116.104H104.65Z" fill="#FFBF7B"/>
<path d="M504.236 116.104C501.571 116.104 499.59 114.717 498.482 112.083C497.618 110.027 498.205 107.409 499.867 105.672C501.261 104.212 503.095 103.372 504.749 102.303C509.061 99.514 513.437 96.8225 517.79 94.0901C524.449 89.906 531.116 85.7218 537.774 81.5377C542.73 78.422 547.677 75.2982 552.616 72.1499C554.165 71.163 555.738 70.3392 557.612 70.1353C559.356 69.9395 562.282 71.5545 563.122 73.251C564.858 76.7826 563.407 80.1348 560.432 81.9944C555.216 85.2488 550.032 88.5357 544.824 91.8064C538.826 95.5746 532.819 99.3346 526.82 103.111C522.387 105.9 517.985 108.731 513.535 111.487C511.384 112.825 509.313 114.301 507.048 115.443C506.159 115.892 505.23 116.136 504.228 116.096L504.236 116.104Z" fill="#FFBF7B"/>
</g>
<defs>
<linearGradient id="paint0_linear_87_4145" x1="241.616" y1="539.656" x2="315.078" y2="421.504" gradientUnits="userSpaceOnUse">
<stop stop-color="#56C8ED"/>
<stop offset="0.29" stop-color="#58B2F3"/>
<stop offset="0.71" stop-color="#5D8DFE"/>
</linearGradient>
<linearGradient id="paint1_linear_87_4145" x1="161.083" y1="223.44" x2="439.221" y2="223.44" gradientUnits="userSpaceOnUse">
<stop stop-color="#56C8ED"/>
<stop offset="0.35" stop-color="#58B2F3"/>
<stop offset="0.86" stop-color="#5D8DFE"/>
</linearGradient>
<linearGradient id="paint2_linear_87_4145" x1="226.538" y1="192.471" x2="368.777" y2="192.471" gradientUnits="userSpaceOnUse">
<stop stop-color="#56C8ED"/>
<stop offset="0.35" stop-color="#58B2F3"/>
<stop offset="0.86" stop-color="#5D8DFE"/>
</linearGradient>
<clipPath id="clip0_87_4145">
<rect width="609" height="591" fill="white"/>
</clipPath>
</defs>
</svg>
