<svg xmlns="http://www.w3.org/2000/svg" width="480" height="120" fill="none"><mask id="f" width="358" height="91" x="1" y="12" fill="#000" maskUnits="userSpaceOnUse"><path fill="#fff" d="M1 12h358v91H1z"/><path fill-rule="evenodd" d="M7.409 24.747C4.425 24.747 2 22.34 2 19.374 2 16.404 4.425 14 7.413 14h44.854c5.641 0 10.636 1.191 15 3.581 4.36 2.314 7.743 5.523 10.146 9.63 2.483 4.105 3.725 8.881 3.725 14.332 0 5.373-1.354 10.11-4.062 14.215-2.705 4.03-6.39 7.09-11.05 9.181L83.28 92.482c1.35 2.164 1.539 4.215.562 6.157-.976 1.865-2.668 2.798-5.075 2.798-2.181 0-3.87-.933-5.075-2.798L54.3 67.737H32.773c-2.991 0-5.413-2.404-5.413-5.373 0-2.97 2.422-5.374 5.413-5.374h19.494c5.115 0 9.322-1.414 12.63-4.256 3.306-2.907 4.962-6.637 4.962-11.191 0-4.93-1.655-8.959-4.959-12.096-3.31-3.133-7.522-4.7-12.633-4.7H7.409zM135.369 14a5.534 5.534 0 0 0-5.534 5.534v76.369a5.534 5.534 0 0 0 11.068 0V19.534A5.534 5.534 0 0 0 135.369 14zm52.089.448a5.91 5.91 0 0 0-3.209 7.716l31.1 75.38a5.912 5.912 0 0 0 6.263 3.603 5.911 5.911 0 0 0 5.347-3.413l34.462-73.904a5.91 5.91 0 0 0-10.711-4.995l-29.208 62.636-26.328-63.814a5.909 5.909 0 0 0-7.716-3.209zm165.008 10.62a5.534 5.534 0 0 0 0-11.068h-42.058a5.534 5.534 0 0 0-5.429 6.615v35.39a5.522 5.522 0 0 0-.271 1.714c0 .598.095 1.175.271 1.714v35.389a5.533 5.533 0 0 0 5.429 6.615h42.058a5.534 5.534 0 1 0 0-11.068h-36.419V63.253h28.506a5.534 5.534 0 0 0 0-11.068h-28.506V25.068h36.419z" clip-rule="evenodd"/></mask><g fill-rule="evenodd" clip-rule="evenodd" filter="url(#a)"><path fill="#091314" d="M7.409 24.747C4.425 24.747 2 22.34 2 19.374 2 16.404 4.425 14 7.413 14h44.854c5.641 0 10.636 1.191 15 3.581 4.36 2.314 7.743 5.523 10.146 9.63 2.483 4.105 3.725 8.881 3.725 14.332 0 5.373-1.354 10.11-4.062 14.215-2.705 4.03-6.39 7.09-11.05 9.181L83.28 92.482c1.35 2.164 1.539 4.215.562 6.157-.976 1.865-2.668 2.798-5.075 2.798-2.181 0-3.87-.933-5.075-2.798L54.3 67.737H32.773c-2.991 0-5.413-2.404-5.413-5.373 0-2.97 2.422-5.374 5.413-5.374h19.494c5.115 0 9.322-1.414 12.63-4.256 3.306-2.907 4.962-6.637 4.962-11.191 0-4.93-1.655-8.959-4.959-12.096-3.31-3.133-7.522-4.7-12.633-4.7H7.409zM135.369 14a5.534 5.534 0 0 0-5.534 5.534v76.369a5.534 5.534 0 0 0 11.068 0V19.534A5.534 5.534 0 0 0 135.369 14zm52.089.448a5.91 5.91 0 0 0-3.209 7.716l31.1 75.38a5.912 5.912 0 0 0 6.263 3.603 5.911 5.911 0 0 0 5.347-3.413l34.462-73.904a5.91 5.91 0 0 0-10.711-4.995l-29.208 62.636-26.328-63.814a5.909 5.909 0 0 0-7.716-3.209zm165.008 10.62a5.534 5.534 0 0 0 0-11.068h-42.058a5.534 5.534 0 0 0-5.429 6.615v35.39a5.522 5.522 0 0 0-.271 1.714c0 .598.095 1.175.271 1.714v35.389a5.533 5.533 0 0 0 5.429 6.615h42.058a5.534 5.534 0 1 0 0-11.068h-36.419V63.253h28.506a5.534 5.534 0 0 0 0-11.068h-28.506V25.068h36.419z"/><path fill="url(#b)" d="M7.409 24.747C4.425 24.747 2 22.34 2 19.374 2 16.404 4.425 14 7.413 14h44.854c5.641 0 10.636 1.191 15 3.581 4.36 2.314 7.743 5.523 10.146 9.63 2.483 4.105 3.725 8.881 3.725 14.332 0 5.373-1.354 10.11-4.062 14.215-2.705 4.03-6.39 7.09-11.05 9.181L83.28 92.482c1.35 2.164 1.539 4.215.562 6.157-.976 1.865-2.668 2.798-5.075 2.798-2.181 0-3.87-.933-5.075-2.798L54.3 67.737H32.773c-2.991 0-5.413-2.404-5.413-5.373 0-2.97 2.422-5.374 5.413-5.374h19.494c5.115 0 9.322-1.414 12.63-4.256 3.306-2.907 4.962-6.637 4.962-11.191 0-4.93-1.655-8.959-4.959-12.096-3.31-3.133-7.522-4.7-12.633-4.7H7.409zM135.369 14a5.534 5.534 0 0 0-5.534 5.534v76.369a5.534 5.534 0 0 0 11.068 0V19.534A5.534 5.534 0 0 0 135.369 14zm52.089.448a5.91 5.91 0 0 0-3.209 7.716l31.1 75.38a5.912 5.912 0 0 0 6.263 3.603 5.911 5.911 0 0 0 5.347-3.413l34.462-73.904a5.91 5.91 0 0 0-10.711-4.995l-29.208 62.636-26.328-63.814a5.909 5.909 0 0 0-7.716-3.209zm165.008 10.62a5.534 5.534 0 0 0 0-11.068h-42.058a5.534 5.534 0 0 0-5.429 6.615v35.39a5.522 5.522 0 0 0-.271 1.714c0 .598.095 1.175.271 1.714v35.389a5.533 5.533 0 0 0 5.429 6.615h42.058a5.534 5.534 0 1 0 0-11.068h-36.419V63.253h28.506a5.534 5.534 0 0 0 0-11.068h-28.506V25.068h36.419z"/><path fill="url(#c)" d="M7.409 24.747C4.425 24.747 2 22.34 2 19.374 2 16.404 4.425 14 7.413 14h44.854c5.641 0 10.636 1.191 15 3.581 4.36 2.314 7.743 5.523 10.146 9.63 2.483 4.105 3.725 8.881 3.725 14.332 0 5.373-1.354 10.11-4.062 14.215-2.705 4.03-6.39 7.09-11.05 9.181L83.28 92.482c1.35 2.164 1.539 4.215.562 6.157-.976 1.865-2.668 2.798-5.075 2.798-2.181 0-3.87-.933-5.075-2.798L54.3 67.737H32.773c-2.991 0-5.413-2.404-5.413-5.373 0-2.97 2.422-5.374 5.413-5.374h19.494c5.115 0 9.322-1.414 12.63-4.256 3.306-2.907 4.962-6.637 4.962-11.191 0-4.93-1.655-8.959-4.959-12.096-3.31-3.133-7.522-4.7-12.633-4.7H7.409zM135.369 14a5.534 5.534 0 0 0-5.534 5.534v76.369a5.534 5.534 0 0 0 11.068 0V19.534A5.534 5.534 0 0 0 135.369 14zm52.089.448a5.91 5.91 0 0 0-3.209 7.716l31.1 75.38a5.912 5.912 0 0 0 6.263 3.603 5.911 5.911 0 0 0 5.347-3.413l34.462-73.904a5.91 5.91 0 0 0-10.711-4.995l-29.208 62.636-26.328-63.814a5.909 5.909 0 0 0-7.716-3.209zm165.008 10.62a5.534 5.534 0 0 0 0-11.068h-42.058a5.534 5.534 0 0 0-5.429 6.615v35.39a5.522 5.522 0 0 0-.271 1.714c0 .598.095 1.175.271 1.714v35.389a5.533 5.533 0 0 0 5.429 6.615h42.058a5.534 5.534 0 1 0 0-11.068h-36.419V63.253h28.506a5.534 5.534 0 0 0 0-11.068h-28.506V25.068h36.419z"/><path fill="url(#d)" fill-opacity=".2" d="M7.409 24.747C4.425 24.747 2 22.34 2 19.374 2 16.404 4.425 14 7.413 14h44.854c5.641 0 10.636 1.191 15 3.581 4.36 2.314 7.743 5.523 10.146 9.63 2.483 4.105 3.725 8.881 3.725 14.332 0 5.373-1.354 10.11-4.062 14.215-2.705 4.03-6.39 7.09-11.05 9.181L83.28 92.482c1.35 2.164 1.539 4.215.562 6.157-.976 1.865-2.668 2.798-5.075 2.798-2.181 0-3.87-.933-5.075-2.798L54.3 67.737H32.773c-2.991 0-5.413-2.404-5.413-5.373 0-2.97 2.422-5.374 5.413-5.374h19.494c5.115 0 9.322-1.414 12.63-4.256 3.306-2.907 4.962-6.637 4.962-11.191 0-4.93-1.655-8.959-4.959-12.096-3.31-3.133-7.522-4.7-12.633-4.7H7.409zM135.369 14a5.534 5.534 0 0 0-5.534 5.534v76.369a5.534 5.534 0 0 0 11.068 0V19.534A5.534 5.534 0 0 0 135.369 14zm52.089.448a5.91 5.91 0 0 0-3.209 7.716l31.1 75.38a5.912 5.912 0 0 0 6.263 3.603 5.911 5.911 0 0 0 5.347-3.413l34.462-73.904a5.91 5.91 0 0 0-10.711-4.995l-29.208 62.636-26.328-63.814a5.909 5.909 0 0 0-7.716-3.209zm165.008 10.62a5.534 5.534 0 0 0 0-11.068h-42.058a5.534 5.534 0 0 0-5.429 6.615v35.39a5.522 5.522 0 0 0-.271 1.714c0 .598.095 1.175.271 1.714v35.389a5.533 5.533 0 0 0 5.429 6.615h42.058a5.534 5.534 0 1 0 0-11.068h-36.419V63.253h28.506a5.534 5.534 0 0 0 0-11.068h-28.506V25.068h36.419z"/></g><path fill="url(#e)" d="m67.267 17.581-.48.877.011.007.469-.884zm10.146 9.63-.863.504.004.007.004.006.855-.518zm-.337 28.547.83.558.004-.007-.834-.55zm-11.05 9.181-.41-.912-1.048.47.61.973.847-.53zM83.28 92.482l.848-.53-.001-.001-.847.53zm.562 6.157.886.464.004-.007.004-.008-.894-.45zm-10.15 0-.847.532.007.01.84-.542zM54.3 67.737l.847-.531-.294-.469H54.3v1zm10.596-15.002.652.758.009-.007-.66-.752zm.004-23.288.689-.725-.002-.001-.687.726zm119.349-7.283.925-.381-.925.381zm3.209-7.716-.382-.924.382.924zm27.891 83.096.925-.381-.925.381zm6.263 3.603-.002-1h-.067l-.067.009.136.991zm5.347-3.413.906.422-.906-.422zm34.462-73.904.906.422-.906-.422zm-10.711-4.995.906.423-.906-.423zm-29.208 62.636-.924.382.868 2.105.963-2.064-.907-.422zm-26.328-63.814.924-.381-.924.38zm157.292 7.411v1-1zm-47.487-4.453h1v-.098l-.019-.096-.981.194zm0 35.39.951.309.049-.151v-.159h-1zm0 3.428h1v-.158l-.049-.151-.951.31zm0 35.389.981.194.019-.096v-.098h-1zm11.068-4.453h-1v1h1v-1zm0-27.116v-1h-1v1h1zm0-11.068h-1v1h1v-1zm0-27.117v-1h-1v1h1zM1 19.374c0 3.524 2.879 6.373 6.409 6.373v-2C4.971 23.747 3 21.781 3 19.374H1zM7.413 13C3.88 13 1 15.845 1 19.374h2C3 16.964 4.97 15 7.413 15v-2zm44.854 0H7.413v2h44.854v-2zm15.48 3.704C63.217 14.224 58.053 13 52.267 13v2c5.496 0 10.322 1.16 14.52 3.458l.96-1.754zm10.53 10.001c-2.501-4.272-6.024-7.61-10.541-10.007l-.938 1.767c4.203 2.23 7.447 5.311 9.752 9.25l1.726-1.01zm3.86 14.838c0-5.608-1.278-10.568-3.868-14.85l-1.712 1.035c2.377 3.93 3.58 8.521 3.58 13.815h2zM77.91 56.309c2.826-4.284 4.228-9.216 4.228-14.766h-2c0 5.196-1.307 9.737-3.897 13.665l1.67 1.101zm-11.475 9.543c4.822-2.164 8.656-5.343 11.47-9.536l-1.66-1.115c-2.594 3.865-6.129 6.807-10.629 8.826l.819 1.825zM84.127 91.95 66.873 64.408l-1.695 1.062 17.254 27.543 1.695-1.062zm.609 7.137c1.163-2.313.889-4.737-.608-7.135l-1.697 1.058c1.204 1.93 1.308 3.608.518 5.179l1.787.898zm-5.969 3.349c1.332 0 2.531-.258 3.557-.824 1.033-.57 1.834-1.42 2.404-2.51l-1.772-.928c-.405.775-.94 1.324-1.598 1.687-.666.367-1.515.575-2.59.575v2zm-5.915-3.255c1.385 2.143 3.386 3.255 5.915 3.255v-2c-1.834 0-3.21-.754-4.235-2.34l-1.68 1.085zm-19.4-30.913L72.846 99.17l1.694-1.063-19.392-30.901-1.694 1.063zm-20.679.468H54.3v-2H32.773v2zm-6.413-6.373c0 3.528 2.876 6.373 6.413 6.373v-2c-2.446 0-4.413-1.963-4.413-4.373h-2zm6.413-6.374c-3.537 0-6.413 2.845-6.413 6.373h2c0-2.41 1.967-4.373 4.413-4.373v-2zm19.494 0H32.773v2h19.494v-2zm11.978-4.014c-3.095 2.66-7.058 4.014-11.978 4.014v2c5.31 0 9.761-1.473 13.281-4.497l-1.303-1.517zm4.614-10.433c0 4.277-1.54 7.73-4.623 10.44l1.32 1.503c3.532-3.105 5.303-7.113 5.303-11.943h-2zm-4.648-11.37c3.088 2.931 4.648 6.69 4.648 11.37h2c0-5.18-1.751-9.48-5.27-12.821l-1.378 1.45zm-11.944-4.426c4.89 0 8.844 1.49 11.946 4.427l1.374-1.453c-3.52-3.33-7.987-4.974-13.32-4.974v2zm-44.858 0h44.858v-2H7.409v2zm123.426-6.213A4.534 4.534 0 0 1 135.369 15v-2a6.534 6.534 0 0 0-6.534 6.534h2zm0 76.369V19.534h-2v76.369h2zm4.534 4.534a4.534 4.534 0 0 1-4.534-4.534h-2a6.535 6.535 0 0 0 6.534 6.534v-2zm4.534-4.534a4.534 4.534 0 0 1-4.534 4.534v2a6.534 6.534 0 0 0 6.534-6.534h-2zm0-76.369v76.369h2V19.534h-2zM135.369 15a4.534 4.534 0 0 1 4.534 4.534h2A6.534 6.534 0 0 0 135.369 13v2zm49.805 6.783a4.909 4.909 0 0 1 2.665-6.41l-.763-1.85a6.908 6.908 0 0 0-3.751 9.023l1.849-.763zm31.1 75.38-31.1-75.38-1.849.763 31.1 75.38 1.849-.763zm5.202 2.993a4.91 4.91 0 0 1-5.202-2.993l-1.849.763a6.91 6.91 0 0 0 7.323 4.211l-.272-1.981zm4.577-2.845a4.912 4.912 0 0 1-4.443 2.836l.004 2a6.91 6.91 0 0 0 6.251-3.99l-1.812-.846zm34.462-73.904-34.462 73.904 1.812.845 34.462-73.904-1.812-.845zm-2.375-6.523a4.91 4.91 0 0 1 2.375 6.523l1.812.845a6.908 6.908 0 0 0-3.342-9.181l-.845 1.813zm-6.524 2.374a4.91 4.91 0 0 1 6.524-2.374l.845-1.813a6.908 6.908 0 0 0-9.181 3.342l1.812.845zm-29.207 62.636 29.207-62.636-1.812-.845-29.208 62.636 1.813.845zm-28.16-63.856 26.329 63.815 1.849-.763-26.329-63.815-1.849.763zm-6.41-2.665a4.909 4.909 0 0 1 6.41 2.665l1.849-.762a6.909 6.909 0 0 0-9.022-3.752l.763 1.849zM357 19.534a4.534 4.534 0 0 1-4.534 4.534v2A6.534 6.534 0 0 0 359 19.534h-2zM352.466 15A4.534 4.534 0 0 1 357 19.534h2A6.534 6.534 0 0 0 352.466 13v2zm-42.058 0h42.058v-2h-42.058v2zm-4.534 4.534A4.534 4.534 0 0 1 310.408 15v-2a6.534 6.534 0 0 0-6.534 6.534h2zm.086.887a4.612 4.612 0 0 1-.086-.887h-2c0 .436.042.862.124 1.276l1.962-.39zm.019 35.583V20.615h-2v35.39h2zm-.271 1.715c0-.492.078-.964.222-1.405l-1.902-.62a6.527 6.527 0 0 0-.32 2.025h2zm.222 1.405a4.518 4.518 0 0 1-.222-1.405h-2c0 .705.112 1.385.32 2.024l1.902-.62zm.049 35.698V59.433h-2v35.389h2zm-.105 1.081c0-.304.03-.6.086-.887l-1.962-.388a6.55 6.55 0 0 0-.124 1.275h2zm4.534 4.534a4.534 4.534 0 0 1-4.534-4.534h-2a6.534 6.534 0 0 0 6.534 6.534v-2zm.105 0h-.105v2h.105v-2zm41.953 0h-41.953v2h41.953v-2zM357 95.903a4.534 4.534 0 0 1-4.534 4.534v2A6.534 6.534 0 0 0 359 95.903h-2zm-4.534-4.534A4.534 4.534 0 0 1 357 95.903h2a6.534 6.534 0 0 0-6.534-6.534v2zm-36.419 0h36.419v-2h-36.419v2zm-1-28.116v27.116h2V63.253h-2zm29.506-1h-28.506v2h28.506v-2zm4.534-4.534a4.534 4.534 0 0 1-4.534 4.534v2a6.534 6.534 0 0 0 6.534-6.534h-2zm-4.534-4.534a4.534 4.534 0 0 1 4.534 4.534h2a6.534 6.534 0 0 0-6.534-6.534v2zm-28.506 0h28.506v-2h-28.506v2zm-1-28.117v27.117h2V25.068h-2zm37.419-1h-36.419v2h36.419v-2z" mask="url(#f)"/><path fill="url(#g)" d="m67.267 17.581-.48.877.011.007.469-.884zm10.146 9.63-.863.504.004.007.004.006.855-.518zm-.337 28.547.83.558.004-.007-.834-.55zm-11.05 9.181-.41-.912-1.048.47.61.973.847-.53zM83.28 92.482l.848-.53-.001-.001-.847.53zm.562 6.157.886.464.004-.007.004-.008-.894-.45zm-10.15 0-.847.532.007.01.84-.542zM54.3 67.737l.847-.531-.294-.469H54.3v1zm10.596-15.002.652.758.009-.007-.66-.752zm.004-23.288.689-.725-.002-.001-.687.726zm119.349-7.283.925-.381-.925.381zm3.209-7.716-.382-.924.382.924zm27.891 83.096.925-.381-.925.381zm6.263 3.603-.002-1h-.067l-.067.009.136.991zm5.347-3.413.906.422-.906-.422zm34.462-73.904.906.422-.906-.422zm-10.711-4.995.906.423-.906-.423zm-29.208 62.636-.924.382.868 2.105.963-2.064-.907-.422zm-26.328-63.814.924-.381-.924.38zm157.292 7.411v1-1zm-47.487-4.453h1v-.098l-.019-.096-.981.194zm0 35.39.951.309.049-.151v-.159h-1zm0 3.428h1v-.158l-.049-.151-.951.31zm0 35.389.981.194.019-.096v-.098h-1zm11.068-4.453h-1v1h1v-1zm0-27.116v-1h-1v1h1zm0-11.068h-1v1h1v-1zm0-27.117v-1h-1v1h1zM1 19.374c0 3.524 2.879 6.373 6.409 6.373v-2C4.971 23.747 3 21.781 3 19.374H1zM7.413 13C3.88 13 1 15.845 1 19.374h2C3 16.964 4.97 15 7.413 15v-2zm44.854 0H7.413v2h44.854v-2zm15.48 3.704C63.217 14.224 58.053 13 52.267 13v2c5.496 0 10.322 1.16 14.52 3.458l.96-1.754zm10.53 10.001c-2.501-4.272-6.024-7.61-10.541-10.007l-.938 1.767c4.203 2.23 7.447 5.311 9.752 9.25l1.726-1.01zm3.86 14.838c0-5.608-1.278-10.568-3.868-14.85l-1.712 1.035c2.377 3.93 3.58 8.521 3.58 13.815h2zM77.91 56.309c2.826-4.284 4.228-9.216 4.228-14.766h-2c0 5.196-1.307 9.737-3.897 13.665l1.67 1.101zm-11.475 9.543c4.822-2.164 8.656-5.343 11.47-9.536l-1.66-1.115c-2.594 3.865-6.129 6.807-10.629 8.826l.819 1.825zM84.127 91.95 66.873 64.408l-1.695 1.062 17.254 27.543 1.695-1.062zm.609 7.137c1.163-2.313.889-4.737-.608-7.135l-1.697 1.058c1.204 1.93 1.308 3.608.518 5.179l1.787.898zm-5.969 3.349c1.332 0 2.531-.258 3.557-.824 1.033-.57 1.834-1.42 2.404-2.51l-1.772-.928c-.405.775-.94 1.324-1.598 1.687-.666.367-1.515.575-2.59.575v2zm-5.915-3.255c1.385 2.143 3.386 3.255 5.915 3.255v-2c-1.834 0-3.21-.754-4.235-2.34l-1.68 1.085zm-19.4-30.913L72.846 99.17l1.694-1.063-19.392-30.901-1.694 1.063zm-20.679.468H54.3v-2H32.773v2zm-6.413-6.373c0 3.528 2.876 6.373 6.413 6.373v-2c-2.446 0-4.413-1.963-4.413-4.373h-2zm6.413-6.374c-3.537 0-6.413 2.845-6.413 6.373h2c0-2.41 1.967-4.373 4.413-4.373v-2zm19.494 0H32.773v2h19.494v-2zm11.978-4.014c-3.095 2.66-7.058 4.014-11.978 4.014v2c5.31 0 9.761-1.473 13.281-4.497l-1.303-1.517zm4.614-10.433c0 4.277-1.54 7.73-4.623 10.44l1.32 1.503c3.532-3.105 5.303-7.113 5.303-11.943h-2zm-4.648-11.37c3.088 2.931 4.648 6.69 4.648 11.37h2c0-5.18-1.751-9.48-5.27-12.821l-1.378 1.45zm-11.944-4.426c4.89 0 8.844 1.49 11.946 4.427l1.374-1.453c-3.52-3.33-7.987-4.974-13.32-4.974v2zm-44.858 0h44.858v-2H7.409v2zm123.426-6.213A4.534 4.534 0 0 1 135.369 15v-2a6.534 6.534 0 0 0-6.534 6.534h2zm0 76.369V19.534h-2v76.369h2zm4.534 4.534a4.534 4.534 0 0 1-4.534-4.534h-2a6.535 6.535 0 0 0 6.534 6.534v-2zm4.534-4.534a4.534 4.534 0 0 1-4.534 4.534v2a6.534 6.534 0 0 0 6.534-6.534h-2zm0-76.369v76.369h2V19.534h-2zM135.369 15a4.534 4.534 0 0 1 4.534 4.534h2A6.534 6.534 0 0 0 135.369 13v2zm49.805 6.783a4.909 4.909 0 0 1 2.665-6.41l-.763-1.85a6.908 6.908 0 0 0-3.751 9.023l1.849-.763zm31.1 75.38-31.1-75.38-1.849.763 31.1 75.38 1.849-.763zm5.202 2.993a4.91 4.91 0 0 1-5.202-2.993l-1.849.763a6.91 6.91 0 0 0 7.323 4.211l-.272-1.981zm4.577-2.845a4.912 4.912 0 0 1-4.443 2.836l.004 2a6.91 6.91 0 0 0 6.251-3.99l-1.812-.846zm34.462-73.904-34.462 73.904 1.812.845 34.462-73.904-1.812-.845zm-2.375-6.523a4.91 4.91 0 0 1 2.375 6.523l1.812.845a6.908 6.908 0 0 0-3.342-9.181l-.845 1.813zm-6.524 2.374a4.91 4.91 0 0 1 6.524-2.374l.845-1.813a6.908 6.908 0 0 0-9.181 3.342l1.812.845zm-29.207 62.636 29.207-62.636-1.812-.845-29.208 62.636 1.813.845zm-28.16-63.856 26.329 63.815 1.849-.763-26.329-63.815-1.849.763zm-6.41-2.665a4.909 4.909 0 0 1 6.41 2.665l1.849-.762a6.909 6.909 0 0 0-9.022-3.752l.763 1.849zM357 19.534a4.534 4.534 0 0 1-4.534 4.534v2A6.534 6.534 0 0 0 359 19.534h-2zM352.466 15A4.534 4.534 0 0 1 357 19.534h2A6.534 6.534 0 0 0 352.466 13v2zm-42.058 0h42.058v-2h-42.058v2zm-4.534 4.534A4.534 4.534 0 0 1 310.408 15v-2a6.534 6.534 0 0 0-6.534 6.534h2zm.086.887a4.612 4.612 0 0 1-.086-.887h-2c0 .436.042.862.124 1.276l1.962-.39zm.019 35.583V20.615h-2v35.39h2zm-.271 1.715c0-.492.078-.964.222-1.405l-1.902-.62a6.527 6.527 0 0 0-.32 2.025h2zm.222 1.405a4.518 4.518 0 0 1-.222-1.405h-2c0 .705.112 1.385.32 2.024l1.902-.62zm.049 35.698V59.433h-2v35.389h2zm-.105 1.081c0-.304.03-.6.086-.887l-1.962-.388a6.55 6.55 0 0 0-.124 1.275h2zm4.534 4.534a4.534 4.534 0 0 1-4.534-4.534h-2a6.534 6.534 0 0 0 6.534 6.534v-2zm.105 0h-.105v2h.105v-2zm41.953 0h-41.953v2h41.953v-2zM357 95.903a4.534 4.534 0 0 1-4.534 4.534v2A6.534 6.534 0 0 0 359 95.903h-2zm-4.534-4.534A4.534 4.534 0 0 1 357 95.903h2a6.534 6.534 0 0 0-6.534-6.534v2zm-36.419 0h36.419v-2h-36.419v2zm-1-28.116v27.116h2V63.253h-2zm29.506-1h-28.506v2h28.506v-2zm4.534-4.534a4.534 4.534 0 0 1-4.534 4.534v2a6.534 6.534 0 0 0 6.534-6.534h-2zm-4.534-4.534a4.534 4.534 0 0 1 4.534 4.534h2a6.534 6.534 0 0 0-6.534-6.534v2zm-28.506 0h28.506v-2h-28.506v2zm-1-28.117v27.117h2V25.068h-2zm37.419-1h-36.419v2h36.419v-2z" mask="url(#f)"/><defs><linearGradient id="b" x1="180" x2="180" y1="14" y2="101.437" gradientUnits="userSpaceOnUse"><stop stop-opacity="0"/><stop offset="1" stop-opacity=".2"/></linearGradient><linearGradient id="c" x1="180" x2="180" y1="14" y2="101.437" gradientUnits="userSpaceOnUse"><stop stop-color="#fff" stop-opacity=".03"/><stop offset=".86" stop-color="#fff" stop-opacity="0"/></linearGradient><linearGradient id="d" x1="1.966" x2="134.385" y1="14" y2="67.474" gradientUnits="userSpaceOnUse"><stop stop-color="#FFFBD8" stop-opacity=".08"/><stop offset="1" stop-color="#FFFBD8" stop-opacity="0"/></linearGradient><linearGradient id="e" x1="73.756" x2="380.923" y1="7.926" y2="104.43" gradientUnits="userSpaceOnUse"><stop stop-color="#FFFAC4" stop-opacity=".3"/><stop offset="1" stop-opacity="0"/></linearGradient><linearGradient id="g" x1="1.966" x2="357.894" y1="58.035" y2="58.035" gradientUnits="userSpaceOnUse"><stop stop-color="#091314" stop-opacity="0"/><stop offset="1" stop-color="#091314" stop-opacity=".3"/></linearGradient><filter id="a" width="358" height="90.438" x="1" y="13" color-interpolation-filters="sRGB" filterUnits="userSpaceOnUse"><feFlood flood-opacity="0" result="BackgroundImageFix"/><feBlend in="SourceGraphic" in2="BackgroundImageFix" result="shape"/><feColorMatrix in="SourceAlpha" result="hardAlpha" values="0 0 0 0 0 0 0 0 0 0 0 0 0 0 0 0 0 0 127 0"/><feOffset dy="1"/><feGaussianBlur stdDeviation="1"/><feComposite in2="hardAlpha" k2="-1" k3="1" operator="arithmetic"/><feColorMatrix values="0 0 0 0 0 0 0 0 0 0 0 0 0 0 0 0 0 0 0.5 0"/><feBlend in2="shape" result="effect1_innerShadow_379_38613"/><feColorMatrix in="SourceAlpha" result="hardAlpha" values="0 0 0 0 0 0 0 0 0 0 0 0 0 0 0 0 0 0 127 0"/><feOffset dy="1"/><feGaussianBlur stdDeviation="3"/><feComposite in2="hardAlpha" k2="-1" k3="1" operator="arithmetic"/><feColorMatrix values="0 0 0 0 0 0 0 0 0 0 0 0 0 0 0 0 0 0 0.3 0"/><feBlend in2="effect1_innerShadow_379_38613" result="effect2_innerShadow_379_38613"/></filter></defs></svg>