<svg xmlns="http://www.w3.org/2000/svg" width="480" height="120" fill="none"><mask id="f" width="412" height="77" x="1" y="20" fill="#000" maskUnits="userSpaceOnUse"><path fill="#fff" d="M1 20h412v77H1z"/><path fill-rule="evenodd" d="M2 28.705v65.343h22.936V39.685l.772-.71a19.33 19.33 0 0 1 5.757-3.905 15.848 15.848 0 0 1 6.066-1.194 9.36 9.36 0 0 1 7.302 3.09c1.823 2.06 2.74 4.954 2.74 8.765v48.41H70.28V42.99a36.137 36.137 0 0 0-.185-3.75l.494-.576a21.019 21.019 0 0 1 4.748-3.553 10.43 10.43 0 0 1 4.902-1.236 8.073 8.073 0 0 1 6.725 3.09c1.596 2.06 2.596 4.954 3.007 8.765l5.15 48.41h23.461l-6.056-51.078c-.769-6.867-2.788-11.951-6.056-15.254a16.892 16.892 0 0 0-12.554-4.985 24.499 24.499 0 0 0-12.163 3.44 52.31 52.31 0 0 0-12.122 10.125 16.687 16.687 0 0 0-4.377-8.58c-3.343-3.324-7.693-4.985-13.048-4.985a30.275 30.275 0 0 0-12.627 3.213c-4.408 2.06-9.29 5.59-14.644 10.589V22L2 28.705zm161.145-5.953c9.153-.007 16.019 1.86 20.598 5.603 4.587 3.729 6.89 8.968 6.911 15.718v50.274a21.33 21.33 0 0 1-7.879 1.277c-4.737.007-8.239-.882-10.505-2.667a8.226 8.226 0 0 1-3.336-5.704 23.037 23.037 0 0 1-7.529 5.508 31.047 31.047 0 0 1-13.388 2.935c-6.077 0-11.048-1.596-14.913-4.79a15.219 15.219 0 0 1-5.788-12.287 16.72 16.72 0 0 1 7.642-14.42c5.101-3.584 13.059-5.377 23.872-5.377a26.776 26.776 0 0 1 7.374.855l1.432.453V34.72a10.766 10.766 0 0 0-2.06-6.983 6.903 6.903 0 0 0-5.716-2.565 8.24 8.24 0 0 0-5.994 2.06 6.493 6.493 0 0 0-2.06 4.79v7.107a10.012 10.012 0 0 1-3.326 7.642 12.194 12.194 0 0 1-8.651 3.09 8.99 8.99 0 0 1-6.313-2.194c-1.566-1.476-2.348-3.629-2.348-6.458s1.194-5.661 3.584-8.497c2.396-2.836 5.963-5.205 10.7-7.107 4.738-1.902 10.635-2.853 17.693-2.853zm4.491 39.686a17.974 17.974 0 0 0-1.741-.546 20.598 20.598 0 0 0-5.211-.618 9.272 9.272 0 0 0-7.806 3.625c-1.854 2.39-2.781 5.823-2.781 10.3 0 4.326.889 7.57 2.667 9.734a8.516 8.516 0 0 0 6.911 3.244 12.533 12.533 0 0 0 7.961-2.956V62.438zm89.847-37.915-18.332 52.53-19.414-52.53H196.05l25.778 67.517c.235.676.679 1.26 1.267 1.668.573.338 1.23.509 1.895.495h9.423c.62.01 1.233-.135 1.782-.423a2.6 2.6 0 0 0 1.153-1.503l24.007-67.754h-3.872zm142.999 3.09c2.822 3.193 4.6 7.959 5.334 14.297l5.943 52.17h-23.481l-5.037-49.513c-.466-3.708-1.356-6.413-2.667-8.116a6.913 6.913 0 0 0-5.829-2.544c-1.826.013-3.624.45-5.252 1.277a22.65 22.65 0 0 0-5.376 3.79l-.855.71-.011.01v54.354h-22.935V28.716l22.935-6.644v14.533a85.496 85.496 0 0 1 13.863-10.3c4.16-2.32 7.957-3.481 11.39-3.481 5.163 0 9.156 1.596 11.978 4.79zm-74.873 9.93a31.604 31.604 0 0 1 3.79 15.563l-.051 3.584h-46.067c.625 7.87 2.771 13.885 6.437 18.046 4.463 5.02 10.299 7.53 17.508 7.53a21.78 21.78 0 0 0 13.09-3.822 15.516 15.516 0 0 0 6.395-10.537h2.369c.011.127.011.254 0 .381a26.653 26.653 0 0 1-4.48 13.987 29.226 29.226 0 0 1-11.329 9.888 35.215 35.215 0 0 1-16.179 3.626 36.598 36.598 0 0 1-18.157-4.398 31.783 31.783 0 0 1-12.358-12.36 36.795 36.795 0 0 1-4.48-18.427 42.781 42.781 0 0 1 4.407-19.89A31.584 31.584 0 0 1 279.069 27.5a38.183 38.183 0 0 1 19.279-4.676 32.956 32.956 0 0 1 16.561 3.945 27.528 27.528 0 0 1 10.7 10.773zm-42.441 16.263h23.44l.041-1.957c-.007-8.981-1.102-15.532-3.285-19.652-2.183-4.12-4.82-6.18-7.91-6.18a8.89 8.89 0 0 0-6.333 2.668c-1.861 1.764-3.317 4.51-4.367 8.24a54.788 54.788 0 0 0-1.586 14.564v2.317z" clip-rule="evenodd"/></mask><g fill-rule="evenodd" clip-rule="evenodd" filter="url(#a)"><path fill="#091314" d="M2 28.705v65.343h22.936V39.685l.772-.71a19.33 19.33 0 0 1 5.757-3.905 15.848 15.848 0 0 1 6.066-1.194 9.36 9.36 0 0 1 7.302 3.09c1.823 2.06 2.74 4.954 2.74 8.765v48.41H70.28V42.99a36.137 36.137 0 0 0-.185-3.75l.494-.576a21.019 21.019 0 0 1 4.748-3.553 10.43 10.43 0 0 1 4.902-1.236 8.073 8.073 0 0 1 6.725 3.09c1.596 2.06 2.596 4.954 3.007 8.765l5.15 48.41h23.461l-6.056-51.078c-.769-6.867-2.788-11.951-6.056-15.254a16.892 16.892 0 0 0-12.554-4.985 24.499 24.499 0 0 0-12.163 3.44 52.31 52.31 0 0 0-12.122 10.125 16.687 16.687 0 0 0-4.377-8.58c-3.343-3.324-7.693-4.985-13.048-4.985a30.275 30.275 0 0 0-12.627 3.213c-4.408 2.06-9.29 5.59-14.644 10.589V22L2 28.705zm161.145-5.953c9.153-.007 16.019 1.86 20.598 5.603 4.587 3.729 6.89 8.968 6.911 15.718v50.274a21.33 21.33 0 0 1-7.879 1.277c-4.737.007-8.239-.882-10.505-2.667a8.226 8.226 0 0 1-3.336-5.704 23.037 23.037 0 0 1-7.529 5.508 31.047 31.047 0 0 1-13.388 2.935c-6.077 0-11.048-1.596-14.913-4.79a15.219 15.219 0 0 1-5.788-12.287 16.72 16.72 0 0 1 7.642-14.42c5.101-3.584 13.059-5.377 23.872-5.377a26.776 26.776 0 0 1 7.374.855l1.432.453V34.72a10.766 10.766 0 0 0-2.06-6.983 6.903 6.903 0 0 0-5.716-2.565 8.24 8.24 0 0 0-5.994 2.06 6.493 6.493 0 0 0-2.06 4.79v7.107a10.012 10.012 0 0 1-3.326 7.642 12.194 12.194 0 0 1-8.651 3.09 8.99 8.99 0 0 1-6.313-2.194c-1.566-1.476-2.348-3.629-2.348-6.458s1.194-5.661 3.584-8.497c2.396-2.836 5.963-5.205 10.7-7.107 4.738-1.902 10.635-2.853 17.693-2.853zm4.491 39.686a17.974 17.974 0 0 0-1.741-.546 20.598 20.598 0 0 0-5.211-.618 9.272 9.272 0 0 0-7.806 3.625c-1.854 2.39-2.781 5.823-2.781 10.3 0 4.326.889 7.57 2.667 9.734a8.516 8.516 0 0 0 6.911 3.244 12.533 12.533 0 0 0 7.961-2.956V62.438zm89.847-37.915-18.332 52.53-19.414-52.53H196.05l25.778 67.517c.235.676.679 1.26 1.267 1.668.573.338 1.23.509 1.895.495h9.423c.62.01 1.233-.135 1.782-.423a2.6 2.6 0 0 0 1.153-1.503l24.007-67.754h-3.872zm142.999 3.09c2.822 3.193 4.6 7.959 5.334 14.297l5.943 52.17h-23.481l-5.037-49.513c-.466-3.708-1.356-6.413-2.667-8.116a6.913 6.913 0 0 0-5.829-2.544c-1.826.013-3.624.45-5.252 1.277a22.65 22.65 0 0 0-5.376 3.79l-.855.71-.011.01v54.354h-22.935V28.716l22.935-6.644v14.533a85.496 85.496 0 0 1 13.863-10.3c4.16-2.32 7.957-3.481 11.39-3.481 5.163 0 9.156 1.596 11.978 4.79zm-74.873 9.93a31.604 31.604 0 0 1 3.79 15.563l-.051 3.584h-46.067c.625 7.87 2.771 13.885 6.437 18.046 4.463 5.02 10.299 7.53 17.508 7.53a21.78 21.78 0 0 0 13.09-3.822 15.516 15.516 0 0 0 6.395-10.537h2.369c.011.127.011.254 0 .381a26.653 26.653 0 0 1-4.48 13.987 29.226 29.226 0 0 1-11.329 9.888 35.215 35.215 0 0 1-16.179 3.626 36.598 36.598 0 0 1-18.157-4.398 31.783 31.783 0 0 1-12.358-12.36 36.795 36.795 0 0 1-4.48-18.427 42.781 42.781 0 0 1 4.407-19.89A31.584 31.584 0 0 1 279.069 27.5a38.183 38.183 0 0 1 19.279-4.676 32.956 32.956 0 0 1 16.561 3.945 27.528 27.528 0 0 1 10.7 10.773zm-42.441 16.263h23.44l.041-1.957c-.007-8.981-1.102-15.532-3.285-19.652-2.183-4.12-4.82-6.18-7.91-6.18a8.89 8.89 0 0 0-6.333 2.668c-1.861 1.764-3.317 4.51-4.367 8.24a54.788 54.788 0 0 0-1.586 14.564v2.317z"/><path fill="url(#b)" d="M2 28.705v65.343h22.936V39.685l.772-.71a19.33 19.33 0 0 1 5.757-3.905 15.848 15.848 0 0 1 6.066-1.194 9.36 9.36 0 0 1 7.302 3.09c1.823 2.06 2.74 4.954 2.74 8.765v48.41H70.28V42.99a36.137 36.137 0 0 0-.185-3.75l.494-.576a21.019 21.019 0 0 1 4.748-3.553 10.43 10.43 0 0 1 4.902-1.236 8.073 8.073 0 0 1 6.725 3.09c1.596 2.06 2.596 4.954 3.007 8.765l5.15 48.41h23.461l-6.056-51.078c-.769-6.867-2.788-11.951-6.056-15.254a16.892 16.892 0 0 0-12.554-4.985 24.499 24.499 0 0 0-12.163 3.44 52.31 52.31 0 0 0-12.122 10.125 16.687 16.687 0 0 0-4.377-8.58c-3.343-3.324-7.693-4.985-13.048-4.985a30.275 30.275 0 0 0-12.627 3.213c-4.408 2.06-9.29 5.59-14.644 10.589V22L2 28.705zm161.145-5.953c9.153-.007 16.019 1.86 20.598 5.603 4.587 3.729 6.89 8.968 6.911 15.718v50.274a21.33 21.33 0 0 1-7.879 1.277c-4.737.007-8.239-.882-10.505-2.667a8.226 8.226 0 0 1-3.336-5.704 23.037 23.037 0 0 1-7.529 5.508 31.047 31.047 0 0 1-13.388 2.935c-6.077 0-11.048-1.596-14.913-4.79a15.219 15.219 0 0 1-5.788-12.287 16.72 16.72 0 0 1 7.642-14.42c5.101-3.584 13.059-5.377 23.872-5.377a26.776 26.776 0 0 1 7.374.855l1.432.453V34.72a10.766 10.766 0 0 0-2.06-6.983 6.903 6.903 0 0 0-5.716-2.565 8.24 8.24 0 0 0-5.994 2.06 6.493 6.493 0 0 0-2.06 4.79v7.107a10.012 10.012 0 0 1-3.326 7.642 12.194 12.194 0 0 1-8.651 3.09 8.99 8.99 0 0 1-6.313-2.194c-1.566-1.476-2.348-3.629-2.348-6.458s1.194-5.661 3.584-8.497c2.396-2.836 5.963-5.205 10.7-7.107 4.738-1.902 10.635-2.853 17.693-2.853zm4.491 39.686a17.974 17.974 0 0 0-1.741-.546 20.598 20.598 0 0 0-5.211-.618 9.272 9.272 0 0 0-7.806 3.625c-1.854 2.39-2.781 5.823-2.781 10.3 0 4.326.889 7.57 2.667 9.734a8.516 8.516 0 0 0 6.911 3.244 12.533 12.533 0 0 0 7.961-2.956V62.438zm89.847-37.915-18.332 52.53-19.414-52.53H196.05l25.778 67.517c.235.676.679 1.26 1.267 1.668.573.338 1.23.509 1.895.495h9.423c.62.01 1.233-.135 1.782-.423a2.6 2.6 0 0 0 1.153-1.503l24.007-67.754h-3.872zm142.999 3.09c2.822 3.193 4.6 7.959 5.334 14.297l5.943 52.17h-23.481l-5.037-49.513c-.466-3.708-1.356-6.413-2.667-8.116a6.913 6.913 0 0 0-5.829-2.544c-1.826.013-3.624.45-5.252 1.277a22.65 22.65 0 0 0-5.376 3.79l-.855.71-.011.01v54.354h-22.935V28.716l22.935-6.644v14.533a85.496 85.496 0 0 1 13.863-10.3c4.16-2.32 7.957-3.481 11.39-3.481 5.163 0 9.156 1.596 11.978 4.79zm-74.873 9.93a31.604 31.604 0 0 1 3.79 15.563l-.051 3.584h-46.067c.625 7.87 2.771 13.885 6.437 18.046 4.463 5.02 10.299 7.53 17.508 7.53a21.78 21.78 0 0 0 13.09-3.822 15.516 15.516 0 0 0 6.395-10.537h2.369c.011.127.011.254 0 .381a26.653 26.653 0 0 1-4.48 13.987 29.226 29.226 0 0 1-11.329 9.888 35.215 35.215 0 0 1-16.179 3.626 36.598 36.598 0 0 1-18.157-4.398 31.783 31.783 0 0 1-12.358-12.36 36.795 36.795 0 0 1-4.48-18.427 42.781 42.781 0 0 1 4.407-19.89A31.584 31.584 0 0 1 279.069 27.5a38.183 38.183 0 0 1 19.279-4.676 32.956 32.956 0 0 1 16.561 3.945 27.528 27.528 0 0 1 10.7 10.773zm-42.441 16.263h23.44l.041-1.957c-.007-8.981-1.102-15.532-3.285-19.652-2.183-4.12-4.82-6.18-7.91-6.18a8.89 8.89 0 0 0-6.333 2.668c-1.861 1.764-3.317 4.51-4.367 8.24a54.788 54.788 0 0 0-1.586 14.564v2.317z"/><path fill="url(#c)" d="M2 28.705v65.343h22.936V39.685l.772-.71a19.33 19.33 0 0 1 5.757-3.905 15.848 15.848 0 0 1 6.066-1.194 9.36 9.36 0 0 1 7.302 3.09c1.823 2.06 2.74 4.954 2.74 8.765v48.41H70.28V42.99a36.137 36.137 0 0 0-.185-3.75l.494-.576a21.019 21.019 0 0 1 4.748-3.553 10.43 10.43 0 0 1 4.902-1.236 8.073 8.073 0 0 1 6.725 3.09c1.596 2.06 2.596 4.954 3.007 8.765l5.15 48.41h23.461l-6.056-51.078c-.769-6.867-2.788-11.951-6.056-15.254a16.892 16.892 0 0 0-12.554-4.985 24.499 24.499 0 0 0-12.163 3.44 52.31 52.31 0 0 0-12.122 10.125 16.687 16.687 0 0 0-4.377-8.58c-3.343-3.324-7.693-4.985-13.048-4.985a30.275 30.275 0 0 0-12.627 3.213c-4.408 2.06-9.29 5.59-14.644 10.589V22L2 28.705zm161.145-5.953c9.153-.007 16.019 1.86 20.598 5.603 4.587 3.729 6.89 8.968 6.911 15.718v50.274a21.33 21.33 0 0 1-7.879 1.277c-4.737.007-8.239-.882-10.505-2.667a8.226 8.226 0 0 1-3.336-5.704 23.037 23.037 0 0 1-7.529 5.508 31.047 31.047 0 0 1-13.388 2.935c-6.077 0-11.048-1.596-14.913-4.79a15.219 15.219 0 0 1-5.788-12.287 16.72 16.72 0 0 1 7.642-14.42c5.101-3.584 13.059-5.377 23.872-5.377a26.776 26.776 0 0 1 7.374.855l1.432.453V34.72a10.766 10.766 0 0 0-2.06-6.983 6.903 6.903 0 0 0-5.716-2.565 8.24 8.24 0 0 0-5.994 2.06 6.493 6.493 0 0 0-2.06 4.79v7.107a10.012 10.012 0 0 1-3.326 7.642 12.194 12.194 0 0 1-8.651 3.09 8.99 8.99 0 0 1-6.313-2.194c-1.566-1.476-2.348-3.629-2.348-6.458s1.194-5.661 3.584-8.497c2.396-2.836 5.963-5.205 10.7-7.107 4.738-1.902 10.635-2.853 17.693-2.853zm4.491 39.686a17.974 17.974 0 0 0-1.741-.546 20.598 20.598 0 0 0-5.211-.618 9.272 9.272 0 0 0-7.806 3.625c-1.854 2.39-2.781 5.823-2.781 10.3 0 4.326.889 7.57 2.667 9.734a8.516 8.516 0 0 0 6.911 3.244 12.533 12.533 0 0 0 7.961-2.956V62.438zm89.847-37.915-18.332 52.53-19.414-52.53H196.05l25.778 67.517c.235.676.679 1.26 1.267 1.668.573.338 1.23.509 1.895.495h9.423c.62.01 1.233-.135 1.782-.423a2.6 2.6 0 0 0 1.153-1.503l24.007-67.754h-3.872zm142.999 3.09c2.822 3.193 4.6 7.959 5.334 14.297l5.943 52.17h-23.481l-5.037-49.513c-.466-3.708-1.356-6.413-2.667-8.116a6.913 6.913 0 0 0-5.829-2.544c-1.826.013-3.624.45-5.252 1.277a22.65 22.65 0 0 0-5.376 3.79l-.855.71-.011.01v54.354h-22.935V28.716l22.935-6.644v14.533a85.496 85.496 0 0 1 13.863-10.3c4.16-2.32 7.957-3.481 11.39-3.481 5.163 0 9.156 1.596 11.978 4.79zm-74.873 9.93a31.604 31.604 0 0 1 3.79 15.563l-.051 3.584h-46.067c.625 7.87 2.771 13.885 6.437 18.046 4.463 5.02 10.299 7.53 17.508 7.53a21.78 21.78 0 0 0 13.09-3.822 15.516 15.516 0 0 0 6.395-10.537h2.369c.011.127.011.254 0 .381a26.653 26.653 0 0 1-4.48 13.987 29.226 29.226 0 0 1-11.329 9.888 35.215 35.215 0 0 1-16.179 3.626 36.598 36.598 0 0 1-18.157-4.398 31.783 31.783 0 0 1-12.358-12.36 36.795 36.795 0 0 1-4.48-18.427 42.781 42.781 0 0 1 4.407-19.89A31.584 31.584 0 0 1 279.069 27.5a38.183 38.183 0 0 1 19.279-4.676 32.956 32.956 0 0 1 16.561 3.945 27.528 27.528 0 0 1 10.7 10.773zm-42.441 16.263h23.44l.041-1.957c-.007-8.981-1.102-15.532-3.285-19.652-2.183-4.12-4.82-6.18-7.91-6.18a8.89 8.89 0 0 0-6.333 2.668c-1.861 1.764-3.317 4.51-4.367 8.24a54.788 54.788 0 0 0-1.586 14.564v2.317z"/><path fill="url(#d)" fill-opacity=".2" d="M2 28.705v65.343h22.936V39.685l.772-.71a19.33 19.33 0 0 1 5.757-3.905 15.848 15.848 0 0 1 6.066-1.194 9.36 9.36 0 0 1 7.302 3.09c1.823 2.06 2.74 4.954 2.74 8.765v48.41H70.28V42.99a36.137 36.137 0 0 0-.185-3.75l.494-.576a21.019 21.019 0 0 1 4.748-3.553 10.43 10.43 0 0 1 4.902-1.236 8.073 8.073 0 0 1 6.725 3.09c1.596 2.06 2.596 4.954 3.007 8.765l5.15 48.41h23.461l-6.056-51.078c-.769-6.867-2.788-11.951-6.056-15.254a16.892 16.892 0 0 0-12.554-4.985 24.499 24.499 0 0 0-12.163 3.44 52.31 52.31 0 0 0-12.122 10.125 16.687 16.687 0 0 0-4.377-8.58c-3.343-3.324-7.693-4.985-13.048-4.985a30.275 30.275 0 0 0-12.627 3.213c-4.408 2.06-9.29 5.59-14.644 10.589V22L2 28.705zm161.145-5.953c9.153-.007 16.019 1.86 20.598 5.603 4.587 3.729 6.89 8.968 6.911 15.718v50.274a21.33 21.33 0 0 1-7.879 1.277c-4.737.007-8.239-.882-10.505-2.667a8.226 8.226 0 0 1-3.336-5.704 23.037 23.037 0 0 1-7.529 5.508 31.047 31.047 0 0 1-13.388 2.935c-6.077 0-11.048-1.596-14.913-4.79a15.219 15.219 0 0 1-5.788-12.287 16.72 16.72 0 0 1 7.642-14.42c5.101-3.584 13.059-5.377 23.872-5.377a26.776 26.776 0 0 1 7.374.855l1.432.453V34.72a10.766 10.766 0 0 0-2.06-6.983 6.903 6.903 0 0 0-5.716-2.565 8.24 8.24 0 0 0-5.994 2.06 6.493 6.493 0 0 0-2.06 4.79v7.107a10.012 10.012 0 0 1-3.326 7.642 12.194 12.194 0 0 1-8.651 3.09 8.99 8.99 0 0 1-6.313-2.194c-1.566-1.476-2.348-3.629-2.348-6.458s1.194-5.661 3.584-8.497c2.396-2.836 5.963-5.205 10.7-7.107 4.738-1.902 10.635-2.853 17.693-2.853zm4.491 39.686a17.974 17.974 0 0 0-1.741-.546 20.598 20.598 0 0 0-5.211-.618 9.272 9.272 0 0 0-7.806 3.625c-1.854 2.39-2.781 5.823-2.781 10.3 0 4.326.889 7.57 2.667 9.734a8.516 8.516 0 0 0 6.911 3.244 12.533 12.533 0 0 0 7.961-2.956V62.438zm89.847-37.915-18.332 52.53-19.414-52.53H196.05l25.778 67.517c.235.676.679 1.26 1.267 1.668.573.338 1.23.509 1.895.495h9.423c.62.01 1.233-.135 1.782-.423a2.6 2.6 0 0 0 1.153-1.503l24.007-67.754h-3.872zm142.999 3.09c2.822 3.193 4.6 7.959 5.334 14.297l5.943 52.17h-23.481l-5.037-49.513c-.466-3.708-1.356-6.413-2.667-8.116a6.913 6.913 0 0 0-5.829-2.544c-1.826.013-3.624.45-5.252 1.277a22.65 22.65 0 0 0-5.376 3.79l-.855.71-.011.01v54.354h-22.935V28.716l22.935-6.644v14.533a85.496 85.496 0 0 1 13.863-10.3c4.16-2.32 7.957-3.481 11.39-3.481 5.163 0 9.156 1.596 11.978 4.79zm-74.873 9.93a31.604 31.604 0 0 1 3.79 15.563l-.051 3.584h-46.067c.625 7.87 2.771 13.885 6.437 18.046 4.463 5.02 10.299 7.53 17.508 7.53a21.78 21.78 0 0 0 13.09-3.822 15.516 15.516 0 0 0 6.395-10.537h2.369c.011.127.011.254 0 .381a26.653 26.653 0 0 1-4.48 13.987 29.226 29.226 0 0 1-11.329 9.888 35.215 35.215 0 0 1-16.179 3.626 36.598 36.598 0 0 1-18.157-4.398 31.783 31.783 0 0 1-12.358-12.36 36.795 36.795 0 0 1-4.48-18.427 42.781 42.781 0 0 1 4.407-19.89A31.584 31.584 0 0 1 279.069 27.5a38.183 38.183 0 0 1 19.279-4.676 32.956 32.956 0 0 1 16.561 3.945 27.528 27.528 0 0 1 10.7 10.773zm-42.441 16.263h23.44l.041-1.957c-.007-8.981-1.102-15.532-3.285-19.652-2.183-4.12-4.82-6.18-7.91-6.18a8.89 8.89 0 0 0-6.333 2.668c-1.861 1.764-3.317 4.51-4.367 8.24a54.788 54.788 0 0 0-1.586 14.564v2.317z"/></g><path fill="url(#e)" d="M2 94.048H1v1h1v-1zm0-65.343-.28-.96-.72.21v.75h1zm22.936 65.343v1h1v-1h-1zm0-54.363-.678-.736-.322.297v.439h1zm.772-.71.677.735.012-.011.012-.012-.701-.713zm5.757-3.905-.381-.924-.011.004-.011.005.403.915zm6.066-1.194-.002 1h.02l.019-.001-.037-1zm3.994.733-.39.921.39-.92zm3.308 2.357.749-.663-.006-.007-.743.67zm2.74 57.175h-1v1h1v-1zm22.708 0v1h1v-1h-1zm0-51.15-1-.002v.002h1zm-.185-3.75-.76-.65-.279.326.044.426.995-.101zm.494-.576-.706-.708-.028.028-.025.03.759.65zm4.748-3.553-.472-.882-.008.005.48.877zm4.902-1.236.002 1h.022l.021-.002-.045-.998zm3.737.729.418-.91-.418.91zm2.988 2.36.79-.612-.002-.004-.788.617zm3.007 8.766.995-.106v-.002l-.995.108zm5.15 48.41-.995.106.096.894h.899v-1zm23.461 0v1h1.125l-.132-1.118-.993.118zm-6.056-51.078-.994.111.001.007.993-.118zm-6.056-15.254.711-.704h-.001l-.71.704zm-5.757-3.803-.369.93.369-.93zm-6.797-1.182.015 1h.019l-.034-1zm-12.163 3.44-.511-.86-.007.004.518.856zM69.632 36.389l-.984.178.368 2.03 1.366-1.546-.75-.662zm-4.377-8.58.722-.692-.008-.009-.009-.008-.705.709zm-13.048-4.985v-1h-.033l.033 1zM39.58 26.037l.424.906.013-.006.013-.006-.45-.894zM24.936 36.626h-1v2.301l1.682-1.57-.682-.731zm0-14.626h1v-1.334l-1.281.374.28.96zm158.807 6.355-.633.774.002.002.631-.776zm-20.598-5.603v1h.001l-.001-1zm27.509 21.32h1v-.002l-1 .003zm0 50.275.342.94.658-.24v-.7h-1zm-7.879 1.277.028-1h-.029l.001 1zm-10.505-2.667.619-.786-.015-.012-.016-.011-.588.809zm-2.289-2.545.866-.5-.866.5zm-1.047-3.16.993-.116-.257-2.19-1.478 1.636.742.67zm-7.529 5.509-.415-.91-.01.004.425.906zm-13.388 2.935.006-1h-.006v1zm-14.913-4.79.637-.77-.009-.007-.009-.007-.619.785zm-4.34-5.462.904-.426-.904.426zm-1.448-6.825 1 .022v-.044l-1 .022zm1.943-8.205-.884-.469.884.469zm5.699-6.215.543.84.016-.01.016-.012-.575-.818zm23.872-5.377v1h.024l-.024-1zm7.374.855.302-.953-.025-.008-.025-.007-.252.968zm1.432.453-.302.954 1.302.412V60.13h-1zm0-25.41-.999-.058-.001.03v.028h1zm-2.06-6.983.807-.59-.014-.02-.015-.018-.778.628zm-2.551-1.967-.409.912.409-.912zm-3.165-.598-.064.998.057.004.056-.003-.049-.999zm-5.994 2.06-.664-.748-.009.009-.009.008.682.731zm-1.532 2.179.919.395-.919-.395zm-.528 2.61h1.001l-.001-.006-1 .007zm0 7.108h-1v.009l.001.01.999-.02zm-.831 4.183-.917-.399.917.4zm-2.495 3.46.666.745.002-.001-.668-.745zm-8.651 3.09.043-1-.045-.002-.044.002.046 1zm-6.313-2.195-.686.728.015.014.015.013.656-.755zm1.236-14.955-.764-.646-.001.002.765.644zm10.7-7.107.373.928-.373-.928zm20.443 36.287.25-.969-.006-.001-.244.97zm1.741.546h1v-.696l-.653-.242-.347.938zm-6.952-1.164-.048.999.029.001h.029l-.01-1zm-4.35.851-.421-.907.421.907zm-3.456 2.774.79.613.004-.005-.794-.608zm-.114 20.034.786-.619-.007-.008-.006-.008-.773.635zm3.072 2.44.425-.905-.425.905zm3.839.804-.01-1h-.016l.026 1zm7.961-2.956.645.764.355-.3v-.464h-1zm71.515-8.168-.938.347.965 2.61.917-2.627-.944-.33zm18.332-52.53v-1h-.711l-.234.67.945.33zm-37.746 0 .938-.346-.241-.654h-.697v1zm-23.687 0v-1h-1.452l.518 1.357.934-.357zm25.778 67.517.945-.328-.005-.015-.006-.014-.934.357zm1.267 1.668-.57.822.031.021.032.02.507-.863zm1.895.495v-1h-.022l.022 1zm9.423 0 .017-1h-.017v1zm1.782-.423.464.886.027-.014.027-.016-.518-.856zm1.153-1.503-.942-.334-.01.027-.008.028.96.279zm24.007-67.754.943.334.472-1.334h-1.415v1zM405.816 41.91l.994-.113v-.002l-.994.115zm-5.334-14.297-.75.663.75-.663zm11.277 66.466v1h1.12l-.127-1.113-.993.113zm-23.481 0-.995.101.091.9h.904v-1zm-5.037-49.512.995-.101-.001-.012-.001-.012-.993.125zm-2.667-8.116.792-.61-.007-.01-.008-.01-.777.63zm-2.604-1.983-.4.917.4-.917zm-3.225-.561.007 1h.03l.03-.003-.067-.997zm-5.252 1.277.451.892h.001l-.452-.892zm-5.376 3.79.639.77.025-.022.024-.023-.688-.725zm-.855.71-.64-.768-.002.002.642.767zm-.011.01-.641-.768-.359.3v.467h1zm0 54.354v1h1v-1h-1zm-22.935 0h-1v1h1v-1zm0-65.332-.278-.961-.722.21v.75h1zm22.935-6.644h1v-1.33l-1.278.37.278.96zm0 14.533h-1v2.268l1.675-1.53-.675-.738zm13.863-10.3-.488-.873-.012.007-.013.007.513.86zm-47.715 26.8-1-.016v.002l1 .015zm-3.79-15.563.88-.475-.003-.006-.877.481zm3.739 19.148v1h.985l.015-.985-1-.015zm-46.067 0v-1h-1.082l.085 1.08.997-.08zm6.437 18.046-.75.66.003.004.747-.664zm17.508 7.53.034-1h-.034v1zm13.09-3.822.566.824.006-.004.006-.004-.578-.816zm6.395-10.537v-1h-.871l-.119.863.99.137zm2.369 0 .996-.087-.08-.913h-.916v1zm0 .381-.996-.087-.003.028v.028l.999.031zm-4.48 13.987.829.56.003-.004-.832-.556zm-11.329 9.888-.441-.897h-.001l.442.897zm-16.179 3.626.017-1h-.037l.02 1zm-18.157-4.398-.485.874.009.005.476-.88zm-12.358-12.36-.878.478.003.007.875-.485zm-4.48-18.427.999.022.001-.022-.001-.022-.999.022zm4.407-19.89-.892-.45-.004.008.896.443zM279.069 27.5l-.48-.877-.007.004-.008.004.495.869zm19.279-4.676-.024 1h.052l-.028-1zm16.561 3.945.488-.873-.007-.004-.006-.003-.475.88zm-8.301 27.037v1h.979l.021-.979-1-.02zm-23.44 0h-1v1h1v-1zm23.481-1.957 1 .021v-.02h-1zm-3.285-19.652.884-.468-.884.468zm-7.91-6.18v-1h-.001l.001 1zm-3.435.697-.388-.922.388.922zm-2.898 1.97.688.726.013-.012.013-.014-.714-.7zm-4.367 8.24-.963-.27-.004.015-.004.015.971.24zm-1.586 14.565h1v-.026l-1 .026zM3 94.049V28.704H1v65.343h2zm21.936-1H2v2h22.936v-2zm-1-53.364v54.363h2V39.685h-2zm1.095-1.447-.773.71 1.355 1.473.772-.711-1.354-1.472zm6.03-4.083a20.332 20.332 0 0 0-6.054 4.106l1.402 1.426a18.331 18.331 0 0 1 5.459-3.701l-.806-1.83zm6.472-1.28a16.847 16.847 0 0 0-6.45 1.27l.763 1.85a14.848 14.848 0 0 1 5.683-1.12l.004-2zm4.382.813a10.359 10.359 0 0 0-4.421-.812l.074 1.999a8.363 8.363 0 0 1 3.567.655l.78-1.842zm3.66 2.608a10.36 10.36 0 0 0-3.66-2.608l-.78 1.842a8.362 8.362 0 0 1 2.955 2.105l1.486-1.339zm2.997 9.435c0-3.966-.955-7.128-2.99-9.428l-1.498 1.325c1.61 1.82 2.488 4.447 2.488 8.103h2zm0 48.41V45.73h-2v48.41h2zm21.71-1h-22.71v2h22.71v-2zm-1-50.15v51.15h2V42.99h-2zm-.181-3.648c.123 1.211.183 2.428.18 3.645l2 .006a37.137 37.137 0 0 0-.19-3.853l-1.99.202zm.73-1.329-.495.577 1.519 1.302.494-.577-1.518-1.302zm5.026-3.78c-1.825 1-3.5 2.253-4.973 3.723l1.412 1.416a20.019 20.019 0 0 1 4.522-3.384l-.96-1.755zm5.38-1.358a11.43 11.43 0 0 0-5.371 1.354l.944 1.763a9.431 9.431 0 0 1 4.432-1.117l-.004-2zm4.158.82a9.073 9.073 0 0 0-4.2-.82l.09 1.998a7.073 7.073 0 0 1 3.275.64l.835-1.818zm3.358 2.653a9.075 9.075 0 0 0-3.358-2.653l-.835 1.817a7.073 7.073 0 0 1 2.618 2.069l1.575-1.233zm3.214 9.274c-.424-3.916-1.461-7.011-3.211-9.27l-1.581 1.225c1.442 1.862 2.403 4.554 2.803 8.26l1.989-.215zm5.15 48.412-5.15-48.41-1.989.212 5.15 48.41 1.988-.212zm22.466-.894H95.122v2h23.461v-2zm-7.049-49.96 6.055 51.078 1.987-.236-6.056-51.078-1.986.236zm-5.774-14.669c3.049 3.082 5.017 7.915 5.773 14.663l1.988-.223c-.783-6.986-2.852-12.322-6.339-15.846l-1.422 1.406zm-5.415-3.576a15.89 15.89 0 0 1 5.416 3.577l1.42-1.408a17.892 17.892 0 0 0-6.098-4.028l-.738 1.859zm-6.395-1.113a15.89 15.89 0 0 1 6.395 1.113l.738-1.859a17.89 17.89 0 0 0-7.2-1.253l.067 2zm-11.685 3.3a23.5 23.5 0 0 1 11.667-3.3l-.03-2a25.512 25.512 0 0 0-12.66 3.581l1.023 1.72zm-11.883 9.928a51.308 51.308 0 0 1 11.89-9.932l-1.036-1.71a53.31 53.31 0 0 0-12.353 10.318l1.499 1.324zm-5.849-8.55a15.686 15.686 0 0 1 4.115 8.066l1.968-.356a17.687 17.687 0 0 0-4.639-9.094L64.533 28.5zm-12.326-4.677c5.13 0 9.213 1.583 12.343 4.694l1.41-1.418c-3.557-3.536-8.173-5.276-13.753-5.276v2zM40.03 26.93a29.275 29.275 0 0 1 12.209-3.108l-.065-1.999a31.276 31.276 0 0 0-13.043 3.32l.899 1.787zM25.618 37.357c5.313-4.96 10.108-8.415 14.386-10.414l-.847-1.812c-4.538 2.121-9.507 5.726-14.904 10.764l1.365 1.462zM23.936 22v14.626h2V22h-2zM2.28 29.665l22.935-6.705-.561-1.92-22.936 6.706.562 1.92zm182.095-2.084c-4.833-3.95-11.968-5.836-21.231-5.83l.001 2c9.042-.006 15.638 1.843 19.964 5.378l1.266-1.548zm7.278 16.489c-.022-7.002-2.426-12.545-7.28-16.491l-1.262 1.552c4.319 3.511 6.522 8.447 6.542 14.945l2-.006zm0 50.277V44.073h-2v50.274h2zm-8.907 2.277a22.333 22.333 0 0 0 8.249-1.337l-.684-1.88a20.327 20.327 0 0 1-7.509 1.218l-.056 1.999zm-11.096-2.882c2.525 1.99 6.296 2.89 11.125 2.882l-.002-2c-4.646.007-7.878-.871-9.885-2.453l-1.238 1.571zm-2.536-2.83a9.244 9.244 0 0 0 2.567 2.853l1.176-1.617a7.25 7.25 0 0 1-2.011-2.236l-1.732 1zm-1.175-3.543a9.248 9.248 0 0 0 1.175 3.543l1.732-1a7.257 7.257 0 0 1-.92-2.776l-1.987.233zm-6.12 6.302a24.03 24.03 0 0 0 7.855-5.748l-1.483-1.341a22.029 22.029 0 0 1-7.202 5.269l.83 1.82zm-13.81 3.025a32.043 32.043 0 0 0 13.819-3.03l-.849-1.81a30.045 30.045 0 0 1-12.957 2.84l-.013 2zm-15.543-5.018c4.08 3.37 9.292 5.018 15.55 5.018v-2c-5.895 0-10.626-1.545-14.276-4.56l-1.274 1.542zm-4.608-5.808a16.225 16.225 0 0 0 4.625 5.822l1.239-1.57a14.236 14.236 0 0 1-4.055-5.104l-1.809.852zm-1.543-7.273a16.226 16.226 0 0 0 1.543 7.273l1.809-.852a14.227 14.227 0 0 1-1.352-6.377l-2-.044zm2.059-8.652a17.74 17.74 0 0 0-2.059 8.696l2-.044a15.723 15.723 0 0 1 1.827-7.715l-1.768-.937zm6.04-6.586a17.727 17.727 0 0 0-6.04 6.586l1.768.937a15.717 15.717 0 0 1 5.358-5.843l-1.086-1.68zm24.415-5.537c-10.885 0-19.094 1.797-24.447 5.559l1.15 1.636c4.849-3.407 12.555-5.195 23.297-5.195v-2zm7.626.887a27.772 27.772 0 0 0-7.649-.886l.047 2c2.393-.058 4.782.22 7.098.822l.504-1.936zm1.482.468-1.432-.453-.604 1.907 1.432.453.604-1.907zm-1.302-24.457v25.41h2V34.72h-2zm-1.867-6.392a9.76 9.76 0 0 1 1.868 6.334l1.997.117a11.764 11.764 0 0 0-2.251-7.633l-1.614 1.182zm-2.153-1.646a5.91 5.91 0 0 1 2.182 1.683l1.556-1.256a7.905 7.905 0 0 0-2.919-2.252l-.819 1.825zm-2.707-.51a5.91 5.91 0 0 1 2.707.51l.819-1.825a7.912 7.912 0 0 0-3.624-.683l.098 1.997zm-2.927.377a7.24 7.24 0 0 1 2.814-.379l.128-1.996a9.24 9.24 0 0 0-3.592.483l.65 1.892zm-2.452 1.431a7.236 7.236 0 0 1 2.452-1.431l-.65-1.892a9.253 9.253 0 0 0-3.13 1.827l1.328 1.496zm-1.277 1.826a5.49 5.49 0 0 1 1.296-1.843l-1.365-1.462a7.485 7.485 0 0 0-1.768 2.515l1.837.79zm-.447 2.209a5.496 5.496 0 0 1 .447-2.209l-1.837-.79a7.467 7.467 0 0 0-.609 3.013l1.999-.014zm0 7.114v-7.107h-2v7.107h2zm-.914 4.582c.632-1.45.943-3.02.914-4.6l-1.999.036a9.03 9.03 0 0 1-.749 3.766l1.834.798zm-2.744 3.805a11.02 11.02 0 0 0 2.744-3.805l-1.834-.798a9.005 9.005 0 0 1-2.246 3.114l1.336 1.489zm-9.362 3.344a13.193 13.193 0 0 0 9.36-3.343l-1.332-1.491a11.195 11.195 0 0 1-7.942 2.836l-.086 1.998zm-6.926-2.438a9.989 9.989 0 0 0 7.015 2.438l-.092-1.998a7.989 7.989 0 0 1-5.611-1.95l-1.312 1.51zm-2.692-7.213c0 3.014.838 5.466 2.662 7.186l1.372-1.455c-1.308-1.233-2.034-3.086-2.034-5.73h-2zm3.819-9.142c-2.493 2.96-3.819 6.013-3.819 9.142h2c0-2.528 1.063-5.14 3.348-7.853l-1.529-1.288zm11.093-7.39c-4.836 1.941-8.559 4.39-11.092 7.39l1.527 1.29c2.259-2.673 5.67-4.961 10.31-6.824l-.745-1.856zm18.065-2.925c-7.14 0-13.174.96-18.065 2.925l.745 1.856c4.583-1.84 10.345-2.781 17.32-2.781v-2zm2.5 41.108c.556.144 1.105.316 1.643.515l.695-1.875a18.833 18.833 0 0 0-1.838-.576l-.5 1.936zm-4.951-.586a19.597 19.597 0 0 1 4.958.588l.487-1.94a21.603 21.603 0 0 0-5.465-.648l.02 2zm-3.938.758a8.267 8.267 0 0 1 3.88-.76l.096-1.997a10.27 10.27 0 0 0-4.819.943l.843 1.814zm-3.084 2.475a8.27 8.27 0 0 1 3.084-2.475l-.843-1.814c-1.506.7-2.82 1.755-3.83 3.074l1.589 1.215zm-2.575 9.692c0-4.357.905-7.539 2.571-9.687l-1.581-1.226c-2.041 2.632-2.99 6.317-2.99 10.913h2zm2.44 9.099c-1.57-1.91-2.44-4.884-2.44-9.099h-2c0 4.438.908 7.952 2.895 10.369l1.545-1.27zm2.724 2.17a7.518 7.518 0 0 1-2.711-2.154l-1.571 1.238a9.511 9.511 0 0 0 3.432 2.726l.85-1.81zm3.388.71a7.515 7.515 0 0 1-3.388-.71l-.85 1.81c1.34.63 2.809.937 4.29.899l-.052-2zm7.342-2.72a11.533 11.533 0 0 1-7.326 2.72l.02 2a13.534 13.534 0 0 0 8.596-3.193l-1.29-1.528zm-.355-22.02V85.22h2V62.438h-2zm73.459 14.945 18.332-52.53-1.889-.66-18.331 52.53 1.888.66zM218.799 24.87l19.414 52.53 1.876-.694-19.414-52.53-1.876.694zm-22.749.653h23.687v-2H196.05v2zm26.712 66.16-25.778-67.517-1.868.714 25.778 67.516 1.868-.713zm.903 1.203a2.372 2.372 0 0 1-.892-1.174l-1.89.656a4.39 4.39 0 0 0 1.642 2.162l1.14-1.644zm1.303.317a2.587 2.587 0 0 1-1.366-.356l-1.014 1.723a4.58 4.58 0 0 0 2.423.632l-.043-2zm9.445 0h-9.423v2h9.423v-2zm1.318-.309c-.401.21-.848.316-1.301.309l-.034 2a4.708 4.708 0 0 0 2.263-.537l-.928-1.772zm.657-.896a1.604 1.604 0 0 1-.711.927l1.036 1.71a3.607 3.607 0 0 0 1.596-2.08l-1.921-.557zm24.024-67.809-24.006 67.754 1.885.668 24.007-67.754-1.886-.668zm-2.929 1.334h3.872v-2h-3.872v2zM406.81 41.794c-.747-6.445-2.57-11.438-5.579-14.843l-1.499 1.325c2.635 2.98 4.369 7.519 5.091 13.749l1.987-.23zm5.942 52.172-5.942-52.17-1.987.227 5.942 52.17 1.987-.227zm-24.474 1.113h23.481v-2h-23.481v2zm-6.031-50.41 5.036 49.511 1.989-.202-5.036-49.512-1.989.202zm-2.465-7.608c1.149 1.492 2.008 3.986 2.467 7.631l1.985-.25c-.475-3.77-1.394-6.688-2.868-8.602l-1.584 1.22zm-2.212-1.676a5.91 5.91 0 0 1 2.227 1.695l1.554-1.259a7.912 7.912 0 0 0-2.981-2.27l-.8 1.834zm-2.758-.48a5.913 5.913 0 0 1 2.758.48l.8-1.833a7.914 7.914 0 0 0-3.692-.643l.134 1.995zm-4.867 1.17a10.802 10.802 0 0 1 4.807-1.168l-.015-2a12.8 12.8 0 0 0-5.697 1.385l.905 1.783zm-5.14 3.624a21.664 21.664 0 0 1 5.139-3.623l-.903-1.785a23.634 23.634 0 0 0-5.613 3.958l1.377 1.45zm-.904.755.855-.71-1.279-1.539-.855.71 1.279 1.539zm-.008.007.01-.009-1.283-1.534-.01.008 1.283 1.535zm.358 53.587V39.693h-2v54.355h2zm-23.935 1h22.935v-2h-22.935v2zm-1-66.332v65.332h2V28.716h-2zm23.657-7.605-22.935 6.644.556 1.921 22.936-6.643-.557-1.922zm1.278 15.494V22.072h-2v14.533h2zm12.35-11.159a86.5 86.5 0 0 0-14.024 10.42l1.349 1.477a84.443 84.443 0 0 1 13.7-10.179l-1.025-1.718zm11.903-3.622c-3.657 0-7.623 1.234-11.878 3.608l.975 1.747c4.067-2.269 7.694-3.355 10.903-3.355v-2zm12.727 5.127c-3.051-3.453-7.343-5.127-12.727-5.127v2c4.943 0 8.636 1.518 11.228 4.451l1.499-1.324zm-70.832 26.172a32.6 32.6 0 0 0-3.91-16.056l-1.76.95a30.587 30.587 0 0 1 3.67 15.072l2 .034zm-.051 3.582.051-3.585-2-.029-.051 3.585 2 .029zm-47.067.985h46.067v-2h-46.067v2zm7.187 16.385c-3.474-3.943-5.575-9.722-6.19-17.464l-1.994.158c.635 7.997 2.825 14.249 6.684 18.628l1.5-1.322zm16.758 7.19c-6.947 0-12.503-2.405-16.761-7.194l-1.494 1.33c4.667 5.25 10.784 7.864 18.255 7.864v-2zm12.523-3.645a20.78 20.78 0 0 1-12.489 3.646l-.068 1.998a22.78 22.78 0 0 0 13.69-3.996l-1.133-1.648zm4.001-4.3a14.51 14.51 0 0 1-4.013 4.308l1.157 1.632a16.51 16.51 0 0 0 4.566-4.903l-1.71-1.038zm1.971-5.55a14.519 14.519 0 0 1-1.971 5.55l1.71 1.037a16.509 16.509 0 0 0 2.242-6.314l-1.981-.273zm3.359-.863h-2.369v2h2.369v-2zm.996 1.468c.016-.185.016-.37 0-.555l-1.992.174c.006.069.006.138 0 .207l1.992.174zm-4.644 14.456a27.664 27.664 0 0 0 4.648-14.512l-1.999-.062a25.668 25.668 0 0 1-4.312 13.463l1.663 1.111zm-11.719 10.23a30.232 30.232 0 0 0 11.716-10.227l-1.658-1.118a28.232 28.232 0 0 1-10.941 9.55l.883 1.795zm-16.638 3.728a36.22 36.22 0 0 0 16.639-3.729l-.885-1.794a34.218 34.218 0 0 1-15.72 3.523l-.034 2zm-18.616-4.519a37.603 37.603 0 0 0 18.653 4.519l-.04-2a35.601 35.601 0 0 1-17.661-4.278l-.952 1.76zm-12.757-12.754a32.79 32.79 0 0 0 12.748 12.75l.971-1.75a30.786 30.786 0 0 1-11.97-11.97l-1.749.97zm-4.605-18.934a37.8 37.8 0 0 0 4.602 18.928l1.756-.958a35.801 35.801 0 0 1-4.359-17.926l-1.999-.044zm4.511-20.31a43.78 43.78 0 0 0-4.511 20.355l1.999-.045a41.796 41.796 0 0 1 4.305-19.425l-1.793-.885zm12.966-13.64a32.577 32.577 0 0 0-12.962 13.632l1.785.901a30.575 30.575 0 0 1 12.167-12.796l-.99-1.738zm19.799-4.808a39.185 39.185 0 0 0-19.784 4.799l.96 1.754a37.187 37.187 0 0 1 18.775-4.553l.049-2zm17.011 4.065a33.956 33.956 0 0 0-17.063-4.065l.055 2a31.955 31.955 0 0 1 16.058 3.825l.95-1.76zm11.102 11.172a28.538 28.538 0 0 0-11.089-11.165l-.976 1.746a26.526 26.526 0 0 1 10.312 10.382l1.753-.963zm-19.878 15.745h-23.44v2h23.44v-2zm-.959-.978-.041 1.957 2 .042.041-1.957-2-.042zm-3.169-19.163c2.065 3.896 3.162 10.242 3.169 19.185l2-.002c-.007-9.02-1.099-15.775-3.401-20.12l-1.768.937zm-7.026-5.648c2.55 0 4.919 1.672 7.026 5.648l1.768-.936c-2.26-4.264-5.164-6.712-8.794-6.712v2zm-3.047.618a7.894 7.894 0 0 1 3.049-.618l-.003-2a9.889 9.889 0 0 0-3.822.775l.776 1.843zm-2.572 1.75a7.887 7.887 0 0 1 2.572-1.75l-.776-1.843a9.889 9.889 0 0 0-3.225 2.193l1.429 1.4zm-4.119 7.81c1.025-3.636 2.413-6.192 4.093-7.785l-1.377-1.451c-2.041 1.936-3.564 4.874-4.641 8.694l1.925.543zm-1.548 14.268c-.124-4.814.4-9.623 1.557-14.298l-1.942-.48a55.78 55.78 0 0 0-1.615 14.83l2-.052zm0 2.343V51.49h-2v2.317h2z" mask="url(#f)"/><path fill="url(#g)" d="M2 94.048H1v1h1v-1zm0-65.343-.28-.96-.72.21v.75h1zm22.936 65.343v1h1v-1h-1zm0-54.363-.678-.736-.322.297v.439h1zm.772-.71.677.735.012-.011.012-.012-.701-.713zm5.757-3.905-.381-.924-.011.004-.011.005.403.915zm6.066-1.194-.002 1h.02l.019-.001-.037-1zm3.994.733-.39.921.39-.92zm3.308 2.357.749-.663-.006-.007-.743.67zm2.74 57.175h-1v1h1v-1zm22.708 0v1h1v-1h-1zm0-51.15-1-.002v.002h1zm-.185-3.75-.76-.65-.279.326.044.426.995-.101zm.494-.576-.706-.708-.028.028-.025.03.759.65zm4.748-3.553-.472-.882-.008.005.48.877zm4.902-1.236.002 1h.022l.021-.002-.045-.998zm3.737.729.418-.91-.418.91zm2.988 2.36.79-.612-.002-.004-.788.617zm3.007 8.766.995-.106v-.002l-.995.108zm5.15 48.41-.995.106.096.894h.899v-1zm23.461 0v1h1.125l-.132-1.118-.993.118zm-6.056-51.078-.994.111.001.007.993-.118zm-6.056-15.254.711-.704h-.001l-.71.704zm-5.757-3.803-.369.93.369-.93zm-6.797-1.182.015 1h.019l-.034-1zm-12.163 3.44-.511-.86-.007.004.518.856zM69.632 36.389l-.984.178.368 2.03 1.366-1.546-.75-.662zm-4.377-8.58.722-.692-.008-.009-.009-.008-.705.709zm-13.048-4.985v-1h-.033l.033 1zM39.58 26.037l.424.906.013-.006.013-.006-.45-.894zM24.936 36.626h-1v2.301l1.682-1.57-.682-.731zm0-14.626h1v-1.334l-1.281.374.28.96zm158.807 6.355-.633.774.002.002.631-.776zm-20.598-5.603v1h.001l-.001-1zm27.509 21.32h1v-.002l-1 .003zm0 50.275.342.94.658-.24v-.7h-1zm-7.879 1.277.028-1h-.029l.001 1zm-10.505-2.667.619-.786-.015-.012-.016-.011-.588.809zm-2.289-2.545.866-.5-.866.5zm-1.047-3.16.993-.116-.257-2.19-1.478 1.636.742.67zm-7.529 5.509-.415-.91-.01.004.425.906zm-13.388 2.935.006-1h-.006v1zm-14.913-4.79.637-.77-.009-.007-.009-.007-.619.785zm-4.34-5.462.904-.426-.904.426zm-1.448-6.825 1 .022v-.044l-1 .022zm1.943-8.205-.884-.469.884.469zm5.699-6.215.543.84.016-.01.016-.012-.575-.818zm23.872-5.377v1h.024l-.024-1zm7.374.855.302-.953-.025-.008-.025-.007-.252.968zm1.432.453-.302.954 1.302.412V60.13h-1zm0-25.41-.999-.058-.001.03v.028h1zm-2.06-6.983.807-.59-.014-.02-.015-.018-.778.628zm-2.551-1.967-.409.912.409-.912zm-3.165-.598-.064.998.057.004.056-.003-.049-.999zm-5.994 2.06-.664-.748-.009.009-.009.008.682.731zm-1.532 2.179.919.395-.919-.395zm-.528 2.61h1.001l-.001-.006-1 .007zm0 7.108h-1v.009l.001.01.999-.02zm-.831 4.183-.917-.399.917.4zm-2.495 3.46.666.745.002-.001-.668-.745zm-8.651 3.09.043-1-.045-.002-.044.002.046 1zm-6.313-2.195-.686.728.015.014.015.013.656-.755zm1.236-14.955-.764-.646-.001.002.765.644zm10.7-7.107.373.928-.373-.928zm20.443 36.287.25-.969-.006-.001-.244.97zm1.741.546h1v-.696l-.653-.242-.347.938zm-6.952-1.164-.048.999.029.001h.029l-.01-1zm-4.35.851-.421-.907.421.907zm-3.456 2.774.79.613.004-.005-.794-.608zm-.114 20.034.786-.619-.007-.008-.006-.008-.773.635zm3.072 2.44.425-.905-.425.905zm3.839.804-.01-1h-.016l.026 1zm7.961-2.956.645.764.355-.3v-.464h-1zm71.515-8.168-.938.347.965 2.61.917-2.627-.944-.33zm18.332-52.53v-1h-.711l-.234.67.945.33zm-37.746 0 .938-.346-.241-.654h-.697v1zm-23.687 0v-1h-1.452l.518 1.357.934-.357zm25.778 67.517.945-.328-.005-.015-.006-.014-.934.357zm1.267 1.668-.57.822.031.021.032.02.507-.863zm1.895.495v-1h-.022l.022 1zm9.423 0 .017-1h-.017v1zm1.782-.423.464.886.027-.014.027-.016-.518-.856zm1.153-1.503-.942-.334-.01.027-.008.028.96.279zm24.007-67.754.943.334.472-1.334h-1.415v1zM405.816 41.91l.994-.113v-.002l-.994.115zm-5.334-14.297-.75.663.75-.663zm11.277 66.466v1h1.12l-.127-1.113-.993.113zm-23.481 0-.995.101.091.9h.904v-1zm-5.037-49.512.995-.101-.001-.012-.001-.012-.993.125zm-2.667-8.116.792-.61-.007-.01-.008-.01-.777.63zm-2.604-1.983-.4.917.4-.917zm-3.225-.561.007 1h.03l.03-.003-.067-.997zm-5.252 1.277.451.892h.001l-.452-.892zm-5.376 3.79.639.77.025-.022.024-.023-.688-.725zm-.855.71-.64-.768-.002.002.642.767zm-.011.01-.641-.768-.359.3v.467h1zm0 54.354v1h1v-1h-1zm-22.935 0h-1v1h1v-1zm0-65.332-.278-.961-.722.21v.75h1zm22.935-6.644h1v-1.33l-1.278.37.278.96zm0 14.533h-1v2.268l1.675-1.53-.675-.738zm13.863-10.3-.488-.873-.012.007-.013.007.513.86zm-47.715 26.8-1-.016v.002l1 .015zm-3.79-15.563.88-.475-.003-.006-.877.481zm3.739 19.148v1h.985l.015-.985-1-.015zm-46.067 0v-1h-1.082l.085 1.08.997-.08zm6.437 18.046-.75.66.003.004.747-.664zm17.508 7.53.034-1h-.034v1zm13.09-3.822.566.824.006-.004.006-.004-.578-.816zm6.395-10.537v-1h-.871l-.119.863.99.137zm2.369 0 .996-.087-.08-.913h-.916v1zm0 .381-.996-.087-.003.028v.028l.999.031zm-4.48 13.987.829.56.003-.004-.832-.556zm-11.329 9.888-.441-.897h-.001l.442.897zm-16.179 3.626.017-1h-.037l.02 1zm-18.157-4.398-.485.874.009.005.476-.88zm-12.358-12.36-.878.478.003.007.875-.485zm-4.48-18.427.999.022.001-.022-.001-.022-.999.022zm4.407-19.89-.892-.45-.004.008.896.443zM279.069 27.5l-.48-.877-.007.004-.008.004.495.869zm19.279-4.676-.024 1h.052l-.028-1zm16.561 3.945.488-.873-.007-.004-.006-.003-.475.88zm-8.301 27.037v1h.979l.021-.979-1-.02zm-23.44 0h-1v1h1v-1zm23.481-1.957 1 .021v-.02h-1zm-3.285-19.652.884-.468-.884.468zm-7.91-6.18v-1h-.001l.001 1zm-3.435.697-.388-.922.388.922zm-2.898 1.97.688.726.013-.012.013-.014-.714-.7zm-4.367 8.24-.963-.27-.004.015-.004.015.971.24zm-1.586 14.565h1v-.026l-1 .026zM3 94.049V28.704H1v65.343h2zm21.936-1H2v2h22.936v-2zm-1-53.364v54.363h2V39.685h-2zm1.095-1.447-.773.71 1.355 1.473.772-.711-1.354-1.472zm6.03-4.083a20.332 20.332 0 0 0-6.054 4.106l1.402 1.426a18.331 18.331 0 0 1 5.459-3.701l-.806-1.83zm6.472-1.28a16.847 16.847 0 0 0-6.45 1.27l.763 1.85a14.848 14.848 0 0 1 5.683-1.12l.004-2zm4.382.813a10.359 10.359 0 0 0-4.421-.812l.074 1.999a8.363 8.363 0 0 1 3.567.655l.78-1.842zm3.66 2.608a10.36 10.36 0 0 0-3.66-2.608l-.78 1.842a8.362 8.362 0 0 1 2.955 2.105l1.486-1.339zm2.997 9.435c0-3.966-.955-7.128-2.99-9.428l-1.498 1.325c1.61 1.82 2.488 4.447 2.488 8.103h2zm0 48.41V45.73h-2v48.41h2zm21.71-1h-22.71v2h22.71v-2zm-1-50.15v51.15h2V42.99h-2zm-.181-3.648c.123 1.211.183 2.428.18 3.645l2 .006a37.137 37.137 0 0 0-.19-3.853l-1.99.202zm.73-1.329-.495.577 1.519 1.302.494-.577-1.518-1.302zm5.026-3.78c-1.825 1-3.5 2.253-4.973 3.723l1.412 1.416a20.019 20.019 0 0 1 4.522-3.384l-.96-1.755zm5.38-1.358a11.43 11.43 0 0 0-5.371 1.354l.944 1.763a9.431 9.431 0 0 1 4.432-1.117l-.004-2zm4.158.82a9.073 9.073 0 0 0-4.2-.82l.09 1.998a7.073 7.073 0 0 1 3.275.64l.835-1.818zm3.358 2.653a9.075 9.075 0 0 0-3.358-2.653l-.835 1.817a7.073 7.073 0 0 1 2.618 2.069l1.575-1.233zm3.214 9.274c-.424-3.916-1.461-7.011-3.211-9.27l-1.581 1.225c1.442 1.862 2.403 4.554 2.803 8.26l1.989-.215zm5.15 48.412-5.15-48.41-1.989.212 5.15 48.41 1.988-.212zm22.466-.894H95.122v2h23.461v-2zm-7.049-49.96 6.055 51.078 1.987-.236-6.056-51.078-1.986.236zm-5.774-14.669c3.049 3.082 5.017 7.915 5.773 14.663l1.988-.223c-.783-6.986-2.852-12.322-6.339-15.846l-1.422 1.406zm-5.415-3.576a15.89 15.89 0 0 1 5.416 3.577l1.42-1.408a17.892 17.892 0 0 0-6.098-4.028l-.738 1.859zm-6.395-1.113a15.89 15.89 0 0 1 6.395 1.113l.738-1.859a17.89 17.89 0 0 0-7.2-1.253l.067 2zm-11.685 3.3a23.5 23.5 0 0 1 11.667-3.3l-.03-2a25.512 25.512 0 0 0-12.66 3.581l1.023 1.72zm-11.883 9.928a51.308 51.308 0 0 1 11.89-9.932l-1.036-1.71a53.31 53.31 0 0 0-12.353 10.318l1.499 1.324zm-5.849-8.55a15.686 15.686 0 0 1 4.115 8.066l1.968-.356a17.687 17.687 0 0 0-4.639-9.094L64.533 28.5zm-12.326-4.677c5.13 0 9.213 1.583 12.343 4.694l1.41-1.418c-3.557-3.536-8.173-5.276-13.753-5.276v2zM40.03 26.93a29.275 29.275 0 0 1 12.209-3.108l-.065-1.999a31.276 31.276 0 0 0-13.043 3.32l.899 1.787zM25.618 37.357c5.313-4.96 10.108-8.415 14.386-10.414l-.847-1.812c-4.538 2.121-9.507 5.726-14.904 10.764l1.365 1.462zM23.936 22v14.626h2V22h-2zM2.28 29.665l22.935-6.705-.561-1.92-22.936 6.706.562 1.92zm182.095-2.084c-4.833-3.95-11.968-5.836-21.231-5.83l.001 2c9.042-.006 15.638 1.843 19.964 5.378l1.266-1.548zm7.278 16.489c-.022-7.002-2.426-12.545-7.28-16.491l-1.262 1.552c4.319 3.511 6.522 8.447 6.542 14.945l2-.006zm0 50.277V44.073h-2v50.274h2zm-8.907 2.277a22.333 22.333 0 0 0 8.249-1.337l-.684-1.88a20.327 20.327 0 0 1-7.509 1.218l-.056 1.999zm-11.096-2.882c2.525 1.99 6.296 2.89 11.125 2.882l-.002-2c-4.646.007-7.878-.871-9.885-2.453l-1.238 1.571zm-2.536-2.83a9.244 9.244 0 0 0 2.567 2.853l1.176-1.617a7.25 7.25 0 0 1-2.011-2.236l-1.732 1zm-1.175-3.543a9.248 9.248 0 0 0 1.175 3.543l1.732-1a7.257 7.257 0 0 1-.92-2.776l-1.987.233zm-6.12 6.302a24.03 24.03 0 0 0 7.855-5.748l-1.483-1.341a22.029 22.029 0 0 1-7.202 5.269l.83 1.82zm-13.81 3.025a32.043 32.043 0 0 0 13.819-3.03l-.849-1.81a30.045 30.045 0 0 1-12.957 2.84l-.013 2zm-15.543-5.018c4.08 3.37 9.292 5.018 15.55 5.018v-2c-5.895 0-10.626-1.545-14.276-4.56l-1.274 1.542zm-4.608-5.808a16.225 16.225 0 0 0 4.625 5.822l1.239-1.57a14.236 14.236 0 0 1-4.055-5.104l-1.809.852zm-1.543-7.273a16.226 16.226 0 0 0 1.543 7.273l1.809-.852a14.227 14.227 0 0 1-1.352-6.377l-2-.044zm2.059-8.652a17.74 17.74 0 0 0-2.059 8.696l2-.044a15.723 15.723 0 0 1 1.827-7.715l-1.768-.937zm6.04-6.586a17.727 17.727 0 0 0-6.04 6.586l1.768.937a15.717 15.717 0 0 1 5.358-5.843l-1.086-1.68zm24.415-5.537c-10.885 0-19.094 1.797-24.447 5.559l1.15 1.636c4.849-3.407 12.555-5.195 23.297-5.195v-2zm7.626.887a27.772 27.772 0 0 0-7.649-.886l.047 2c2.393-.058 4.782.22 7.098.822l.504-1.936zm1.482.468-1.432-.453-.604 1.907 1.432.453.604-1.907zm-1.302-24.457v25.41h2V34.72h-2zm-1.867-6.392a9.76 9.76 0 0 1 1.868 6.334l1.997.117a11.764 11.764 0 0 0-2.251-7.633l-1.614 1.182zm-2.153-1.646a5.91 5.91 0 0 1 2.182 1.683l1.556-1.256a7.905 7.905 0 0 0-2.919-2.252l-.819 1.825zm-2.707-.51a5.91 5.91 0 0 1 2.707.51l.819-1.825a7.912 7.912 0 0 0-3.624-.683l.098 1.997zm-2.927.377a7.24 7.24 0 0 1 2.814-.379l.128-1.996a9.24 9.24 0 0 0-3.592.483l.65 1.892zm-2.452 1.431a7.236 7.236 0 0 1 2.452-1.431l-.65-1.892a9.253 9.253 0 0 0-3.13 1.827l1.328 1.496zm-1.277 1.826a5.49 5.49 0 0 1 1.296-1.843l-1.365-1.462a7.485 7.485 0 0 0-1.768 2.515l1.837.79zm-.447 2.209a5.496 5.496 0 0 1 .447-2.209l-1.837-.79a7.467 7.467 0 0 0-.609 3.013l1.999-.014zm0 7.114v-7.107h-2v7.107h2zm-.914 4.582c.632-1.45.943-3.02.914-4.6l-1.999.036a9.03 9.03 0 0 1-.749 3.766l1.834.798zm-2.744 3.805a11.02 11.02 0 0 0 2.744-3.805l-1.834-.798a9.005 9.005 0 0 1-2.246 3.114l1.336 1.489zm-9.362 3.344a13.193 13.193 0 0 0 9.36-3.343l-1.332-1.491a11.195 11.195 0 0 1-7.942 2.836l-.086 1.998zm-6.926-2.438a9.989 9.989 0 0 0 7.015 2.438l-.092-1.998a7.989 7.989 0 0 1-5.611-1.95l-1.312 1.51zm-2.692-7.213c0 3.014.838 5.466 2.662 7.186l1.372-1.455c-1.308-1.233-2.034-3.086-2.034-5.73h-2zm3.819-9.142c-2.493 2.96-3.819 6.013-3.819 9.142h2c0-2.528 1.063-5.14 3.348-7.853l-1.529-1.288zm11.093-7.39c-4.836 1.941-8.559 4.39-11.092 7.39l1.527 1.29c2.259-2.673 5.67-4.961 10.31-6.824l-.745-1.856zm18.065-2.925c-7.14 0-13.174.96-18.065 2.925l.745 1.856c4.583-1.84 10.345-2.781 17.32-2.781v-2zm2.5 41.108c.556.144 1.105.316 1.643.515l.695-1.875a18.833 18.833 0 0 0-1.838-.576l-.5 1.936zm-4.951-.586a19.597 19.597 0 0 1 4.958.588l.487-1.94a21.603 21.603 0 0 0-5.465-.648l.02 2zm-3.938.758a8.267 8.267 0 0 1 3.88-.76l.096-1.997a10.27 10.27 0 0 0-4.819.943l.843 1.814zm-3.084 2.475a8.27 8.27 0 0 1 3.084-2.475l-.843-1.814c-1.506.7-2.82 1.755-3.83 3.074l1.589 1.215zm-2.575 9.692c0-4.357.905-7.539 2.571-9.687l-1.581-1.226c-2.041 2.632-2.99 6.317-2.99 10.913h2zm2.44 9.099c-1.57-1.91-2.44-4.884-2.44-9.099h-2c0 4.438.908 7.952 2.895 10.369l1.545-1.27zm2.724 2.17a7.518 7.518 0 0 1-2.711-2.154l-1.571 1.238a9.511 9.511 0 0 0 3.432 2.726l.85-1.81zm3.388.71a7.515 7.515 0 0 1-3.388-.71l-.85 1.81c1.34.63 2.809.937 4.29.899l-.052-2zm7.342-2.72a11.533 11.533 0 0 1-7.326 2.72l.02 2a13.534 13.534 0 0 0 8.596-3.193l-1.29-1.528zm-.355-22.02V85.22h2V62.438h-2zm73.459 14.945 18.332-52.53-1.889-.66-18.331 52.53 1.888.66zM218.799 24.87l19.414 52.53 1.876-.694-19.414-52.53-1.876.694zm-22.749.653h23.687v-2H196.05v2zm26.712 66.16-25.778-67.517-1.868.714 25.778 67.516 1.868-.713zm.903 1.203a2.372 2.372 0 0 1-.892-1.174l-1.89.656a4.39 4.39 0 0 0 1.642 2.162l1.14-1.644zm1.303.317a2.587 2.587 0 0 1-1.366-.356l-1.014 1.723a4.58 4.58 0 0 0 2.423.632l-.043-2zm9.445 0h-9.423v2h9.423v-2zm1.318-.309c-.401.21-.848.316-1.301.309l-.034 2a4.708 4.708 0 0 0 2.263-.537l-.928-1.772zm.657-.896a1.604 1.604 0 0 1-.711.927l1.036 1.71a3.607 3.607 0 0 0 1.596-2.08l-1.921-.557zm24.024-67.809-24.006 67.754 1.885.668 24.007-67.754-1.886-.668zm-2.929 1.334h3.872v-2h-3.872v2zM406.81 41.794c-.747-6.445-2.57-11.438-5.579-14.843l-1.499 1.325c2.635 2.98 4.369 7.519 5.091 13.749l1.987-.23zm5.942 52.172-5.942-52.17-1.987.227 5.942 52.17 1.987-.227zm-24.474 1.113h23.481v-2h-23.481v2zm-6.031-50.41 5.036 49.511 1.989-.202-5.036-49.512-1.989.202zm-2.465-7.608c1.149 1.492 2.008 3.986 2.467 7.631l1.985-.25c-.475-3.77-1.394-6.688-2.868-8.602l-1.584 1.22zm-2.212-1.676a5.91 5.91 0 0 1 2.227 1.695l1.554-1.259a7.912 7.912 0 0 0-2.981-2.27l-.8 1.834zm-2.758-.48a5.913 5.913 0 0 1 2.758.48l.8-1.833a7.914 7.914 0 0 0-3.692-.643l.134 1.995zm-4.867 1.17a10.802 10.802 0 0 1 4.807-1.168l-.015-2a12.8 12.8 0 0 0-5.697 1.385l.905 1.783zm-5.14 3.624a21.664 21.664 0 0 1 5.139-3.623l-.903-1.785a23.634 23.634 0 0 0-5.613 3.958l1.377 1.45zm-.904.755.855-.71-1.279-1.539-.855.71 1.279 1.539zm-.008.007.01-.009-1.283-1.534-.01.008 1.283 1.535zm.358 53.587V39.693h-2v54.355h2zm-23.935 1h22.935v-2h-22.935v2zm-1-66.332v65.332h2V28.716h-2zm23.657-7.605-22.935 6.644.556 1.921 22.936-6.643-.557-1.922zm1.278 15.494V22.072h-2v14.533h2zm12.35-11.159a86.5 86.5 0 0 0-14.024 10.42l1.349 1.477a84.443 84.443 0 0 1 13.7-10.179l-1.025-1.718zm11.903-3.622c-3.657 0-7.623 1.234-11.878 3.608l.975 1.747c4.067-2.269 7.694-3.355 10.903-3.355v-2zm12.727 5.127c-3.051-3.453-7.343-5.127-12.727-5.127v2c4.943 0 8.636 1.518 11.228 4.451l1.499-1.324zm-70.832 26.172a32.6 32.6 0 0 0-3.91-16.056l-1.76.95a30.587 30.587 0 0 1 3.67 15.072l2 .034zm-.051 3.582.051-3.585-2-.029-.051 3.585 2 .029zm-47.067.985h46.067v-2h-46.067v2zm7.187 16.385c-3.474-3.943-5.575-9.722-6.19-17.464l-1.994.158c.635 7.997 2.825 14.249 6.684 18.628l1.5-1.322zm16.758 7.19c-6.947 0-12.503-2.405-16.761-7.194l-1.494 1.33c4.667 5.25 10.784 7.864 18.255 7.864v-2zm12.523-3.645a20.78 20.78 0 0 1-12.489 3.646l-.068 1.998a22.78 22.78 0 0 0 13.69-3.996l-1.133-1.648zm4.001-4.3a14.51 14.51 0 0 1-4.013 4.308l1.157 1.632a16.51 16.51 0 0 0 4.566-4.903l-1.71-1.038zm1.971-5.55a14.519 14.519 0 0 1-1.971 5.55l1.71 1.037a16.509 16.509 0 0 0 2.242-6.314l-1.981-.273zm3.359-.863h-2.369v2h2.369v-2zm.996 1.468c.016-.185.016-.37 0-.555l-1.992.174c.006.069.006.138 0 .207l1.992.174zm-4.644 14.456a27.664 27.664 0 0 0 4.648-14.512l-1.999-.062a25.668 25.668 0 0 1-4.312 13.463l1.663 1.111zm-11.719 10.23a30.232 30.232 0 0 0 11.716-10.227l-1.658-1.118a28.232 28.232 0 0 1-10.941 9.55l.883 1.795zm-16.638 3.728a36.22 36.22 0 0 0 16.639-3.729l-.885-1.794a34.218 34.218 0 0 1-15.72 3.523l-.034 2zm-18.616-4.519a37.603 37.603 0 0 0 18.653 4.519l-.04-2a35.601 35.601 0 0 1-17.661-4.278l-.952 1.76zm-12.757-12.754a32.79 32.79 0 0 0 12.748 12.75l.971-1.75a30.786 30.786 0 0 1-11.97-11.97l-1.749.97zm-4.605-18.934a37.8 37.8 0 0 0 4.602 18.928l1.756-.958a35.801 35.801 0 0 1-4.359-17.926l-1.999-.044zm4.511-20.31a43.78 43.78 0 0 0-4.511 20.355l1.999-.045a41.796 41.796 0 0 1 4.305-19.425l-1.793-.885zm12.966-13.64a32.577 32.577 0 0 0-12.962 13.632l1.785.901a30.575 30.575 0 0 1 12.167-12.796l-.99-1.738zm19.799-4.808a39.185 39.185 0 0 0-19.784 4.799l.96 1.754a37.187 37.187 0 0 1 18.775-4.553l.049-2zm17.011 4.065a33.956 33.956 0 0 0-17.063-4.065l.055 2a31.955 31.955 0 0 1 16.058 3.825l.95-1.76zm11.102 11.172a28.538 28.538 0 0 0-11.089-11.165l-.976 1.746a26.526 26.526 0 0 1 10.312 10.382l1.753-.963zm-19.878 15.745h-23.44v2h23.44v-2zm-.959-.978-.041 1.957 2 .042.041-1.957-2-.042zm-3.169-19.163c2.065 3.896 3.162 10.242 3.169 19.185l2-.002c-.007-9.02-1.099-15.775-3.401-20.12l-1.768.937zm-7.026-5.648c2.55 0 4.919 1.672 7.026 5.648l1.768-.936c-2.26-4.264-5.164-6.712-8.794-6.712v2zm-3.047.618a7.894 7.894 0 0 1 3.049-.618l-.003-2a9.889 9.889 0 0 0-3.822.775l.776 1.843zm-2.572 1.75a7.887 7.887 0 0 1 2.572-1.75l-.776-1.843a9.889 9.889 0 0 0-3.225 2.193l1.429 1.4zm-4.119 7.81c1.025-3.636 2.413-6.192 4.093-7.785l-1.377-1.451c-2.041 1.936-3.564 4.874-4.641 8.694l1.925.543zm-1.548 14.268c-.124-4.814.4-9.623 1.557-14.298l-1.942-.48a55.78 55.78 0 0 0-1.615 14.83l2-.052zm0 2.343V51.49h-2v2.317h2z" mask="url(#f)"/><defs><linearGradient id="b" x1="206.879" x2="206.879" y1="22" y2="95.797" gradientUnits="userSpaceOnUse"><stop stop-opacity="0"/><stop offset="1" stop-opacity=".2"/></linearGradient><linearGradient id="c" x1="206.879" x2="206.879" y1="22" y2="95.797" gradientUnits="userSpaceOnUse"><stop stop-color="#fff" stop-opacity=".03"/><stop offset=".86" stop-color="#fff" stop-opacity="0"/></linearGradient><linearGradient id="d" x1="1.961" x2="137.978" y1="22" y2="96.908" gradientUnits="userSpaceOnUse"><stop stop-color="#FFFBD8" stop-opacity=".08"/><stop offset="1" stop-color="#FFFBD8" stop-opacity="0"/></linearGradient><linearGradient id="e" x1="84.592" x2="357.864" y1="16.874" y2="128.539" gradientUnits="userSpaceOnUse"><stop stop-color="#FFFAC4" stop-opacity=".3"/><stop offset="1" stop-opacity="0"/></linearGradient><linearGradient id="g" x1="1.961" x2="411.637" y1="59.165" y2="59.165" gradientUnits="userSpaceOnUse"><stop stop-color="#091314" stop-opacity="0"/><stop offset="1" stop-color="#091314" stop-opacity=".3"/></linearGradient><filter id="a" width="411.879" height="77.131" x="1" y="20.666" color-interpolation-filters="sRGB" filterUnits="userSpaceOnUse"><feFlood flood-opacity="0" result="BackgroundImageFix"/><feBlend in="SourceGraphic" in2="BackgroundImageFix" result="shape"/><feColorMatrix in="SourceAlpha" result="hardAlpha" values="0 0 0 0 0 0 0 0 0 0 0 0 0 0 0 0 0 0 127 0"/><feOffset dy="1"/><feGaussianBlur stdDeviation="1"/><feComposite in2="hardAlpha" k2="-1" k3="1" operator="arithmetic"/><feColorMatrix values="0 0 0 0 0 0 0 0 0 0 0 0 0 0 0 0 0 0 0.5 0"/><feBlend in2="shape" result="effect1_innerShadow_376_26975"/><feColorMatrix in="SourceAlpha" result="hardAlpha" values="0 0 0 0 0 0 0 0 0 0 0 0 0 0 0 0 0 0 127 0"/><feOffset dy="1"/><feGaussianBlur stdDeviation="3"/><feComposite in2="hardAlpha" k2="-1" k3="1" operator="arithmetic"/><feColorMatrix values="0 0 0 0 0 0 0 0 0 0 0 0 0 0 0 0 0 0 0.3 0"/><feBlend in2="effect1_innerShadow_376_26975" result="effect2_innerShadow_376_26975"/></filter></defs></svg>