<svg xmlns="http://www.w3.org/2000/svg" width="481" height="121" fill="none"><mask id="f" width="457" height="119" x="0" y="0" fill="#000" maskUnits="userSpaceOnUse"><path fill="#fff" d="M0 0h457v119H0z"/><path fill-rule="evenodd" d="M52.486 39.39h51.486V1H2.03v.392l50.456 37.997H1v38.389h1.03l50.456 38.389V77.778h50.456v-.392L52.486 39.39zm105.506 37.605V56.233h30.377V46.44h-30.377V32.338h32.951V22.153h-47.882v54.842h14.931zm65.387-40.348c2.574 0 4.634.392 5.663.783h-.514v10.968c-2.06-.783-4.634-1.175-7.208-1.175-4.634 0-8.753 1.959-9.783 5.485v24.678h-14.416V37.43h14.416v3.917c2.575-2.742 6.693-4.7 11.842-4.7zm54.06 40.739V51.924c0-9.402-8.238-15.277-22.139-15.277-11.842 0-20.594 5.484-22.139 12.926h13.901c1.03-2.35 3.604-3.917 7.723-3.917 5.664 0 8.753 2.742 8.753 6.268v2.742c-2.06-1.175-7.208-2.35-11.842-2.35-11.327 0-20.079 5.092-20.079 12.927 0 8.226 8.752 12.926 19.564 12.926 5.664 0 10.812-1.566 12.872-2.742v1.959h13.386zm-13.901-10.968c-1.545 1.958-5.149 3.525-9.268 3.525-4.633 0-9.267-1.567-9.267-5.092 0-3.526 4.634-5.093 9.267-5.093 4.119 0 8.238 1.175 9.268 3.526v3.134zm51.486-29.771c6.178 0 10.812 1.958 13.901 5.092 3.604-2.742 8.752-5.092 15.446-5.092 10.812 0 17.505 5.876 17.505 14.885v26.246H347.46V53.883c0-4.31-2.575-7.051-7.723-7.051-4.119 0-7.208 1.566-8.238 5.092v25.854h-14.416V53.883c0-4.31-2.059-7.051-7.208-7.051-3.604 0-7.208 1.566-8.238 5.092v25.854h-14.416V37.822h14.416v3.134c2.575-2.742 7.723-4.31 13.387-4.31zm88.555 27.812c-1.029 3.525-4.633 5.092-9.782 5.092-6.693 0-10.812-3.525-11.327-9.401h35.011v-3.526c0-11.751-8.238-19.977-23.684-19.977-14.416 0-25.228 9.01-25.228 20.76 0 12.144 10.297 20.762 25.228 20.762 13.386 0 21.109-5.484 23.169-14.102h-13.387v.392zm-9.782-18.803c6.178 0 9.268 3.134 9.268 7.443h-20.08c1.545-4.7 5.149-7.443 10.812-7.443zm56.634-9.01c2.575 0 4.634.392 5.664.784h-.515v10.968c-2.06-.783-4.634-1.175-7.208-1.175-4.634 0-8.753 1.959-9.782 5.485v24.678h-14.416V37.43h14.416v3.917c2.574-2.742 6.693-4.7 11.841-4.7z" clip-rule="evenodd"/></mask><g fill-rule="evenodd" clip-rule="evenodd" filter="url(#a)"><path fill="#091314" d="M52.486 39.39h51.486V1H2.03v.392l50.456 37.997H1v38.389h1.03l50.456 38.389V77.778h50.456v-.392L52.486 39.39zm105.506 37.605V56.233h30.377V46.44h-30.377V32.338h32.951V22.153h-47.882v54.842h14.931zm65.387-40.348c2.574 0 4.634.392 5.663.783h-.514v10.968c-2.06-.783-4.634-1.175-7.208-1.175-4.634 0-8.753 1.959-9.783 5.485v24.678h-14.416V37.43h14.416v3.917c2.575-2.742 6.693-4.7 11.842-4.7zm54.06 40.739V51.924c0-9.402-8.238-15.277-22.139-15.277-11.842 0-20.594 5.484-22.139 12.926h13.901c1.03-2.35 3.604-3.917 7.723-3.917 5.664 0 8.753 2.742 8.753 6.268v2.742c-2.06-1.175-7.208-2.35-11.842-2.35-11.327 0-20.079 5.092-20.079 12.927 0 8.226 8.752 12.926 19.564 12.926 5.664 0 10.812-1.566 12.872-2.742v1.959h13.386zm-13.901-10.968c-1.545 1.958-5.149 3.525-9.268 3.525-4.633 0-9.267-1.567-9.267-5.092 0-3.526 4.634-5.093 9.267-5.093 4.119 0 8.238 1.175 9.268 3.526v3.134zm51.486-29.771c6.178 0 10.812 1.958 13.901 5.092 3.604-2.742 8.752-5.092 15.446-5.092 10.812 0 17.505 5.876 17.505 14.885v26.246H347.46V53.883c0-4.31-2.575-7.051-7.723-7.051-4.119 0-7.208 1.566-8.238 5.092v25.854h-14.416V53.883c0-4.31-2.059-7.051-7.208-7.051-3.604 0-7.208 1.566-8.238 5.092v25.854h-14.416V37.822h14.416v3.134c2.575-2.742 7.723-4.31 13.387-4.31zm88.555 27.812c-1.029 3.525-4.633 5.092-9.782 5.092-6.693 0-10.812-3.525-11.327-9.401h35.011v-3.526c0-11.751-8.238-19.977-23.684-19.977-14.416 0-25.228 9.01-25.228 20.76 0 12.144 10.297 20.762 25.228 20.762 13.386 0 21.109-5.484 23.169-14.102h-13.387v.392zm-9.782-18.803c6.178 0 9.268 3.134 9.268 7.443h-20.08c1.545-4.7 5.149-7.443 10.812-7.443zm56.634-9.01c2.575 0 4.634.392 5.664.784h-.515v10.968c-2.06-.783-4.634-1.175-7.208-1.175-4.634 0-8.753 1.959-9.782 5.485v24.678h-14.416V37.43h14.416v3.917c2.574-2.742 6.693-4.7 11.841-4.7z"/><path fill="url(#b)" d="M52.486 39.39h51.486V1H2.03v.392l50.456 37.997H1v38.389h1.03l50.456 38.389V77.778h50.456v-.392L52.486 39.39zm105.506 37.605V56.233h30.377V46.44h-30.377V32.338h32.951V22.153h-47.882v54.842h14.931zm65.387-40.348c2.574 0 4.634.392 5.663.783h-.514v10.968c-2.06-.783-4.634-1.175-7.208-1.175-4.634 0-8.753 1.959-9.783 5.485v24.678h-14.416V37.43h14.416v3.917c2.575-2.742 6.693-4.7 11.842-4.7zm54.06 40.739V51.924c0-9.402-8.238-15.277-22.139-15.277-11.842 0-20.594 5.484-22.139 12.926h13.901c1.03-2.35 3.604-3.917 7.723-3.917 5.664 0 8.753 2.742 8.753 6.268v2.742c-2.06-1.175-7.208-2.35-11.842-2.35-11.327 0-20.079 5.092-20.079 12.927 0 8.226 8.752 12.926 19.564 12.926 5.664 0 10.812-1.566 12.872-2.742v1.959h13.386zm-13.901-10.968c-1.545 1.958-5.149 3.525-9.268 3.525-4.633 0-9.267-1.567-9.267-5.092 0-3.526 4.634-5.093 9.267-5.093 4.119 0 8.238 1.175 9.268 3.526v3.134zm51.486-29.771c6.178 0 10.812 1.958 13.901 5.092 3.604-2.742 8.752-5.092 15.446-5.092 10.812 0 17.505 5.876 17.505 14.885v26.246H347.46V53.883c0-4.31-2.575-7.051-7.723-7.051-4.119 0-7.208 1.566-8.238 5.092v25.854h-14.416V53.883c0-4.31-2.059-7.051-7.208-7.051-3.604 0-7.208 1.566-8.238 5.092v25.854h-14.416V37.822h14.416v3.134c2.575-2.742 7.723-4.31 13.387-4.31zm88.555 27.812c-1.029 3.525-4.633 5.092-9.782 5.092-6.693 0-10.812-3.525-11.327-9.401h35.011v-3.526c0-11.751-8.238-19.977-23.684-19.977-14.416 0-25.228 9.01-25.228 20.76 0 12.144 10.297 20.762 25.228 20.762 13.386 0 21.109-5.484 23.169-14.102h-13.387v.392zm-9.782-18.803c6.178 0 9.268 3.134 9.268 7.443h-20.08c1.545-4.7 5.149-7.443 10.812-7.443zm56.634-9.01c2.575 0 4.634.392 5.664.784h-.515v10.968c-2.06-.783-4.634-1.175-7.208-1.175-4.634 0-8.753 1.959-9.782 5.485v24.678h-14.416V37.43h14.416v3.917c2.574-2.742 6.693-4.7 11.841-4.7z"/><path fill="url(#c)" d="M52.486 39.39h51.486V1H2.03v.392l50.456 37.997H1v38.389h1.03l50.456 38.389V77.778h50.456v-.392L52.486 39.39zm105.506 37.605V56.233h30.377V46.44h-30.377V32.338h32.951V22.153h-47.882v54.842h14.931zm65.387-40.348c2.574 0 4.634.392 5.663.783h-.514v10.968c-2.06-.783-4.634-1.175-7.208-1.175-4.634 0-8.753 1.959-9.783 5.485v24.678h-14.416V37.43h14.416v3.917c2.575-2.742 6.693-4.7 11.842-4.7zm54.06 40.739V51.924c0-9.402-8.238-15.277-22.139-15.277-11.842 0-20.594 5.484-22.139 12.926h13.901c1.03-2.35 3.604-3.917 7.723-3.917 5.664 0 8.753 2.742 8.753 6.268v2.742c-2.06-1.175-7.208-2.35-11.842-2.35-11.327 0-20.079 5.092-20.079 12.927 0 8.226 8.752 12.926 19.564 12.926 5.664 0 10.812-1.566 12.872-2.742v1.959h13.386zm-13.901-10.968c-1.545 1.958-5.149 3.525-9.268 3.525-4.633 0-9.267-1.567-9.267-5.092 0-3.526 4.634-5.093 9.267-5.093 4.119 0 8.238 1.175 9.268 3.526v3.134zm51.486-29.771c6.178 0 10.812 1.958 13.901 5.092 3.604-2.742 8.752-5.092 15.446-5.092 10.812 0 17.505 5.876 17.505 14.885v26.246H347.46V53.883c0-4.31-2.575-7.051-7.723-7.051-4.119 0-7.208 1.566-8.238 5.092v25.854h-14.416V53.883c0-4.31-2.059-7.051-7.208-7.051-3.604 0-7.208 1.566-8.238 5.092v25.854h-14.416V37.822h14.416v3.134c2.575-2.742 7.723-4.31 13.387-4.31zm88.555 27.812c-1.029 3.525-4.633 5.092-9.782 5.092-6.693 0-10.812-3.525-11.327-9.401h35.011v-3.526c0-11.751-8.238-19.977-23.684-19.977-14.416 0-25.228 9.01-25.228 20.76 0 12.144 10.297 20.762 25.228 20.762 13.386 0 21.109-5.484 23.169-14.102h-13.387v.392zm-9.782-18.803c6.178 0 9.268 3.134 9.268 7.443h-20.08c1.545-4.7 5.149-7.443 10.812-7.443zm56.634-9.01c2.575 0 4.634.392 5.664.784h-.515v10.968c-2.06-.783-4.634-1.175-7.208-1.175-4.634 0-8.753 1.959-9.782 5.485v24.678h-14.416V37.43h14.416v3.917c2.574-2.742 6.693-4.7 11.841-4.7z"/><path fill="url(#d)" fill-opacity=".2" d="M52.486 39.39h51.486V1H2.03v.392l50.456 37.997H1v38.389h1.03l50.456 38.389V77.778h50.456v-.392L52.486 39.39zm105.506 37.605V56.233h30.377V46.44h-30.377V32.338h32.951V22.153h-47.882v54.842h14.931zm65.387-40.348c2.574 0 4.634.392 5.663.783h-.514v10.968c-2.06-.783-4.634-1.175-7.208-1.175-4.634 0-8.753 1.959-9.783 5.485v24.678h-14.416V37.43h14.416v3.917c2.575-2.742 6.693-4.7 11.842-4.7zm54.06 40.739V51.924c0-9.402-8.238-15.277-22.139-15.277-11.842 0-20.594 5.484-22.139 12.926h13.901c1.03-2.35 3.604-3.917 7.723-3.917 5.664 0 8.753 2.742 8.753 6.268v2.742c-2.06-1.175-7.208-2.35-11.842-2.35-11.327 0-20.079 5.092-20.079 12.927 0 8.226 8.752 12.926 19.564 12.926 5.664 0 10.812-1.566 12.872-2.742v1.959h13.386zm-13.901-10.968c-1.545 1.958-5.149 3.525-9.268 3.525-4.633 0-9.267-1.567-9.267-5.092 0-3.526 4.634-5.093 9.267-5.093 4.119 0 8.238 1.175 9.268 3.526v3.134zm51.486-29.771c6.178 0 10.812 1.958 13.901 5.092 3.604-2.742 8.752-5.092 15.446-5.092 10.812 0 17.505 5.876 17.505 14.885v26.246H347.46V53.883c0-4.31-2.575-7.051-7.723-7.051-4.119 0-7.208 1.566-8.238 5.092v25.854h-14.416V53.883c0-4.31-2.059-7.051-7.208-7.051-3.604 0-7.208 1.566-8.238 5.092v25.854h-14.416V37.822h14.416v3.134c2.575-2.742 7.723-4.31 13.387-4.31zm88.555 27.812c-1.029 3.525-4.633 5.092-9.782 5.092-6.693 0-10.812-3.525-11.327-9.401h35.011v-3.526c0-11.751-8.238-19.977-23.684-19.977-14.416 0-25.228 9.01-25.228 20.76 0 12.144 10.297 20.762 25.228 20.762 13.386 0 21.109-5.484 23.169-14.102h-13.387v.392zm-9.782-18.803c6.178 0 9.268 3.134 9.268 7.443h-20.08c1.545-4.7 5.149-7.443 10.812-7.443zm56.634-9.01c2.575 0 4.634.392 5.664.784h-.515v10.968c-2.06-.783-4.634-1.175-7.208-1.175-4.634 0-8.753 1.959-9.782 5.485v24.678h-14.416V37.43h14.416v3.917c2.574-2.742 6.693-4.7 11.841-4.7z"/></g><path fill="url(#e)" d="M103.972 39.39v1h1v-1h-1zm-51.486 0v-1h-2.99l2.388 1.798.602-.799zM103.972 1h1V0h-1v1zM2.03 1V0h-1v1h1zm0 .392h-1v.499l.398.3.602-.8zm50.456 37.997v1h2.99l-2.389-1.799-.601.799zM1 39.389v-1H0v1h1zm0 38.389H0v1h1v-1zm1.03 0 .606-.796-.269-.204H2.03v1zm50.456 38.389-.605.796 1.605 1.221v-2.017h-1zm0-38.389v-1h-1v1h1zm50.456 0v1h1v-1h-1zm0-.392h1v-.498l-.399-.3-.601.798zm55.05-21.153v-1h-1v1h1zm0 20.762v1h1v-1h-1zm30.377-20.762v1h1v-1h-1zm0-9.793h1v-1h-1v1zm-30.377 0h-1v1h1v-1zm0-14.102v-1h-1v1h1zm32.951 0v1h1v-1h-1zm0-10.185h1v-1h-1v1zm-47.882 0v-1h-1v1h1zm0 54.842h-1v1h1v-1zm85.981-39.565v1l.356-1.934-.356.934zm-.514 0v-1h-1v1h1zm0 10.968-.356.935 1.356.516v-1.45h-1zm-16.991 4.31-.96-.28-.04.136v.144h1zm0 24.678v1h1v-1h-1zm-14.416 0h-1v1h1v-1zm0-39.956v-1h-1v1h1zm14.416 0h1v-1h-1v1zm0 3.917h-1v2.527l1.729-1.842-.729-.685zm65.902 36.039v1h1v-1h-1zm-44.278-27.813-.979-.203-.25 1.203h1.229v-1zm13.901 0v1h.654l.262-.598-.916-.402zm16.476 5.093-.496.868 1.496.854v-1.722h-1zm.515 20.761h1v-1.722l-1.496.854.496.868zm0 1.959h-1v1h1v-1zm-.515-10.968.785.619.215-.273v-.346h-1zm0-3.134h1v-.21l-.084-.191-.916.4zm65.387-21.545-.712.702.617.627.7-.533-.605-.796zm32.951 36.039v1h1v-1h-1zm-14.416 0h-1v1h1v-1zm-15.961-25.854-.96-.28-.04.137v.143h1zm0 25.854v1h1v-1h-1zm-14.416 0h-1v1h1v-1zm-15.446-25.854-.959-.28-.041.137v.143h1zm0 25.854v1h1v-1h-1zm-14.416 0h-1v1h1v-1zm0-39.956v-1h-1v1h1zm14.416 0h1v-1h-1v1zm0 3.134h-1v2.526l1.729-1.842-.729-.684zm101.942 23.503.96.28.04-.137v-.143h-1zM382.47 60.15v-1h-1.091l.095 1.087.996-.087zm35.011 0v1h1v-1h-1zm-.515 3.917.972.233.295-1.233h-1.267v1zm-13.387 0v-1h-1v1h1zm-.514-10.968v1h1v-1h-1zm-20.08 0-.95-.312-.431 1.312h1.381v-1zm73.11-15.669v1l.355-1.934-.355.934zm-.515 0v-1h-1v1h1zm0 10.968-.356.935 1.356.516v-1.45h-1zm-16.99 4.31-.96-.28-.04.136v.144h1zm0 24.678v1h1v-1h-1zm-14.416 0h-1v1h1v-1zm0-39.956v-1h-1v1h1zm14.416 0h1v-1h-1v1zm0 3.917h-1v2.527l1.729-1.842-.729-.685zM103.972 38.39H52.486v2h51.486v-2zm-1-37.389v38.39h2V1h-2zM2.03 2h101.942V0H2.03v2zm1-.608V1h-2v.392h2zM53.087 38.59 2.631.593 1.428 2.19l50.456 37.997 1.203-1.598zM1 40.39h51.486v-2H1v2zm1 37.389v-38.39H0v38.39h2zm.03-1H1v2h1.03v-2zm51.062 38.593L2.636 76.982l-1.211 1.592 50.455 38.389 1.212-1.592zm-1.606-37.593v38.389h2v-38.39h-2zm51.456-1H52.486v2h50.456v-2zm-1 .608v.392h2v-.392h-2zM51.884 40.188l50.456 37.997 1.203-1.597L53.087 38.59l-1.203 1.598zm105.108 16.045v20.762h2V56.233h-2zm31.377-1h-30.377v2h30.377v-2zm-1-8.793v9.793h2V46.44h-2zm-29.377 1h30.377v-2h-30.377v2zm-1-15.102V46.44h2V32.338h-2zm33.951-1h-32.951v2h32.951v-2zm-1-9.185v10.185h2V22.153h-2zm-46.882 1h47.882v-2h-47.882v2zm1 53.842V22.153h-2v54.842h2zm13.931-1h-14.931v2h14.931v-2zm71.406-39.5c-1.179-.448-3.368-.848-6.019-.848v2c2.498 0 4.427.383 5.308.718l.711-1.87zm-.87 1.935h.514v-2h-.514v2zm1 9.968V37.43h-2v10.968h2zm-8.208-.175c2.485 0 4.933.38 6.852 1.11l.711-1.87c-2.2-.836-4.901-1.24-7.563-1.24v2zm-8.823 4.765c.842-2.882 4.356-4.765 8.823-4.765v-2c-4.801 0-9.525 2.035-10.743 6.204l1.92.56zm.04 24.398V52.708h-2v24.678h2zm-15.416 1h14.416v-2h-14.416v2zm-1-40.956v39.956h2V37.43h-2zm15.416-1h-14.416v2h14.416v-2zm1 4.917V37.43h-2v3.917h2zm10.842-5.7c-5.405 0-9.794 2.059-12.571 5.016l1.458 1.369c2.373-2.527 6.221-4.385 11.113-4.385v-2zm53.06 16.277v25.462h2V51.924h-2zM255.3 37.647c6.828 0 12.138 1.445 15.711 3.933 3.535 2.462 5.428 5.977 5.428 10.344h2c0-5.035-2.225-9.158-6.285-11.985-4.021-2.8-9.78-4.292-16.854-4.292v2zm-21.16 12.13c1.403-6.757 9.521-12.13 21.16-12.13v-2c-12.044 0-21.431 5.594-23.118 13.723l1.958.407zm12.922-1.204h-13.901v2h13.901v-2zm7.723-3.917c-4.363 0-7.396 1.68-8.639 4.516l1.832.803c.817-1.865 2.933-3.319 6.807-3.319v-2zm9.753 7.268c0-2.083-.925-3.941-2.647-5.252-1.702-1.295-4.123-2.016-7.106-2.016v2c2.681 0 4.636.65 5.895 1.608 1.238.942 1.858 2.217 1.858 3.66h2zm0 2.742v-2.742h-2v2.742h2zm-12.842-1.35c2.239 0 4.616.284 6.683.713 2.092.434 3.771.996 4.663 1.505l.992-1.737c-1.168-.666-3.092-1.279-5.248-1.726-2.181-.453-4.695-.755-7.09-.755v2zm-19.079 11.927c0-3.49 1.932-6.436 5.322-8.554 3.406-2.129 8.229-3.373 13.757-3.373v-2c-5.798 0-11.015 1.3-14.817 3.677-3.819 2.386-6.262 5.905-6.262 10.25h2zm18.564 11.926c-5.278 0-9.971-1.15-13.308-3.227-3.311-2.061-5.256-5.001-5.256-8.7h-2c0 4.528 2.43 8.052 6.199 10.398 3.742 2.33 8.832 3.53 14.365 3.53v-2zm12.376-2.61c-1.88 1.073-6.851 2.61-12.376 2.61v2c5.802 0 11.129-1.596 13.367-2.873l-.991-1.737zm1.496 2.827v-1.959h-2v1.959h2zm12.386-1h-13.386v2h13.386v-2zm-23.169-5.443c4.306 0 8.256-1.627 10.053-3.906l-1.57-1.239c-1.292 1.638-4.551 3.145-8.483 3.145v2zm-10.267-6.092c0 2.3 1.542 3.85 3.464 4.77 1.917.918 4.396 1.322 6.803 1.322v-2c-2.226 0-4.381-.38-5.939-1.126-1.553-.744-2.328-1.74-2.328-2.966h-2zm10.267-6.093c-2.407 0-4.886.404-6.803 1.323-1.922.92-3.464 2.47-3.464 4.77h2c0-1.226.775-2.223 2.328-2.967 1.558-.746 3.713-1.126 5.939-1.126v-2zm10.184 4.124c-.682-1.557-2.296-2.566-4.06-3.186-1.804-.633-3.98-.938-6.124-.938v2c1.976 0 3.919.283 5.461.825 1.583.556 2.544 1.31 2.891 2.102l1.832-.803zm.084 3.536v-3.134h-2v3.134h2zm65.099-25.38c-3.309-3.358-8.216-5.391-14.613-5.391v2c5.96 0 10.319 1.883 13.189 4.794l1.424-1.404zm14.734-5.391c-6.942 0-12.299 2.44-16.052 5.296l1.211 1.592c3.455-2.629 8.396-4.888 14.841-4.888v-2zm18.505 15.885c0-4.77-1.781-8.778-5.047-11.58-3.25-2.788-7.878-4.305-13.458-4.305v2c5.231 0 9.356 1.42 12.156 3.823 2.783 2.388 4.349 5.822 4.349 10.062h2zm0 26.246V51.532h-2v26.246h2zm-15.416 1h14.416v-2H347.46v2zm-1-24.895v23.895h2V53.883h-2zm-6.723-6.051c2.404 0 4.056.638 5.103 1.634 1.041.99 1.62 2.462 1.62 4.417h2c0-2.355-.708-4.408-2.242-5.866-1.527-1.453-3.736-2.185-6.481-2.185v2zm-7.278 4.372c.444-1.52 1.313-2.584 2.507-3.286 1.217-.716 2.828-1.086 4.771-1.086v-2c-2.176 0-4.169.412-5.784 1.362-1.638.962-2.828 2.445-3.414 4.45l1.92.56zm.04 25.574V51.924h-2v25.854h2zm-15.416 1h14.416v-2h-14.416v2zm-1-24.895v23.895h2V53.883h-2zm-6.208-6.051c2.404 0 3.9.637 4.809 1.597.918.97 1.399 2.442 1.399 4.454h2c0-2.298-.548-4.351-1.947-5.83-1.408-1.487-3.516-2.221-6.261-2.221v2zm-7.278 4.372c.85-2.908 3.882-4.372 7.278-4.372v-2c-3.811 0-7.987 1.669-9.197 5.812l1.919.56zm.04 25.574V51.924h-2v25.854h2zm-15.416 1h14.416v-2h-14.416v2zm-1-40.956v39.956h2V37.822h-2zm15.416-1h-14.416v2h14.416v-2zm1 4.134v-3.134h-2v3.134h2zm12.387-5.31c-5.775 0-11.263 1.587-14.116 4.625l1.458 1.37c2.297-2.447 7.106-3.994 12.658-3.994v-2zm78.773 34.905c5.255 0 9.514-1.606 10.742-5.812l-1.919-.56c-.831 2.845-3.781 4.372-8.823 4.372v2zm-12.323-10.314c.277 3.162 1.537 5.773 3.701 7.584 2.154 1.803 5.104 2.73 8.622 2.73v-2c-3.175 0-5.631-.835-7.338-2.264-1.698-1.42-2.755-3.51-2.993-6.224l-1.992.174zm36.007-1.087H382.47v2h35.011v-2zm-1-2.526v3.526h2v-3.526h-2zm-22.684-18.977c7.552 0 13.213 2.01 16.972 5.331 3.746 3.31 5.712 8.016 5.712 13.646h2c0-6.12-2.154-11.404-6.388-15.145-4.221-3.73-10.402-5.832-18.296-5.832v2zm-24.228 19.76c0-11.028 10.177-19.76 24.228-19.76v-2c-14.781 0-26.228 9.287-26.228 21.76h2zm24.228 19.762c-7.278 0-13.346-2.1-17.576-5.597-4.216-3.487-6.652-8.397-6.652-14.164h-2c0 6.377 2.713 11.847 7.378 15.705 4.652 3.847 11.198 6.056 18.85 6.056v-2zm22.196-13.334c-.97 4.061-3.262 7.364-6.899 9.67-3.657 2.319-8.732 3.664-15.297 3.664v2c6.821 0 12.301-1.396 16.367-3.974 4.086-2.59 6.685-6.338 7.774-10.895l-1.945-.465zm-12.414 1.232h13.387v-2h-13.387v2zm1-.608v-.392h-2v.392h2zm-.514-11.36c0-2.407-.872-4.56-2.667-6.097-1.778-1.522-4.352-2.346-7.601-2.346v2c2.93 0 4.989.743 6.3 1.865 1.295 1.108 1.968 2.676 1.968 4.578h2zm-21.08 1h20.08v-2h-20.08v2zm10.812-9.443c-2.995 0-5.524.727-7.527 2.142-2.006 1.417-3.407 3.47-4.235 5.989l1.9.624c.717-2.181 1.89-3.85 3.489-4.98 1.601-1.13 3.705-1.775 6.373-1.775v-2zm62.653-8.16c-1.179-.449-3.368-.85-6.019-.85v2c2.498 0 4.428.384 5.308.719l.711-1.87zm-.87 1.934h.515v-2h-.515v2zm1 9.968V37.43h-2v10.968h2zm-8.208-.175c2.486 0 4.934.38 6.852 1.11l.711-1.87c-2.2-.836-4.9-1.24-7.563-1.24v2zm-8.823 4.765c.842-2.882 4.356-4.765 8.823-4.765v-2c-4.801 0-9.525 2.035-10.742 6.204l1.919.56zm.041 24.398V52.708h-2v24.678h2zm-15.416 1h14.416v-2h-14.416v2zm-1-40.956v39.956h2V37.43h-2zm15.416-1h-14.416v2h14.416v-2zm1 4.917V37.43h-2v3.917h2zm10.841-5.7c-5.405 0-9.794 2.059-12.57 5.016l1.458 1.369c2.372-2.527 6.22-4.385 11.112-4.385v-2z" mask="url(#f)"/><path fill="url(#g)" d="M103.972 39.39v1h1v-1h-1zm-51.486 0v-1h-2.99l2.388 1.798.602-.799zM103.972 1h1V0h-1v1zM2.03 1V0h-1v1h1zm0 .392h-1v.499l.398.3.602-.8zm50.456 37.997v1h2.99l-2.389-1.799-.601.799zM1 39.389v-1H0v1h1zm0 38.389H0v1h1v-1zm1.03 0 .606-.796-.269-.204H2.03v1zm50.456 38.389-.605.796 1.605 1.221v-2.017h-1zm0-38.389v-1h-1v1h1zm50.456 0v1h1v-1h-1zm0-.392h1v-.498l-.399-.3-.601.798zm55.05-21.153v-1h-1v1h1zm0 20.762v1h1v-1h-1zm30.377-20.762v1h1v-1h-1zm0-9.793h1v-1h-1v1zm-30.377 0h-1v1h1v-1zm0-14.102v-1h-1v1h1zm32.951 0v1h1v-1h-1zm0-10.185h1v-1h-1v1zm-47.882 0v-1h-1v1h1zm0 54.842h-1v1h1v-1zm85.981-39.565v1l.356-1.934-.356.934zm-.514 0v-1h-1v1h1zm0 10.968-.356.935 1.356.516v-1.45h-1zm-16.991 4.31-.96-.28-.04.136v.144h1zm0 24.678v1h1v-1h-1zm-14.416 0h-1v1h1v-1zm0-39.956v-1h-1v1h1zm14.416 0h1v-1h-1v1zm0 3.917h-1v2.527l1.729-1.842-.729-.685zm65.902 36.039v1h1v-1h-1zm-44.278-27.813-.979-.203-.25 1.203h1.229v-1zm13.901 0v1h.654l.262-.598-.916-.402zm16.476 5.093-.496.868 1.496.854v-1.722h-1zm.515 20.761h1v-1.722l-1.496.854.496.868zm0 1.959h-1v1h1v-1zm-.515-10.968.785.619.215-.273v-.346h-1zm0-3.134h1v-.21l-.084-.191-.916.4zm65.387-21.545-.712.702.617.627.7-.533-.605-.796zm32.951 36.039v1h1v-1h-1zm-14.416 0h-1v1h1v-1zm-15.961-25.854-.96-.28-.04.137v.143h1zm0 25.854v1h1v-1h-1zm-14.416 0h-1v1h1v-1zm-15.446-25.854-.959-.28-.041.137v.143h1zm0 25.854v1h1v-1h-1zm-14.416 0h-1v1h1v-1zm0-39.956v-1h-1v1h1zm14.416 0h1v-1h-1v1zm0 3.134h-1v2.526l1.729-1.842-.729-.684zm101.942 23.503.96.28.04-.137v-.143h-1zM382.47 60.15v-1h-1.091l.095 1.087.996-.087zm35.011 0v1h1v-1h-1zm-.515 3.917.972.233.295-1.233h-1.267v1zm-13.387 0v-1h-1v1h1zm-.514-10.968v1h1v-1h-1zm-20.08 0-.95-.312-.431 1.312h1.381v-1zm73.11-15.669v1l.355-1.934-.355.934zm-.515 0v-1h-1v1h1zm0 10.968-.356.935 1.356.516v-1.45h-1zm-16.99 4.31-.96-.28-.04.136v.144h1zm0 24.678v1h1v-1h-1zm-14.416 0h-1v1h1v-1zm0-39.956v-1h-1v1h1zm14.416 0h1v-1h-1v1zm0 3.917h-1v2.527l1.729-1.842-.729-.685zM103.972 38.39H52.486v2h51.486v-2zm-1-37.389v38.39h2V1h-2zM2.03 2h101.942V0H2.03v2zm1-.608V1h-2v.392h2zM53.087 38.59 2.631.593 1.428 2.19l50.456 37.997 1.203-1.598zM1 40.39h51.486v-2H1v2zm1 37.389v-38.39H0v38.39h2zm.03-1H1v2h1.03v-2zm51.062 38.593L2.636 76.982l-1.211 1.592 50.455 38.389 1.212-1.592zm-1.606-37.593v38.389h2v-38.39h-2zm51.456-1H52.486v2h50.456v-2zm-1 .608v.392h2v-.392h-2zM51.884 40.188l50.456 37.997 1.203-1.597L53.087 38.59l-1.203 1.598zm105.108 16.045v20.762h2V56.233h-2zm31.377-1h-30.377v2h30.377v-2zm-1-8.793v9.793h2V46.44h-2zm-29.377 1h30.377v-2h-30.377v2zm-1-15.102V46.44h2V32.338h-2zm33.951-1h-32.951v2h32.951v-2zm-1-9.185v10.185h2V22.153h-2zm-46.882 1h47.882v-2h-47.882v2zm1 53.842V22.153h-2v54.842h2zm13.931-1h-14.931v2h14.931v-2zm71.406-39.5c-1.179-.448-3.368-.848-6.019-.848v2c2.498 0 4.427.383 5.308.718l.711-1.87zm-.87 1.935h.514v-2h-.514v2zm1 9.968V37.43h-2v10.968h2zm-8.208-.175c2.485 0 4.933.38 6.852 1.11l.711-1.87c-2.2-.836-4.901-1.24-7.563-1.24v2zm-8.823 4.765c.842-2.882 4.356-4.765 8.823-4.765v-2c-4.801 0-9.525 2.035-10.743 6.204l1.92.56zm.04 24.398V52.708h-2v24.678h2zm-15.416 1h14.416v-2h-14.416v2zm-1-40.956v39.956h2V37.43h-2zm15.416-1h-14.416v2h14.416v-2zm1 4.917V37.43h-2v3.917h2zm10.842-5.7c-5.405 0-9.794 2.059-12.571 5.016l1.458 1.369c2.373-2.527 6.221-4.385 11.113-4.385v-2zm53.06 16.277v25.462h2V51.924h-2zM255.3 37.647c6.828 0 12.138 1.445 15.711 3.933 3.535 2.462 5.428 5.977 5.428 10.344h2c0-5.035-2.225-9.158-6.285-11.985-4.021-2.8-9.78-4.292-16.854-4.292v2zm-21.16 12.13c1.403-6.757 9.521-12.13 21.16-12.13v-2c-12.044 0-21.431 5.594-23.118 13.723l1.958.407zm12.922-1.204h-13.901v2h13.901v-2zm7.723-3.917c-4.363 0-7.396 1.68-8.639 4.516l1.832.803c.817-1.865 2.933-3.319 6.807-3.319v-2zm9.753 7.268c0-2.083-.925-3.941-2.647-5.252-1.702-1.295-4.123-2.016-7.106-2.016v2c2.681 0 4.636.65 5.895 1.608 1.238.942 1.858 2.217 1.858 3.66h2zm0 2.742v-2.742h-2v2.742h2zm-12.842-1.35c2.239 0 4.616.284 6.683.713 2.092.434 3.771.996 4.663 1.505l.992-1.737c-1.168-.666-3.092-1.279-5.248-1.726-2.181-.453-4.695-.755-7.09-.755v2zm-19.079 11.927c0-3.49 1.932-6.436 5.322-8.554 3.406-2.129 8.229-3.373 13.757-3.373v-2c-5.798 0-11.015 1.3-14.817 3.677-3.819 2.386-6.262 5.905-6.262 10.25h2zm18.564 11.926c-5.278 0-9.971-1.15-13.308-3.227-3.311-2.061-5.256-5.001-5.256-8.7h-2c0 4.528 2.43 8.052 6.199 10.398 3.742 2.33 8.832 3.53 14.365 3.53v-2zm12.376-2.61c-1.88 1.073-6.851 2.61-12.376 2.61v2c5.802 0 11.129-1.596 13.367-2.873l-.991-1.737zm1.496 2.827v-1.959h-2v1.959h2zm12.386-1h-13.386v2h13.386v-2zm-23.169-5.443c4.306 0 8.256-1.627 10.053-3.906l-1.57-1.239c-1.292 1.638-4.551 3.145-8.483 3.145v2zm-10.267-6.092c0 2.3 1.542 3.85 3.464 4.77 1.917.918 4.396 1.322 6.803 1.322v-2c-2.226 0-4.381-.38-5.939-1.126-1.553-.744-2.328-1.74-2.328-2.966h-2zm10.267-6.093c-2.407 0-4.886.404-6.803 1.323-1.922.92-3.464 2.47-3.464 4.77h2c0-1.226.775-2.223 2.328-2.967 1.558-.746 3.713-1.126 5.939-1.126v-2zm10.184 4.124c-.682-1.557-2.296-2.566-4.06-3.186-1.804-.633-3.98-.938-6.124-.938v2c1.976 0 3.919.283 5.461.825 1.583.556 2.544 1.31 2.891 2.102l1.832-.803zm.084 3.536v-3.134h-2v3.134h2zm65.099-25.38c-3.309-3.358-8.216-5.391-14.613-5.391v2c5.96 0 10.319 1.883 13.189 4.794l1.424-1.404zm14.734-5.391c-6.942 0-12.299 2.44-16.052 5.296l1.211 1.592c3.455-2.629 8.396-4.888 14.841-4.888v-2zm18.505 15.885c0-4.77-1.781-8.778-5.047-11.58-3.25-2.788-7.878-4.305-13.458-4.305v2c5.231 0 9.356 1.42 12.156 3.823 2.783 2.388 4.349 5.822 4.349 10.062h2zm0 26.246V51.532h-2v26.246h2zm-15.416 1h14.416v-2H347.46v2zm-1-24.895v23.895h2V53.883h-2zm-6.723-6.051c2.404 0 4.056.638 5.103 1.634 1.041.99 1.62 2.462 1.62 4.417h2c0-2.355-.708-4.408-2.242-5.866-1.527-1.453-3.736-2.185-6.481-2.185v2zm-7.278 4.372c.444-1.52 1.313-2.584 2.507-3.286 1.217-.716 2.828-1.086 4.771-1.086v-2c-2.176 0-4.169.412-5.784 1.362-1.638.962-2.828 2.445-3.414 4.45l1.92.56zm.04 25.574V51.924h-2v25.854h2zm-15.416 1h14.416v-2h-14.416v2zm-1-24.895v23.895h2V53.883h-2zm-6.208-6.051c2.404 0 3.9.637 4.809 1.597.918.97 1.399 2.442 1.399 4.454h2c0-2.298-.548-4.351-1.947-5.83-1.408-1.487-3.516-2.221-6.261-2.221v2zm-7.278 4.372c.85-2.908 3.882-4.372 7.278-4.372v-2c-3.811 0-7.987 1.669-9.197 5.812l1.919.56zm.04 25.574V51.924h-2v25.854h2zm-15.416 1h14.416v-2h-14.416v2zm-1-40.956v39.956h2V37.822h-2zm15.416-1h-14.416v2h14.416v-2zm1 4.134v-3.134h-2v3.134h2zm12.387-5.31c-5.775 0-11.263 1.587-14.116 4.625l1.458 1.37c2.297-2.447 7.106-3.994 12.658-3.994v-2zm78.773 34.905c5.255 0 9.514-1.606 10.742-5.812l-1.919-.56c-.831 2.845-3.781 4.372-8.823 4.372v2zm-12.323-10.314c.277 3.162 1.537 5.773 3.701 7.584 2.154 1.803 5.104 2.73 8.622 2.73v-2c-3.175 0-5.631-.835-7.338-2.264-1.698-1.42-2.755-3.51-2.993-6.224l-1.992.174zm36.007-1.087H382.47v2h35.011v-2zm-1-2.526v3.526h2v-3.526h-2zm-22.684-18.977c7.552 0 13.213 2.01 16.972 5.331 3.746 3.31 5.712 8.016 5.712 13.646h2c0-6.12-2.154-11.404-6.388-15.145-4.221-3.73-10.402-5.832-18.296-5.832v2zm-24.228 19.76c0-11.028 10.177-19.76 24.228-19.76v-2c-14.781 0-26.228 9.287-26.228 21.76h2zm24.228 19.762c-7.278 0-13.346-2.1-17.576-5.597-4.216-3.487-6.652-8.397-6.652-14.164h-2c0 6.377 2.713 11.847 7.378 15.705 4.652 3.847 11.198 6.056 18.85 6.056v-2zm22.196-13.334c-.97 4.061-3.262 7.364-6.899 9.67-3.657 2.319-8.732 3.664-15.297 3.664v2c6.821 0 12.301-1.396 16.367-3.974 4.086-2.59 6.685-6.338 7.774-10.895l-1.945-.465zm-12.414 1.232h13.387v-2h-13.387v2zm1-.608v-.392h-2v.392h2zm-.514-11.36c0-2.407-.872-4.56-2.667-6.097-1.778-1.522-4.352-2.346-7.601-2.346v2c2.93 0 4.989.743 6.3 1.865 1.295 1.108 1.968 2.676 1.968 4.578h2zm-21.08 1h20.08v-2h-20.08v2zm10.812-9.443c-2.995 0-5.524.727-7.527 2.142-2.006 1.417-3.407 3.47-4.235 5.989l1.9.624c.717-2.181 1.89-3.85 3.489-4.98 1.601-1.13 3.705-1.775 6.373-1.775v-2zm62.653-8.16c-1.179-.449-3.368-.85-6.019-.85v2c2.498 0 4.428.384 5.308.719l.711-1.87zm-.87 1.934h.515v-2h-.515v2zm1 9.968V37.43h-2v10.968h2zm-8.208-.175c2.486 0 4.934.38 6.852 1.11l.711-1.87c-2.2-.836-4.9-1.24-7.563-1.24v2zm-8.823 4.765c.842-2.882 4.356-4.765 8.823-4.765v-2c-4.801 0-9.525 2.035-10.742 6.204l1.919.56zm.041 24.398V52.708h-2v24.678h2zm-15.416 1h14.416v-2h-14.416v2zm-1-40.956v39.956h2V37.43h-2zm15.416-1h-14.416v2h14.416v-2zm1 4.917V37.43h-2v3.917h2zm10.841-5.7c-5.405 0-9.794 2.059-12.57 5.016l1.458 1.369c2.372-2.527 6.22-4.385 11.112-4.385v-2z" mask="url(#f)"/><defs><linearGradient id="b" x1="236.547" x2="236.547" y1="1" y2="116.167" gradientUnits="userSpaceOnUse"><stop stop-opacity="0"/><stop offset="1" stop-opacity=".2"/></linearGradient><linearGradient id="c" x1="236.547" x2="236.547" y1="1" y2="116.167" gradientUnits="userSpaceOnUse"><stop stop-color="#fff" stop-opacity=".03"/><stop offset=".86" stop-color="#fff" stop-opacity="0"/></linearGradient><linearGradient id="d" x1=".955" x2="175.955" y1="1" y2="72" gradientUnits="userSpaceOnUse"><stop stop-color="#FFFBD8" stop-opacity=".08"/><stop offset="1" stop-color="#FFFBD8" stop-opacity="0"/></linearGradient><linearGradient id="e" x1="95.955" x2="472" y1="-7" y2="32" gradientUnits="userSpaceOnUse"><stop stop-color="#FFFAC4" stop-opacity=".3"/><stop offset="1" stop-opacity="0"/></linearGradient><linearGradient id="g" x1=".955" x2="471.955" y1="59" y2="59" gradientUnits="userSpaceOnUse"><stop stop-color="#091314" stop-opacity="0"/><stop offset="1" stop-color="#091314" stop-opacity=".3"/></linearGradient><filter id="a" width="456.58" height="119.184" x="0" y="0" color-interpolation-filters="sRGB" filterUnits="userSpaceOnUse"><feFlood flood-opacity="0" result="BackgroundImageFix"/><feBlend in="SourceGraphic" in2="BackgroundImageFix" result="shape"/><feColorMatrix in="SourceAlpha" result="hardAlpha" values="0 0 0 0 0 0 0 0 0 0 0 0 0 0 0 0 0 0 127 0"/><feOffset dy="1"/><feGaussianBlur stdDeviation="1"/><feComposite in2="hardAlpha" k2="-1" k3="1" operator="arithmetic"/><feColorMatrix values="0 0 0 0 0 0 0 0 0 0 0 0 0 0 0 0 0 0 0.5 0"/><feBlend in2="shape" result="effect1_innerShadow_376_26974"/><feColorMatrix in="SourceAlpha" result="hardAlpha" values="0 0 0 0 0 0 0 0 0 0 0 0 0 0 0 0 0 0 127 0"/><feOffset dy="1"/><feGaussianBlur stdDeviation="3"/><feComposite in2="hardAlpha" k2="-1" k3="1" operator="arithmetic"/><feColorMatrix values="0 0 0 0 0 0 0 0 0 0 0 0 0 0 0 0 0 0 0.3 0"/><feBlend in2="effect1_innerShadow_376_26974" result="effect2_innerShadow_376_26974"/></filter></defs></svg>