<svg xmlns="http://www.w3.org/2000/svg" width="400" height="172" fill="none"><g clip-path="url(#a)"><g filter="url(#b)" opacity=".2"><path fill="#FFFBD8" d="M145.293 119.528c-18.136-11.74-23.32-35.959-11.58-54.094 11.256-17.386 34.094-23.018 52.349-13.235C220.46 70.632 273.452 97.674 299.5 104a185.929 185.929 0 0 1 16.706 4.894c49.158 16.939 31.013 74.076-20.021 84.023a72.835 72.835 0 0 1-53.514-10.348l-97.378-63.041z"/></g><path stroke="url(#c)" stroke-width="2" d="M89 3.574h36.948c2.347 0 4.687-.258 6.977-.77L145.479 0H255.5l12.554 2.805c2.29.511 4.63.77 6.977.77H311"/><path stroke="url(#d)" stroke-width="1.979" d="M89 7.149h40.449c2.347 0 4.687-.258 6.977-.77l12.554-2.805H255.5l12.554 2.805c2.29.512 4.63.77 6.977.77H311"/><path stroke="url(#e)" stroke-width="1.957" d="M89 10.723h43.95c2.347 0 4.687-.258 6.977-.77l12.554-2.804H255.5l12.554 2.805c2.29.511 4.63.77 6.977.77H311"/><path stroke="url(#f)" stroke-width="1.936" d="M89 14.298h47.451c2.347 0 4.687-.258 6.977-.77l12.554-2.805H255.5l12.554 2.805c2.29.512 4.63.77 6.977.77H311"/><path stroke="url(#g)" stroke-width="1.915" d="M89 17.872h50.952c2.347 0 4.687-.258 6.977-.77l12.554-2.804H255.5l12.554 2.804c2.29.512 4.63.77 6.977.77H311"/><path stroke="url(#h)" stroke-width="1.894" d="M89 21.447h54.453c2.347 0 4.686-.258 6.977-.77l12.554-2.805H255.5l12.554 2.805c2.29.512 4.63.77 6.977.77H311"/><path stroke="url(#i)" stroke-width="1.872" d="M89 25.021h57.954c2.347 0 4.686-.258 6.977-.77l12.554-2.804H255.5l12.554 2.804c2.29.512 4.63.77 6.977.77H311"/><path stroke="url(#j)" stroke-width="1.851" d="M89 28.596h61.455c2.346 0 4.686-.259 6.977-.77l12.553-2.805H255.5l12.554 2.805c2.29.511 4.63.77 6.977.77H311"/><path stroke="url(#k)" stroke-width="1.83" d="M89 32.17h64.955c2.347 0 4.687-.258 6.977-.77l12.554-2.804H255.5l12.554 2.804c2.29.512 4.63.77 6.977.77H311"/><path stroke="url(#l)" stroke-width="1.809" d="M89 35.745h68.456c2.347 0 4.687-.258 6.977-.77l12.554-2.805H255.5l12.554 2.805c2.29.511 4.63.77 6.977.77H311"/><path stroke="url(#m)" stroke-width="1.787" d="M89 39.32h71.957a32.1 32.1 0 0 0 6.977-.77l12.554-2.805H255.5l12.554 2.804c2.29.512 4.63.77 6.977.77H311"/><path stroke="url(#n)" stroke-width="1.766" d="M89 42.894h75.458c2.347 0 4.687-.259 6.977-.77l12.554-2.805H255.5l12.554 2.805c2.29.511 4.63.77 6.977.77H311"/><path stroke="url(#o)" stroke-width="1.745" d="M89 46.468h78.959c2.347 0 4.686-.258 6.977-.77l12.554-2.804h68.01l12.554 2.804c2.29.512 4.63.77 6.977.77H311"/><path stroke="url(#p)" stroke-width="1.723" d="M89 50.042h82.46c2.347 0 4.686-.258 6.977-.77l12.554-2.804H255.5l12.554 2.805c2.29.511 4.63.77 6.977.77H311"/><path stroke="url(#q)" stroke-width="1.702" d="M89 53.617h85.961c2.347 0 4.686-.258 6.977-.77l12.554-2.805H255.5l12.554 2.805c2.29.512 4.63.77 6.977.77H311"/><path stroke="url(#r)" stroke-width="1.681" d="M89 57.191h89.462a32 32 0 0 0 6.976-.77l12.554-2.804H255.5l12.554 2.805c2.29.511 4.63.77 6.977.77H311"/><path stroke="url(#s)" stroke-width="1.66" d="M89 60.766h35.969c2.347 0 4.687-.258 6.977-.77l12.554-2.805h56.993l12.554 2.805c2.291.512 4.63.77 6.977.77H311"/><path stroke="url(#t)" stroke-width="1.638" d="M89 64.34h35.969c2.347 0 4.687-.258 6.977-.77l12.554-2.804h60.494l12.554 2.805c2.291.511 4.63.77 6.977.77H311"/><path stroke="url(#u)" stroke-width="1.617" d="M89 67.915h35.969c2.347 0 4.687-.258 6.977-.77L144.5 64.34h63.995l12.554 2.805c2.29.512 4.63.77 6.977.77H311"/><path stroke="url(#v)" stroke-width="1.596" d="M89 71.49h35.969c2.347 0 4.687-.259 6.977-.77l12.554-2.805h67.496l12.554 2.804c2.29.512 4.63.77 6.977.77H311"/><path stroke="url(#w)" stroke-width="1.574" d="M89 75.064h35.969c2.347 0 4.687-.258 6.977-.77l12.554-2.805h70.997l12.554 2.805c2.29.512 4.63.77 6.977.77H311"/><path stroke="url(#x)" stroke-width="1.553" d="M89 78.638h35.969c2.347 0 4.687-.258 6.977-.77l12.554-2.804h74.498l12.554 2.804c2.29.512 4.63.77 6.977.77H311"/><path stroke="url(#y)" stroke-width="1.532" d="M89 82.213h35.969c2.347 0 4.687-.258 6.977-.77l12.554-2.805h77.999l12.554 2.805c2.29.511 4.63.77 6.977.77H311"/><path stroke="url(#z)" stroke-width="1.511" d="M89 85.787h35.969c2.347 0 4.687-.258 6.977-.77l12.554-2.804h81.499l12.554 2.804a31.99 31.99 0 0 0 6.977.77H311"/><path stroke="url(#A)" stroke-width="1.489" d="M89 89.362h35.969c2.347 0 4.687-.258 6.977-.77l12.554-2.805h85.001l12.554 2.805a32 32 0 0 0 6.976.77H311"/><path stroke="url(#B)" stroke-width="1.468" d="M89 92.936h35.969c2.347 0 4.687-.258 6.977-.77l12.554-2.804h88.501l12.554 2.804a32.01 32.01 0 0 0 6.977.77H311"/><path stroke="url(#C)" stroke-width="1.447" d="M89 96.51h35.969c2.347 0 4.687-.257 6.977-.77l12.554-2.804h92.002l12.554 2.805c2.291.512 4.63.77 6.977.77H311"/><path stroke="url(#D)" stroke-width="1.426" d="M89 100.085h35.969c2.347 0 4.687-.258 6.977-.77l12.554-2.804h95.503l12.554 2.804c2.291.512 4.63.77 6.977.77H311"/><path stroke="url(#E)" stroke-width="1.404" d="M89 103.66h35.969c2.347 0 4.687-.259 6.977-.77l12.554-2.805h99.004l12.554 2.805c2.29.511 4.63.77 6.977.77H311"/><path stroke="url(#F)" stroke-width="1.383" d="M89 107.234h35.969c2.347 0 4.687-.258 6.977-.77l12.554-2.804h102.505l12.554 2.804c2.29.512 4.63.77 6.977.77H311"/><path stroke="url(#G)" stroke-width="1.362" d="M89 110.809h35.969c2.347 0 4.687-.259 6.977-.77l12.554-2.805h106.006l12.554 2.805c2.29.511 4.63.77 6.977.77H311"/><path stroke="url(#H)" stroke-width="1.34" d="M89 114.383h35.969c2.347 0 4.687-.258 6.977-.77l12.554-2.804h109.507l12.554 2.804c2.29.512 4.63.77 6.977.77H311"/><path stroke="url(#I)" stroke-width="1.319" d="M89 117.958h37.977c2.346 0 4.686-.259 6.977-.77l12.554-2.805H200l12.554 2.805c2.29.511 4.63.77 6.977.77H311"/><path stroke="url(#J)" stroke-width="1.298" d="M89 121.532h41.477c2.347 0 4.687-.258 6.977-.77l12.554-2.804H200l12.554 2.804c2.29.512 4.63.77 6.977.77H311"/><path stroke="url(#K)" stroke-width="1.277" d="M89 125.106h44.978c2.347 0 4.687-.258 6.977-.769l12.554-2.805H200l12.554 2.805c2.29.511 4.63.769 6.977.769H311"/><path stroke="url(#L)" stroke-width="1.255" d="M89 128.681h48.479c2.347 0 4.687-.258 6.977-.77l12.554-2.805H200l12.554 2.805c2.29.512 4.63.77 6.977.77H311"/><path stroke="url(#M)" stroke-width="1.234" d="M89 132.255h51.98c2.347 0 4.687-.258 6.977-.769l12.554-2.805H200l12.554 2.805c2.29.511 4.63.769 6.977.769H311"/><path stroke="url(#N)" stroke-width="1.213" d="M89 135.83h55.481c2.347 0 4.686-.258 6.977-.77l12.554-2.805H200l12.554 2.805c2.29.512 4.63.77 6.977.77H311"/><path stroke="url(#O)" stroke-width="1.191" d="M89 139.404h58.982c2.347 0 4.686-.258 6.977-.77l12.554-2.804H200l12.554 2.804c2.29.512 4.63.77 6.977.77H311"/><path stroke="url(#P)" stroke-width="1.17" d="M89 142.979h62.483c2.347 0 4.686-.258 6.977-.77l12.554-2.805H200l12.554 2.805c2.29.512 4.63.77 6.977.77H311"/><path stroke="url(#Q)" stroke-width="1.149" d="M89 146.553h65.984c2.346 0 4.686-.258 6.976-.77l12.555-2.804H200l12.554 2.804c2.29.512 4.63.77 6.977.77H311"/><path stroke="url(#R)" stroke-width="1.128" d="M89 150.128h69.484c2.347 0 4.687-.258 6.977-.77l12.554-2.805H200l12.554 2.805c2.29.512 4.63.77 6.977.77H311"/><path stroke="url(#S)" stroke-width="1.106" d="M89 153.702h72.985c2.347 0 4.687-.258 6.977-.77l12.554-2.804H200l12.554 2.804c2.29.512 4.63.77 6.977.77H311"/><path stroke="url(#T)" stroke-width="1.085" d="M89 157.277h76.486c2.347 0 4.687-.259 6.977-.77l12.554-2.805H200l12.554 2.805c2.29.511 4.63.77 6.977.77H311"/><path stroke="url(#U)" stroke-width="1.064" d="M89 160.851h79.987c2.347 0 4.687-.258 6.977-.77l12.554-2.804H200l12.554 2.804c2.29.512 4.63.77 6.977.77H311"/><path stroke="url(#V)" stroke-width="1.043" d="M89 164.426h83.488c2.347 0 4.686-.259 6.977-.77l12.554-2.805H200l12.554 2.805c2.29.511 4.63.77 6.977.77H311"/><path stroke="url(#W)" stroke-width="1.021" d="M89 168h86.989c2.347 0 4.686-.258 6.977-.77l12.554-2.804H200l12.554 2.804c2.29.512 4.63.77 6.977.77H311"/><path stroke="url(#X)" d="M89 171.574h90.49c2.346 0 4.686-.258 6.977-.769L199.021 168H200l12.554 2.805c2.29.511 4.63.769 6.977.769H311"/></g><defs><linearGradient id="c" x1="89" x2="311" y1="1.787" y2="1.787" gradientUnits="userSpaceOnUse"><stop stop-color="#091314" stop-opacity="0"/><stop offset=".247" stop-color="#091314" stop-opacity=".5"/><stop offset=".254" stop-color="#091314"/><stop offset=".75" stop-color="#091314"/><stop offset=".757" stop-color="#091314" stop-opacity=".5"/><stop offset="1" stop-color="#091314" stop-opacity="0"/></linearGradient><linearGradient id="d" x1="89" x2="311" y1="5.362" y2="5.362" gradientUnits="userSpaceOnUse"><stop stop-color="#091314" stop-opacity="0"/><stop offset=".263" stop-color="#091314" stop-opacity=".5"/><stop offset=".27" stop-color="#091314"/><stop offset=".75" stop-color="#091314"/><stop offset=".757" stop-color="#091314" stop-opacity=".5"/><stop offset="1" stop-color="#091314" stop-opacity="0"/></linearGradient><linearGradient id="e" x1="89" x2="311" y1="8.936" y2="8.936" gradientUnits="userSpaceOnUse"><stop stop-color="#091314" stop-opacity="0"/><stop offset=".278" stop-color="#091314" stop-opacity=".5"/><stop offset=".286" stop-color="#091314"/><stop offset=".75" stop-color="#091314"/><stop offset=".757" stop-color="#091314" stop-opacity=".5"/><stop offset="1" stop-color="#091314" stop-opacity="0"/></linearGradient><linearGradient id="f" x1="89" x2="311" y1="12.511" y2="12.511" gradientUnits="userSpaceOnUse"><stop stop-color="#091314" stop-opacity="0"/><stop offset=".294" stop-color="#091314" stop-opacity=".5"/><stop offset=".302" stop-color="#091314"/><stop offset=".75" stop-color="#091314"/><stop offset=".757" stop-color="#091314" stop-opacity=".5"/><stop offset="1" stop-color="#091314" stop-opacity="0"/></linearGradient><linearGradient id="g" x1="89" x2="311" y1="16.085" y2="16.085" gradientUnits="userSpaceOnUse"><stop stop-color="#091314" stop-opacity="0"/><stop offset=".31" stop-color="#091314" stop-opacity=".5"/><stop offset=".317" stop-color="#091314"/><stop offset=".75" stop-color="#091314"/><stop offset=".757" stop-color="#091314" stop-opacity=".5"/><stop offset="1" stop-color="#091314" stop-opacity="0"/></linearGradient><linearGradient id="h" x1="89" x2="311" y1="19.66" y2="19.66" gradientUnits="userSpaceOnUse"><stop stop-color="#091314" stop-opacity="0"/><stop offset=".326" stop-color="#091314" stop-opacity=".5"/><stop offset=".333" stop-color="#091314"/><stop offset=".75" stop-color="#091314"/><stop offset=".757" stop-color="#091314" stop-opacity=".5"/><stop offset="1" stop-color="#091314" stop-opacity="0"/></linearGradient><linearGradient id="i" x1="89" x2="311" y1="23.234" y2="23.234" gradientUnits="userSpaceOnUse"><stop stop-color="#091314" stop-opacity="0"/><stop offset=".342" stop-color="#091314" stop-opacity=".5"/><stop offset=".349" stop-color="#091314"/><stop offset=".75" stop-color="#091314"/><stop offset=".757" stop-color="#091314" stop-opacity=".5"/><stop offset="1" stop-color="#091314" stop-opacity="0"/></linearGradient><linearGradient id="j" x1="89" x2="311" y1="26.808" y2="26.808" gradientUnits="userSpaceOnUse"><stop stop-color="#091314" stop-opacity="0"/><stop offset=".357" stop-color="#091314" stop-opacity=".5"/><stop offset=".365" stop-color="#091314"/><stop offset=".75" stop-color="#091314"/><stop offset=".757" stop-color="#091314" stop-opacity=".5"/><stop offset="1" stop-color="#091314" stop-opacity="0"/></linearGradient><linearGradient id="k" x1="89" x2="311" y1="30.383" y2="30.383" gradientUnits="userSpaceOnUse"><stop stop-color="#091314" stop-opacity="0"/><stop offset=".373" stop-color="#091314" stop-opacity=".5"/><stop offset=".381" stop-color="#091314"/><stop offset=".75" stop-color="#091314"/><stop offset=".757" stop-color="#091314" stop-opacity=".5"/><stop offset="1" stop-color="#091314" stop-opacity="0"/></linearGradient><linearGradient id="l" x1="89" x2="311" y1="33.957" y2="33.957" gradientUnits="userSpaceOnUse"><stop stop-color="#091314" stop-opacity="0"/><stop offset=".389" stop-color="#091314" stop-opacity=".5"/><stop offset=".396" stop-color="#091314"/><stop offset=".75" stop-color="#091314"/><stop offset=".757" stop-color="#091314" stop-opacity=".5"/><stop offset="1" stop-color="#091314" stop-opacity="0"/></linearGradient><linearGradient id="m" x1="89" x2="311" y1="37.532" y2="37.532" gradientUnits="userSpaceOnUse"><stop stop-color="#091314" stop-opacity="0"/><stop offset=".405" stop-color="#091314" stop-opacity=".5"/><stop offset=".412" stop-color="#091314"/><stop offset=".75" stop-color="#091314"/><stop offset=".757" stop-color="#091314" stop-opacity=".5"/><stop offset="1" stop-color="#091314" stop-opacity="0"/></linearGradient><linearGradient id="n" x1="89" x2="311" y1="41.106" y2="41.106" gradientUnits="userSpaceOnUse"><stop stop-color="#091314" stop-opacity="0"/><stop offset=".42" stop-color="#091314" stop-opacity=".5"/><stop offset=".428" stop-color="#091314"/><stop offset=".75" stop-color="#091314"/><stop offset=".757" stop-color="#091314" stop-opacity=".5"/><stop offset="1" stop-color="#091314" stop-opacity="0"/></linearGradient><linearGradient id="o" x1="89" x2="311" y1="44.681" y2="44.681" gradientUnits="userSpaceOnUse"><stop stop-color="#091314" stop-opacity="0"/><stop offset=".436" stop-color="#091314" stop-opacity=".5"/><stop offset=".444" stop-color="#091314"/><stop offset=".75" stop-color="#091314"/><stop offset=".757" stop-color="#091314" stop-opacity=".5"/><stop offset="1" stop-color="#091314" stop-opacity="0"/></linearGradient><linearGradient id="p" x1="89" x2="311" y1="48.255" y2="48.255" gradientUnits="userSpaceOnUse"><stop stop-color="#091314" stop-opacity="0"/><stop offset=".452" stop-color="#091314" stop-opacity=".5"/><stop offset=".459" stop-color="#091314"/><stop offset=".75" stop-color="#091314"/><stop offset=".757" stop-color="#091314" stop-opacity=".5"/><stop offset="1" stop-color="#091314" stop-opacity="0"/></linearGradient><linearGradient id="q" x1="89" x2="311" y1="51.83" y2="51.83" gradientUnits="userSpaceOnUse"><stop stop-color="#091314" stop-opacity="0"/><stop offset=".468" stop-color="#091314" stop-opacity=".5"/><stop offset=".475" stop-color="#091314"/><stop offset=".75" stop-color="#091314"/><stop offset=".757" stop-color="#091314" stop-opacity=".5"/><stop offset="1" stop-color="#091314" stop-opacity="0"/></linearGradient><linearGradient id="r" x1="89" x2="311" y1="55.404" y2="55.404" gradientUnits="userSpaceOnUse"><stop stop-color="#091314" stop-opacity="0"/><stop offset=".483" stop-color="#091314" stop-opacity=".5"/><stop offset=".491" stop-color="#091314"/><stop offset=".75" stop-color="#091314"/><stop offset=".757" stop-color="#091314" stop-opacity=".5"/><stop offset="1" stop-color="#091314" stop-opacity="0"/></linearGradient><linearGradient id="s" x1="89" x2="311" y1="58.979" y2="58.979" gradientUnits="userSpaceOnUse"><stop stop-color="#091314" stop-opacity="0"/><stop offset=".242" stop-color="#091314" stop-opacity=".5"/><stop offset=".25" stop-color="#091314"/><stop offset=".507" stop-color="#091314"/><stop offset=".514" stop-color="#091314" stop-opacity=".5"/><stop offset="1" stop-color="#091314" stop-opacity="0"/></linearGradient><linearGradient id="t" x1="89" x2="311" y1="62.553" y2="62.553" gradientUnits="userSpaceOnUse"><stop stop-color="#091314" stop-opacity="0"/><stop offset=".242" stop-color="#091314" stop-opacity=".5"/><stop offset=".25" stop-color="#091314"/><stop offset=".522" stop-color="#091314"/><stop offset=".53" stop-color="#091314" stop-opacity=".5"/><stop offset="1" stop-color="#091314" stop-opacity="0"/></linearGradient><linearGradient id="u" x1="89" x2="311" y1="66.128" y2="66.128" gradientUnits="userSpaceOnUse"><stop stop-color="#091314" stop-opacity="0"/><stop offset=".242" stop-color="#091314" stop-opacity=".5"/><stop offset=".25" stop-color="#091314"/><stop offset=".538" stop-color="#091314"/><stop offset=".546" stop-color="#091314" stop-opacity=".5"/><stop offset="1" stop-color="#091314" stop-opacity="0"/></linearGradient><linearGradient id="v" x1="89" x2="311" y1="69.702" y2="69.702" gradientUnits="userSpaceOnUse"><stop stop-color="#091314" stop-opacity="0"/><stop offset=".242" stop-color="#091314" stop-opacity=".5"/><stop offset=".25" stop-color="#091314"/><stop offset=".554" stop-color="#091314"/><stop offset=".562" stop-color="#091314" stop-opacity=".5"/><stop offset="1" stop-color="#091314" stop-opacity="0"/></linearGradient><linearGradient id="w" x1="89" x2="311" y1="73.276" y2="73.276" gradientUnits="userSpaceOnUse"><stop stop-color="#091314" stop-opacity="0"/><stop offset=".242" stop-color="#091314" stop-opacity=".5"/><stop offset=".25" stop-color="#091314"/><stop offset=".57" stop-color="#091314"/><stop offset=".577" stop-color="#091314" stop-opacity=".5"/><stop offset="1" stop-color="#091314" stop-opacity="0"/></linearGradient><linearGradient id="x" x1="89" x2="311" y1="76.851" y2="76.851" gradientUnits="userSpaceOnUse"><stop stop-color="#091314" stop-opacity="0"/><stop offset=".242" stop-color="#091314" stop-opacity=".5"/><stop offset=".25" stop-color="#091314"/><stop offset=".586" stop-color="#091314"/><stop offset=".593" stop-color="#091314" stop-opacity=".5"/><stop offset="1" stop-color="#091314" stop-opacity="0"/></linearGradient><linearGradient id="y" x1="89" x2="311" y1="80.425" y2="80.425" gradientUnits="userSpaceOnUse"><stop stop-color="#091314" stop-opacity="0"/><stop offset=".242" stop-color="#091314" stop-opacity=".5"/><stop offset=".25" stop-color="#091314"/><stop offset=".601" stop-color="#091314"/><stop offset=".609" stop-color="#091314" stop-opacity=".5"/><stop offset="1" stop-color="#091314" stop-opacity="0"/></linearGradient><linearGradient id="z" x1="89" x2="311" y1="84" y2="84" gradientUnits="userSpaceOnUse"><stop stop-color="#091314" stop-opacity="0"/><stop offset=".242" stop-color="#091314" stop-opacity=".5"/><stop offset=".25" stop-color="#091314"/><stop offset=".617" stop-color="#091314"/><stop offset=".625" stop-color="#091314" stop-opacity=".5"/><stop offset="1" stop-color="#091314" stop-opacity="0"/></linearGradient><linearGradient id="A" x1="89" x2="311" y1="87.575" y2="87.575" gradientUnits="userSpaceOnUse"><stop stop-color="#091314" stop-opacity="0"/><stop offset=".242" stop-color="#091314" stop-opacity=".5"/><stop offset=".25" stop-color="#091314"/><stop offset=".633" stop-color="#091314"/><stop offset=".64" stop-color="#091314" stop-opacity=".5"/><stop offset="1" stop-color="#091314" stop-opacity="0"/></linearGradient><linearGradient id="B" x1="89" x2="311" y1="91.149" y2="91.149" gradientUnits="userSpaceOnUse"><stop stop-color="#091314" stop-opacity="0"/><stop offset=".242" stop-color="#091314" stop-opacity=".5"/><stop offset=".25" stop-color="#091314"/><stop offset=".649" stop-color="#091314"/><stop offset=".656" stop-color="#091314" stop-opacity=".5"/><stop offset="1" stop-color="#091314" stop-opacity="0"/></linearGradient><linearGradient id="C" x1="89" x2="311" y1="94.724" y2="94.724" gradientUnits="userSpaceOnUse"><stop stop-color="#091314" stop-opacity="0"/><stop offset=".242" stop-color="#091314" stop-opacity=".5"/><stop offset=".25" stop-color="#091314"/><stop offset=".664" stop-color="#091314"/><stop offset=".672" stop-color="#091314" stop-opacity=".5"/><stop offset="1" stop-color="#091314" stop-opacity="0"/></linearGradient><linearGradient id="D" x1="89" x2="311" y1="98.298" y2="98.298" gradientUnits="userSpaceOnUse"><stop stop-color="#091314" stop-opacity="0"/><stop offset=".242" stop-color="#091314" stop-opacity=".5"/><stop offset=".25" stop-color="#091314"/><stop offset=".68" stop-color="#091314"/><stop offset=".688" stop-color="#091314" stop-opacity=".5"/><stop offset="1" stop-color="#091314" stop-opacity="0"/></linearGradient><linearGradient id="E" x1="89" x2="311" y1="101.872" y2="101.872" gradientUnits="userSpaceOnUse"><stop stop-color="#091314" stop-opacity="0"/><stop offset=".242" stop-color="#091314" stop-opacity=".5"/><stop offset=".25" stop-color="#091314"/><stop offset=".696" stop-color="#091314"/><stop offset=".703" stop-color="#091314" stop-opacity=".5"/><stop offset="1" stop-color="#091314" stop-opacity="0"/></linearGradient><linearGradient id="F" x1="89" x2="311" y1="105.447" y2="105.447" gradientUnits="userSpaceOnUse"><stop stop-color="#091314" stop-opacity="0"/><stop offset=".242" stop-color="#091314" stop-opacity=".5"/><stop offset=".25" stop-color="#091314"/><stop offset=".712" stop-color="#091314"/><stop offset=".719" stop-color="#091314" stop-opacity=".5"/><stop offset="1" stop-color="#091314" stop-opacity="0"/></linearGradient><linearGradient id="G" x1="89" x2="311" y1="109.021" y2="109.021" gradientUnits="userSpaceOnUse"><stop stop-color="#091314" stop-opacity="0"/><stop offset=".242" stop-color="#091314" stop-opacity=".5"/><stop offset=".25" stop-color="#091314"/><stop offset=".728" stop-color="#091314"/><stop offset=".735" stop-color="#091314" stop-opacity=".5"/><stop offset="1" stop-color="#091314" stop-opacity="0"/></linearGradient><linearGradient id="H" x1="89" x2="311" y1="112.596" y2="112.596" gradientUnits="userSpaceOnUse"><stop stop-color="#091314" stop-opacity="0"/><stop offset=".242" stop-color="#091314" stop-opacity=".5"/><stop offset=".25" stop-color="#091314"/><stop offset=".743" stop-color="#091314"/><stop offset=".751" stop-color="#091314" stop-opacity=".5"/><stop offset="1" stop-color="#091314" stop-opacity="0"/></linearGradient><linearGradient id="I" x1="89" x2="311" y1="116.17" y2="116.17" gradientUnits="userSpaceOnUse"><stop stop-color="#091314" stop-opacity="0"/><stop offset=".252" stop-color="#091314" stop-opacity=".5"/><stop offset=".259" stop-color="#091314"/><stop offset=".5" stop-color="#091314"/><stop offset=".507" stop-color="#091314" stop-opacity=".5"/><stop offset="1" stop-color="#091314" stop-opacity="0"/></linearGradient><linearGradient id="J" x1="89" x2="311" y1="119.745" y2="119.745" gradientUnits="userSpaceOnUse"><stop stop-color="#091314" stop-opacity="0"/><stop offset=".267" stop-color="#091314" stop-opacity=".5"/><stop offset=".275" stop-color="#091314"/><stop offset=".5" stop-color="#091314"/><stop offset=".507" stop-color="#091314" stop-opacity=".5"/><stop offset="1" stop-color="#091314" stop-opacity="0"/></linearGradient><linearGradient id="K" x1="89" x2="311" y1="123.319" y2="123.319" gradientUnits="userSpaceOnUse"><stop stop-color="#091314" stop-opacity="0"/><stop offset=".283" stop-color="#091314" stop-opacity=".5"/><stop offset=".291" stop-color="#091314"/><stop offset=".5" stop-color="#091314"/><stop offset=".507" stop-color="#091314" stop-opacity=".5"/><stop offset="1" stop-color="#091314" stop-opacity="0"/></linearGradient><linearGradient id="L" x1="89" x2="311" y1="126.894" y2="126.894" gradientUnits="userSpaceOnUse"><stop stop-color="#091314" stop-opacity="0"/><stop offset=".299" stop-color="#091314" stop-opacity=".5"/><stop offset=".306" stop-color="#091314"/><stop offset=".5" stop-color="#091314"/><stop offset=".507" stop-color="#091314" stop-opacity=".5"/><stop offset="1" stop-color="#091314" stop-opacity="0"/></linearGradient><linearGradient id="M" x1="89" x2="311" y1="130.468" y2="130.468" gradientUnits="userSpaceOnUse"><stop stop-color="#091314" stop-opacity="0"/><stop offset=".315" stop-color="#091314" stop-opacity=".5"/><stop offset=".322" stop-color="#091314"/><stop offset=".5" stop-color="#091314"/><stop offset=".507" stop-color="#091314" stop-opacity=".5"/><stop offset="1" stop-color="#091314" stop-opacity="0"/></linearGradient><linearGradient id="N" x1="89" x2="311" y1="134.043" y2="134.043" gradientUnits="userSpaceOnUse"><stop stop-color="#091314" stop-opacity="0"/><stop offset=".33" stop-color="#091314" stop-opacity=".5"/><stop offset=".338" stop-color="#091314"/><stop offset=".5" stop-color="#091314"/><stop offset=".507" stop-color="#091314" stop-opacity=".5"/><stop offset="1" stop-color="#091314" stop-opacity="0"/></linearGradient><linearGradient id="O" x1="89" x2="311" y1="137.617" y2="137.617" gradientUnits="userSpaceOnUse"><stop stop-color="#091314" stop-opacity="0"/><stop offset=".346" stop-color="#091314" stop-opacity=".5"/><stop offset=".354" stop-color="#091314"/><stop offset=".5" stop-color="#091314"/><stop offset=".507" stop-color="#091314" stop-opacity=".5"/><stop offset="1" stop-color="#091314" stop-opacity="0"/></linearGradient><linearGradient id="P" x1="89" x2="311" y1="141.192" y2="141.192" gradientUnits="userSpaceOnUse"><stop stop-color="#091314" stop-opacity="0"/><stop offset=".362" stop-color="#091314" stop-opacity=".5"/><stop offset=".369" stop-color="#091314"/><stop offset=".5" stop-color="#091314"/><stop offset=".507" stop-color="#091314" stop-opacity=".5"/><stop offset="1" stop-color="#091314" stop-opacity="0"/></linearGradient><linearGradient id="Q" x1="89" x2="311" y1="144.766" y2="144.766" gradientUnits="userSpaceOnUse"><stop stop-color="#091314" stop-opacity="0"/><stop offset=".378" stop-color="#091314" stop-opacity=".5"/><stop offset=".385" stop-color="#091314"/><stop offset=".5" stop-color="#091314"/><stop offset=".507" stop-color="#091314" stop-opacity=".5"/><stop offset="1" stop-color="#091314" stop-opacity="0"/></linearGradient><linearGradient id="R" x1="89" x2="311" y1="148.34" y2="148.34" gradientUnits="userSpaceOnUse"><stop stop-color="#091314" stop-opacity="0"/><stop offset=".393" stop-color="#091314" stop-opacity=".5"/><stop offset=".401" stop-color="#091314"/><stop offset=".5" stop-color="#091314"/><stop offset=".507" stop-color="#091314" stop-opacity=".5"/><stop offset="1" stop-color="#091314" stop-opacity="0"/></linearGradient><linearGradient id="S" x1="89" x2="311" y1="151.915" y2="151.915" gradientUnits="userSpaceOnUse"><stop stop-color="#091314" stop-opacity="0"/><stop offset=".409" stop-color="#091314" stop-opacity=".5"/><stop offset=".417" stop-color="#091314"/><stop offset=".5" stop-color="#091314"/><stop offset=".507" stop-color="#091314" stop-opacity=".5"/><stop offset="1" stop-color="#091314" stop-opacity="0"/></linearGradient><linearGradient id="T" x1="89" x2="311" y1="155.489" y2="155.489" gradientUnits="userSpaceOnUse"><stop stop-color="#091314" stop-opacity="0"/><stop offset=".425" stop-color="#091314" stop-opacity=".5"/><stop offset=".433" stop-color="#091314"/><stop offset=".5" stop-color="#091314"/><stop offset=".507" stop-color="#091314" stop-opacity=".5"/><stop offset="1" stop-color="#091314" stop-opacity="0"/></linearGradient><linearGradient id="U" x1="89" x2="311" y1="159.064" y2="159.064" gradientUnits="userSpaceOnUse"><stop stop-color="#091314" stop-opacity="0"/><stop offset=".441" stop-color="#091314" stop-opacity=".5"/><stop offset=".448" stop-color="#091314"/><stop offset=".5" stop-color="#091314"/><stop offset=".507" stop-color="#091314" stop-opacity=".5"/><stop offset="1" stop-color="#091314" stop-opacity="0"/></linearGradient><linearGradient id="V" x1="89" x2="311" y1="162.638" y2="162.638" gradientUnits="userSpaceOnUse"><stop stop-color="#091314" stop-opacity="0"/><stop offset=".457" stop-color="#091314" stop-opacity=".5"/><stop offset=".464" stop-color="#091314"/><stop offset=".5" stop-color="#091314"/><stop offset=".507" stop-color="#091314" stop-opacity=".5"/><stop offset="1" stop-color="#091314" stop-opacity="0"/></linearGradient><linearGradient id="W" x1="89" x2="311" y1="166.213" y2="166.213" gradientUnits="userSpaceOnUse"><stop stop-color="#091314" stop-opacity="0"/><stop offset=".472" stop-color="#091314" stop-opacity=".5"/><stop offset=".48" stop-color="#091314"/><stop offset=".5" stop-color="#091314"/><stop offset=".507" stop-color="#091314" stop-opacity=".5"/><stop offset="1" stop-color="#091314" stop-opacity="0"/></linearGradient><linearGradient id="X" x1="89" x2="311" y1="169.787" y2="169.787" gradientUnits="userSpaceOnUse"><stop stop-color="#091314" stop-opacity="0"/><stop offset=".488" stop-color="#091314" stop-opacity=".5"/><stop offset=".496" stop-color="#091314"/><stop offset=".5" stop-color="#091314"/><stop offset=".507" stop-color="#091314" stop-opacity=".5"/><stop offset="1" stop-color="#091314" stop-opacity="0"/></linearGradient><clipPath id="a"><path fill="#fff" d="M0 .426h400V172H0z"/></clipPath><filter id="b" width="297.674" height="226.844" x="87.429" y="7.418" color-interpolation-filters="sRGB" filterUnits="userSpaceOnUse"><feFlood flood-opacity="0" result="BackgroundImageFix"/><feBlend in="SourceGraphic" in2="BackgroundImageFix" result="shape"/><feGaussianBlur result="effect1_foregroundBlur_378_31340" stdDeviation="20"/></filter></defs></svg>