<svg width="106" height="28" viewBox="0 0 106 28" fill="none" xmlns="http://www.w3.org/2000/svg">
<path d="M3.51782 21.9693C5.46066 21.9693 7.03565 20.3943 7.03565 18.4515C7.03565 16.5086 5.46066 14.9336 3.51782 14.9336C1.57498 14.9336 0 16.5086 0 18.4515C0 20.3943 1.57498 21.9693 3.51782 21.9693Z" fill="#FACF18"/>
<path d="M8.49243 16.9947C10.4353 16.9947 12.0103 15.4197 12.0103 13.4768C12.0103 11.534 10.4353 9.95898 8.49243 9.95898C6.54959 9.95898 4.97461 11.534 4.97461 13.4768C4.97461 15.4197 6.54959 16.9947 8.49243 16.9947Z" fill="#EF6051"/>
<path d="M3.51782 12.0182C5.46066 12.0182 7.03565 10.4431 7.03565 8.5003C7.03565 6.55743 5.46066 4.98242 3.51782 4.98242C1.57498 4.98242 0 6.55743 0 8.5003C0 10.4431 1.57498 12.0182 3.51782 12.0182Z" fill="#5E85FE"/>
<path d="M23.4338 12.0201C25.3767 12.0201 26.9517 10.4451 26.9517 8.50224C26.9517 6.55937 25.3767 4.98438 23.4338 4.98438C21.491 4.98438 19.916 6.55937 19.916 8.50224C19.916 10.4451 21.491 12.0201 23.4338 12.0201Z" fill="#5E85FE"/>
<path d="M18.4592 16.9947C20.4021 16.9947 21.9771 15.4197 21.9771 13.4768C21.9771 11.534 20.4021 9.95898 18.4592 9.95898C16.5164 9.95898 14.9414 11.534 14.9414 13.4768C14.9414 15.4197 16.5164 16.9947 18.4592 16.9947Z" fill="#FA9BFA"/>
<path d="M23.4338 21.9693C25.3767 21.9693 26.9517 20.3943 26.9517 18.4515C26.9517 16.5086 25.3767 14.9336 23.4338 14.9336C21.491 14.9336 19.916 16.5086 19.916 18.4515C19.916 20.3943 21.491 21.9693 23.4338 21.9693Z" fill="#FACF18"/>
<path d="M8.50025 7.03575C10.4431 7.03575 12.0181 5.46075 12.0181 3.51788C12.0181 1.57501 10.4431 0 8.50025 0C6.55741 0 4.98242 1.57501 4.98242 3.51788C4.98242 5.46075 6.55741 7.03575 8.50025 7.03575Z" fill="#5E85FE"/>
<path d="M13.4768 12.0103C15.4196 12.0103 16.9946 10.4353 16.9946 8.49249C16.9946 6.54962 15.4196 4.97461 13.4768 4.97461C11.534 4.97461 9.95898 6.54962 9.95898 8.49249C9.95898 10.4353 11.534 12.0103 13.4768 12.0103Z" fill="#EF6051"/>
<path d="M18.4514 7.03575C20.3943 7.03575 21.9692 5.46075 21.9692 3.51788C21.9692 1.57501 20.3943 0 18.4514 0C16.5086 0 14.9336 1.57501 14.9336 3.51788C14.9336 5.46075 16.5086 7.03575 18.4514 7.03575Z" fill="#5E85FE"/>
<path d="M18.4514 26.9517C20.3943 26.9517 21.9692 25.3767 21.9692 23.4339C21.9692 21.491 20.3943 19.916 18.4514 19.916C16.5086 19.916 14.9336 21.491 14.9336 23.4339C14.9336 25.3767 16.5086 26.9517 18.4514 26.9517Z" fill="#FACF18"/>
<path d="M13.4768 21.9771C15.4196 21.9771 16.9946 20.4021 16.9946 18.4593C16.9946 16.5164 15.4196 14.9414 13.4768 14.9414C11.534 14.9414 9.95898 16.5164 9.95898 18.4593C9.95898 20.4021 11.534 21.9771 13.4768 21.9771Z" fill="#FA9BFA"/>
<path d="M8.57056 27.0221C10.5134 27.0221 12.0884 25.4471 12.0884 23.5042C12.0884 21.5613 10.5134 19.9863 8.57056 19.9863C6.62772 19.9863 5.05273 21.5613 5.05273 23.5042C5.05273 25.4471 6.62772 27.0221 8.57056 27.0221Z" fill="#FACF18"/>
<path d="M42.6211 4.15234C40.1382 4.15234 38.2676 6.07973 38.2676 8.63068V9.43568H36V12.168H38.2676V22.2924H41.6688V12.1566H44.2537V9.42435H41.6688V8.61934C41.6688 7.53094 42.2016 6.9754 43.2447 6.9754C43.5508 6.9754 43.8569 7.00941 44.1517 7.0661L44.3558 7.11144V4.33375L44.231 4.29973C43.8116 4.20904 43.2787 4.15234 42.6211 4.15234Z" fill="#FFF6E8"/>
<path d="M51.681 9.05078C47.7923 9.05078 44.8672 11.9758 44.8672 15.8647C44.8672 19.7307 47.7923 22.6558 51.681 22.6558C55.5812 22.6558 58.5176 19.7421 58.5176 15.8647C58.5176 11.9872 55.5812 9.05078 51.681 9.05078ZM55.0709 15.8647C55.0709 18.1775 53.7104 19.7307 51.681 19.7307C49.6856 19.7307 48.2911 18.1435 48.2911 15.8647C48.2911 13.5744 49.6856 11.9758 51.681 11.9758C53.6764 11.9872 55.0709 13.5858 55.0709 15.8647Z" fill="#FFF6E8"/>
<path d="M67.3597 9.27734C65.0808 9.27734 63.4256 11.0007 63.1761 12.69L63.6296 9.42475H60.3984V22.2815H63.7997V16.2839C63.7997 13.8578 64.9675 12.4746 67.0195 12.4746C67.5637 12.4746 67.8471 12.5199 68.278 12.6219L68.4821 12.6673V9.43609L68.3461 9.40208C68.0059 9.33403 67.7111 9.27734 67.3597 9.27734Z" fill="#FFF6E8"/>
<path d="M85.3537 9.12891C85.3083 9.12891 85.2516 9.12891 85.2063 9.12891H85.1723C84.4241 9.12891 83.7324 9.27629 83.1429 9.58246C82.1338 10.0359 81.3856 10.7955 80.9775 11.7592C80.2065 9.99058 78.9253 9.12891 77.066 9.12891C77.0206 9.12891 76.9866 9.12891 76.9413 9.12891H76.9186C76.125 9.12891 75.4107 9.29897 74.7985 9.62781C73.8914 10.1946 73.4266 10.9882 73.1886 11.6232C73.1092 11.9179 73.0185 12.2694 72.9392 12.6889C72.9392 12.6889 72.9505 12.5415 72.9958 12.2921L73.0865 11.6459L73.3926 9.42365H70.0254V22.2805H73.4266V15.4212C73.4266 13.1878 74.3449 11.9633 76.023 11.9633C77.5875 11.9633 78.4378 12.995 78.4378 14.8771V22.2918H81.8391V15.4212C81.8391 13.1878 82.7234 11.9633 84.3334 11.9633C85.8073 11.9633 86.6235 12.995 86.6235 14.8771V22.2918H90.0248V14.4463C90.0248 11.2151 88.1881 9.12891 85.3537 9.12891Z" fill="#FFF6E8"/>
<path d="M78.8578 12.291L78.8125 12.6878L78.8578 12.291Z" fill="#FFF6E8"/>
<path d="M102.145 9.12891L102.598 11.2831C102.497 11.1016 102.372 10.9429 102.225 10.7955C102.112 10.6708 101.987 10.5574 101.851 10.4441C101.839 10.4441 101.839 10.4327 101.828 10.4327C101.782 10.3987 101.726 10.3534 101.681 10.3194C101.375 10.0813 101.068 9.91123 100.865 9.8092C100.025 9.38967 99.0497 9.14024 98.0411 9.14024C94.3791 9.14024 91.8281 11.8953 91.8281 15.8294C91.8281 19.8089 94.3908 22.5979 98.0411 22.5979C99.5598 22.5979 101.035 22.031 102.009 21.1127C102.225 20.9086 102.418 20.6706 102.588 20.3984L102.134 22.3145H105.501V9.16292L102.145 9.12891ZM98.6646 19.7068C96.6582 19.7068 95.2518 18.1083 95.2518 15.818C95.2518 13.5392 96.624 12.0086 98.6646 12.0086C100.717 12.0086 102.1 13.5392 102.1 15.818C102.112 18.1083 100.695 19.7068 98.6646 19.7068Z" fill="#FFF6E8"/>
</svg>
