<svg xmlns="http://www.w3.org/2000/svg" width="172" height="32" fill="none"><path fill="url(#a)" fill-rule="evenodd" d="M50 23.288V3h10.809v2.546h-8.203v5.535h6.3v2.556h-6.29V23.3L50 23.289zM66.708 6.625a1.71 1.71 0 1 1-2.42-2.42 1.71 1.71 0 0 1 2.42 2.42zM64.18 23.3V9.672h2.616V23.3H64.18zm6.41-7.608c0-3.483 2.416-6.411 5.878-6.411v.01c1.59 0 2.898.604 3.854 1.61V9.682h2.617v12.61a6.694 6.694 0 0 1-6.941 6.703 6.694 6.694 0 0 1-3.385-1.067l1.308-2.264c.655.463 1.48.785 2.315.785a4.093 4.093 0 0 0 3.79-2.566c.202-.502.303-1.04.296-1.58V20.49c-.956 1.006-2.264 1.61-3.854 1.61-3.462 0-5.877-2.928-5.877-6.41zm6.17-3.865c-1.913 0-3.563 1.7-3.563 3.864 0 2.164 1.65 3.855 3.563 3.855 1.901 0 3.552-1.69 3.552-3.855 0-2.153-1.64-3.864-3.552-3.864zm15.578 0a2.848 2.848 0 0 0-2.798 2.858V23.3h-2.616V9.672h2.616v1.248a4.125 4.125 0 0 1 3.362-1.64c1.831 0 3.24.905 4.045 2.294a5.012 5.012 0 0 1 4.157-2.294c2.968 0 4.83 2.395 4.83 5.364v8.655h-2.596v-8.625a2.85 2.85 0 0 0-2.798-2.858 2.848 2.848 0 0 0-2.798 2.858v8.615h-2.616v-8.615a2.847 2.847 0 0 0-2.788-2.858v.01zm27.504-.615.011.011h-.011v-.01zm-2.089-1.434a6.31 6.31 0 0 1 2.089 1.434v-1.54h2.617V23.3h-2.606v-1.55a6.344 6.344 0 0 1-4.6 1.942c-3.884 0-6.642-3.28-6.642-7.206 0-3.924 2.758-7.205 6.642-7.205a6.309 6.309 0 0 1 2.5.497zm-2.218 2.049c-2.325 0-4.317 2.063-4.317 4.66 0 2.596 2.002 4.649 4.317 4.649 2.325 0 4.318-2.053 4.318-4.65 0-2.596-2.003-4.66-4.318-4.66z" clip-rule="evenodd"/><defs><linearGradient id="a" x1="86.23" x2="86.23" y1="3" y2="29" gradientUnits="userSpaceOnUse"><stop stop-color="#fff" stop-opacity=".8"/><stop offset="1" stop-color="#fff" stop-opacity=".4"/></linearGradient></defs></svg>