<svg xmlns="http://www.w3.org/2000/svg" width="172" height="32" fill="none"><path fill="url(#a)" d="M56.914 12.548v7.049h1.753a3.338 3.338 0 0 0 2.383-1.053c.63-.668.974-1.558.96-2.478a3.482 3.482 0 0 0-.947-2.489 3.287 3.287 0 0 0-2.396-1.03h-1.752zm1.753-2.21c3.265 0 5.736 2.538 5.736 5.728 0 3.191-2.47 5.744-5.736 5.744h-3.865a.281.281 0 0 1-.277-.285v-10.89c0-.159.124-.287.277-.287l3.865-.01zm14.154 9.504c1.483.005 2.823-.91 3.394-2.318a3.85 3.85 0 0 0-.785-4.112 3.595 3.595 0 0 0-3.994-.826c-1.37.581-2.266 1.955-2.269 3.48 0 2.08 1.633 3.766 3.654 3.776zm0-9.764c3.438 0 6.066 2.717 6.066 5.988 0 3.272-2.628 5.99-6.066 5.99-3.438 0-6.043-2.705-6.043-5.99 0-3.284 2.629-5.988 6.044-5.988zm14.416 9.764c2.022-.005 3.658-1.694 3.656-3.773-.002-2.081-1.642-3.766-3.663-3.767-2.023 0-3.663 1.684-3.666 3.764a3.83 3.83 0 0 0 1.076 2.671 3.624 3.624 0 0 0 2.597 1.105zm0-9.764c3.426 0 6.054 2.704 6.054 5.988 0 3.285-2.639 5.99-6.055 5.99-3.415 0-6.065-2.705-6.065-5.99 0-3.284 2.628-5.988 6.065-5.988zm14.069 2.47h-2.471v3.034h2.471a1.423 1.423 0 0 0 1.061-.407c.286-.277.449-.663.452-1.068a1.53 1.53 0 0 0-.429-1.117 1.44 1.44 0 0 0-1.084-.44v-.002zm-4.861-1.914c0-.158.125-.286.278-.286h4.651c2.218 0 3.823 1.672 3.823 3.77.017 1.42-.756 2.725-1.99 3.36l2.145 3.901a.291.291 0 0 1 .011.305.273.273 0 0 1-.263.14h-1.882a.275.275 0 0 1-.252-.154l-2.068-3.861h-2.072v3.707a.282.282 0 0 1-.277.286h-1.814a.282.282 0 0 1-.277-.286l-.012-10.881h-.001zm14.982 1.967v7.05h1.751a3.338 3.338 0 0 0 2.384-1.048c.63-.668.975-1.557.962-2.477a3.488 3.488 0 0 0-.944-2.493 3.288 3.288 0 0 0-2.401-1.03l-1.752-.002zm1.751-2.212c3.266 0 5.736 2.54 5.736 5.737s-2.47 5.738-5.736 5.738h-3.853a.276.276 0 0 1-.198-.085.281.281 0 0 1-.079-.2v-10.89c0-.159.124-.287.277-.287l3.853-.013zm13.024 2.803-1.356 3.77h2.709l-1.353-3.77zm-2.151 5.9-.887 2.51a.28.28 0 0 1-.277.197h-1.925a.275.275 0 0 1-.253-.12.29.29 0 0 1-.024-.285l4.159-10.88a.276.276 0 0 1 .277-.188h2.153a.276.276 0 0 1 .278.188l4.159 10.88c.02.045.029.096.024.146a.29.29 0 0 1-.049.139.276.276 0 0 1-.253.119h-1.924a.275.275 0 0 1-.277-.197l-.887-2.51h-4.294v.001zm9.891-5.655c0-1.802 1.513-3.36 3.903-3.36a4.866 4.866 0 0 1 3.467 1.344.29.29 0 0 1 0 .42l-1.066 1.088a.273.273 0 0 1-.393 0 2.762 2.762 0 0 0-1.849-.75c-.956 0-1.663.571-1.663 1.23 0 2.13 5.65.9 5.65 4.998-.003 2.077-1.528 3.648-4.225 3.648a5.567 5.567 0 0 1-4.031-1.665.286.286 0 0 1-.09-.21.286.286 0 0 1 .09-.21l1.031-1.06a.275.275 0 0 1 .402 0 3.51 3.51 0 0 0 2.437 1.021c1.195 0 1.982-.656 1.982-1.478 0-2.13-5.647-.9-5.647-5m18.296-2.833v4.305h-4.782V10.62a.284.284 0 0 0-.277-.285h-1.814a.276.276 0 0 0-.198.085.281.281 0 0 0-.079.2v10.878c0 .157.125.286.277.286h1.814a.283.283 0 0 0 .277-.286v-4.374h4.778v4.374c0 .157.125.286.277.286h1.814a.282.282 0 0 0 .277-.286V10.62a.285.285 0 0 0-.17-.262.28.28 0 0 0-.107-.023h-1.814a.28.28 0 0 0-.273.285zM44.343 11.787A7.228 7.228 0 0 0 37.947 8H17.692a.696.696 0 0 0-.679.826.684.684 0 0 0 .19.352l4.412 4.391c.39.39.92.607 1.472.607h14.279a1.832 1.832 0 0 1 1.86 1.804 1.83 1.83 0 0 1-1.823 1.841H27.56a.696.696 0 0 0-.681.825.685.685 0 0 0 .189.353l4.415 4.395c.392.389.921.607 1.473.606h4.452c5.793 0 10.173-6.13 6.936-12.216"/><defs><linearGradient id="a" x1="85.8" x2="85.8" y1="8" y2="24" gradientUnits="userSpaceOnUse"><stop stop-color="#fff" stop-opacity=".8"/><stop offset="1" stop-color="#fff" stop-opacity=".4"/></linearGradient></defs></svg>