<svg xmlns="http://www.w3.org/2000/svg" width="110" height="21" fill="none"><path fill="url(#a)" fill-rule="evenodd" d="M33.637 10.15a2.525 2.525 0 1 0 5.05.003 2.525 2.525 0 0 0-5.05-.002zm5.994-.93h5.414v1.861h-5.414l4.69 2.707-.931 1.608-4.786-2.768 2.755 4.786-1.51.87-2.755-4.773v5.522h-1.861V13.62l-2.707 4.689-1.608-.93 2.707-4.69-4.689 2.708-.93-1.608 4.689-2.707H27.28v-1.86h5.414l-4.689-2.708.93-1.607 4.69 2.707-2.708-4.689 1.608-.93 2.707 4.689V1.269h1.86v5.414l2.708-4.69 1.607.931-2.707 4.69 4.689-2.708.93 1.607L39.63 9.22zm9.197-5.087v11.976h2.2V4.133h-2.2zm23.178 3.83h-2.079v8.146h2.2v-4.762c0-.894.568-1.607 1.522-1.607.991 0 1.438.665 1.438 1.535v4.834h2.176v-4.762c0-.882.555-1.607 1.498-1.607 1.003 0 1.438.665 1.438 1.535v4.834h2.127v-5.281c0-2.188-1.438-3.094-2.936-3.094-1.076 0-1.946.363-2.587 1.354-.41-.87-1.305-1.354-2.416-1.354-.895 0-1.934.423-2.381 1.22v-.99zm-20.278 4.085c0 2.466 1.788 4.302 4.266 4.302 2.477 0 4.266-1.86 4.266-4.302 0-2.417-1.765-4.314-4.266-4.314-2.477 0-4.266 1.885-4.266 4.314zm1.946 0a2.32 2.32 0 0 1 4.64 0 2.329 2.329 0 0 1-2.32 2.32 2.32 2.32 0 0 1-2.32-2.32zm7.02 0c0 2.466 1.79 4.302 4.267 4.302 2.465 0 4.265-1.86 4.265-4.302 0-2.417-1.764-4.314-4.265-4.314-2.478 0-4.266 1.885-4.266 4.314zm1.922-.012a2.347 2.347 0 0 1 2.345-2.344 2.354 2.354 0 0 1 2.344 2.344 2.347 2.347 0 0 1-2.344 2.345 2.347 2.347 0 0 1-2.345-2.345z" clip-rule="evenodd"/><defs><linearGradient id="a" x1="54.803" x2="54.803" y1="1.269" y2="19.033" gradientUnits="userSpaceOnUse"><stop stop-color="#fff" stop-opacity=".8"/><stop offset="1" stop-color="#fff" stop-opacity=".4"/></linearGradient></defs></svg>