<svg width="1021" height="625" viewBox="0 0 1021 625" fill="none" xmlns="http://www.w3.org/2000/svg">
<path fill-rule="evenodd" clip-rule="evenodd" d="M2.16377 38.37H0.432698C0.194508 38.37 -0.000215292 38.6002 -0.000215292 38.8814L-0.000215292 72.3741C-0.000215292 72.6553 0.194508 72.8855 0.432698 72.8855H2.16377C2.40196 72.8855 2.59668 72.6553 2.59668 72.3741L2.59668 38.8814C2.59668 38.6002 2.40196 38.37 2.16377 38.37ZM2.38037 72.3743C2.38037 72.5276 2.29373 72.6299 2.16391 72.6299L0.432846 72.6296C0.303031 72.6296 0.216389 72.5274 0.216389 72.3741L0.216389 38.8814C0.216389 38.7281 0.303031 38.6258 0.432846 38.6258H2.16391C2.29373 38.6258 2.38037 38.7281 2.38037 38.8814L2.38037 72.3743Z" fill="#150050" fill-opacity="0.15"/>
<path d="M2.16406 72.885H0.432698C0.194508 72.885 -0.000215292 72.6548 -0.000215292 72.3738L-0.000215292 38.8809C-0.000215292 38.5987 0.194508 38.3697 0.432698 38.3697H2.16406C2.40225 38.3697 2.59668 38.5997 2.59668 38.8809L2.59668 72.3738C2.59668 72.655 2.40196 72.885 2.16406 72.885Z" fill="#150050" fill-opacity="0.5"/>
<path d="M72.4204 1.87019V0.375412C72.4516 0.148099 72.7035 -0.0178177 72.9881 0.00154114L110.178 0.00154114C110.463 -0.0178177 110.715 0.148099 110.746 0.375412V1.87019C110.715 2.09741 110.463 2.26319 110.178 2.24382L72.9881 2.24382C72.7036 2.26319 72.4517 2.09741 72.4204 1.87019H72.4204Z" fill="#150050" fill-opacity="0.5"/>
<path d="M121.761 1.86994V0.375168C121.792 0.147855 122.044 -0.0180619 122.329 0.001297L159.519 0.001297C159.804 -0.0180619 160.056 0.147855 160.087 0.375168V1.86994C160.056 2.09716 159.804 2.26295 159.519 2.24358L122.329 2.24358C122.044 2.26295 121.793 2.09716 121.761 1.86994H121.761Z" fill="#150050" fill-opacity="0.5"/>
<path d="M1.78125 589.494L1.78125 36.683C1.78078 27.2662 6.45307 18.2349 14.7702 11.5761C23.0873 4.91742 34.3678 1.17676 46.1299 1.17712H975.984C987.746 1.17676 999.027 4.91742 1007.34 11.5761C1015.66 18.2349 1020.33 27.2662 1020.33 36.683V589.494C1020.33 598.911 1015.66 607.942 1007.34 614.601C999.027 621.26 987.746 625 975.984 625H46.1299C34.3678 625 23.0873 621.26 14.7702 614.601C6.45307 607.942 1.78078 598.911 1.78125 589.494Z" fill="#150050" fill-opacity="0.15"/>
<path fill-rule="evenodd" clip-rule="evenodd" d="M1020.33 589.494V36.683C1020.33 17.096 1000.45 1.17712 975.984 1.17712H46.1299C21.6647 1.17712 1.78125 17.096 1.78125 36.683L1.78125 589.494C1.78125 609.081 21.6647 625 46.1299 625H975.984C1000.45 625 1020.33 609.081 1020.33 589.494ZM46.1306 624.059C22.3115 624.059 2.9567 608.564 2.9567 589.494L2.9567 36.683C2.9567 17.6133 22.3115 2.11768 46.1306 2.11768H975.985C999.804 2.11768 1019.16 17.6133 1019.16 36.683V589.494C1019.16 608.564 999.804 624.059 975.985 624.059H46.1306Z" fill="#150050" fill-opacity="0.5"/>
<path d="M5.01221 37.3885L5.01221 588.789C5.00987 597.707 9.43401 606.261 17.3109 612.567C25.1877 618.873 35.8717 622.415 47.0113 622.414H975.103C986.243 622.415 996.927 618.873 1004.8 612.567C1012.68 606.261 1017.1 597.707 1017.1 588.789V37.3885C1017.1 28.4702 1012.68 19.9164 1004.8 13.6102C996.927 7.30389 986.243 3.76184 975.103 3.76373H47.0113C35.8717 3.76184 25.1877 7.30389 17.3109 13.6102C9.43401 19.9164 5.00987 28.4702 5.01221 37.3885Z" fill="#150050"/>
<ellipse cx="17.3459" cy="315.557" rx="4.93791" ry="6.1677" transform="rotate(-90 17.3459 315.557)" fill="#150050" fill-opacity="0.15"/>
<path fill-rule="evenodd" clip-rule="evenodd" d="M17.394 317.936C19.0617 317.936 20.4136 316.853 20.4136 315.518C20.4143 314.877 20.0964 314.262 19.5299 313.808C18.9635 313.355 18.1951 313.1 17.394 313.101C15.7264 313.101 14.3745 314.183 14.3745 315.518C14.3745 316.853 15.7264 317.936 17.394 317.936ZM17.3938 317.651C15.9269 317.643 14.7404 316.693 14.7296 315.518C14.7404 314.344 15.9269 313.394 17.3938 313.385C18.8607 313.394 20.0472 314.344 20.0579 315.518C20.0472 316.693 18.8607 317.643 17.3938 317.651Z" fill="#150050" fill-opacity="0.5"/>
<ellipse cx="17.3469" cy="295.336" rx="2.11625" ry="2.6433" transform="rotate(-90 17.3469 295.336)" fill="#150050" fill-opacity="0.15"/>
<rect x="966.587" y="625" width="2.58653" height="6.1677" transform="rotate(-90 966.587 625)" fill="#150050" fill-opacity="0.5"/>
<rect x="55.5293" y="625" width="2.58653" height="6.1677" transform="rotate(-90 55.5293 625)" fill="#150050" fill-opacity="0.5"/>
<rect x="55.5293" y="3.76367" width="2.58653" height="6.1677" transform="rotate(-90 55.5293 3.76367)" fill="#150050" fill-opacity="0.5"/>
<rect x="5.01221" y="431.481" width="3.2307" height="3.99736" transform="rotate(-180 5.01221 431.481)" fill="#150050" fill-opacity="0.5"/>
<rect x="1020.33" y="212.332" width="3.2307" height="3.99736" transform="rotate(-180 1020.33 212.332)" fill="#150050" fill-opacity="0.5"/>
<rect x="966.587" y="3.76367" width="2.58653" height="6.1677" transform="rotate(-90 966.587 3.76367)" fill="#150050" fill-opacity="0.5"/>
</svg>
