<?xml version="1.0" encoding="utf-8"?><svg width="259" height="37" xmlns="http://www.w3.org/2000/svg"><g fill="none" fill-rule="evenodd"><path d="M19.572 16.658c0-2.74-2.198-4.974-4.893-4.974s-4.893 2.234-4.893 4.974 2.198 4.974 4.893 4.974 4.893-2.235 4.893-4.974zm2.446 0c0 4.119-3.287 7.46-7.34 7.46-4.051 0-7.339-3.341-7.339-7.46s3.288-7.46 7.34-7.46 7.34 3.341 7.34 7.46zm2.447 0c0-5.498-4.377-9.947-9.786-9.947-5.41 0-9.786 4.449-9.786 9.947 0 5.498 4.377 9.947 9.786 9.947s9.786-4.449 9.786-9.947zm2.446 0c0 6.858-5.485 12.434-12.232 12.434-6.747 0-12.233-5.576-12.233-12.434S7.932 4.224 14.68 4.224c6.747 0 12.232 5.576 12.232 12.434zm2.447 0c0-8.238-6.575-14.921-14.68-14.921C6.576 1.737 0 8.42 0 16.657 0 24.897 6.575 31.58 14.679 31.58s14.679-6.683 14.679-14.921z" fill="#8CB400"/><path d="M44.079 29.811c-1.605-.025-2.908-.2-3.908-.523-1-.324-1.79-.779-2.37-1.364a4.537 4.537 0 0 1-1.186-2.131c-.21-.835-.315-1.776-.315-2.822V1.327L41.82.43v21.42c0 .498.036.946.11 1.345.075.399.217.735.426 1.01.21.273.513.498.908.672.395.175.926.287 1.593.337l-.778 4.597zm3-10.055c0-1.744.266-3.27.797-4.58.53-1.307 1.228-2.398 2.093-3.27a8.7 8.7 0 0 1 2.982-1.981 9.262 9.262 0 0 1 3.463-.673c2.766 0 4.951.854 6.556 2.56 1.606 1.708 2.408 4.218 2.408 7.533 0 .324-.012.679-.037 1.065-.025.386-.05.729-.074 1.028h-12.52c.123 1.146.654 2.056 1.593 2.729.938.673 2.197 1.01 3.778 1.01a15.81 15.81 0 0 0 2.982-.281c.975-.187 1.772-.418 2.389-.692l.74 4.523a7.58 7.58 0 0 1-1.184.449c-.494.15-1.044.28-1.649.392a26.07 26.07 0 0 1-1.945.28c-.691.075-1.382.113-2.074.113-1.753 0-3.278-.262-4.575-.785-1.296-.523-2.37-1.24-3.222-2.15-.852-.91-1.482-1.987-1.89-3.233-.407-1.246-.61-2.592-.61-4.037zm12.965-2.13a5.796 5.796 0 0 0-.24-1.384 3.464 3.464 0 0 0-.63-1.196 3.358 3.358 0 0 0-1.075-.86c-.432-.224-.969-.336-1.611-.336-.617 0-1.148.106-1.593.318a3.294 3.294 0 0 0-1.111.84 3.772 3.772 0 0 0-.685 1.216c-.16.46-.278.928-.352 1.401h7.297zm17.04 7.924c.543 0 1.061-.013 1.555-.037a10.73 10.73 0 0 0 1.186-.113v-4.224c-.223-.05-.556-.1-1-.15a10.842 10.842 0 0 0-2.686.019c-.457.063-.858.181-1.204.356a2.071 2.071 0 0 0-.815.71c-.197.299-.296.673-.296 1.121 0 .873.29 1.477.87 1.813.58.337 1.377.505 2.39.505zm-.445-16.298c1.63 0 2.988.187 4.075.56 1.086.375 1.957.91 2.611 1.608.655.698 1.118 1.545 1.39 2.542.27.997.407 2.106.407 3.327v11.588c-.79.174-1.89.38-3.297.617-1.408.236-3.112.355-5.112.355-1.26 0-2.401-.112-3.426-.337-1.025-.224-1.908-.592-2.649-1.102a5.033 5.033 0 0 1-1.704-2c-.395-.823-.592-1.832-.592-3.028 0-1.146.228-2.118.685-2.916a5.3 5.3 0 0 1 1.833-1.906c.766-.474 1.643-.816 2.63-1.028a14.625 14.625 0 0 1 3.075-.318c.716 0 1.352.031 1.908.094a8.422 8.422 0 0 1 1.352.243v-.524c0-.947-.284-1.707-.852-2.28-.568-.573-1.556-.86-2.964-.86-.938 0-1.864.069-2.778.206-.914.137-1.704.33-2.37.58l-.704-4.486c.32-.1.722-.206 1.204-.318a21.054 21.054 0 0 1 1.574-.3 33.734 33.734 0 0 1 1.796-.223c.63-.063 1.266-.094 1.908-.094zm18.188 10.205c0 1.72.383 3.102 1.148 4.15.766 1.046 1.902 1.57 3.408 1.57.494 0 .95-.02 1.37-.057.42-.037.766-.08 1.038-.13V14.86c-.346-.225-.797-.412-1.352-.562a6.459 6.459 0 0 0-1.686-.224c-2.617 0-3.926 1.794-3.926 5.383zm12.483 9.345c-.494.15-1.062.293-1.704.43-.642.137-1.315.255-2.019.355-.704.1-1.42.18-2.148.243-.729.062-1.426.093-2.093.093-1.605 0-3.038-.236-4.297-.71-1.26-.473-2.321-1.152-3.186-2.037-.864-.885-1.525-1.956-1.981-3.215-.457-1.258-.686-2.672-.686-4.242 0-1.595.198-3.034.593-4.318.395-1.283.963-2.374 1.704-3.27a7.3 7.3 0 0 1 2.723-2.057c1.074-.473 2.302-.71 3.685-.71.766 0 1.451.075 2.056.224.605.15 1.216.362 1.834.636V1.327L107.31.43v28.372zm10.005.636h-3.444V10h3.444v19.438zm-1.74-22.952A2.2 2.2 0 0 1 114 5.869c-.432-.411-.648-.966-.648-1.663 0-.698.216-1.253.648-1.664a2.2 2.2 0 0 1 1.574-.617 2.2 2.2 0 0 1 1.575.617c.432.411.648.966.648 1.664 0 .697-.216 1.252-.648 1.663a2.2 2.2 0 0 1-1.575.617zm8.24 4.074c.79-.199 1.84-.41 3.148-.635 1.309-.224 2.815-.337 4.52-.337 1.53 0 2.802.219 3.815.655 1.012.436 1.82 1.046 2.426 1.831.605.785 1.03 1.726 1.278 2.823.247 1.096.37 2.305.37 3.625v10.916h-3.445V19.27c0-1.196-.08-2.218-.24-3.065-.161-.847-.426-1.533-.797-2.056a3.155 3.155 0 0 0-1.482-1.14c-.617-.237-1.383-.355-2.296-.355-.37 0-.753.012-1.149.037-.395.025-.771.056-1.13.094-.357.037-.678.08-.962.13-.284.05-.488.088-.612.112v16.41h-3.445V10.56zM142.5 36.428a7.61 7.61 0 0 1-1.148-.112 5.868 5.868 0 0 1-1.185-.3l.444-2.84c.247.074.531.137.852.186.321.05.618.075.89.075 1.185 0 2.03-.367 2.537-1.103.506-.735.759-1.812.759-3.233V10h3.445v19.064c0 2.492-.562 4.342-1.686 5.55-1.123 1.21-2.76 1.814-4.908 1.814zm4.853-29.942a2.2 2.2 0 0 1-1.574-.617c-.433-.411-.649-.966-.649-1.663 0-.698.216-1.253.649-1.664a2.2 2.2 0 0 1 1.574-.617 2.2 2.2 0 0 1 1.574.617c.432.411.648.966.648 1.664 0 .697-.216 1.252-.648 1.663a2.2 2.2 0 0 1-1.574.617zm7.166 13.27c0-1.72.247-3.221.74-4.504.494-1.284 1.149-2.35 1.964-3.196a7.967 7.967 0 0 1 2.815-1.907 8.724 8.724 0 0 1 3.26-.635c2.593 0 4.58.816 5.964 2.448 1.382 1.632 2.074 4.118 2.074 7.458v.579c0 .237-.012.455-.037.654h-13.187c.148 2.019.728 3.551 1.74 4.598 1.013 1.047 2.594 1.57 4.742 1.57 1.21 0 2.229-.106 3.056-.318.827-.212 1.451-.417 1.87-.617l.482 2.916c-.42.224-1.154.461-2.204.71-1.05.25-2.24.374-3.574.374-1.68 0-3.13-.255-4.353-.766-1.222-.511-2.228-1.215-3.019-2.112-.79-.897-1.376-1.963-1.76-3.196-.382-1.234-.573-2.586-.573-4.056zm13.224-1.906c.025-1.57-.364-2.86-1.167-3.87-.803-1.009-1.908-1.513-3.315-1.513-.79 0-1.488.156-2.093.467a4.942 4.942 0 0 0-1.537 1.215 5.604 5.604 0 0 0-.982 1.72 8.549 8.549 0 0 0-.463 1.98h9.557zm17.5 12.036c-1.555 0-2.92-.25-4.093-.748s-2.16-1.196-2.963-2.093c-.803-.897-1.402-1.962-1.797-3.196-.395-1.233-.592-2.598-.592-4.093s.216-2.866.648-4.112c.432-1.246 1.043-2.324 1.833-3.233.79-.91 1.76-1.62 2.908-2.131 1.149-.51 2.427-.766 3.834-.766.864 0 1.729.074 2.593.224.864.15 1.692.386 2.482.71l-.778 2.953a8.235 8.235 0 0 0-1.797-.598 10.06 10.06 0 0 0-2.166-.224c-1.927 0-3.402.61-4.427 1.832-1.025 1.22-1.537 3.002-1.537 5.345 0 1.047.117 2.006.352 2.878.234.872.605 1.62 1.11 2.243a4.96 4.96 0 0 0 1.946 1.44c.79.336 1.753.504 2.889.504.914 0 1.74-.087 2.482-.262.74-.174 1.32-.361 1.74-.56l.482 2.915c-.197.125-.481.243-.852.355-.37.112-.79.212-1.26.3-.468.087-.968.161-1.5.224-.53.062-1.043.093-1.537.093zM197.891 10h7.298v2.915h-7.298v8.972c0 .972.075 1.775.223 2.41.148.636.37 1.135.666 1.496.297.361.667.617 1.112.766.444.15.963.224 1.555.224 1.038 0 1.871-.118 2.5-.355.63-.236 1.069-.405 1.316-.504l.667 2.878c-.346.174-.951.393-1.815.654-.865.262-1.853.393-2.964.393-1.309 0-2.39-.169-3.241-.505-.852-.336-1.537-.841-2.056-1.514-.518-.673-.883-1.501-1.093-2.486-.21-.984-.314-2.124-.314-3.42V4.58l3.444-.599V10zm15.686 19.438h-3.445V10h3.445v19.438zm-1.741-22.952a2.2 2.2 0 0 1-1.574-.617c-.432-.411-.649-.966-.649-1.663 0-.698.217-1.253.649-1.664a2.2 2.2 0 0 1 1.574-.617 2.2 2.2 0 0 1 1.574.617c.432.411.648.966.648 1.664 0 .697-.216 1.252-.648 1.663a2.2 2.2 0 0 1-1.574.617zm25.242 13.233c0 1.545-.222 2.94-.666 4.186-.445 1.246-1.068 2.318-1.871 3.215a8.23 8.23 0 0 1-2.87 2.075c-1.112.485-2.322.728-3.63.728-1.31 0-2.52-.243-3.631-.728a8.23 8.23 0 0 1-2.87-2.075c-.803-.897-1.427-1.969-1.871-3.215-.445-1.246-.667-2.641-.667-4.186 0-1.52.222-2.91.667-4.168.444-1.259 1.068-2.337 1.87-3.234a8.23 8.23 0 0 1 2.87-2.074c1.112-.486 2.322-.73 3.631-.73 1.309 0 2.519.244 3.63.73a8.23 8.23 0 0 1 2.871 2.074c.803.897 1.426 1.975 1.87 3.234.445 1.258.667 2.647.667 4.168zm-3.593 0c0-2.193-.487-3.932-1.463-5.215-.975-1.283-2.303-1.925-3.982-1.925-1.68 0-3.007.642-3.982 1.925-.975 1.283-1.463 3.022-1.463 5.215s.488 3.93 1.463 5.214c.975 1.284 2.303 1.925 3.982 1.925 1.68 0 3.007-.641 3.982-1.925.976-1.283 1.463-3.021 1.463-5.214zm9.018-9.159c.79-.199 1.84-.41 3.149-.635 1.309-.224 2.815-.337 4.519-.337 1.531 0 2.803.219 3.815.655 1.013.436 1.822 1.046 2.427 1.831.605.785 1.03 1.726 1.278 2.823.246 1.096.37 2.305.37 3.625v10.916h-3.445V19.27c0-1.196-.08-2.218-.24-3.065-.161-.847-.427-1.533-.797-2.056a3.155 3.155 0 0 0-1.482-1.14c-.617-.237-1.383-.355-2.296-.355-.37 0-.754.012-1.149.037-.395.025-.772.056-1.13.094-.358.037-.679.08-.963.13-.284.05-.487.088-.61.112v16.41h-3.446V10.56z" fill="#575757"/></g></svg>