<svg xmlns="http://www.w3.org/2000/svg" width="172" height="32" fill="none"><path fill="url(#a)" fill-rule="evenodd" d="M37.358 7.258a.382.382 0 0 0 .016.527l17.84 17.841a.382.382 0 0 0 .528.016A12.98 12.98 0 0 0 60 16.014C60 8.827 54.173 3 46.986 3a12.98 12.98 0 0 0-9.628 4.258zm-2.23 3.386a.383.383 0 0 0 .08.429l16.72 16.72a.383.383 0 0 0 .428.08c.386-.176.762-.37 1.127-.58a.38.38 0 0 0 .073-.598L36.306 9.444a.38.38 0 0 0-.599.073c-.21.365-.404.74-.58 1.127zm-1.015 4.787a.384.384 0 0 1-.112-.296c.034-.518.1-1.027.192-1.526a.374.374 0 0 1 .637-.187L49.578 28.17a.374.374 0 0 1-.187.637c-.5.093-1.008.158-1.526.192a.384.384 0 0 1-.297-.112L34.114 15.43zm.906 3.632c-.27-.268-.703-.037-.605.33a13.039 13.039 0 0 0 9.193 9.192c.367.099.599-.335.33-.604l-8.918-8.918zm51.412-8.901c.933 0 1.69-.76 1.69-1.695 0-.937-.757-1.696-1.69-1.696-.932 0-1.688.76-1.688 1.696 0 .936.756 1.695 1.688 1.695zM71.965 24.945V6.773h3.001v15.515h8.093v2.659H71.965zm21.363-7.415v7.415h-2.904v-12.88h2.867v2.208l.037-.024a4.033 4.033 0 0 1 1.41-1.732c.647-.472 1.474-.707 2.478-.707.892 0 1.702.199 2.43.597.73.39 1.313.964 1.75 1.72.438.756.657 1.683.657 2.78v8.038h-2.905V17.31c0-.975-.259-1.715-.777-2.22-.51-.512-1.195-.768-2.054-.768a3.31 3.31 0 0 0-1.507.342 2.54 2.54 0 0 0-1.081 1.049c-.268.471-.401 1.077-.401 1.817zm26.297 7.196c.664.285 1.426.427 2.284.427.705 0 1.308-.09 1.811-.268.502-.188.915-.436 1.239-.745.332-.309.596-.646.79-1.012h.049v1.817h2.783v-8.867c0-.626-.122-1.199-.365-1.72a3.864 3.864 0 0 0-1.057-1.353c-.454-.382-1.005-.675-1.653-.878-.648-.212-1.377-.317-2.187-.317-1.11 0-2.07.19-2.88.573-.802.374-1.43.878-1.884 1.512a3.97 3.97 0 0 0-.741 2.147h2.807c.032-.374.162-.708.389-1 .227-.293.535-.52.924-.683.388-.171.838-.256 1.348-.256.511 0 .944.085 1.301.256.364.17.644.402.838.695.195.293.292.634.292 1.024v.098c0 .293-.102.508-.304.647-.195.138-.527.24-.996.304a70.17 70.17 0 0 1-1.896.232c-.656.073-1.288.183-1.896.33a5.834 5.834 0 0 0-1.628.646 3.18 3.18 0 0 0-1.118 1.134c-.276.472-.413 1.078-.413 1.817 0 .854.194 1.57.583 2.147.389.57.915 1 1.58 1.293zm4.703-2.159c-.47.252-1.05.378-1.738.378-.697 0-1.252-.146-1.665-.439-.413-.3-.62-.711-.62-1.232 0-.406.114-.736.34-.988a2.43 2.43 0 0 1 .924-.597 5.326 5.326 0 0 1 1.239-.305c.324-.049.64-.098.948-.147l.863-.158c.267-.057.494-.114.681-.17a1.46 1.46 0 0 0 .425-.184v1.44c0 .504-.118.967-.353 1.39-.226.415-.575.752-1.044 1.012zm6.786 2.378v-12.88h2.795v2.123h.037c.235-.732.603-1.289 1.106-1.671.51-.39 1.178-.585 2.005-.585.202 0 .385.008.546.024.171.008.312.016.426.024v2.623a10.555 10.555 0 0 0-1.41-.098c-.478 0-.915.11-1.312.33-.397.219-.713.556-.948 1.012-.227.447-.34 1.012-.34 1.695v7.403h-2.905zm-46.14 0v-12.88h2.903v12.88h-2.904zm21.909-.573c.932.578 2.038.866 3.318.866.988 0 1.887-.179 2.697-.537a5.706 5.706 0 0 0 2.042-1.5 4.79 4.79 0 0 0 1.057-2.22h-2.734c-.122.383-.32.72-.596 1.013a2.776 2.776 0 0 1-1.008.67c-.405.163-.875.245-1.41.245-.721 0-1.34-.163-1.859-.488a3.118 3.118 0 0 1-1.166-1.354c-.243-.531-.376-1.133-.398-1.805h9.341v-.78c0-.993-.146-1.895-.437-2.708a6.26 6.26 0 0 0-1.24-2.123 5.418 5.418 0 0 0-1.932-1.39c-.745-.325-1.575-.488-2.491-.488-1.191 0-2.244.289-3.159.866-.916.577-1.633 1.374-2.151 2.39-.519 1.017-.778 2.18-.778 3.489 0 1.3.251 2.46.753 3.476a5.765 5.765 0 0 0 2.151 2.378zm6.113-8.525a2.975 2.975 0 0 0-1.143-1.28c-.494-.302-1.077-.452-1.75-.452-.664 0-1.243.15-1.737.451a3.082 3.082 0 0 0-1.142 1.28 3.997 3.997 0 0 0-.373 1.367h6.517a4.009 4.009 0 0 0-.372-1.366z" clip-rule="evenodd"/><defs><linearGradient id="a" x1="86.014" x2="86.014" y1="3" y2="29" gradientUnits="userSpaceOnUse"><stop stop-color="#fff" stop-opacity=".8"/><stop offset="1" stop-color="#fff" stop-opacity=".4"/></linearGradient></defs></svg>