<svg width="72" height="72" viewBox="0 0 72 72" fill="none" xmlns="http://www.w3.org/2000/svg">
<path d="M55.6554 31.4999L53.9061 29.7505L54.1237 29.5329C55.0396 28.6171 55.0399 27.1345 54.1237 26.2185C52.9385 25.0333 48.4408 20.5355 46.4065 18.5013L46.906 18.0018C47.3636 17.5442 47.3636 16.8023 46.906 16.3446C46.4485 15.8871 45.7065 15.8871 45.2489 16.3446C43.9894 17.6041 17.636 43.9575 16.3445 45.249C15.6041 45.9893 16.1387 47.2493 17.1731 47.2493C17.473 47.2493 17.7729 47.1348 18.0016 46.906L18.5011 46.4065L26.2184 54.1238C27.132 55.0374 28.619 55.0376 29.5326 54.1238L29.7504 53.906L31.4998 55.6555C31.7286 55.8843 32.0285 55.9987 32.3283 55.9987C33.3629 55.9987 33.8973 54.7386 33.1569 53.9984L31.4074 52.249L33.5 50.1564L35.1713 51.8277C35.4001 52.0565 35.7001 52.1709 35.9999 52.1709C37.0344 52.1709 37.5688 50.9108 36.8284 50.1706L35.1571 48.4993L40.9995 42.6569L42.6707 44.3282C42.8995 44.5571 43.1994 44.6715 43.4992 44.6715C44.5338 44.6715 45.0682 43.4114 44.3278 42.6712L42.6565 40.9999L44.7491 38.9073L46.4204 40.5786C46.6492 40.8074 46.9491 40.9218 47.2489 40.9218C48.2834 40.9218 48.8179 39.6618 48.0774 38.9215L46.4062 37.2502L48.4988 35.1576L50.17 36.8289C50.3988 37.0577 50.6987 37.1722 50.9986 37.1722C52.0331 37.1722 52.5675 35.9121 51.8271 35.1718L50.1559 33.5005L52.2485 31.4079L53.9978 33.1573C54.2266 33.3862 54.5265 33.5006 54.8264 33.5006C55.8614 33.5004 56.3959 32.2403 55.6554 31.4999ZM47.1545 22.5636L43.812 25.9061L41.4069 23.501L44.7494 20.1585L47.1545 22.5636ZM34.1252 30.7828L36.5302 33.1879L33.1876 36.5304L30.7826 34.1253C31.9519 32.9561 32.9559 31.9519 34.1252 30.7828ZM20.1583 44.7496L23.5009 41.4071L25.9059 43.8122L22.5634 47.1547L20.1583 44.7496ZM24.2206 48.8118L28.3916 44.6407C28.8493 44.1832 28.8493 43.4412 28.3916 42.9836L25.158 39.7499L29.1255 35.7824L32.3591 39.0161C32.8168 39.4738 33.5586 39.4737 34.0163 39.0161L39.0159 34.0164C39.4735 33.5589 39.4735 32.8169 39.0159 32.3593L35.7822 29.1256L39.7497 25.1581L42.9834 28.3918C43.441 28.8495 44.1829 28.8494 44.6405 28.3918L48.8117 24.2207L52.4667 27.8757L27.8756 52.4668L24.2206 48.8118Z" fill="white"/>
</svg>
