<svg width="72" height="72" viewBox="0 0 72 72" fill="none" xmlns="http://www.w3.org/2000/svg">
<path d="M55.6554 31.4995L53.9061 29.75L54.1237 29.5324C55.0396 28.6166 55.0399 27.134 54.1237 26.218C52.9385 25.0328 48.4408 20.535 46.4065 18.5008L46.906 18.0013C47.3636 17.5437 47.3636 16.8018 46.906 16.3441C46.4485 15.8866 45.7065 15.8866 45.2489 16.3441C43.9894 17.6036 17.636 43.957 16.3445 45.2485C15.6041 45.9888 16.1387 47.2488 17.1731 47.2488C17.473 47.2488 17.7729 47.1344 18.0016 46.9055L18.5011 46.406L26.2184 54.1234C27.132 55.0369 28.619 55.0371 29.5326 54.1233L29.7504 53.9056L31.4998 55.655C31.7286 55.8838 32.0285 55.9982 32.3283 55.9982C33.3629 55.9982 33.8973 54.7382 33.1569 53.9979L31.4074 52.2485L33.5 50.1559L35.1713 51.8272C35.4001 52.056 35.7001 52.1704 35.9999 52.1704C37.0344 52.1704 37.5688 50.9104 36.8284 50.1701L35.1571 48.4988L40.9995 42.6565L42.6707 44.3277C42.8995 44.5566 43.1994 44.671 43.4992 44.671C44.5338 44.671 45.0682 43.4109 44.3278 42.6707L42.6565 40.9994L44.7491 38.9068L46.4204 40.5781C46.6492 40.8069 46.9491 40.9213 47.2489 40.9213C48.2834 40.9213 48.8179 39.6613 48.0774 38.921L46.4062 37.2497L48.4988 35.1571L50.17 36.8284C50.3988 37.0572 50.6987 37.1717 50.9986 37.1717C52.0331 37.1717 52.5675 35.9116 51.8271 35.1713L50.1559 33.5L52.2485 31.4074L53.9978 33.1569C54.2266 33.3857 54.5265 33.5001 54.8264 33.5001C55.8614 33.4999 56.3959 32.2398 55.6554 31.4995ZM47.1545 22.5631L43.812 25.9056L41.4069 23.5005L44.7494 20.158L47.1545 22.5631ZM34.1252 30.7823L36.5302 33.1874L33.1876 36.5299L30.7826 34.1248C31.9519 32.9556 32.9559 31.9515 34.1252 30.7823ZM20.1583 44.7491L23.5009 41.4066L25.9059 43.8117L22.5634 47.1542L20.1583 44.7491ZM24.2206 48.8114L28.3916 44.6402C28.8493 44.1827 28.8493 43.4407 28.3916 42.9831L25.158 39.7494L29.1255 35.7819L32.3591 39.0156C32.8168 39.4733 33.5586 39.4732 34.0163 39.0156L39.0159 34.0159C39.4735 33.5584 39.4735 32.8164 39.0159 32.3588L35.7822 29.1251L39.7497 25.1576L42.9834 28.3913C43.441 28.849 44.1829 28.8489 44.6405 28.3913L48.8117 24.2202L52.4667 27.8752L27.8756 52.4664L24.2206 48.8114Z" fill="#262626"/>
</svg>
