<svg width="26" height="27" viewBox="0 0 26 27" fill="none" xmlns="http://www.w3.org/2000/svg">
<path fill-rule="evenodd" clip-rule="evenodd" d="M0 5.13636C0 2.57577 2.07577 0.5 4.63636 0.5H6.61111V3.5H4.63636C3.73262 3.5 3 4.23262 3 5.13636V7.11111H0V5.13636Z" fill="#9D2AF7"/>
<path fill-rule="evenodd" clip-rule="evenodd" d="M0 21.8636C0 24.4242 2.07577 26.5 4.63636 26.5H6.61111V23.5H4.63636C3.73262 23.5 3 22.7674 3 21.8636V19.8889H0V21.8636Z" fill="#9D2AF7"/>
<path fill-rule="evenodd" clip-rule="evenodd" d="M26 5.13636C26 2.57577 23.9242 0.5 21.3636 0.5H19.3889V3.5H21.3636C22.2674 3.5 23 4.23262 23 5.13636V7.11111H26V5.13636Z" fill="#9D2AF7"/>
<path fill-rule="evenodd" clip-rule="evenodd" d="M26 21.8636C26 24.4242 23.9242 26.5 21.3636 26.5H19.3889V23.5H21.3636C22.2674 23.5 23 22.7674 23 21.8636V19.8889H26V21.8636Z" fill="#9D2AF7"/>
</svg>
