<svg width="72" height="72" viewBox="0 0 72 72" fill="none" xmlns="http://www.w3.org/2000/svg">
<path d="M49.3286 23.4527C46.5897 20.7136 45.0381 19.0839 42.2973 16.3433C42.0777 16.1234 41.7796 16 41.4688 16C38.9467 16 25.1478 16 23.5 16C22.8528 16 22.3281 16.5247 22.3281 17.1719V29.75C22.3281 30.3972 22.8528 30.9219 23.5 30.9219H24.8281V38.5781H23.5C22.8528 38.5781 22.3281 39.1028 22.3281 39.75V53.6562C22.3281 54.9486 23.3795 56 24.6719 56H47.3281C48.6205 56 49.6719 54.9486 49.6719 53.6562C49.6719 52.5137 49.6719 25.3345 49.6719 24.2812C49.6719 23.9704 49.5484 23.6723 49.3286 23.4527ZM34.6719 18.3438H37.3281V23.5781H34.6719V18.3438ZM32.3281 23.5781H29.6719V18.3438H32.3281V23.5781ZM24.6719 18.3438H27.3281V23.5781H24.6719V18.3438ZM26 40.9219C26.6472 40.9219 27.1719 40.3972 27.1719 39.75V29.75C27.1719 29.1028 26.6472 28.5781 26 28.5781H24.6719V25.9219H38.5C39.1472 25.9219 39.6719 25.3972 39.6719 24.75V18.3438H40.9829C43.3956 20.7624 44.9037 22.3359 47.3281 24.7662V48.5781H24.6719V40.9219H26ZM47.3281 53.6562H24.6719V50.9219H47.3281V53.6562Z" fill="#262626"/>
</svg>
