<svg width="73" height="72" viewBox="0 0 73 72" fill="none" xmlns="http://www.w3.org/2000/svg">
<path d="M36.1772 19.475C36.1789 19.4581 36.1814 19.4467 36.1834 19.4397C36.1838 19.4396 36.1841 19.4395 36.1845 19.4393C36.1936 19.4363 36.2069 19.4336 36.223 19.4336C36.239 19.4336 36.2523 19.4363 36.2614 19.4393C36.2618 19.4395 36.2621 19.4396 36.2625 19.4397C36.2645 19.4467 36.267 19.4581 36.2688 19.475C36.4886 21.6331 39.4745 22.0103 40.2242 19.9746C40.2301 19.9587 40.2354 19.9483 40.239 19.9421C40.2394 19.942 40.2398 19.942 40.2402 19.942C40.2497 19.9413 40.2633 19.942 40.2789 19.946C40.2944 19.95 40.3067 19.9559 40.3147 19.9611C40.315 19.9613 40.3153 19.9615 40.3156 19.9617C40.3158 19.969 40.3155 19.9806 40.3129 19.9974C39.9892 22.1424 42.7875 23.2504 44.0199 21.4651C44.0295 21.4511 44.0372 21.4424 44.0423 21.4372C44.0427 21.4373 44.0431 21.4374 44.0435 21.4374C44.0529 21.4391 44.0659 21.4432 44.0799 21.4509C44.0939 21.4586 44.1044 21.4674 44.1108 21.4745C44.1111 21.4748 44.1113 21.4751 44.1116 21.4753C44.11 21.4824 44.1067 21.4936 44.1001 21.5092C43.2531 23.5063 45.688 25.2753 47.3256 23.8527C47.3384 23.8415 47.348 23.835 47.3543 23.8313C47.3546 23.8314 47.355 23.8316 47.3553 23.8317C47.364 23.8357 47.3756 23.8429 47.3873 23.8539C47.399 23.8648 47.4069 23.8759 47.4114 23.8844C47.4115 23.8847 47.4117 23.8851 47.4119 23.8854C47.4086 23.8918 47.4027 23.9019 47.3923 23.9154C46.0753 25.6391 47.9937 27.958 49.9337 26.9873C49.9489 26.9797 49.9598 26.9758 49.9668 26.9737C49.9671 26.974 49.9674 26.9742 49.9677 26.9745C49.9751 26.9804 49.9846 26.9903 49.9932 27.0038C50.0017 27.0173 50.0066 27.0301 50.0089 27.0394C50.009 27.0397 50.0091 27.0401 50.0092 27.0405C50.0044 27.0459 49.9961 27.0541 49.9828 27.0647C48.2784 28.4067 49.5599 31.1299 51.6803 30.6721C51.6969 30.6685 51.7085 30.6674 51.7158 30.6672C51.716 30.6675 51.7162 30.6678 51.7165 30.6681C51.7222 30.6758 51.7289 30.6876 51.7338 30.7029C51.7387 30.7181 51.7403 30.7317 51.7402 30.7412C51.7402 30.7416 51.7402 30.742 51.7402 30.7424C51.7342 30.7464 51.7241 30.7524 51.7086 30.7592C49.724 31.6352 50.288 34.5915 52.4557 34.6755C52.4726 34.6761 52.4842 34.678 52.4912 34.6795C52.4914 34.6799 52.4915 34.6802 52.4917 34.6806C52.4953 34.6894 52.4988 34.7026 52.4998 34.7186C52.5008 34.7346 52.499 34.7481 52.4965 34.7573C52.4964 34.7577 52.4963 34.7581 52.4962 34.7584C52.4894 34.7609 52.4782 34.7641 52.4614 34.7669C50.3214 35.1219 50.1324 38.1255 52.2111 38.7459C52.2273 38.7508 52.238 38.7554 52.2445 38.7587C52.2446 38.759 52.2446 38.7594 52.2447 38.7598C52.246 38.7693 52.2461 38.7829 52.2431 38.7987C52.2401 38.8144 52.235 38.827 52.2303 38.8353C52.2301 38.8357 52.2299 38.836 52.2297 38.8363C52.2225 38.837 52.2108 38.8374 52.1939 38.8359C50.0328 38.6475 49.1028 41.5098 50.9619 42.6277C50.9764 42.6364 50.9857 42.6436 50.9911 42.6483C50.9911 42.6487 50.991 42.6491 50.991 42.6495C50.9899 42.659 50.9867 42.6722 50.9798 42.6867C50.973 42.7012 50.9649 42.7122 50.9583 42.719C50.958 42.7193 50.9577 42.7196 50.9575 42.7199C50.9503 42.7187 50.9389 42.7162 50.9229 42.7105C48.8766 41.9906 47.2639 44.5317 48.7866 46.0768C48.7985 46.0889 48.8057 46.0981 48.8098 46.1041C48.8097 46.1044 48.8095 46.1048 48.8094 46.1052C48.806 46.1141 48.7995 46.1261 48.7893 46.1384C48.7791 46.1508 48.7685 46.1594 48.7604 46.1644C48.76 46.1646 48.7597 46.1648 48.7594 46.165C48.7527 46.1621 48.7424 46.1568 48.7282 46.1474C46.9252 44.9411 44.7313 47.0014 45.8219 48.8766C45.8305 48.8913 45.8351 48.902 45.8376 48.9088C45.8373 48.9091 45.8371 48.9094 45.8369 48.9097C45.8314 48.9175 45.8221 48.9276 45.8092 48.937C45.7962 48.9464 45.7838 48.9521 45.7747 48.9549C45.7743 48.955 45.774 48.9551 45.7736 48.9552C45.7679 48.9508 45.7591 48.9431 45.7478 48.9304C44.3014 47.3137 41.6641 48.7636 42.2541 50.8511C42.2587 50.8674 42.2605 50.879 42.2612 50.8862C42.2609 50.8864 42.2606 50.8867 42.2603 50.8869C42.2531 50.8931 42.2416 50.9005 42.2267 50.9064C42.2118 50.9123 42.1984 50.9148 42.1889 50.9152C42.1885 50.9153 42.1881 50.9153 42.1877 50.9153C42.1833 50.9096 42.1767 50.8999 42.1689 50.8848C41.17 48.9592 38.2549 49.7077 38.3073 51.8763C38.3077 51.8933 38.3066 51.9049 38.3055 51.9121C38.3051 51.9122 38.3048 51.9124 38.3044 51.9126C38.2958 51.9168 38.2829 51.9211 38.267 51.9231C38.2511 51.9251 38.2375 51.9241 38.2282 51.9222C38.2278 51.9221 38.2274 51.9221 38.2271 51.922C38.2242 51.9153 38.2202 51.9043 38.2164 51.8878C37.7278 49.7743 34.7181 49.7743 34.2295 51.8878C34.2257 51.9043 34.2217 51.9153 34.2189 51.922C34.2185 51.9221 34.2181 51.9221 34.2177 51.9222C34.2084 51.9241 34.1948 51.9251 34.1789 51.9231C34.163 51.9211 34.1501 51.9168 34.1415 51.9126C34.1411 51.9124 34.1408 51.9123 34.1405 51.9121C34.1393 51.9049 34.1382 51.8933 34.1386 51.8763C34.191 49.7077 31.2759 48.9592 30.277 50.8848C30.2692 50.8999 30.2626 50.9095 30.2582 50.9153C30.2578 50.9153 30.2574 50.9153 30.257 50.9152C30.2475 50.9148 30.2341 50.9123 30.2192 50.9064C30.2043 50.9005 30.1929 50.8931 30.1856 50.8869C30.1853 50.8867 30.185 50.8864 30.1847 50.8862C30.1854 50.879 30.1872 50.8674 30.1918 50.8511C30.7819 48.7636 28.1445 47.3137 26.6981 48.9304C26.6868 48.9431 26.678 48.9508 26.6723 48.9552C26.672 48.9551 26.6716 48.955 26.6712 48.9549C26.6621 48.9521 26.6497 48.9464 26.6367 48.937C26.6238 48.9276 26.6145 48.9175 26.609 48.9097C26.6088 48.9094 26.6086 48.9091 26.6084 48.9088C26.6108 48.902 26.6155 48.8913 26.624 48.8766C27.7146 47.0014 25.5207 44.9411 23.7177 46.1474C23.7036 46.1568 23.6932 46.1621 23.6865 46.165C23.6862 46.1648 23.6859 46.1646 23.6855 46.1644C23.6774 46.1594 23.6668 46.1508 23.6566 46.1384C23.6464 46.1261 23.6399 46.1141 23.6365 46.1052C23.6364 46.1048 23.6363 46.1044 23.6361 46.1041C23.6402 46.0981 23.6474 46.0889 23.6593 46.0768C25.182 44.5317 23.5693 41.9906 21.523 42.7105C21.507 42.7162 21.4956 42.7187 21.4885 42.7199C21.4882 42.7196 21.4879 42.7193 21.4876 42.719C21.481 42.7122 21.4729 42.7012 21.4661 42.6867C21.4593 42.6722 21.456 42.659 21.4549 42.6495C21.4549 42.6491 21.4548 42.6487 21.4548 42.6483C21.4602 42.6436 21.4695 42.6364 21.484 42.6277C23.3431 41.5098 22.4131 38.6475 20.252 38.8359C20.2351 38.8374 20.2234 38.837 20.2162 38.8363C20.216 38.836 20.2158 38.8357 20.2156 38.8353C20.2109 38.827 20.2058 38.8144 20.2028 38.7987C20.1998 38.7829 20.1999 38.7693 20.2012 38.7598C20.2013 38.7594 20.2013 38.7591 20.2014 38.7587C20.2079 38.7554 20.2186 38.7508 20.2348 38.7459C22.3135 38.1255 22.1245 35.1219 19.9845 34.7669C19.9677 34.7641 19.9565 34.7609 19.9497 34.7584C19.9496 34.7581 19.9495 34.7577 19.9494 34.7573C19.9469 34.7481 19.9451 34.7346 19.9461 34.7186C19.9471 34.7026 19.9506 34.6894 19.9542 34.6806C19.9544 34.6802 19.9545 34.6799 19.9547 34.6795C19.9618 34.678 19.9733 34.6761 19.9902 34.6755C22.1579 34.5915 22.7219 31.6352 20.7373 30.7592C20.7218 30.7524 20.7117 30.7464 20.7057 30.7424C20.7057 30.742 20.7057 30.7416 20.7057 30.7412C20.7056 30.7317 20.7072 30.7181 20.7121 30.7029C20.7171 30.6876 20.7238 30.6758 20.7295 30.6681C20.7297 30.6678 20.7299 30.6675 20.7302 30.6672C20.7374 30.6674 20.749 30.6685 20.7656 30.6721C22.8861 31.1299 24.1675 28.4067 22.4632 27.0647C22.4498 27.0541 22.4416 27.0459 22.4368 27.0405C22.4368 27.0401 22.4369 27.0397 22.437 27.0394C22.4393 27.0301 22.4442 27.0173 22.4528 27.0038C22.4613 26.9903 22.4708 26.9804 22.4782 26.9745C22.4785 26.9742 22.4788 26.974 22.4791 26.9737C22.4861 26.9758 22.497 26.9797 22.5122 26.9873C24.4522 27.958 26.3706 25.6391 25.0536 23.9154C25.0433 23.9019 25.0373 23.8918 25.034 23.8854C25.0342 23.8851 25.0344 23.8847 25.0346 23.8844C25.0391 23.8759 25.047 23.8648 25.0586 23.8539C25.0703 23.8429 25.0819 23.8357 25.0906 23.8317C25.091 23.8316 25.0913 23.8314 25.0916 23.8313C25.0979 23.835 25.1075 23.8415 25.1203 23.8527C26.758 25.2753 29.1928 23.5063 28.3458 21.5092C28.3392 21.4936 28.3359 21.4824 28.3343 21.4753C28.3346 21.475 28.3348 21.4748 28.3351 21.4745C28.3415 21.4674 28.352 21.4586 28.366 21.4509C28.38 21.4432 28.3931 21.4391 28.4025 21.4374C28.4029 21.4374 28.4032 21.4373 28.4036 21.4372C28.4087 21.4424 28.4164 21.4511 28.4261 21.4651L29.249 20.897L28.4261 21.4651C29.6584 23.2503 32.4567 22.1424 32.133 19.9974L31.1442 20.1467L32.133 19.9974C32.1305 19.9806 32.1301 19.969 32.1303 19.9617C32.1306 19.9615 32.1309 19.9613 32.1313 19.9611C32.1393 19.9559 32.1516 19.95 32.1671 19.946C32.1826 19.942 32.1962 19.9413 32.2057 19.942C32.2061 19.942 32.2065 19.942 32.2069 19.9421C32.2105 19.9483 32.2158 19.9587 32.2217 19.9746C32.9714 22.0103 35.9573 21.6331 36.1772 19.475ZM36.1864 19.4314C36.1864 19.4314 36.1863 19.4314 36.1863 19.4314C36.1865 19.4311 36.1866 19.4309 36.1866 19.4309C36.1866 19.4309 36.1865 19.4311 36.1864 19.4314ZM22.4313 27.0335C22.4313 27.0335 22.4313 27.0336 22.4313 27.0336C22.4311 27.0333 22.431 27.0331 22.431 27.0331C22.431 27.0331 22.4311 27.0332 22.4313 27.0335ZM25.0833 23.827C25.0833 23.827 25.0835 23.827 25.0838 23.8272C25.0838 23.8272 25.0838 23.8272 25.0838 23.8272C25.0835 23.8271 25.0833 23.827 25.0833 23.827ZM28.3966 21.431C28.3966 21.431 28.3967 21.4311 28.3971 21.4314C28.397 21.4313 28.397 21.4313 28.397 21.4313C28.3967 21.4311 28.3966 21.431 28.3966 21.431ZM32.2016 19.9343C32.2016 19.9343 32.2017 19.9344 32.202 19.9348C32.202 19.9347 32.202 19.9347 32.2019 19.9347C32.2017 19.9345 32.2016 19.9343 32.2016 19.9343Z" stroke="white" stroke-width="2"/>
<path d="M31.3267 35.6524L33.4054 37.9326C34.1987 38.8028 35.5682 38.8028 36.3614 37.9326L41.5227 32.271" stroke="white" stroke-width="2" stroke-linecap="round"/>
</svg>
