<svg width="72" height="72" viewBox="0 0 72 72" fill="none" xmlns="http://www.w3.org/2000/svg">
<path d="M54.8281 34.0469C55.4753 34.0469 56 33.5222 56 32.875C56 32.2278 55.4753 31.7031 54.8281 31.7031H49.6719V27.7969H54.8281C55.4753 27.7969 56 27.2722 56 26.625C56 25.9778 55.4753 25.4531 54.8281 25.4531H49.6719V24.6719C49.6719 23.3795 48.6205 22.3281 47.3281 22.3281H46.5469V17.1719C46.5469 16.5247 46.0222 16 45.375 16C44.7278 16 44.2031 16.5247 44.2031 17.1719V22.3281H40.2969V17.1719C40.2969 16.5247 39.7722 16 39.125 16C38.4778 16 37.9531 16.5247 37.9531 17.1719V22.3281H34.0469V17.1719C34.0469 16.5247 33.5222 16 32.875 16C32.2278 16 31.7031 16.5247 31.7031 17.1719V22.3281H27.7969V17.1719C27.7969 16.5247 27.2722 16 26.625 16C25.9778 16 25.4531 16.5247 25.4531 17.1719V22.3281H24.6719C23.3795 22.3281 22.3281 23.3795 22.3281 24.6719V25.4531H17.1719C16.5247 25.4531 16 25.9778 16 26.625C16 27.2722 16.5247 27.7969 17.1719 27.7969H22.3281V31.7031H17.1719C16.5247 31.7031 16 32.2278 16 32.875C16 33.5222 16.5247 34.0469 17.1719 34.0469H22.3281V37.9531H17.1719C16.5247 37.9531 16 38.4778 16 39.125C16 39.7722 16.5247 40.2969 17.1719 40.2969H22.3281V44.2031H17.1719C16.5247 44.2031 16 44.7278 16 45.375C16 46.0222 16.5247 46.5469 17.1719 46.5469H22.3281V47.3281C22.3281 48.6205 23.3795 49.6719 24.6719 49.6719H25.4531V54.8281C25.4531 55.4753 25.9778 56 26.625 56C27.2722 56 27.7969 55.4753 27.7969 54.8281V49.6719H31.7031V54.8281C31.7031 55.4753 32.2278 56 32.875 56C33.5222 56 34.0469 55.4753 34.0469 54.8281V49.6719H37.9531V54.8281C37.9531 55.4753 38.4778 56 39.125 56C39.7722 56 40.2969 55.4753 40.2969 54.8281V49.6719H44.2031V54.8281C44.2031 55.4753 44.7278 56 45.375 56C46.0222 56 46.5469 55.4753 46.5469 54.8281V49.6719H47.3281C48.6205 49.6719 49.6719 48.6205 49.6719 47.3281V46.5469H54.8281C55.4753 46.5469 56 46.0222 56 45.375C56 44.7278 55.4753 44.2031 54.8281 44.2031H49.6719V40.2969H54.8281C55.4753 40.2969 56 39.7722 56 39.125C56 38.4778 55.4753 37.9531 54.8281 37.9531H49.6719V34.0469H54.8281ZM47.3281 47.3281H24.6719V24.6719H47.3281C47.3297 47.9577 47.3359 47.3281 47.3281 47.3281Z" fill="#262626"/>
<path d="M40.7348 28.9214C40.5151 28.7016 40.217 28.5781 39.9062 28.5781H32.0938C31.783 28.5781 31.4849 28.7016 31.2652 28.9214L28.9214 31.2652C28.7016 31.4849 28.5781 31.783 28.5781 32.0938V39.9062C28.5781 40.217 28.7016 40.5151 28.9214 40.7348L31.2652 43.0786C31.4849 43.2984 31.783 43.4219 32.0938 43.4219H39.9062C40.217 43.4219 40.5151 43.2984 40.7348 43.0786L43.0786 40.7348C43.2984 40.5151 43.4219 40.217 43.4219 39.9062V32.0938C43.4219 31.783 43.2984 31.4849 43.0786 31.2652L40.7348 28.9214ZM41.0781 39.4209L39.4209 41.0781H32.5792L30.9219 39.4209V32.5792L32.5791 30.9219H39.4208L41.0781 32.5791V39.4209Z" fill="#262626"/>
</svg>
