<svg width="72" height="72" viewBox="0 0 72 72" fill="none" xmlns="http://www.w3.org/2000/svg">
<path d="M50.8781 36.1254C50.5242 31.4348 47.9714 27.1738 43.9898 24.6462C44.198 22.9475 43.1937 21.2763 41.497 20.7125C37.9522 19.5347 34.0477 19.5346 30.503 20.7125C28.8092 21.2754 27.802 22.9445 28.0104 24.6461C24.0287 27.1737 21.4759 31.4348 21.122 36.1254C18.2381 36.4894 16 38.9557 16 41.9368V46.3118C16 49.5426 18.6285 52.1711 21.8594 52.1711H24.6719C25.3191 52.1711 25.8438 51.6464 25.8438 50.9993V37.2493C25.8438 36.6021 25.3191 36.0774 24.6719 36.0774H23.4779C23.8309 32.3025 25.8748 28.8794 29.038 26.7741C30.0033 27.752 31.4702 28.1298 32.833 27.6786C34.8753 27.0031 37.1248 27.003 39.1671 27.6787C40.532 28.1301 41.9978 27.7502 42.9616 26.7738C46.1251 28.8791 48.1691 32.3023 48.5222 36.0774H47.3281C46.6809 36.0774 46.1562 36.6021 46.1562 37.2493V50.9993C46.1562 51.6464 46.6809 52.1711 47.3281 52.1711H50.1406C53.3715 52.1711 56 49.5426 56 46.3118V41.9368C56 38.9557 53.7619 36.4894 50.8781 36.1254ZM23.5 44.8274H22.1719C21.5247 44.8274 21 45.3521 21 45.9993C21 46.6464 21.5247 47.1711 22.1719 47.1711H23.5V49.8274H21.8594C19.9209 49.8274 18.3438 48.2503 18.3438 46.3118V41.9368C18.3438 39.9982 19.9209 38.4211 21.8594 38.4211H23.5V44.8274ZM39.9033 25.4536C37.3862 24.6206 34.6136 24.6206 32.0966 25.4536C31.4763 25.6588 30.8018 25.4016 30.4929 24.8418C30.0988 24.1276 30.4336 23.2054 31.242 22.9366C34.3095 21.9174 37.6892 21.9171 40.7579 22.9366C41.5364 23.1954 41.9164 24.1 41.507 24.8418C41.1982 25.4016 40.5237 25.6586 39.9033 25.4536ZM53.6562 46.3118C53.6562 48.2503 52.0791 49.8274 50.1406 49.8274H48.5V47.1711H49.8281C50.4753 47.1711 51 46.6464 51 45.9993C51 45.3521 50.4753 44.8274 49.8281 44.8274H48.5V38.4211H50.1406C52.0791 38.4211 53.6562 39.9982 53.6562 41.9368V46.3118Z" fill="#262626"/>
</svg>
