<svg width="72" height="72" viewBox="0 0 72 72" fill="none" xmlns="http://www.w3.org/2000/svg">
<path d="M53.6562 17.9531H18.3438C17.0514 17.9531 16 19.0045 16 20.2969V43.5781C16 44.8705 17.0514 45.9219 18.3438 45.9219H29.8281V51.7031H23.5C22.8528 51.7031 22.3281 52.2278 22.3281 52.875C22.3281 53.5222 22.8528 54.0469 23.5 54.0469H48.5C49.1472 54.0469 49.6719 53.5222 49.6719 52.875C49.6719 52.2278 49.1472 51.7031 48.5 51.7031H42.1719V45.9219H53.6562C54.9486 45.9219 56 44.8705 56 43.5781V20.2969C56 19.0045 54.9486 17.9531 53.6562 17.9531ZM39.8281 51.7031H32.1719V45.9219H39.8281V51.7031ZM53.6562 43.5781C52.6284 43.5781 19.1675 43.5781 18.3438 43.5781V20.2969H53.6562C53.6577 44.0837 53.6641 43.5781 53.6562 43.5781Z" fill="#262626"/>
</svg>
