<svg width="72" height="72" viewBox="0 0 72 72" fill="none" xmlns="http://www.w3.org/2000/svg">
<path d="M31.6245 46.5223L31.9512 46.1933C33.9068 44.2231 37.0929 44.2231 39.0485 46.1933L39.3752 46.5223C40.3139 47.4681 41.5913 48 42.9238 48H51.6955C54.4569 48 56.6955 45.7614 56.6955 43V28C56.6955 25.2386 54.4569 23 51.6955 23H19.3042C16.5428 23 14.3042 25.2386 14.3042 28V43C14.3042 45.7614 16.5428 48 19.3042 48H28.0759C29.4084 48 30.6858 47.4681 31.6245 46.5223Z" stroke="#262626" stroke-width="2.5"/>
<circle cx="45.2824" cy="35.4997" r="3.80435" stroke="#262626" stroke-width="2.5"/>
<circle cx="25.7174" cy="35.4997" r="3.80435" stroke="#262626" stroke-width="2.5"/>
</svg>
