<svg xmlns="http://www.w3.org/2000/svg" width="172" height="32" fill="none"><path fill="url(#a)" fill-rule="evenodd" d="M44.015 27 55.269 5H44.837l-3.998 7.707h-.212V5h-7.132l-3.853 7.755-.212.001V5H20v9.43h8.39C25.285 17.696 20 18.008 20 18.008V27c8.26-.753 14.057-4.074 17.943-9.118h.211L33.444 27h10.57zm75.658-2.428h-3.037V7.139h3.037v17.433zm-19.78-.178a5.216 5.216 0 0 0 2.014.411c1.127 0 2.136-.274 3.026-.823a5.563 5.563 0 0 0 2.069-2.27c.49-.971.734-2.072.734-3.304 0-1.23-.252-2.332-.756-3.304-.504-.971-1.205-1.724-2.103-2.258-.897-.541-1.917-.809-3.059-.801-.727 0-1.424.14-2.091.423a4.428 4.428 0 0 0-1.77 1.321V7.15H94.91v17.422h3.026l-.007-1.628c.079.096.162.19.251.282a5.21 5.21 0 0 0 1.713 1.168zm3.115-2.815c-.496.304-1.064.456-1.702.456-.63 0-1.209-.156-1.735-.467a3.53 3.53 0 0 1-1.257-1.302c-.304-.549-.456-1.172-.456-1.869-.008-.697.14-1.32.445-1.869a3.34 3.34 0 0 1 1.257-1.29 3.287 3.287 0 0 1 1.746-.456c.638-.008 1.206.14 1.702.445.505.296.89.723 1.157 1.279.275.549.412 1.18.412 1.891 0 .712-.137 1.343-.412 1.892a3.046 3.046 0 0 1-1.157 1.29zM63.139 8.196h-3.47l4.816 16.375h3.026l3.344-10.855 3.643 10.856h2.992l4.695-16.376h-3.182l-2.981 11.112L72.44 8.196h-2.893l-3.303 11.339-3.105-11.34zM87.311 24.86c-1.209.007-2.3-.26-3.27-.801a6.014 6.014 0 0 1-2.281-2.28c-.55-.972-.824-2.081-.824-3.327 0-1.21.282-2.303.846-3.282a6.072 6.072 0 0 1 2.292-2.292c.964-.549 2.04-.823 3.226-.823 1.335 0 2.503.297 3.504.89a5.501 5.501 0 0 1 2.259 2.525c.504 1.083.686 2.326.545 3.727h-9.53c.027.559.166 1.067.418 1.524.282.505.675.898 1.18 1.18a3.407 3.407 0 0 0 1.69.422 3.853 3.853 0 0 0 1.325-.245 3.127 3.127 0 0 0 1.034-.656 2.3 2.3 0 0 0 .612-.934h3.182a5.176 5.176 0 0 1-1.157 2.28c-.579.66-1.306 1.176-2.18 1.547-.876.37-1.833.552-2.87.545zm-2.803-8.722c-.178.31-.301.643-.37 1.001h6.317a2.83 2.83 0 0 0-.418-1.235 2.707 2.707 0 0 0-1.09-1.012 3.264 3.264 0 0 0-1.558-.367 3.38 3.38 0 0 0-1.68.422 3.139 3.139 0 0 0-1.201 1.19zm26.143-6.475c-.453.771-.679 1.654-.679 2.648h-1.958v2.57h1.958v9.69h3.037v-9.69h2.359v-2.57h-2.357c.014-.468.11-.88.287-1.235.193-.386.468-.679.824-.879.363-.207.801-.315 1.312-.322V7.172c-1.097.015-2.058.241-2.881.679a4.666 4.666 0 0 0-1.902 1.813zm16.743 15.175c-1.238 0-2.347-.271-3.326-.813a6.017 6.017 0 0 1-2.292-2.27c-.549-.97-.823-2.072-.823-3.303 0-1.239.274-2.344.823-3.315a5.894 5.894 0 0 1 2.292-2.281c.979-.541 2.088-.812 3.326-.812 1.246 0 2.359.27 3.338.812a5.799 5.799 0 0 1 2.303 2.27c.548.971.827 2.08.834 3.326-.007 1.231-.286 2.332-.834 3.304a5.822 5.822 0 0 1-2.292 2.27c-.986.54-2.103.811-3.349.811zm0-2.793c.653 0 1.232-.148 1.736-.445a3.065 3.065 0 0 0 1.168-1.268c.274-.549.412-1.176.412-1.88 0-.712-.138-1.343-.412-1.891a2.978 2.978 0 0 0-1.168-1.269c-.504-.304-1.083-.456-1.736-.456-.645 0-1.22.152-1.724.456a3 3 0 0 0-1.157 1.269c-.274.548-.408 1.179-.4 1.89 0 .705.137 1.332.411 1.881a3.2 3.2 0 0 0 1.157 1.268c.497.297 1.068.445 1.713.445zm6.375-9.734h3.382l2.137 7.799 2.29-7.8h2.96l2.301 7.632 2.082-7.631h3.059l-3.671 12.26h-2.914l-2.6-7.83-2.407 7.83h-2.959l-3.66-12.26z" clip-rule="evenodd"/><defs><linearGradient id="a" x1="85.99" x2="85.99" y1="5" y2="27" gradientUnits="userSpaceOnUse"><stop stop-color="#fff" stop-opacity=".8"/><stop offset="1" stop-color="#fff" stop-opacity=".4"/></linearGradient></defs></svg>